<svg xmlns="http://www.w3.org/2000/svg" xmlns:xlink="http://www.w3.org/1999/xlink" version="1.1" x="0px" y="0px" viewBox="0 0 100 100" enable-background="new 0 0 100 100" xml:space="preserve"><g><path d="M64.213,26.876H36.069c-1.379,0-2.5-1.122-2.5-2.5v-4.997c0-1.378,1.121-2.5,2.5-2.5h6.165c0.827,0,1.5-0.673,1.5-1.5   v-3.967c0-1.378,1.121-2.5,2.5-2.5h7.744c1.379,0,2.5,1.122,2.5,2.5v3.967c0,0.827,0.673,1.5,1.5,1.5h6.234   c1.379,0,2.5,1.122,2.5,2.5v4.997C66.713,25.754,65.592,26.876,64.213,26.876z M36.069,17.879c-0.827,0-1.5,0.673-1.5,1.5v4.997   c0,0.827,0.673,1.5,1.5,1.5h28.144c0.827,0,1.5-0.673,1.5-1.5v-4.997c0-0.827-0.673-1.5-1.5-1.5h-6.234c-1.379,0-2.5-1.122-2.5-2.5   v-3.967c0-0.827-0.673-1.5-1.5-1.5h-7.744c-0.827,0-1.5,0.673-1.5,1.5v3.967c0,1.378-1.121,2.5-2.5,2.5H36.069z"></path><path d="M50.141,16.059c-1.017,0-1.844-0.827-1.844-1.844c0-1.017,0.827-1.844,1.844-1.844c1.018,0,1.845,0.827,1.845,1.844   C51.985,15.231,51.158,16.059,50.141,16.059z M50.141,13.371c-0.465,0-0.844,0.379-0.844,0.844s0.379,0.844,0.844,0.844   c0.466,0,0.845-0.378,0.845-0.844S50.606,13.371,50.141,13.371z"></path><path d="M71.719,77.69l-5.399,5.399V77.69H71.719 M74.133,76.69h-8.813v8.813L74.133,76.69L74.133,76.69z"></path><path d="M54.098,9.412c1.034,0,1.881,0.847,1.881,1.882v4.203c0,1.035,0.848,1.882,1.882,1.882h6.471   c1.034,0,1.882,0.847,1.882,1.882v0.934h10.673c1.553,0,2.823,1.271,2.823,2.823v63.792c0,1.553-1.271,2.823-2.823,2.823h-53.49   c-1.553,0-2.822-1.27-2.822-2.823V23.018c0-1.552,1.27-2.823,2.822-2.823h10.674v-0.934c0-1.035,0.847-1.882,1.882-1.882h6.401   c1.034,0,1.882-0.847,1.882-1.882v-4.203c0-1.035,0.847-1.882,1.881-1.882H54.098 M54.098,7.412h-7.982   c-2.14,0-3.881,1.741-3.881,3.882v4.085h-6.283c-1.771,0-3.269,1.192-3.733,2.816h-8.822c-2.659,0-4.822,2.164-4.822,4.823v63.792   c0,2.659,2.163,4.823,4.822,4.823h53.49c2.659,0,4.823-2.164,4.823-4.823V23.018c0-2.659-2.164-4.823-4.823-4.823h-8.821   c-0.465-1.624-1.963-2.816-3.733-2.816h-6.353v-4.085C57.979,9.153,56.237,7.412,54.098,7.412L54.098,7.412z"></path><polygon points="65.526,86.004 25.649,86.004 25.649,22.208 34.069,22.208 34.069,23.208 26.649,23.208 26.649,85.004    65.112,85.004 73.633,76.483 73.633,23.208 66.213,23.208 66.213,22.208 74.633,22.208 74.633,76.897  "></polygon><path d="M36.058,39.359h-5.704v-5.704h5.704V39.359z M31.354,38.359h3.704v-3.704h-3.704V38.359z"></path><rect x="38.303" y="36.007" width="28.851" height="1"></rect><path d="M36.058,47.004h-5.704v-5.705h5.704V47.004z M31.354,46.004h3.704v-3.705h-3.704V46.004z"></path><rect x="38.303" y="43.652" width="28.851" height="1"></rect><path d="M36.058,54.648h-5.704v-5.704h5.704V54.648z M31.354,53.648h3.704v-3.704h-3.704V53.648z"></path><rect x="38.303" y="51.296" width="28.851" height="1"></rect><path d="M36.058,62.292h-5.704v-5.704h5.704V62.292z M31.354,61.292h3.704v-3.704h-3.704V61.292z"></path><rect x="38.303" y="58.94" width="28.851" height="1"></rect><path d="M36.058,69.937h-5.704v-5.705h5.704V69.937z M31.354,68.937h3.704v-3.705h-3.704V68.937z"></path><rect x="38.303" y="66.584" width="28.851" height="1"></rect></g></svg>