<svg xmlns="http://www.w3.org/2000/svg" xmlns:xlink="http://www.w3.org/1999/xlink" xmlns:sketch="http://www.bohemiancoding.com/sketch/ns" viewBox="0 0 60 48" version="1.1" x="0px" y="0px"><title>266 - Albums (Solid)</title><desc>Created with Sketch.</desc><g stroke="none" stroke-width="1" fill="none" fill-rule="evenodd" sketch:type="MSPage"><g sketch:type="MSLayerGroup" fill="#000000"><path d="M5,4 L8,4 L8,44 L5,44 L5,4 Z" sketch:type="MSShapeGroup"></path><path d="M52,4 L55,4 L55,44 L52,44 L52,4 Z" sketch:type="MSShapeGroup"></path><path d="M57,8 L60,8 L60,40 L57,40 L57,8 Z" sketch:type="MSShapeGroup"></path><path d="M0,8 L3,8 L3,40 L0,40 L0,8 Z" sketch:type="MSShapeGroup"></path><path d="M10,48 L50,48 L50,0 L10,0 L10,48 Z M19.5,30 C21.246,30 22.831,30.642 24,31.68 L24,12 C24,11.508 24.358,11.089 24.844,11.013 L43.844,8.013 C44.134,7.966 44.427,8.05 44.649,8.24 C44.872,8.43 45,8.708 45,9 L45,30 C45,33.309 42.084,36 38.5,36 C34.916,36 32,33.309 32,30 C32,26.691 34.916,24 38.5,24 C40.246,24 41.831,24.642 43,25.68 L43,16.17 L26,18.854 L26,36.102 L25.992,36.139 C25.911,39.383 23.033,42 19.5,42 C15.916,42 13,39.309 13,36 C13,32.691 15.916,30 19.5,30 L19.5,30 Z" sketch:type="MSShapeGroup"></path></g></g></svg>