<svg xmlns="http://www.w3.org/2000/svg" xmlns:xlink="http://www.w3.org/1999/xlink" version="1.1" x="0px" y="0px" viewBox="0 0 100 100" enable-background="new 0 0 100 100" xml:space="preserve"><path d="M89.8,52.9V42.4c0-0.7-0.6-1.3-1.3-1.3H78.5L69.1,18c-0.5-1.2-1.6-2-2.9-2c-1.3,0-2.4,0.8-2.9,2l-5.1,12.6H11.3  c-0.7,0-1.3,0.6-1.3,1.3v11c0,0.7,0.6,1.3,1.3,1.3h14.2v7.2H11.3c-0.7,0-1.3,0.6-1.3,1.3v11.4c0,0.7,0.6,1.3,1.3,1.3h14.2V74  c0,0.7,0.6,1.3,1.3,1.3H61v4.6c0,2.8,2.3,5.2,5.2,5.2c2.8,0,5.2-2.3,5.2-5.2v-4.1h17.2c0.7,0,1.3-0.6,1.3-1.3V63.1  c0-0.7-0.6-1.3-1.3-1.3H74.4v-3.9h6.2c1.1,0,2-0.5,2.6-1.4c0.5-0.7,0.6-1.5,0.5-2.3h4.9C89.3,54.2,89.8,53.6,89.8,52.9z M87.3,43.6  v8h-4.6l-3.2-8H87.3z M49.4,52.3h-7.1H28V43h14.2h10.9L49.4,52.3z M41.6,62.8H27.4c-0.2-0.1-0.4-0.2-0.6-0.2H12.6v-8.9h14.2  c0.2,0,0.5-0.1,0.7-0.2h14.2V62.8z M27.5,41.7c-0.2-0.1-0.5-0.2-0.7-0.2H12.6v-8.4h29v8.7H27.5z M28,72.8v-8.7h14.2h14.8v8.7H28z   M61,69.4v3.3h-2.7v-8.7h6.6v0.3C62.7,65,61,67,61,69.4z M67.4,64.1h5c0.2,0.1,0.4,0.2,0.7,0.2h14.2v8.9h-16v-3.8  c0-2.4-1.7-4.4-3.9-5V64.1z M71.9,62.8h-4.4v-5h4.4V62.8z M64.9,62.8h-7.2H42.9v-9.3h6c-0.4,1-0.3,2.1,0.3,2.9  c0.6,0.9,1.6,1.4,2.6,1.4h13.1V62.8z M53.6,41.7H42.9v-8.7h14.3L53.6,41.7z M68.8,79.8c0,1.5-1.2,2.6-2.6,2.6  c-1.5,0-2.6-1.2-2.6-2.6V69.4c0-1.5,1.2-2.6,2.6-2.6c1.5,0,2.6,1.2,2.6,2.6V79.8z M81.1,55.1c-0.1,0.1-0.2,0.3-0.5,0.3H67.4V52  c0-0.7-0.6-1.3-1.3-1.3c-0.7,0-1.3,0.6-1.3,1.3v3.3H51.8c-0.3,0-0.5-0.2-0.5-0.3s-0.2-0.3-0.1-0.6l14.4-35.6  c0.1-0.4,0.5-0.4,0.6-0.4c0.1,0,0.4,0,0.6,0.4l9.7,23.9c0,0,0,0,0,0l4.3,10.5c0,0,0,0,0,0l0.4,1.1C81.3,54.8,81.2,55,81.1,55.1z"></path></svg>