<svg xmlns="http://www.w3.org/2000/svg" xmlns:xlink="http://www.w3.org/1999/xlink" version="1.1" x="0px" y="0px" viewBox="0 0 60 60" style="enable-background:new 0 0 60 60;" xml:space="preserve"><g><path d="M27.5,55c-9.944,0-19-3.813-19-8c0-1.816,2.457-4,4-4c0.552,0,1,0.448,1,1c0,0.551-0.446,0.999-0.997,1   c-0.527,0.035-2.003,1.309-2.003,2c0,2.061,6.621,6,17,6s17-3.939,17-6v-1c0-0.552,0.448-1,1-1s1,0.448,1,1v1   C46.5,51.188,37.443,55,27.5,55z"></path><path d="M27.5,60c-10.299,0-19-3.48-19-7.6V47c0-0.552,0.448-1,1-1s1,0.448,1,1v5.4c0,1.974,6.454,5.6,17,5.6s17-3.626,17-5.6V47   c0-0.552,0.448-1,1-1s1,0.448,1,1v5.4C46.5,56.52,37.799,60,27.5,60z"></path><path d="M30.5,45c-9.944,0-19-3.813-19-8c0-1.005,0.536-2.094,1.366-2.773l1.268,1.547C13.718,36.114,13.5,36.648,13.5,37   c0,2.061,6.621,6,17,6s17-3.939,17-6c0-0.402-0.636-1-2-1v-2c2.626,0,4,1.509,4,3C49.5,41.188,40.443,45,30.5,45z"></path><path d="M30.5,50c-10.299,0-19-3.48-19-7.6V37c0-0.552,0.448-1,1-1s1,0.448,1,1v5.4c0,1.974,6.454,5.6,17,5.6s17-3.626,17-5.6V37   c0-0.552,0.448-1,1-1s1,0.448,1,1v5.4C49.5,46.52,40.799,50,30.5,50z"></path><path d="M29.5,35c-9.944,0-19-3.813-19-8c0-1.727,2.516-4,4-4c0.552,0,1,0.448,1,1c0,0.55-0.444,0.996-0.993,1   c-0.595,0.063-2,1.461-2.007,2c0,2.06,6.621,6,17,6s17-3.94,17-6v-1c0-0.552,0.448-1,1-1s1,0.448,1,1v1   C48.5,31.188,39.443,35,29.5,35z"></path><path d="M29.5,40c-10.299,0-19-3.48-19-7.6V27c0-0.552,0.448-1,1-1s1,0.448,1,1v5.4c0,1.974,6.454,5.6,17,5.6s17-3.626,17-5.6V27   c0-0.552,0.448-1,1-1s1,0.448,1,1v5.4C48.5,36.52,39.799,40,29.5,40z"></path><path d="M32.5,25c-9.944,0-19-3.813-19-8c0-0.961,0.127-1.542,1.293-2.707l1.414,1.414C15.5,16.414,15.5,16.503,15.5,17   c0,2.06,6.621,6,17,6s17-3.94,17-6c0-0.588-0.576-2-2-2v-2c2.609,0,4,2.323,4,4C51.5,21.187,42.443,25,32.5,25z"></path><path d="M32.5,30c-10.299,0-19-3.48-19-7.6V17c0-0.552,0.448-1,1-1s1,0.448,1,1v5.4c0,1.974,6.454,5.6,17,5.6s17-3.626,17-5.6V17   c0-0.552,0.448-1,1-1s1,0.448,1,1v5.4C51.5,26.52,42.799,30,32.5,30z"></path><path d="M30.5,15c-9.944,0-19-3.813-19-8c0-4.324,9.862-7,19-7c9.139,0,19,2.676,19,7C49.5,11.187,40.443,15,30.5,15z M30.5,2   c-9.862,0-17,2.987-17,5c0,2.06,6.621,6,17,6s17-3.94,17-6C47.5,4.987,40.361,2,30.5,2z"></path><path d="M30.5,20c-10.299,0-19-3.48-19-7.6V7c0-0.552,0.448-1,1-1s1,0.448,1,1v5.4c0,1.974,6.454,5.6,17,5.6s17-3.626,17-5.6V7   c0-0.552,0.448-1,1-1s1,0.448,1,1v5.4C49.5,16.52,40.799,20,30.5,20z"></path></g></svg>