<svg xmlns="http://www.w3.org/2000/svg" xmlns:xlink="http://www.w3.org/1999/xlink" version="1.1" x="0px" y="0px" viewBox="0 0 100 100" enable-background="new 0 0 100 100" xml:space="preserve"><path d="M39.246,77.425c0,1.308-1.061,2.368-2.368,2.368H19.553c-1.308,0-2.368-1.061-2.368-2.368c0-1.309,1.061-2.368,2.368-2.368  h17.325C38.186,75.057,39.246,76.116,39.246,77.425z M94.635,11.535L79.163,36.057v58.101c0,1.308-1.061,2.368-2.368,2.368H7.368  C6.061,96.525,5,95.465,5,94.157V18.883c0-1.309,1.061-2.369,2.368-2.369h68.711l7.529-11.935c0.698-1.106,2.162-1.436,3.267-0.739  l7.021,4.428c0.531,0.335,0.907,0.867,1.046,1.48C95.08,10.36,94.97,11.003,94.635,11.535z M74.426,43.564L57.829,69.869  c-0.02,0.033-0.049,0.061-0.07,0.092c-0.047,0.066-0.096,0.13-0.149,0.191c-0.053,0.062-0.109,0.118-0.167,0.174  c-0.032,0.029-0.056,0.062-0.089,0.091l-10.465,8.819c-0.438,0.369-0.981,0.557-1.526,0.557c-0.437,0-0.875-0.12-1.264-0.365  c-0.873-0.551-1.288-1.602-1.028-2.6l3.087-11.855H19.553c-1.308,0-2.368-1.06-2.368-2.367c0-1.309,1.061-2.369,2.368-2.369h28.945  l6.362-10.082H19.553c-1.308,0-2.368-1.061-2.368-2.369s1.061-2.368,2.368-2.368h38.294l6.361-10.083H19.553  c-1.308,0-2.368-1.061-2.368-2.369c0-1.308,1.061-2.367,2.368-2.367h47.644l5.896-9.348H9.737v70.539h64.688V43.564z M89.364,11.01  l-3.014-1.9l-34.271,54.33l3.008,1.899L89.364,11.01z"></path></svg>