<svg xmlns="http://www.w3.org/2000/svg" xmlns:xlink="http://www.w3.org/1999/xlink" version="1.1" preserveAspectRatio="none" x="0px" y="0px" viewBox="0 0 100 100"><defs><g id="a"><path fill="#000000" stroke="none" d=" M 77.55 22.8 Q 66.15 12.85 50.05 12.85 40.75 12.85 33.1 16.15 27.5 18.6 22.6 22.8 11.1 32.7 11.1 46.6 11.1 54.9 15.6 62.2 19.5 68.9 26.55 73.55 L 26.05 76.95 26.1 76.8 Q 24.9 81.45 21.7 85.8 21.55 86.1 21.55 86.4 21.6 86.75 21.85 87.05 22 87.2 22.4 87.2 29.05 87.25 35 83.45 35.25 83.25 35.65 82.95 L 35.7 82.95 39.95 79.15 Q 44.4 80.3 50.05 80.3 66.15 80.3 77.55 70.55 88.95 60.5 88.95 46.6 88.95 32.7 77.55 22.8 M 50.05 14.6 Q 65.4 14.6 76.4 24.15 87.2 33.35 87.2 46.6 87.2 59.85 76.4 69.2 65.4 78.55 50.05 78.55 44.35 78.55 39.95 77.45 39.7 77.35 39.5 77.35 39.3 77.45 39.15 77.6 L 34.55 81.6 34.55 81.7 Q 34.2 81.85 34 82.05 29.25 85.1 24.05 85.45 26.65 81.45 27.75 77.25 L 27.75 77.2 28.35 73.3 Q 28.35 73 28.25 72.75 28.2 72.5 28 72.45 20.95 67.95 17.05 61.25 12.85 54.35 12.85 46.6 12.85 33.35 23.75 24.15 28.35 19.95 33.8 17.7 41.15 14.6 50.05 14.6 Z"></path></g></defs><g transform="matrix( 1, 0, 0, 1, 0,0) "><use xlink:href="#a"></use></g></svg>