<svg xmlns="http://www.w3.org/2000/svg" xmlns:xlink="http://www.w3.org/1999/xlink" version="1.1" x="0px" y="0px" viewBox="0 0 24 24" enable-background="new 0 0 24 24" xml:space="preserve"><path d="M12.157,0.969C6.074,0.969,1.125,5.917,1.125,12c0,0.771,0.081,1.522,0.232,2.249c0.001,0.075,0.022,0.145,0.053,0.207  c1.121,4.902,5.509,8.575,10.746,8.575c0.001,0,0.002,0,0.003,0c0,0,0,0,0,0h0h0c0,0,0.001,0,0.001,0  c5.234-0.003,9.619-3.674,10.739-8.574c0.033-0.064,0.056-0.136,0.056-0.215l0,0c0.15-0.724,0.229-1.475,0.229-2.242  C23.188,5.917,18.239,0.969,12.157,0.969z M2.095,12c0-0.582,0.06-1.149,0.156-1.704h2.836C5.006,10.856,4.964,11.425,4.964,12  c0,0.593,0.044,1.18,0.13,1.758H2.259C2.158,13.186,2.095,12.601,2.095,12z M5.934,12c0-0.576,0.048-1.144,0.135-1.704h5.603v3.461  H6.08C5.987,13.181,5.934,12.595,5.934,12z M11.672,9.327H6.27c0.74-2.973,2.685-5.563,5.402-7.077V9.327z M12.641,2.246  c2.723,1.513,4.67,4.105,5.412,7.081h-5.412V2.246z M11.672,14.728v7.023c-2.702-1.505-4.638-4.073-5.389-7.023H11.672z   M12.641,14.728h5.398c-0.752,2.953-2.691,5.523-5.398,7.027V14.728z M12.641,13.758v-3.461h5.611  c0.088,0.56,0.136,1.128,0.136,1.704c0,0.595-0.053,1.181-0.146,1.758H12.641z M19.234,10.296h2.828  c0.096,0.555,0.155,1.122,0.155,1.704c0,0.601-0.063,1.186-0.163,1.758h-2.828c0.087-0.578,0.131-1.165,0.131-1.758  C19.357,11.425,19.316,10.856,19.234,10.296z M21.847,9.327h-2.794c-0.653-2.864-2.337-5.414-4.721-7.145  C17.967,2.987,20.861,5.762,21.847,9.327z M9.995,2.178C7.608,3.909,5.923,6.461,5.269,9.327H2.467  C3.454,5.757,6.354,2.979,9.995,2.178z M2.481,14.728h2.802c0.663,2.843,2.341,5.374,4.712,7.094  C6.372,21.024,3.482,18.271,2.481,14.728z M14.333,21.818c2.367-1.72,4.044-4.25,4.706-7.091h2.793  C20.833,18.266,17.948,21.017,14.333,21.818z"></path></svg>