<svg xmlns="http://www.w3.org/2000/svg" xmlns:xlink="http://www.w3.org/1999/xlink" version="1.1" x="0px" y="0px" viewBox="0 0 90 90" enable-background="new 0 0 90 90" xml:space="preserve"><path d="M42.4,78.8c3.8-0.4,9,0.9,9,0.9c6.5,3.6,2.8,6.1,2.8,6.1H33.7C29.8,86.1,21.9,83,21.9,83c-6.4,5-11.8,0.9-11.8,0.9  c-4.7-4.8,1.1-9.9,1.1-9.9c-3.5-15.7,2.6-24.8,2.6-24.8c10.7-18.2,32.1-10.2,32.1-10.2c7,1.8,6.7-2.8,6.7-2.8  c-0.2-0.8,0.4-3.2,0.4-3.2c-18-0.2-23-8.5-23-8.5c17.6-5.1,26.4,1.9,26.4,1.9l2.3-1.8C47.6,17.3,51,1.5,51,1.5  C65,8.8,66.6,23.1,66.6,23.1c8.7,1.6,10.6,7,10.6,7c1.6,2.7,3.3,4.4,3.3,4.4c2.3,2.2,0.7,3.2,0.7,3.2c-0.6,4.5-5.1,5.6-5.1,5.6  c0,0-0.1,0-0.1,0.1c-2.8,1.7-2.3,5.4-2.3,5.4C76.5,60,63.2,68.3,63.2,68.3c0.4,1.7-0.9,10.4-0.9,10.4c-0.2,0.6,0.1,1.2,0.1,1.2  c0.9,0,2.7,0.7,2.7,0.7c2.6,2,0.9,4.4,0.9,4.4c-2.7,1.5-7.1,0-7.1,0c-3.5-0.9-5.7-10.9-5.7-10.9C51.6,77,42.4,78.8,42.4,78.8z   M74.6,33.5c0.6,0,1.1-0.5,1.1-1.1c0-0.6-0.5-1.1-1.1-1.1s-1.1,0.5-1.1,1.1C73.5,33,74,33.5,74.6,33.5z"></path></svg>