<svg xmlns="http://www.w3.org/2000/svg" xmlns:xlink="http://www.w3.org/1999/xlink" version="1.0" x="0px" y="0px" viewBox="0 0 32 32" enable-background="new 0 0 32 32" xml:space="preserve"><g><ellipse cx="9" cy="8" rx="9" ry="4"></ellipse><path d="M9,16c-4.189,0-7.678-1.277-8.682-3C0.13,13.324,0,13.652,0,14c0,2.211,4.029,4,9,4s9-1.789,9-4   c0-0.348-0.131-0.676-0.318-1C16.677,14.723,13.189,16,9,16z"></path><path d="M9,22c-4.189,0-7.678-1.277-8.682-3C0.13,19.324,0,19.652,0,20c0,2.211,4.029,4,9,4s9-1.789,9-4   c0-0.348-0.131-0.676-0.318-1C16.677,20.723,13.189,22,9,22z"></path><path d="M23,20c-1.055,0-3-0.082-3-0.23v1.988C20,21.906,21.941,22,23,22c4.971,0,9-1.789,9-4c0-0.348-0.131-0.676-0.318-1   C30.678,18.723,27.189,20,23,20z"></path><path d="M9,28c-4.189,0-7.678-1.277-8.682-3C0.13,25.324,0,25.652,0,26c0,2.211,4.029,4,9,4s9-1.789,9-4   c0-0.348-0.131-0.676-0.318-1C16.677,26.723,13.189,28,9,28z"></path><path d="M23,26c-1.055,0-3-0.082-3-0.23v1.988C20,27.906,21.941,28,23,28c4.971,0,9-1.789,9-4c0-0.348-0.131-0.676-0.318-1   C30.678,24.723,27.189,26,23,26z"></path><path d="M23,14c-1.055,0-3-0.082-3-0.23v1.988C20,15.906,21.941,16,23,16c4.971,0,9-1.789,9-4c0-0.348-0.131-0.676-0.318-1   C30.678,12.723,27.189,14,23,14z"></path><path d="M23,10c4.971,0,9-1.789,9-4c0-2.207-4.029-4-9-4c-2.768,0-5.211,0.566-6.862,1.441C18.498,4.543,20,6.176,20,8   c0,0.59-0.162,1.156-0.451,1.695C20.611,9.891,21.777,10,23,10z"></path></g></svg>