<svg xmlns:dc="http://purl.org/dc/elements/1.1/" xmlns:cc="http://creativecommons.org/ns#" xmlns:rdf="http://www.w3.org/1999/02/22-rdf-syntax-ns#" xmlns:svg="http://www.w3.org/2000/svg" xmlns="http://www.w3.org/2000/svg" xmlns:sodipodi="http://sodipodi.sourceforge.net/DTD/sodipodi-0.dtd" xmlns:inkscape="http://www.inkscape.org/namespaces/inkscape" version="1.1" x="0px" y="0px" viewBox="0 0 100 100"><g transform="translate(0,-952.36218)"><path style="color:#000000;enable-background:accumulate;" d="m 60,960.36217 0,38.00002 11,0 0,-27 21,0 0,-11.00002 z m -36,21.00002 c -8.865882,0 -16,7.526 -16,17 l 0,25.00001 32,0 0,-25.00001 c 0,-9.474 -7.134118,-17 -16,-17 z m 11.6875,0 c 5.041348,3.8347 8.3125,10.0438 8.3125,17 l 0,25.00001 48,0 0,-25.00001 c 0,-9.4741 -7.58,-17 -17,-17 l 0,17 0,2.00001 c -1.05e-4,1.0471 -0.952831,1.9999 -2,2 l -2,0 -11,0 -2,0 c -1.047169,-10e-5 -1.999895,-0.9529 -2,-2 l 0,-2.00001 0,-17 z M 44,1027.3622 l 0,17 16,0 0,-17 z" fill="#000000" fill-opacity="1" fill-rule="nonzero" stroke="none" marker="none" visibility="visible" display="inline" overflow="visible"></path></g></svg>