<?xml version="1.0" encoding="utf-8"?>
<svg viewBox="0 0 100 100" xmlns="http://www.w3.org/2000/svg" xmlns:bx="https://boxy-svg.com">
  <rect y="26.127" width="49.075" height="6.102" style="fill: rgba(0, 0, 0, 0.79);" x="27.356"/>
  <path style="stroke: rgb(0, 0, 0); fill: none; stroke-width: 2px;" d="M 84.66 5.883 L 90.662 6.141 C 90.662 6.141 96.402 6.563 96.131 10.901 C 95.86 15.239 94.842 14.791 91.687 17.746 C 88.532 20.701 72.3 18.91 72.287 18.906 C 72.287 18.906 49.015 16.644 44.155 16.283 C 39.294 15.923 26.749 13.84 22.561 13.591 C 18.372 13.341 5.398 13.676 3.302 18.258 C 1.205 22.84 1.683 22.997 3.913 26.384 C 6.141 29.775 10.406 29.671 11.47 29.631"/>
  <path d="M 95.464 101.592 L 100.998 112.335 L 89.93 112.335 L 95.464 101.592 Z" style="" transform="matrix(0.8058, -0.592187, 0.401494, 0.945942, -106.201698, -16.304243)" bx:shape="triangle 89.93 101.592 11.068 10.743 0.5 0 1@6e2c156f"/>
  <rect y="46.8" width="49.075" height="6.102" style="fill: rgba(0, 0, 0, 0.79);" x="27.535"/>
  <rect y="67.672" width="49.075" height="6.102" style="fill: rgba(0, 0, 0, 0.79);" x="26.657"/>
  <rect y="3.605" width="48.669" height="6.102" style="fill: rgba(0, 0, 0, 0.79);" x="27.535"/>
  <rect y="88.546" width="48.669" height="6.102" style="fill: rgba(0, 0, 0, 0.79);" x="27.941"/>
</svg>
