<svg height='100px' width='100px'  fill="#000000" xmlns:dc="http://purl.org/dc/elements/1.1/" xmlns:cc="http://creativecommons.org/ns#" xmlns:rdf="http://www.w3.org/1999/02/22-rdf-syntax-ns#" xmlns:svg="http://www.w3.org/2000/svg" xmlns="http://www.w3.org/2000/svg" xmlns:sodipodi="http://sodipodi.sourceforge.net/DTD/sodipodi-0.dtd" xmlns:inkscape="http://www.inkscape.org/namespaces/inkscape" version="1.1" x="0px" y="0px" viewBox="0 0 100 100"><g transform="translate(0,-952.36218)"><path style="text-indent:0;text-transform:none;direction:ltr;block-progression:tb;baseline-shift:baseline;color:#000000;enable-background:accumulate;" d="m 18,958.36218 c -0.5236,1e-4 -0.9999,0.4764 -1,1 l 0,86.00002 c 0.01,0.4669 0.3689,1 1,1 l 64,0 c 0.5236,-10e-5 1,-0.4764 1,-1 l 0,-72.00002 c 0,-0.2537 -0.1049,-0.5052 -0.2812,-0.6875 l -14,-14 c -0.1846,-0.1949 -0.4504,-0.3125 -0.7188,-0.3125 l -50,0 z m 1,2 48,0 0,13 c 0.01,0.4809 0.3584,0.99 1,1 l 13,0 0,70.00002 -62,0 0,-84.00002 z m 50,1.4375 10.5625,10.5625 -10.5625,0 0,-10.5625 z m -41,17.5625 0,6 6,0 0,-6 -6,0 z m 16,2 c -0.5523,0 -1,0.4478 -1,1 0,0.5523 0.4477,1 1,1 l 27,0 c 0.5523,0 1,-0.4477 1,-1 0,-0.5522 -0.4477,-1 -1,-1 l -27,0 z m -16,14 0,6.00002 6,0 0,-6.00002 -6,0 z m 16,2 c -0.5523,0 -1,0.4478 -1,1 0,0.5523 0.4477,1 1,1 l 27,0 c 0.5523,0 1,-0.4477 1,-1 0,-0.5522 -0.4477,-1 -1,-1 l -27,0 z m -16,14.00002 0,6 6,0 0,-6 -6,0 z m 16,2 c -0.5523,0 -1,0.4477 -1,1 0,0.5523 0.4477,1 1,1 l 27,0 c 0.5523,0 1,-0.4477 1,-1 0,-0.5523 -0.4477,-1 -1,-1 l -27,0 z m -16,14 0,6 6,0 0,-6 -6,0 z m 16,2 c -0.5523,0 -1,0.4477 -1,1 0,0.5523 0.4477,1 1,1 l 27,0 c 0.5523,0 1,-0.4477 1,-1 0,-0.5523 -0.4477,-1 -1,-1 l -27,0 z" fill="#000000" fill-opacity="1" stroke="none" marker="none" visibility="visible" display="inline" overflow="visible"></path></g></svg>