<svg xmlns="http://www.w3.org/2000/svg" xmlns:xlink="http://www.w3.org/1999/xlink" version="1.1" x="0px" y="0px" viewBox="0 0 100 100" style="enable-background:new 0 0 100 100;" xml:space="preserve"><g><path d="M28.7,35.9h42.6c1.8,0,3.2-1.4,3.2-3.2s-1.4-3.2-3.2-3.2H28.7c-1.8,0-3.2,1.4-3.2,3.2S26.9,35.9,28.7,35.9z   "></path><path d="M28.7,53.2h42.6c1.8,0,3.2-1.4,3.2-3.2s-1.4-3.2-3.2-3.2H28.7c-1.8,0-3.2,1.4-3.2,3.2S26.9,53.2,28.7,53.2z   "></path><path d="M71.3,70.5c1.8,0,3.2-1.4,3.2-3.2c0-1.8-1.4-3.2-3.2-3.2H28.7c-1.8,0-3.2,1.4-3.2,3.2   c0,1.8,1.4,3.2,3.2,3.2H71.3z"></path></g></svg>