<svg height='100px' width='100px'  fill="#000000" xmlns="http://www.w3.org/2000/svg" xmlns:xlink="http://www.w3.org/1999/xlink" version="1.1" x="0px" y="0px" viewBox="0 0 1024 1024" style="enable-background:new 0 0 1024 1024;" xml:space="preserve"><g><g><g><path d="M317,621.6c8.6-8.6,17.3-17.3,25.9-25.9c20.7-20.7,41.5-41.5,62.2-62.2c25.1-25.1,50.2-50.2,75.2-75.2     c21.6-21.6,43.2-43.2,64.8-64.8c10.6-10.6,21.4-20.9,31.7-31.7c0.1-0.2,0.3-0.3,0.5-0.5c11.1-11.1,11.9-31.5,0-42.4     c-12-11-30.6-11.9-42.4,0c-8.6,8.6-17.3,17.3-25.9,25.9c-20.7,20.7-41.5,41.5-62.2,62.2c-25.1,25.1-50.2,50.2-75.2,75.2     c-21.6,21.6-43.2,43.2-64.8,64.8c-10.6,10.6-21.4,20.9-31.7,31.7c-0.1,0.2-0.3,0.3-0.5,0.5c-11.1,11.1-11.9,31.5,0,42.4     C286.5,632.6,305.1,633.4,317,621.6L317,621.6z"></path></g></g><g><g><path d="M548.4,540.2c-17.6,17.6-35.2,35.2-52.8,52.8c-28.1,28.1-56.1,56.1-84.2,84.2     c-6.5,6.5-12.9,12.9-19.4,19.4c-11.1,11.1-11.9,31.5,0,42.4c12,11,30.6,11.9,42.4,0c17.6-17.6,35.2-35.2,52.8-52.8     c28.1-28.1,56.1-56.1,84.2-84.2c6.5-6.5,12.9-12.9,19.4-19.4c11.1-11.1,11.9-31.5,0-42.4C578.9,529.2,560.3,528.3,548.4,540.2     L548.4,540.2z"></path></g></g><g><g><path d="M817.3,498.8c-13.7,13.7-27.4,27.4-41,41c-32.5,32.5-65,65-97.5,97.5c-39.2,39.2-78.4,78.4-117.5,117.5     c-33.4,33.4-66.8,66.8-100.3,100.3c-15.3,15.3-30.4,30.8-45.9,45.9c-0.1,0.1-0.2,0.2-0.2,0.2c-0.3,0.3-2,1.9-1.1,1     c-3.8,3.8,5.3-3.5,2.2-1.5c-2.2,1.4-4.3,2.7-6.7,3.8c2.4-1,4.8-2,7.2-3c-3.4,1.4-6.8,2.4-10.5,2.9c2.7-0.4,5.3-0.7,8-1.1     c-3.2,0.3-6.3,0.3-9.4,0c2.7,0.4,5.3,0.7,8,1.1c-3.6-0.5-7.1-1.5-10.5-2.9c2.4,1,4.8,2,7.2,3c-1.5-0.7-2.9-1.4-4.3-2.2     c-0.8-0.5-1.6-1-2.3-1.5c-2.2-1.4,3.3,2.5,3.3,2.5c0-0.3-1.8-1.7-2.2-2.1c-0.3-0.3-0.6-0.6-0.9-0.9c-1.6-1.6-3.2-3.2-4.8-4.8     c-6.6-6.6-13.2-13.2-19.8-19.8c-22.8-22.8-45.5-45.5-68.3-68.3c-27.8-27.8-55.5-55.5-83.3-83.3c-23.9-23.9-47.7-47.7-71.6-71.6     c-10.7-10.7-21.5-21.2-32-32c-0.5-0.5-1-1.2-1.6-1.7c-2-1.8,2.4,3.3,2.4,3.3c-0.1-0.6-1.2-1.7-1.6-2.3c-1-1.6-1.8-3.2-2.6-4.9     c1,2.4,2,4.8,3,7.2c-1.4-3.4-2.4-6.8-2.9-10.5c0.4,2.7,0.7,5.3,1.1,8c-0.3-3.2-0.3-6.3,0-9.4c-0.4,2.7-0.7,5.3-1.1,8     c0.5-3.6,1.5-7.1,2.9-10.5c-1,2.4-2,4.8-3,7.2c1.1-2.4,2.4-4.5,3.8-6.7c2-3.1-5.4,6-1.5,2.2c-0.6,0.6,0.7-0.7,1-1.1     c0.1-0.1,0.2-0.2,0.3-0.3c0.5-0.5,1.1-1.1,1.6-1.6c2.4-2.4,4.8-4.8,7.1-7.1c9.5-9.5,19-19,28.5-28.5c32.3-32.3,64.7-64.7,97-97     c39.5-39.5,79-79,118.5-118.5c34-34,68-68,101.9-101.9c15.7-15.7,31.3-31.7,47.2-47.2c0.1-0.1,0.2-0.2,0.3-0.3     c0.5-0.5,1.9-1.5,2.3-2.2c-1.2,0.9-2.4,1.8-3.6,2.8c0.8-0.6,1.7-1.2,2.6-1.7c1.3-0.8,2.7-1.5,4.2-2.1c-2.4,1-4.8,2-7.2,3     c3.4-1.4,6.8-2.4,10.5-2.9c-2.7,0.4-5.3,0.7-8,1.1c10.4-1.1,21.4,0.4,31.7,0.8c21.5,0.9,42.9,1.8,64.4,2.6     c49.2,2,98.3,4,147.5,6.1c12.1,0.5,24.6,0.1,36.7,1.7c-2.7-0.4-5.3-0.7-8-1.1c3.2,0.5,6.1,1.4,9.1,2.6c-2.4-1-4.8-2-7.2-3     c2,0.9,3.9,2,5.8,3.1c4,2.3-4.7-4.4-2.4-1.9c0.7,0.8,1.7,1.5,2.4,2.2c0.6,0.6,1.2,1.3,1.8,1.9c3.3,3.4-3-4.8-1.9-2.4     c1,2.2,2.5,4.2,3.5,6.4c-1-2.4-2-4.8-3-7.2c1.2,3,2,5.9,2.6,9.1c-0.4-2.7-0.7-5.3-1.1-8c1.3,9.9,1.1,20.2,1.5,30.2     c0.9,21.6,1.8,43.2,2.7,64.7c2,49.1,4,98.1,6,147.2c0.5,12.4,2.4,25.7,1,38.2c0.4-2.7,0.7-5.3,1.1-8c-0.5,3.7-1.5,7.1-2.9,10.5     c1-2.4,2-4.8,3-7.2c-0.9,1.9-1.9,3.6-3,5.5c-1.8,2.5-1.1,1.8,1.9-2.3C818.7,497.3,818,498.1,817.3,498.8     c-10.9,11.3-12.1,31.3,0,42.4c11.8,10.8,30.8,12.1,42.4,0c13.2-13.8,20.5-31.9,19.8-51.1c-0.2-4.5-0.4-8.9-0.6-13.4     c-0.8-19.4-1.6-38.9-2.4-58.3c-2.1-50.3-4.1-100.7-6.2-151c-0.6-14.2-1.2-28.4-1.8-42.6c-0.5-12.3-2.9-24-8.9-34.9     c-11.8-21.2-34.1-33-57.8-34.3c-33.6-1.8-67.4-2.8-101-4.2c-48.1-2-96.2-4-144.3-5.9c-13.2-0.5-26.1-1.7-39.3,0.5     c-16.7,2.8-29.3,13.2-40.8,24.6c-20.9,20.9-41.9,41.9-62.8,62.8c-34.4,34.4-68.8,68.8-103.3,103.3     c-37.4,37.4-74.8,74.8-112.1,112.1c-29,29-58.1,58.1-87.1,87.1c-8.1,8.1-16.3,16.3-24.4,24.4c-10.8,10.8-20.6,22.2-24.2,37.7     c-5.5,23.5,1.1,47.6,17.9,64.9c1.6,1.7,3.3,3.3,5,5c9.5,9.5,19.1,19.1,28.6,28.6c33.9,33.9,67.8,67.8,101.7,101.7     c34.7,34.7,69.4,69.4,104.1,104.1c10.8,10.8,21.7,21.7,32.5,32.5c11.7,11.7,23.6,23,40.7,26.7c23.4,5.1,47-1.3,64.2-18.1     c1.2-1.2,2.5-2.5,3.7-3.7c7.1-7.1,14.2-14.2,21.3-21.3c27.8-27.8,55.7-55.7,83.5-83.5c37-37,74-74,110.9-110.9     c35.2-35.2,70.4-70.4,105.7-105.7c22.6-22.6,45.2-45.2,67.7-67.7c3.2-3.2,6.3-6.3,9.5-9.5c11.1-11.1,11.9-31.5,0-42.4     C847.7,487.8,829.1,486.9,817.3,498.8z"></path></g></g><g><g><path d="M737.7,286.3c3.8,4-4.1-6.6-0.6-0.9c0.9,1.4,1.6,2.9,2.2,4.4c-1-2.4-2-4.8-3-7.2c0.8,2.2,1.4,4.4,1.8,6.7     c-0.4-2.7-0.7-5.3-1.1-8c0.3,2.8,0.3,5.5-0.1,8.3c0.4-2.7,0.7-5.3,1.1-8c-0.4,2.3-1.1,4.5-1.9,6.7c1-2.4,2-4.8,3-7.2     c-0.4,0.9-1.7,4.7-2.7,5c0.8-0.2,5.2-5.9,1.4-2.1c-0.5,0.5-1,1-1.6,1.5c-1.8,1.5-0.7,0.7,3.2-2.5c-1.6,0.5-3.3,1.9-4.9,2.6     c2.4-1,4.8-2,7.2-3c-2.2,0.8-4.3,1.4-6.6,1.8c2.7-0.4,5.3-0.7,8-1.1c-2.8,0.3-5.4,0.3-8.2,0c2.7,0.4,5.3,0.7,8,1.1     c-2.3-0.4-4.4-1-6.6-1.8c2.4,1,4.8,2,7.2,3c-0.7-0.3-4.9-1.8-4.9-2.6c1.3,1,2.5,2,3.8,3c-0.8-0.6-1.5-1.3-2.2-2     c-0.5-0.5-1-1-1.5-1.6c-1.5-1.8-0.7-0.7,2.5,3.2c-0.5-1.6-1.9-3.3-2.6-4.9c1,2.4,2,4.8,3,7.2c-0.8-2.2-1.4-4.3-1.8-6.6     c0.4,2.7,0.7,5.3,1.1,8c-0.3-2.8-0.3-5.4,0-8.2c-0.4,2.7-0.7,5.3-1.1,8c0.4-2.3,1-4.4,1.8-6.6c-1,2.4-2,4.8-3,7.2     c0.3-0.7,1.8-4.9,2.6-4.9c-1,1.3-2,2.5-3,3.8c0.6-0.8,1.3-1.5,2-2.2c2.7-2.6,2.5-0.3-2.1,1.4c1.7-0.6,3.3-2,5-2.7     c-2.4,1-4.8,2-7.2,3c2.2-0.9,4.4-1.5,6.7-1.9c-2.7,0.4-5.3,0.7-8,1.1c2.8-0.4,5.5-0.4,8.3-0.1c-2.7-0.4-5.3-0.7-8-1.1     c2.3,0.4,4.5,0.9,6.7,1.8c-2.4-1-4.8-2-7.2-3c1.5,0.7,3,1.4,4.4,2.2C744.2,290.5,733.7,282.6,737.7,286.3     c11.4,10.8,31.3,12.1,42.4,0c10.8-11.7,12.2-30.9,0-42.4c-18.8-17.9-45-21.5-68.3-10.5c-19.7,9.4-33.1,32.8-31.4,54.5     c2,25,18.5,47.7,43.6,53.8c24.8,6.1,49.2-4,63.7-24.7c15.8-22.7,10.8-53.8-7.6-73.2c-10.8-11.4-31.7-11.7-42.4,0     C726.4,256.2,726.1,274.2,737.7,286.3z"></path></g></g><g><g><path d="M746.2,248.5c-2.7-4.6-5.1-9.4-7.2-14.4c1,2.4,2,4.8,3,7.2c-3.8-9.4-6.4-19.1-7.8-29.2     c0.4,2.7,0.7,5.3,1.1,8c-1.2-10-1.2-20,0-30c-0.4,2.7-0.7,5.3-1.1,8c1.4-10,4-19.8,7.8-29.2c-1,2.4-2,4.8-3,7.2     c2.9-6.8,6.3-13.3,10.4-19.4c1-1.5,2.1-3.6,3.4-4.9c-1,1.2-1.9,2.5-2.9,3.7c0.6-0.8,1.3-1.6,1.9-2.3c2.4-2.9,5-5.7,7.7-8.4     c2.6-2.6,5.4-5,8.2-7.4c4.3-3.7-6.1,4.4-1.5,1.1c1.6-1.1,3.1-2.2,4.7-3.3c5.9-3.9,12.2-7.2,18.7-10c-2.4,1-4.8,2-7.2,3     c9.4-3.9,19.2-6.5,29.3-7.9c-2.7,0.4-5.3,0.7-8,1.1c10.1-1.3,20.1-1.3,30.2,0c-2.7-0.4-5.3-0.7-8-1.1c10.1,1.4,19.9,4,29.3,7.9     c-2.4-1-4.8-2-7.2-3c6.5,2.8,12.8,6.1,18.7,10c1.6,1.1,3.1,2.2,4.7,3.3c4.1,2.9-6.3-5.2-0.4-0.2c2.6,2.2,5.2,4.5,7.6,6.9     c2.4,2.4,4.7,5,6.9,7.6c4.9,5.9-3.1-4.5-0.2-0.4c1.1,1.6,2.2,3.1,3.3,4.7c3.9,5.9,7.2,12.2,10,18.7c-1-2.4-2-4.8-3-7.2     c3.9,9.4,6.5,19.2,7.9,29.3c-0.4-2.7-0.7-5.3-1.1-8c1.3,10.1,1.3,20.1,0,30.2c0.4-2.7,0.7-5.3,1.1-8c-1.4,10.1-4,19.9-7.9,29.3     c1-2.4,2-4.8,3-7.2c-2.8,6.5-6.1,12.7-10,18.7c-1.1,1.6-2.2,3.1-3.3,4.7c-2.9,4.2,4.7-5.7,1.1-1.5c-2.5,3-5.1,5.9-7.9,8.7     c-11,11.2-12,31.4,0,42.4c11.9,10.9,30.6,11.9,42.4,0c28.8-29.1,45.4-70.8,42-111.9c-1.8-21.4-7.4-41.8-17.8-60.7     c-10.6-19.3-25.8-35.1-43.5-48.1C868.8,62.4,824.6,55.3,785,64.5c-40.1,9.3-76.6,37.7-94.8,74.7c-21.9,44.3-20.9,96.7,4.2,139.6     c7.9,13.5,27.4,19.5,41,10.8C749.1,280.7,754.7,263,746.2,248.5L746.2,248.5z"></path></g></g></g></svg>
