<svg xmlns="http://www.w3.org/2000/svg" xmlns:xlink="http://www.w3.org/1999/xlink" version="1.1" x="0px" y="0px" viewBox="0 0 65 65" enable-background="new 0 0 65 65" xml:space="preserve"><path d="M33.701,0.654H7.986c-4.386,0-7.955,3.569-7.955,7.955c0,3.689,2.528,6.791,5.94,7.687l-2.079,5.992  c-0.049,0.142-0.069,0.286-0.075,0.428c-0.001,0.024-0.002,0.047-0.002,0.071c0.001,0.17,0.031,0.336,0.088,0.494  c0.008,0.023,0.016,0.045,0.025,0.068c0.067,0.163,0.163,0.312,0.283,0.442c0.008,0.009,0.011,0.021,0.02,0.031  c0.011,0.012,0.025,0.02,0.036,0.03c0.04,0.039,0.083,0.073,0.127,0.107c0.038,0.029,0.074,0.059,0.113,0.083  c0.04,0.025,0.082,0.046,0.125,0.067c0.049,0.025,0.098,0.05,0.149,0.069c0.013,0.005,0.023,0.013,0.037,0.017  c0.015,0.005,0.03,0.003,0.044,0.008c0.144,0.044,0.291,0.074,0.44,0.075c0.002,0,0.004,0.001,0.007,0.001  c0.176,0,0.345-0.038,0.507-0.097c0.049-0.018,0.092-0.046,0.139-0.068c0.115-0.056,0.222-0.123,0.32-0.207  c0.024-0.021,0.055-0.028,0.078-0.05l7.541-7.293h19.808c4.387,0,7.955-3.569,7.955-7.955S38.088,0.654,33.701,0.654z M22.125,12.25  H9.298c-0.829,0-1.5-0.671-1.5-1.5s0.671-1.5,1.5-1.5h12.827c0.829,0,1.5,0.671,1.5,1.5S22.954,12.25,22.125,12.25z M27.75,7.75  H9.298c-0.829,0-1.5-0.671-1.5-1.5s0.671-1.5,1.5-1.5H27.75c0.829,0,1.5,0.671,1.5,1.5S28.579,7.75,27.75,7.75z"></path><path d="M64.969,27.277c0-5.043-4.103-9.146-9.145-9.146h-30.46c-5.043,0-9.146,4.103-9.146,9.146c0,5.043,4.103,9.146,9.146,9.146  h23.574l9.011,8.715c0.023,0.022,0.055,0.03,0.079,0.051c0.096,0.082,0.2,0.148,0.313,0.203c0.05,0.024,0.095,0.054,0.146,0.072  c0.161,0.058,0.33,0.096,0.505,0.096c0.151,0,0.302-0.03,0.447-0.075c0.015-0.005,0.029-0.003,0.044-0.008  c0.013-0.005,0.023-0.013,0.037-0.017c0.051-0.02,0.1-0.045,0.149-0.07c0.042-0.021,0.084-0.041,0.124-0.066  c0.039-0.025,0.076-0.055,0.113-0.084c0.044-0.033,0.087-0.067,0.126-0.105c0.012-0.012,0.025-0.02,0.037-0.031  c0.009-0.01,0.012-0.021,0.021-0.031c0.12-0.131,0.215-0.279,0.282-0.441c0.01-0.023,0.018-0.046,0.025-0.069  c0.057-0.157,0.087-0.322,0.088-0.492c0-0.025-0.001-0.048-0.003-0.073c-0.006-0.143-0.025-0.285-0.074-0.427l-2.559-7.38  C61.919,35.265,64.969,31.624,64.969,27.277z M50.75,30.875H32.5c-0.829,0-1.5-0.671-1.5-1.5s0.671-1.5,1.5-1.5h18.25  c0.828,0,1.5,0.671,1.5,1.5S51.578,30.875,50.75,30.875z M55.824,26.5H29.75c-0.829,0-1.5-0.671-1.5-1.5s0.671-1.5,1.5-1.5h26.074  c0.828,0,1.5,0.671,1.5,1.5S56.652,26.5,55.824,26.5z"></path><path d="M36.721,38.785H8.592c-4.721,0-8.561,3.84-8.561,8.561c0,4.023,2.793,7.398,6.541,8.311l-2.324,6.698  c-0.049,0.142-0.068,0.285-0.075,0.428c-0.001,0.024-0.002,0.047-0.002,0.071c0.001,0.171,0.031,0.336,0.088,0.494  c0.008,0.023,0.016,0.045,0.025,0.068c0.067,0.162,0.163,0.311,0.283,0.441c0.008,0.01,0.011,0.022,0.02,0.031  c0.011,0.012,0.024,0.02,0.036,0.03c0.04,0.039,0.084,0.074,0.129,0.108c0.037,0.028,0.072,0.057,0.11,0.081  c0.041,0.026,0.084,0.048,0.128,0.069c0.048,0.024,0.095,0.049,0.145,0.067c0.013,0.005,0.025,0.013,0.038,0.018  c0.015,0.005,0.03,0.003,0.045,0.008c0.146,0.045,0.295,0.075,0.446,0.075c0.175,0,0.344-0.038,0.505-0.096  c0.051-0.019,0.095-0.048,0.144-0.071c0.114-0.056,0.218-0.121,0.315-0.204c0.024-0.021,0.055-0.028,0.079-0.051l8.29-8.017h21.724  c4.721,0,8.561-3.841,8.561-8.562S41.441,38.785,36.721,38.785z M9.298,43.5h21.577c0.829,0,1.5,0.672,1.5,1.5s-0.671,1.5-1.5,1.5  H9.298c-0.829,0-1.5-0.672-1.5-1.5S8.469,43.5,9.298,43.5z M37,51H9.298c-0.829,0-1.5-0.672-1.5-1.5s0.671-1.5,1.5-1.5H37  c0.828,0,1.5,0.672,1.5,1.5S37.828,51,37,51z"></path></svg>