<svg xmlns="http://www.w3.org/2000/svg" xmlns:xlink="http://www.w3.org/1999/xlink" version="1.1" x="0px" y="0px" viewBox="0 0 48 48" style="enable-background:new 0 0 48 48;" xml:space="preserve"><path d="M39,37H29v-2h10c3.859,0,7-3.141,7-7c0-3.86-3.141-7-7-7c-0.553,0-1-0.448-1-1v-1c0-7.72-5.832-14-13-14  c-5.795,0-12,3.616-12,9c0,0.552-0.447,1-1,1C6.486,15,2,19.486,2,25c0,5.514,4.486,10,10,10h7v2h-7C5.383,37,0,31.617,0,25  c0-6.297,4.875-11.477,11.05-11.963C11.698,6.81,18.591,3,25,3c8.271,0,15,7.178,15,16v0.055c4.494,0.499,8,4.32,8,8.945  C48,32.962,43.963,37,39,37z M24,45c-0.553,0-1-0.448-1-1V21c0-0.552,0.447-1,1-1c0.553,0,1,0.448,1,1v23C25,44.552,24.553,45,24,45  z M24,45c-0.221,0-0.441-0.073-0.625-0.219l-5-4c-0.432-0.346-0.501-0.975-0.156-1.405c0.348-0.431,0.975-0.502,1.406-0.156  L24,42.72l4.375-3.5c0.434-0.346,1.061-0.274,1.406,0.156c0.345,0.431,0.273,1.062-0.156,1.405l-5,4C24.441,44.927,24.221,45,24,45z  "></path></svg>