<svg xmlns="http://www.w3.org/2000/svg" xmlns:xlink="http://www.w3.org/1999/xlink" version="1.1" x="0px" y="0px" viewBox="0 0 100 100" enable-background="new 0 0 100 100" xml:space="preserve"><g><g><path d="M28.064,94.18c-4.847,0-9.299-1.996-13.24-5.938c-4.07-4.07-6.065-8.686-5.931-13.719    c0.25-9.303,7.877-16.583,8.744-17.381l47.12-47.119c2.899-2.899,6.665-4.385,10.622-4.185c3.841,0.195,7.648,1.994,10.722,5.068    c6.362,6.364,6.668,14.946,0.744,20.869L46.24,72.383c-0.605,0.646-4.198,4.256-8.975,4.363c-2.687,0.077-5.244-1.03-7.371-3.157    c-2.707-2.708-3.176-5.499-3.094-7.363c0.205-4.621,3.823-8.029,4.631-8.733l24.746-24.746c1.172-1.172,3.07-1.172,4.242,0    c1.172,1.171,1.172,3.071,0,4.242L35.594,61.814c-0.062,0.062-0.128,0.123-0.195,0.18c-0.69,0.591-2.528,2.574-2.604,4.515    c-0.037,0.968,0.402,1.896,1.343,2.837c0.968,0.967,1.952,1.449,2.994,1.402c2.418-0.055,4.712-2.447,4.734-2.472    c0.03-0.033,0.061-0.065,0.093-0.097l40.646-40.646c3.589-3.589,3.304-8.335-0.745-12.385C77.75,11.041,72.584,10.685,69,14.266    L21.832,61.434c-0.038,0.038-0.077,0.075-0.117,0.111c-0.061,0.056-6.651,6.108-6.824,13.167    c-0.082,3.357,1.283,6.396,4.176,9.288s5.923,4.277,9.289,4.176c7.058-0.174,13.108-6.765,13.168-6.831    c0.033-0.037,0.072-0.078,0.107-0.112l31.518-31.516c1.172-1.171,3.07-1.171,4.242,0c1.172,1.171,1.172,3.071,0,4.242    L45.922,85.426c-0.799,0.869-8.076,8.496-17.377,8.747C28.385,94.178,28.224,94.18,28.064,94.18z"></path></g></g></svg>