<svg xmlns="http://www.w3.org/2000/svg" xmlns:xlink="http://www.w3.org/1999/xlink" viewBox="0 0 100 100"><g><g transform="translate(50 50) scale(0.69 0.69) rotate(0) translate(-50 -50)" style="fill:#000000"><svg fill="#000000" xmlns="http://www.w3.org/2000/svg" xmlns:xlink="http://www.w3.org/1999/xlink" version="1.1" x="0px" y="0px" viewBox="0 0 100 100" enable-background="new 0 0 100 100" xml:space="preserve"><g><path d="M61.305,68.893H38.923c-2.326,0-4.218,1.892-4.218,4.218v2.939c0,2.326,1.892,4.218,4.218,4.218h22.382   c2.326,0,4.218-1.892,4.218-4.218v-2.939C65.523,70.786,63.631,68.893,61.305,68.893z M51.152,71.181h4.052v6.799h-4.052V71.181z    M48.864,77.981h-3.841v-6.799h3.841V77.981z M36.993,76.05v-2.939c0-1.065,0.866-1.93,1.93-1.93h3.813v6.799h-3.813   C37.859,77.981,36.993,77.115,36.993,76.05z M63.235,76.05c0,1.065-0.866,1.93-1.93,1.93h-3.812v-6.799h3.812   c1.065,0,1.93,0.866,1.93,1.93V76.05z"></path><path d="M81.007,54.658h-0.118v-5.975c0-8.515-6.928-15.443-15.443-15.443h-4.969c-0.762-4.611-4.524-8.219-9.214-8.729v-8.429   c2.493-0.573,4.363-2.8,4.363-5.465C55.626,7.52,53.106,5,50.008,5c-3.097,0-5.617,2.52-5.617,5.617   c0,2.743,1.979,5.025,4.583,5.513v8.381c-4.686,0.51-8.445,4.113-9.212,8.729h-5.191c-8.515,0-15.443,6.928-15.443,15.443v5.975   H19.01c-5.218,0-9.462,4.245-9.462,9.462v3.669c0,5.208,4.245,9.445,9.462,9.445h0.118v2.323C19.128,88.072,26.056,95,34.571,95   h30.874c8.515,0,15.443-6.928,15.443-15.443v-2.323h0.118c5.208,0,9.445-4.237,9.445-9.445V64.12   C90.452,58.902,86.215,54.658,81.007,54.658z M46.679,10.617c0-1.835,1.494-3.329,3.329-3.329c1.836,0,3.33,1.494,3.33,3.329   c0,1.836-1.494,3.33-3.33,3.33C48.173,13.946,46.679,12.453,46.679,10.617z M50.118,26.733c3.945,0,7.248,2.794,8.04,6.507H42.079   C42.871,29.527,46.173,26.733,50.118,26.733z M19.01,74.946c-3.956,0-7.174-3.211-7.174-7.157V64.12   c0-3.956,3.218-7.174,7.174-7.174h0.118v18H19.01z M77.457,79.557c0,6.623-5.388,12.011-12.011,12.011H34.571   c-6.623,0-12.011-5.388-12.011-12.011V48.683c0-6.623,5.388-12.011,12.011-12.011h30.874c6.623,0,12.011,5.388,12.011,12.011   V79.557z M88.164,67.789c0,3.947-3.211,7.157-7.157,7.157h-0.118v-18h0.118c3.947,0,7.157,3.218,7.157,7.174V67.789z"></path><path d="M45.753,55.802c0-4.768-3.879-8.647-8.647-8.647c-4.767,0-8.646,3.879-8.646,8.647s3.879,8.647,8.646,8.647   C41.874,64.448,45.753,60.57,45.753,55.802z M30.748,55.802c0-3.506,2.852-6.359,6.358-6.359s6.359,2.853,6.359,6.359   s-2.853,6.359-6.359,6.359S30.748,59.308,30.748,55.802z"></path><path d="M40.488,55.802c0-1.864-1.517-3.381-3.381-3.381c-1.864,0-3.381,1.517-3.381,3.381c0,1.864,1.517,3.381,3.381,3.381   C38.971,59.183,40.488,57.666,40.488,55.802z"></path><path d="M62.911,47.155c-4.768,0-8.647,3.879-8.647,8.647s3.879,8.647,8.647,8.647c4.767,0,8.646-3.879,8.646-8.647   S67.678,47.155,62.911,47.155z M62.911,62.16c-3.506,0-6.359-2.853-6.359-6.359s2.853-6.359,6.359-6.359s6.358,2.853,6.358,6.359   S66.417,62.16,62.911,62.16z"></path><path d="M62.91,52.42c-1.864,0-3.381,1.517-3.381,3.381c0,1.864,1.517,3.381,3.381,3.381s3.381-1.517,3.381-3.381   C66.292,53.938,64.775,52.42,62.91,52.42z"></path></g></svg></g></g></svg>
