<svg xmlns="http://www.w3.org/2000/svg" xmlns:xlink="http://www.w3.org/1999/xlink" version="1.1" x="0px" y="0px" viewBox="0 0 100 100" enable-background="new 0 0 100 100" xml:space="preserve"><g><path d="M72.926,34.333H62.478l-2.5-5.666H40.022l-2.5,5.666h-2.275v-3.707h-6v3.707h-2.173c-1.93,0-3.5,1.57-3.5,3.5v30   c0,1.93,1.57,3.5,3.5,3.5h45.852c1.93,0,3.5-1.57,3.5-3.5v-30C76.426,35.903,74.855,34.333,72.926,34.333z M73.426,67.833   c0,0.275-0.225,0.5-0.5,0.5H27.074c-0.275,0-0.5-0.225-0.5-0.5v-30c0-0.275,0.225-0.5,0.5-0.5h12.403l2.5-5.666h16.045l2.5,5.666   h12.403c0.275,0,0.5,0.225,0.5,0.5V67.833z"></path><path d="M50,38.766c-7.298,0-13.234,5.937-13.234,13.234S42.702,65.234,50,65.234S63.234,59.298,63.234,52S57.298,38.766,50,38.766   z M50,62.234c-5.644,0-10.234-4.591-10.234-10.234S44.356,41.766,50,41.766S60.234,46.356,60.234,52S55.644,62.234,50,62.234z"></path><path d="M50.001,43.242c-4.83,0-8.76,3.929-8.76,8.758s3.93,8.758,8.76,8.758c4.829,0,8.758-3.929,8.758-8.758   S54.83,43.242,50.001,43.242z M50.001,59.758c-4.278,0-7.76-3.48-7.76-7.758s3.481-7.758,7.76-7.758   c4.277,0,7.758,3.48,7.758,7.758S54.278,59.758,50.001,59.758z"></path></g></svg>