<svg xmlns="http://www.w3.org/2000/svg" xmlns:xlink="http://www.w3.org/1999/xlink" version="1.0" x="0px" y="0px" viewBox="0 0 100 100" enable-background="new 0 0 100 100" xml:space="preserve"><g><path fill="#000000" d="M85.408,49.729c0-2.545-1.88-4.643-4.32-5.021v-0.079h-0.78H54.962c0.109-0.293,0.203-0.598,0.308-0.895   c0.123-0.354,0.249-0.706,0.366-1.066c0.139-0.429,0.266-0.865,0.394-1.303c0.106-0.361,0.217-0.721,0.315-1.088   c0.122-0.449,0.23-0.907,0.341-1.364c0.089-0.366,0.183-0.729,0.264-1.102c0.104-0.472,0.194-0.951,0.287-1.43   c0.07-0.367,0.147-0.731,0.212-1.103c0.086-0.496,0.156-0.999,0.229-1.502c0.054-0.363,0.114-0.723,0.161-1.088   c0.067-0.53,0.118-1.067,0.173-1.603c0.035-0.347,0.078-0.689,0.108-1.038c0.05-0.595,0.081-1.196,0.115-1.798   c0.017-0.295,0.042-0.586,0.055-0.882c0.037-0.899,0.058-1.804,0.058-2.712c0-0.315,0-0.64-0.013-0.958l0.183-0.212l-0.191-0.211   c-0.002-0.243-0.009-0.483-0.016-0.727l-0.007-0.151h0.002l-0.01-0.162l-0.016-0.033c-0.394-2.647-2.731-4.634-5.471-4.634   c-2.735,0-5.034,1.914-5.468,4.551l-0.011,0.066l0.007,0.066c0.074,0.713,0.112,1.413,0.114,2.141   c0.009,0.088,0.008,0.176,0.008,0.264c0,12.545-9.403,22.751-20.961,22.751H22.7h-7.608h-0.5v0.5v29.423v0.5h0.5H22.7h1.01   c4.489,0,8.836,0.709,11.943,1.945l0.103,0.083h0.092c0.331,0.141,0.646,0.29,0.963,0.443l0.098,0.053   c3.305,1.318,8.159,2.075,13.321,2.075h20.087c2.813,0,5.101-2.288,5.101-5.1c0-1.679-0.815-3.171-2.07-4.101h0.592   c2.812,0,5.1-2.288,5.1-5.1c0-1.69-0.827-3.192-2.097-4.12c2.601-0.23,4.646-2.422,4.646-5.082c0-1.679-0.815-3.171-2.07-4.101   h0.79C83.12,54.828,85.408,52.541,85.408,49.729z M15.592,76.831V48.408H21.7v28.423H15.592z M76.488,53.828v1   c2.261,0,4.1,1.84,4.1,4.101c0,2.262-1.839,4.102-4.1,4.102h-2.55v1c2.261,0,4.1,1.84,4.1,4.101s-1.839,4.1-4.1,4.1h-3.622v1   c2.261,0,4.101,1.84,4.101,4.101s-1.84,4.1-4.101,4.1H50.229c-5.037,0-9.755-0.729-12.945-2.003l-0.051-0.025   c-0.329-0.165-0.679-0.331-1.049-0.486l-0.09-0.04c-3.273-1.318-7.672-2.045-12.385-2.045H22.7V48.408h3.799   c12.109,0,21.961-10.655,21.961-23.751c0-0.12-0.001-0.241-0.01-0.322c0-0.677-0.038-1.383-0.109-2.1   c0.023-0.133,0.065-0.258,0.101-0.387c0.033-0.123,0.058-0.251,0.102-0.37c0.048-0.13,0.114-0.249,0.174-0.372   c0.053-0.11,0.098-0.227,0.159-0.332c0.07-0.119,0.158-0.227,0.24-0.338c0.069-0.097,0.131-0.198,0.208-0.288   c0.093-0.108,0.2-0.201,0.303-0.299c0.082-0.08,0.157-0.167,0.246-0.239c0.114-0.094,0.242-0.171,0.365-0.253   c0.091-0.062,0.176-0.131,0.271-0.186c0.136-0.077,0.284-0.135,0.429-0.198c0.095-0.042,0.184-0.094,0.282-0.129   c0.167-0.061,0.344-0.098,0.52-0.139c0.085-0.02,0.165-0.051,0.251-0.066c0.266-0.046,0.539-0.07,0.818-0.07   c2.267,0,4.197,1.652,4.491,3.844l0.01,0.166c0.007,0.232,0.014,0.463,0.016,0.706l-0.189,0.189l0.198,0.219   c0.013,0.319,0.013,0.646,0.013,0.964c0,7.276-1.237,14.293-3.577,20.29l-0.266,0.682h0.731h26.071c2.261,0,4.101,1.84,4.101,4.101   c0,2.26-1.84,4.099-4.101,4.099H76.488z"></path></g></svg>