<svg xmlns="http://www.w3.org/2000/svg" xmlns:xlink="http://www.w3.org/1999/xlink" version="1.1" x="0px" y="0px" viewBox="0 0 64 64" style="enable-background:new 0 0 64 64;" xml:space="preserve"><path d="M2.069,48.344c0.008,0.022,0.013,0.044,0.023,0.066c0.005,0.012,0.007,0.026,0.013,0.038l4,8C6.275,56.786,6.621,57,7,57  s0.725-0.214,0.895-0.553l4-8c0.006-0.012,0.008-0.025,0.013-0.038c0.01-0.021,0.015-0.044,0.023-0.066  c0.036-0.099,0.057-0.201,0.062-0.305C11.993,48.025,12,48.014,12,48V16v-4c0-2.757-2.243-5-5-5s-5,2.243-5,5v4v32  c0,0.014,0.007,0.025,0.008,0.039C2.012,48.143,2.033,48.245,2.069,48.344z M10,47H8V17h2V47z M6,47H4V17h2V47z M7,53.764L4.618,49  h4.764L7,53.764z M4,12c0-1.654,1.346-3,3-3s3,1.346,3,3v3H4V12z"></path><path d="M18.076,61.383C18.231,61.756,18.596,62,19,62h42c0.552,0,1-0.448,1-1V19c0-0.404-0.244-0.769-0.617-0.924  c-0.375-0.155-0.804-0.07-1.09,0.217L57,21.586V15c0-0.552-0.448-1-1-1H45V3c0-0.552-0.448-1-1-1H16c-0.552,0-1,0.448-1,1v48  c0,0.552,0.448,1,1,1h6h4.586l-8.293,8.293C18.007,60.579,17.921,61.009,18.076,61.383z M55,16v7.586l-10,10V16H55z M17,4h26v11  v20.586l-4.54,4.54C38.32,40.052,38.169,40,38,40h-8h-8c-0.552,0-1,0.448-1,1v9h-4V4z M31,47.586V42h5.586L31,47.586z M23,50v-8h6  v7.586L28.586,50H23z M29,52.414l1.293,1.293l1.414-1.414L30.414,51l0.293-0.293L35,46.414l1.293,1.293l1.414-1.414L36.414,45  l2.293-2.293L41,40.414l1.293,1.293l1.414-1.414L42.414,39l2.293-2.293L47,34.414l1.293,1.293l1.414-1.414L48.414,33L53,28.414  l1.293,1.293l1.414-1.414L54.414,27l2.293-2.293L60,21.414V60H21.414L29,52.414z"></path><path d="M56.383,33.076c-0.375-0.156-0.804-0.07-1.09,0.217l-22,22c-0.286,0.286-0.372,0.716-0.217,1.09  C33.231,56.756,33.596,57,34,57h22c0.552,0,1-0.448,1-1V34C57,33.596,56.756,33.231,56.383,33.076z M55,55H36.414L55,36.414V55z"></path><path d="M20,14h4c0.552,0,1-0.448,1-1V7c0-0.552-0.448-1-1-1h-4c-0.552,0-1,0.448-1,1v6C19,13.552,19.448,14,20,14z M21,8h2v4h-2V8z  "></path><path d="M28,14h4c0.552,0,1-0.448,1-1V7c0-0.552-0.448-1-1-1h-4c-0.552,0-1,0.448-1,1v6C27,13.552,27.448,14,28,14z M29,8h2v4h-2V8z  "></path><path d="M36,14h4c0.552,0,1-0.448,1-1V7c0-0.552-0.448-1-1-1h-4c-0.552,0-1,0.448-1,1v6C35,13.552,35.448,14,36,14z M37,8h2v4h-2V8z  "></path><path d="M20,26h4c0.552,0,1-0.448,1-1v-6c0-0.552-0.448-1-1-1h-4c-0.552,0-1,0.448-1,1v6C19,25.552,19.448,26,20,26z M21,20h2v4h-2  V20z"></path><path d="M28,26h4c0.552,0,1-0.448,1-1v-6c0-0.552-0.448-1-1-1h-4c-0.552,0-1,0.448-1,1v6C27,25.552,27.448,26,28,26z M29,20h2v4h-2  V20z"></path><path d="M36,26h4c0.552,0,1-0.448,1-1v-6c0-0.552-0.448-1-1-1h-4c-0.552,0-1,0.448-1,1v6C35,25.552,35.448,26,36,26z M37,20h2v4h-2  V20z"></path><path d="M24,38c0.552,0,1-0.448,1-1v-6c0-0.552-0.448-1-1-1h-4c-0.552,0-1,0.448-1,1v6c0,0.552,0.448,1,1,1H24z M21,32h2v4h-2V32z"></path><path d="M28,38h4c0.552,0,1-0.448,1-1v-6c0-0.552-0.448-1-1-1h-4c-0.552,0-1,0.448-1,1v6C27,37.552,27.448,38,28,38z M29,32h2v4h-2  V32z"></path><path d="M36,38h4c0.552,0,1-0.448,1-1v-6c0-0.552-0.448-1-1-1h-4c-0.552,0-1,0.448-1,1v6C35,37.552,35.448,38,36,38z M37,32h2v4h-2  V32z"></path><path d="M48,26h4c0.552,0,1-0.448,1-1v-6c0-0.552-0.448-1-1-1h-4c-0.552,0-1,0.448-1,1v6C47,25.552,47.448,26,48,26z M49,20h2v4h-2  V20z"></path><rect x="6" y="59" width="2" height="2"></rect><rect x="10" y="59" width="2" height="2"></rect><rect x="14" y="59" width="2" height="2"></rect></svg>