<?xml version="1.0" encoding="UTF-8"?>
<svg width="1200pt" height="1200pt" version="1.1" viewBox="0 0 1200 1200" xmlns="http://www.w3.org/2000/svg">
 <g>
  <path d="m60 0h1080c33.137 0 60 33.137 60 60v1080c0 33.137-26.863 60-60 60h-1080c-33.137 0-60-33.137-60-60v-1080c0-33.137 26.863-60 60-60z" fill="#fff"/>
  <path d="m598.04 450.38h-39.992v-93.656c0-4.418-2.4688-8.4688-6.3945-10.492-3.9336-2.0312-8.6641-1.6953-12.258 0.87109l-288.69 205.3c-3.1133 2.2148-4.9648 5.8008-4.9648 9.6211 0 3.8242 1.8516 7.4102 4.9648 9.6211l288.69 205.3c3.5938 2.5586 8.332 2.8984 12.258 0.87109 3.9258-2.0234 6.3945-6.0781 6.3945-10.492v-93.656h55.164c123.9 0 239.94 61.035 310.39 163.21l9.0742 13.301c2.2422 3.2852 5.9258 5.1523 9.7539 5.1523 1.1602 0 2.3359-0.17188 3.4844-0.52344 4.9453-1.5273 8.3242-6.1055 8.3242-11.285v-36.93c0-196.41-159.79-356.21-356.21-356.21zm15.176 199.66h-66.973c-6.5195 0-11.809 5.2852-11.809 11.809v82.582l-256.51-182.41 256.51-182.41v82.582c0 6.5195 5.2852 11.809 11.809 11.809h51.797c183.34 0 332.5 149.12 332.59 332.43-75.68-98.305-192.81-156.39-317.41-156.39z"/>
 </g>
</svg>
