<svg xmlns:dc="http://purl.org/dc/elements/1.1/" xmlns:cc="http://creativecommons.org/ns#" xmlns:rdf="http://www.w3.org/1999/02/22-rdf-syntax-ns#" xmlns:svg="http://www.w3.org/2000/svg" xmlns="http://www.w3.org/2000/svg" xmlns:sodipodi="http://sodipodi.sourceforge.net/DTD/sodipodi-0.dtd" xmlns:inkscape="http://www.inkscape.org/namespaces/inkscape" version="1.1" x="0px" y="0px" viewBox="0 0 100 100"><g transform="translate(0,-952.36218)"><path style="font-size:medium;font-style:normal;font-variant:normal;font-weight:normal;font-stretch:normal;text-indent:0;text-align:start;text-decoration:none;line-height:normal;letter-spacing:normal;word-spacing:normal;text-transform:none;direction:ltr;block-progression:tb;writing-mode:lr-tb;text-anchor:start;baseline-shift:baseline;opacity:1;color:#0000ff;fill:#0000ff;fill-opacity:1;stroke:none;stroke-width:6;marker:none;visibility:visible;display:inline;overflow:visible;enable-background:accumulate;font-family:Sans;-inkscape-font-specification:Sans" d="M 7.6875 12 A 3.0003 3.0003 0 0 0 5.28125 16.25 L 20.71875 50 L 5.28125 83.75 A 3.0003 3.0003 0 0 0 9.15625 87.75 L 92.59375 52.96875 A 3.0003 3.0003 0 0 0 92.78125 52.90625 L 92.875 52.875 A 3.0003 3.0003 0 0 0 93.15625 47.21875 L 9.15625 12.21875 A 3.0003 3.0003 0 0 0 7.6875 12 z M 13.875 20.6875 L 77.03125 47 L 25.90625 47 L 13.875 20.6875 z M 25.90625 53 L 76.96875 53 L 13.90625 79.28125 L 25.90625 53 z " transform="translate(0,952.36218)"></path></g></svg>