<svg fill="#000000" xmlns:dc="http://purl.org/dc/elements/1.1/" xmlns:cc="http://creativecommons.org/ns#" xmlns:rdf="http://www.w3.org/1999/02/22-rdf-syntax-ns#" xmlns:svg="http://www.w3.org/2000/svg" xmlns="http://www.w3.org/2000/svg" xmlns:sodipodi="http://sodipodi.sourceforge.net/DTD/sodipodi-0.dtd" xmlns:inkscape="http://www.inkscape.org/namespaces/inkscape" version="1.1" viewBox="0 0 106.254 101.667" xml:space="preserve" x="0px" y="0px"><g transform="matrix(-0.63932257,0,0,0.63932257,92.498453,18.285873)"><g transform="matrix(-0.83502688,0,0,0.83502688,168.1125,-23.806487)"><g><path d="m 95.745929,62.69857 -0.01685,-12.53955 -41.90426,33.033268 c 0.06,3.9 -0.06001,8.394444 -1.5e-5,12.294444 L 95.729075,128.52 95.695368,115.86639 61.301123,89.394063 z"></path></g></g><g transform="matrix(0.83502688,0,0,0.83502688,-44.946342,-23.806486)"><g><path d="m 95.745929,62.69857 -0.01685,-12.53955 -41.90426,33.033268 c 0.06,3.9 -0.06001,8.394444 -1.5e-5,12.294444 L 95.729075,128.52 95.695368,115.86639 61.301123,89.394063 z"></path></g></g><path d="m 48.915576,18.003341 -10.94178,0 35.24437,65.812426 12.657781,0"></path></g><path style="" d="m 81.26313,1.1820999 -56.990864,0 c -15.2742009,0 -20.7966679,5.311508 -20.7966679,21.1799071 l 0,57.192378 c 0,15.372525 5.522467,20.930515 20.7966679,20.930515 0,0 41.588406,0 56.990864,0 15.402435,0 21.51527,-5.55799 21.51527,-20.930515 0,-15.37251 0,-57.192378 0,-57.192378 0,-15.8683991 -5.912585,-21.1799071 -21.51527,-21.1799071 z" fill="none" stroke="#000000" stroke-width="6.95119619" stroke-miterlimit="4" stroke-opacity="1" stroke-dasharray="none"></path></svg>