<svg xmlns="http://www.w3.org/2000/svg" xmlns:xlink="http://www.w3.org/1999/xlink" version="1.1" x="0px" y="0px" viewBox="0 0 100 125" enable-background="new 0 0 100 100" xml:space="preserve"><path d="M70.969,20.581h-4.789v2.306c0,2.546-2.072,4.619-4.618,4.619c-2.547,0-4.619-2.072-4.619-4.619v-2.306h-1.76v2.306  c0,2.546-2.072,4.619-4.618,4.619c-2.547,0-4.619-2.072-4.619-4.619v-2.306h-1.76v2.306c0,2.546-2.072,4.619-4.618,4.619  s-4.619-2.072-4.619-4.619v-2.306h-1.76v2.306c0,2.546-2.072,4.619-4.618,4.619s-4.619-2.072-4.619-4.619v-2.306h-5.468  c-1.612,0-2.918,1.251-2.918,2.794v57.307c0,1.543,1.306,2.794,2.918,2.794h52.485c1.612,0,2.918-1.251,2.918-2.794V23.375  C73.887,21.832,72.581,20.581,70.969,20.581z M66.208,72.929H23.925v-2.109h42.283V72.929z M66.208,62.91H23.925v-2.109h42.283  V62.91z M66.208,52.893H23.925v-2.109h42.283V52.893z M66.208,42.874H23.925v-2.109h42.283V42.874z"/><g><path d="M28.571,16.029c-1.238,0-2.246,1.008-2.246,2.246v2.306v0.893v1.414c0,1.238,1.007,2.246,2.246,2.246   c1.238,0,2.245-1.008,2.245-2.246v-1.414v-0.893v-2.306C30.816,17.037,29.809,16.029,28.571,16.029z"/><path d="M39.568,16.029c-1.238,0-2.246,1.008-2.246,2.246v2.306v0.893v1.414c0,1.238,1.007,2.246,2.246,2.246   c1.238,0,2.246-1.008,2.246-2.246v-1.414v-0.893v-2.306C41.813,17.037,40.806,16.029,39.568,16.029z"/><path d="M50.565,16.029c-1.239,0-2.246,1.008-2.246,2.246v2.306v0.893v1.414c0,1.238,1.007,2.246,2.246,2.246   c1.238,0,2.245-1.008,2.245-2.246v-1.414v-0.893v-2.306C52.811,17.037,51.803,16.029,50.565,16.029z"/><path d="M61.562,16.029c-1.239,0-2.246,1.008-2.246,2.246v2.306v0.893v1.414c0,1.238,1.007,2.246,2.246,2.246   c1.238,0,2.245-1.008,2.245-2.246v-1.414v-0.893v-2.306C63.808,17.037,62.8,16.029,61.562,16.029z"/></g><rect x="79.235" y="38.389" width="5.198" height="39.367"/><rect x="79.235" y="79.865" width="5.198" height="4.105"/><polygon points="79.235,36.28 84.434,36.28 83.155,31.007 80.514,31.007 "/><polygon points="81.835,25.561 80.77,29.952 82.9,29.952 "/><text x="0" y="115" fill="#000000" font-size="5px" font-weight="bold" font-family="'Helvetica Neue', Helvetica, Arial-Unicode, Arial, Sans-serif">Created by Filippo Gianessi</text><text x="0" y="120" fill="#000000" font-size="5px" font-weight="bold" font-family="'Helvetica Neue', Helvetica, Arial-Unicode, Arial, Sans-serif">from the Noun Project</text></svg>