<svg xmlns="http://www.w3.org/2000/svg" xmlns:xlink="http://www.w3.org/1999/xlink" version="1.1" x="0px" y="0px" viewBox="0 0 100 100" enable-background="new 0 0 100 100" xml:space="preserve"><g><path d="M50,25.236C17.013,25.236,5,50,5,50s12.013,24.764,45,24.764S95,50,95,50S82.987,25.236,50,25.236z M49.694,44.342   c0-3.671,2.973-6.648,6.641-6.648c3.676,0,6.647,2.978,6.647,6.648c0,3.668-2.972,6.646-6.647,6.646   C52.667,50.987,49.694,48.01,49.694,44.342z M10.468,50.013c3.094-4.76,12.356-16.363,30.593-19.34   C33.769,34.052,28.711,41.435,28.711,50c0,8.577,5.071,15.97,12.38,19.341C22.754,66.395,13.557,54.816,10.468,50.013z    M58.939,69.327c7.292-3.379,12.35-10.762,12.35-19.327c0-8.577-5.071-15.97-12.38-19.342   c18.337,2.947,27.534,14.525,30.623,19.329C86.438,54.746,77.176,66.351,58.939,69.327z"></path></g></svg>