<svg xmlns="http://www.w3.org/2000/svg" xmlns:xlink="http://www.w3.org/1999/xlink" version="1.0" x="0px" y="0px" viewBox="0 0 100 100" enable-background="new 0 0 100 100" xml:space="preserve"><g><path fill="#000000" d="M84.362,22.596h-7.498h-0.985c-4.415,0-8.69-0.697-11.749-1.913l-0.099-0.084h-0.1   c-0.297-0.126-0.58-0.262-0.862-0.397c-0.034-0.016-0.065-0.031-0.1-0.047l-0.08-0.043c-3.254-1.299-8.034-2.044-13.116-2.044   H30.001c-2.772,0-5.028,2.256-5.028,5.028c0,1.646,0.795,3.11,2.022,4.028h-0.559c-2.772,0-5.028,2.256-5.028,5.028   c0,1.659,0.808,3.133,2.051,4.05c-2.554,0.236-4.561,2.392-4.561,5.008c0,1.646,0.795,3.11,2.022,4.028h-0.753   c-2.772,0-5.028,2.255-5.028,5.027c0,2.509,1.854,4.578,4.26,4.951v0.078h0.769h24.939c-0.106,0.285-0.198,0.582-0.3,0.873   c-0.123,0.35-0.247,0.697-0.362,1.055c-0.135,0.416-0.259,0.842-0.384,1.266c-0.106,0.363-0.216,0.723-0.315,1.09   c-0.117,0.434-0.222,0.875-0.329,1.316c-0.09,0.369-0.184,0.736-0.266,1.111c-0.1,0.453-0.187,0.914-0.276,1.375   c-0.072,0.371-0.149,0.74-0.214,1.115c-0.083,0.479-0.151,0.965-0.222,1.451c-0.054,0.365-0.115,0.729-0.162,1.098   c-0.066,0.514-0.115,1.033-0.168,1.553c-0.035,0.348-0.079,0.693-0.108,1.043c-0.049,0.584-0.08,1.172-0.113,1.76   c-0.017,0.293-0.042,0.584-0.054,0.877c-0.038,0.885-0.057,1.775-0.057,2.67c0,0.307,0,0.623,0.011,0.932l-0.182,0.201l0.191,0.223   c0.002,0.25,0.009,0.494,0.016,0.744l0.006,0.123h-0.002l0.01,0.17l0.017,0.033c0.392,2.605,2.694,4.559,5.391,4.559   c2.696,0,4.963-1.887,5.39-4.486l0.011-0.066l-0.007-0.066c-0.073-0.707-0.11-1.395-0.112-2.105   c-0.009-0.086-0.008-0.174-0.008-0.262c0-5.988,2.149-11.615,6.054-15.844c3.894-4.219,9.068-6.543,14.571-6.543h3.731h7.498h0.5   v-0.5V23.096v-0.5H84.362z M83.862,23.596v27.962h-5.998V23.596H83.862z M57.827,58.422c-4.076,4.416-6.319,10.283-6.319,16.523   c0,0.119,0.001,0.238,0.01,0.318c0,0.66,0.037,1.355,0.108,2.064c-0.024,0.139-0.068,0.271-0.105,0.406   c-0.031,0.111-0.053,0.229-0.093,0.336c-0.05,0.137-0.119,0.262-0.183,0.393c-0.049,0.1-0.089,0.205-0.145,0.301   c-0.075,0.127-0.168,0.242-0.256,0.359c-0.063,0.086-0.116,0.176-0.185,0.256c-0.099,0.115-0.213,0.215-0.324,0.318   c-0.073,0.07-0.138,0.146-0.216,0.211c-0.121,0.1-0.255,0.182-0.386,0.268c-0.081,0.053-0.155,0.115-0.24,0.164   c-0.14,0.08-0.292,0.139-0.442,0.203c-0.086,0.039-0.167,0.086-0.257,0.117c-0.167,0.061-0.343,0.098-0.518,0.139   c-0.081,0.02-0.157,0.049-0.24,0.064c-0.261,0.045-0.53,0.068-0.804,0.068c-2.228,0-4.124-1.623-4.412-3.777l-0.01-0.137   c-0.006-0.234-0.013-0.465-0.016-0.709l0.189-0.18L42.788,75.9c-0.013-0.316-0.013-0.639-0.013-0.953   c0-7.162,1.218-14.068,3.521-19.971l0.266-0.682h-0.732H20.166c-2.221,0-4.028-1.808-4.028-4.029c0-2.221,1.807-4.027,4.028-4.027   h3.76v-1c-2.221,0-4.028-1.807-4.028-4.028c0-2.222,1.807-4.03,4.028-4.03h2.51v-1c-2.221,0-4.028-1.807-4.028-4.028   s1.807-4.028,4.028-4.028h3.565v-1c-2.221,0-4.028-1.807-4.028-4.028s1.807-4.028,4.028-4.028h19.773   c4.956,0,9.598,0.718,12.738,1.97l0.051,0.025c0.322,0.161,0.665,0.324,1.026,0.477l0.096,0.042   c3.224,1.299,7.555,2.014,12.194,2.014h0.985v27.962h-3.731C67.348,51.559,61.912,53.996,57.827,58.422z"></path></g></svg>