<svg height='100px' width='100px'  fill="#000000" xmlns="http://www.w3.org/2000/svg" xmlns:xlink="http://www.w3.org/1999/xlink" version="1.1" x="0px" y="0px" viewBox="0 0 52 52" enable-background="new 0 0 52 52" xml:space="preserve"><g><polygon fill="none" stroke="#000000" stroke-width="2" stroke-miterlimit="10" points="30.0005608,40 8,40 8,3 35,3    35,35.0004005  "></polygon><polyline fill="none" stroke="#000000" stroke-width="2" stroke-miterlimit="10" points="35.0000114,11 44,11 44,43.9845238    39.0005608,49 17,49 17,39.9997978  "></polyline><polyline fill="none" stroke="#000000" stroke-width="2" stroke-miterlimit="10" points="38,49 38,43 44,43  "></polyline><polyline fill="none" stroke="#000000" stroke-width="2" stroke-miterlimit="10" points="29,40 29,34 35,34  "></polyline><line fill="none" stroke="#000000" stroke-width="2" stroke-miterlimit="10" x1="17" y1="9" x2="31" y2="9"></line><line fill="none" stroke="#000000" stroke-width="2" stroke-miterlimit="10" x1="14" y1="9" x2="12" y2="9"></line><line fill="none" stroke="#000000" stroke-width="2" stroke-miterlimit="10" x1="17" y1="14" x2="31" y2="14"></line><line fill="none" stroke="#000000" stroke-width="2" stroke-miterlimit="10" x1="14" y1="14" x2="12" y2="14"></line><line fill="none" stroke="#000000" stroke-width="2" stroke-miterlimit="10" x1="17" y1="19" x2="31" y2="19"></line><line fill="none" stroke="#000000" stroke-width="2" stroke-miterlimit="10" x1="14" y1="19" x2="12" y2="19"></line><line fill="none" stroke="#000000" stroke-width="2" stroke-miterlimit="10" x1="17" y1="24" x2="31" y2="24"></line><line fill="none" stroke="#000000" stroke-width="2" stroke-miterlimit="10" x1="14" y1="24" x2="12" y2="24"></line><line fill="none" stroke="#000000" stroke-width="2" stroke-miterlimit="10" x1="17" y1="29" x2="31" y2="29"></line><line fill="none" stroke="#000000" stroke-width="2" stroke-miterlimit="10" x1="14" y1="29" x2="12" y2="29"></line></g></svg>