<svg xmlns="http://www.w3.org/2000/svg" xmlns:xlink="http://www.w3.org/1999/xlink" version="1.1" x="0px" y="0px" viewBox="0 0 100 100" enable-background="new 0 0 100 100" xml:space="preserve"><path d="M81,45h-3v-8c0-0.6-0.4-1-1-1H51.4l-7.7-7.7C43.5,28.1,43.3,28,43,28H23c-0.6,0-1,0.4-1,1v8h-3c-0.59,0-1.085,0.545-0.9,1.1  l4,33c0.1,0.5,0.5,0.9,1,0.9h54c0.5,0,0.9-0.4,1-0.8l4-25C81.866,45.497,81.792,45,81,45z M24,30h18.6l7.7,7.7  c0.2,0.2,0.4,0.3,0.7,0.3h25v7H47.4l-7.7-7.7C39.5,37.1,39.3,37,39,37H24V30z M76.1,70H23.9l-3.8-31h18.5l7.7,7.7  c0.2,0.2,0.4,0.3,0.7,0.3h32.8L76.1,70z"></path></svg>