<svg xmlns="http://www.w3.org/2000/svg" xmlns:xlink="http://www.w3.org/1999/xlink" version="1.0" x="0px" y="0px" viewBox="0 0 100 100" enable-background="new 0 0 100 100" xml:space="preserve"><g><path fill="#000000" d="M84.528,33.389c-0.077-0.188-0.26-0.309-0.462-0.309H71.892L84.42,20.556   c0.143-0.143,0.186-0.357,0.108-0.545c-0.077-0.187-0.26-0.309-0.462-0.309H15.935c-0.202,0-0.385,0.122-0.462,0.309   c-0.078,0.188-0.035,0.402,0.108,0.545L28.109,33.08H15.935c-0.202,0-0.385,0.121-0.462,0.309   c-0.078,0.187-0.035,0.401,0.108,0.545l11.313,11.31H15.935c-0.202,0-0.385,0.122-0.462,0.309   c-0.078,0.187-0.035,0.401,0.108,0.545l34.064,34.055c0.098,0.098,0.226,0.146,0.354,0.146s0.256-0.049,0.354-0.146L84.42,46.097   c0.143-0.144,0.186-0.358,0.108-0.545s-0.26-0.309-0.462-0.309h-10.96l11.313-11.31C84.563,33.79,84.605,33.575,84.528,33.389z    M82.859,20.702L49.999,53.55L17.142,20.702H82.859z M82.859,46.243l-32.86,32.848L17.142,46.243h10.752l21.751,21.745   c0.098,0.098,0.226,0.146,0.354,0.146s0.256-0.049,0.354-0.146l21.754-21.745H82.859z M49.999,66.928L17.142,34.08h11.967   l20.537,20.53c0.098,0.098,0.226,0.146,0.354,0.146s0.256-0.049,0.354-0.146l20.538-20.53h11.969L49.999,66.928z"></path></g></svg>