<svg xmlns="http://www.w3.org/2000/svg" xmlns:xlink="http://www.w3.org/1999/xlink" version="1.1" x="0px" y="0px" viewBox="0 0 100 100" enable-background="new 0 0 100 100" xml:space="preserve"><path d="M77,34H49.4l-6.5-6.5C42,26.6,40.7,26,39.4,26H23c-2.8,0-5,2.2-5,5v8v30c0,2.8,2.2,5,5,5h54c2.8,0,5-2.2,5-5V39  C82,36.2,79.8,34,77,34z M23,28h16.3c0.8,0,1.6,0.3,2.1,0.9l5.1,5.1H23c-1.1,0-2.2,0.4-3,1v-4C20,29.3,21.3,28,23,28z M80,69  c0,1.7-1.3,3-3,3H23c-1.7,0-3-1.3-3-3V39c0-1.7,1.3-3,3-3h54c1.7,0,3,1.3,3,3V69z"></path></svg>