<svg xmlns="http://www.w3.org/2000/svg" data-name="Layer 1" viewBox="0 0 100 100" x="0px" y="0px"><title>Artboard 11</title><path d="M21.46,76.47A40.12,40.12,0,0,1,12,60.87a4.07,4.07,0,0,1,3.1-5.21h0a4.1,4.1,0,0,1,4.71,2.76,31.92,31.92,0,0,0,7.46,12.27,4.1,4.1,0,0,1,.27,5.46h0A4.07,4.07,0,0,1,21.46,76.47Zm57.08,0A40.13,40.13,0,0,0,88,60.87a4.07,4.07,0,0,0-3.09-5.21h0a4.1,4.1,0,0,0-4.71,2.76,31.92,31.92,0,0,1-7.46,12.27,4.09,4.09,0,0,0,5.78,5.79ZM61.89,14.89A4.09,4.09,0,0,0,59,9.53a40.32,40.32,0,0,0-18,0,4.09,4.09,0,0,0,1.82,8,32.09,32.09,0,0,1,14.31,0A4.07,4.07,0,0,0,61.89,14.89Zm9-.14A10.77,10.77,0,1,0,81.66,4,10.77,10.77,0,0,0,70.89,14.75ZM87.69,28.16,82.94,34.1a1.63,1.63,0,0,1-2.55,0l-4.75-5.93a1.71,1.71,0,0,0-1.82-.56,13.26,13.26,0,0,0-9.49,12.72V43.4a3.11,3.11,0,0,0,3.11,3.11H95.89A3.11,3.11,0,0,0,99,43.4V40.32A13.26,13.26,0,0,0,89.51,27.6,1.71,1.71,0,0,0,87.69,28.16ZM18.34,25.52A10.77,10.77,0,1,0,7.57,14.75,10.77,10.77,0,0,0,18.34,25.52Zm-14.23,21H32.56a3.11,3.11,0,0,0,3.11-3.11V40.32A13.26,13.26,0,0,0,26.18,27.6a1.71,1.71,0,0,0-1.82.56L19.61,34.1a1.63,1.63,0,0,1-2.55,0l-4.75-5.93a1.71,1.71,0,0,0-1.82-.56A13.26,13.26,0,0,0,1,40.32V43.4A3.11,3.11,0,0,0,4.11,46.51Zm45.89,7A10.77,10.77,0,1,0,60.77,64.26,10.77,10.77,0,0,0,50,53.49ZM32.66,89.83v3.09A3.11,3.11,0,0,0,35.77,96H64.23a3.11,3.11,0,0,0,3.11-3.11V89.83a13.26,13.26,0,0,0-9.49-12.72,1.71,1.71,0,0,0-1.82.56l-4.75,5.93a1.63,1.63,0,0,1-2.55,0L44,77.68a1.71,1.71,0,0,0-1.82-.56A13.26,13.26,0,0,0,32.66,89.83Z"></path></svg>