<svg xmlns="http://www.w3.org/2000/svg" data-name="Layer 1" viewBox="0 0 100 100" x="0px" y="0px"><title>Artboard 66</title><path d="M82.49,19.25H65.75a1,1,0,0,1-1-1,4,4,0,0,0-4-4H17.56a4,4,0,0,0-4,4v68a4,4,0,0,0,4,4H60.75a5.48,5.48,0,0,0,2.2-.53,1.5,1.5,0,0,0,1.8-1.47v-21h9.17a4,4,0,0,0,4-4v-9a4,4,0,0,0-.9-2.5,4,4,0,0,0,.9-2.5v-9a4,4,0,0,0-.17-1.08h4.73a4,4,0,0,0,4-4v-12A4,4,0,0,0,82.49,19.25Zm-7.57,44a1,1,0,0,1-1,1H64.75v-11h9.17a1,1,0,0,1,1,1Zm0-14a1,1,0,0,1-1,1H64.75v-8c0-.7.07-3,1-3h7.7a1.48,1.48,0,0,0,.47.08,1,1,0,0,1,1,1Zm8.57-14a1,1,0,0,1-1,1H65.75c-1.2,0-4,.58-4,6V87a2.71,2.71,0,0,1-1,.28H17.56a1,1,0,0,1-1-1v-68a1,1,0,0,1,1-1H60.75a1,1,0,0,1,1,1,4,4,0,0,0,4,4H82.49a1,1,0,0,1,1,1Z"></path><path d="M53.46,30.15H26.75a1.5,1.5,0,0,0,0,3H53.46a1.5,1.5,0,0,0,0-3Z"></path><path d="M53.46,40.15H26.75a1.5,1.5,0,0,0,0,3H53.46a1.5,1.5,0,0,0,0-3Z"></path><path d="M53.46,50.27H26.75a1.5,1.5,0,0,0,0,3H53.46a1.5,1.5,0,0,0,0-3Z"></path><path d="M53.46,60.27H26.75a1.5,1.5,0,0,0,0,3H53.46a1.5,1.5,0,0,0,0-3Z"></path><path d="M43.46,70.27H26.75a1.5,1.5,0,0,0,0,3H43.46a1.5,1.5,0,0,0,0-3Z"></path></svg>