<svg fill="#51A7F9" xmlns="http://www.w3.org/2000/svg" xmlns:xlink="http://www.w3.org/1999/xlink" version="1.1" x="0px" y="0px" viewBox="0 0 100 100" style="enable-background:new 0 0 100 100;" xml:space="preserve"><g><path d="M83.583,6.417v87.165H16.417V25.587l19.17-19.17H83.583 M85,5H35L15,25v70h70V5L85,5z"></path></g><g><path d="M27.403,79.302h3.823v3.586h-3.823V79.302z"></path><path d="M32.932,78.625l3.788-0.237c0.082,0.615,0.249,1.084,0.501,1.406c0.41,0.521,0.996,0.782,1.758,0.782   c0.568,0,1.006-0.133,1.314-0.399s0.461-0.576,0.461-0.928c0-0.334-0.146-0.633-0.439-0.896s-0.973-0.513-2.039-0.747   c-1.746-0.393-2.991-0.914-3.735-1.564c-0.75-0.65-1.125-1.479-1.125-2.487c0-0.662,0.192-1.287,0.576-1.877   c0.384-0.588,0.961-1.051,1.731-1.389c0.771-0.336,1.827-0.505,3.168-0.505c1.646,0,2.902,0.307,3.766,0.919   s1.378,1.586,1.542,2.922l-3.753,0.22c-0.1-0.58-0.309-1.002-0.628-1.266s-0.76-0.396-1.323-0.396   c-0.463,0-0.812,0.099-1.046,0.295s-0.352,0.435-0.352,0.716c0,0.205,0.097,0.39,0.29,0.554c0.188,0.17,0.633,0.328,1.336,0.475   c1.74,0.375,2.987,0.755,3.74,1.139s1.301,0.859,1.644,1.428s0.514,1.204,0.514,1.907c0,0.826-0.229,1.588-0.686,2.285   s-1.096,1.226-1.916,1.587c-0.82,0.359-1.854,0.54-3.103,0.54c-2.191,0-3.709-0.422-4.553-1.266S33.043,79.926,32.932,78.625z"></path><path d="M45.359,70.003h4.162l2.9,9.272l2.862-9.272h4.041l-4.784,12.885h-4.315L45.359,70.003z"></path><path d="M66.488,78.221V75.54h6.152v5.493c-1.178,0.803-2.22,1.349-3.124,1.64c-0.906,0.289-1.979,0.435-3.222,0.435   c-1.529,0-2.776-0.261-3.739-0.782c-0.965-0.521-1.712-1.298-2.242-2.329s-0.795-2.215-0.795-3.551c0-1.406,0.29-2.629,0.87-3.669   s1.43-1.83,2.549-2.369c0.873-0.416,2.048-0.624,3.524-0.624c1.424,0,2.488,0.129,3.195,0.387c0.705,0.258,1.291,0.658,1.758,1.2   c0.465,0.542,0.815,1.229,1.05,2.061l-3.841,0.686c-0.158-0.486-0.426-0.858-0.805-1.116c-0.377-0.258-0.859-0.387-1.445-0.387   c-0.873,0-1.568,0.304-2.088,0.909c-0.518,0.607-0.777,1.566-0.777,2.879c0,1.395,0.262,2.391,0.787,2.988   c0.523,0.598,1.255,0.896,2.192,0.896c0.445,0,0.87-0.064,1.274-0.193s0.867-0.349,1.389-0.659v-1.213H66.488z"></path></g><polygon points="45.266,28.83 26.871,60.69 63.66,60.69 "></polygon><polygon points="58.925,36.089 44.722,60.69 73.129,60.69 "></polygon><circle cx="68.623" cy="29.506" r="4.506"></circle></svg>