<svg xmlns="http://www.w3.org/2000/svg" xmlns:xlink="http://www.w3.org/1999/xlink" version="1.1" x="0px" y="0px" viewBox="0 0 100 100" enable-background="new 0 0 100 100" xml:space="preserve"><g><path fill="#000000" d="M90.474,5.04H61.789c-2.3,0-4.164,1.864-4.164,4.164s1.864,4.164,4.164,4.164h19.095L40.02,54.232   c-1.627,1.626-1.627,4.263,0,5.889c0.813,0.813,1.879,1.22,2.944,1.22c1.065,0,2.131-0.407,2.944-1.22L86.31,19.718v18.17   c0,2.3,1.864,4.164,4.164,4.164c2.3,0,4.164-1.864,4.164-4.164V9.204C94.638,6.904,92.774,5.04,90.474,5.04z"></path><path fill="#000000" d="M76.071,46.976c-2.3,0-4.164,1.864-4.164,4.164v32.852c0,1.505-1.271,2.776-2.776,2.776h-53.09   c-1.505,0-2.776-1.271-2.776-2.776v-53.09c0-1.505,1.271-2.776,2.776-2.776h32.968c2.3,0,4.164-1.864,4.164-4.164   s-1.864-4.164-4.164-4.164H16.041c-6.123,0-11.104,4.981-11.104,11.104v53.09c0,6.123,4.981,11.104,11.104,11.104h53.09   c6.123,0,11.104-4.981,11.104-11.104V51.14C80.235,48.841,78.371,46.976,76.071,46.976z"></path></g></svg>