<svg height='100px' width='100px'  fill="#000000" xmlns="http://www.w3.org/2000/svg" xmlns:xlink="http://www.w3.org/1999/xlink" version="1.1" x="0px" y="0px" viewBox="0 0 100 100" enable-background="new 0 0 100 100" xml:space="preserve"><g><path fill="#000000" d="M89.853,93.239H10.144c-3.108,0-6.006-1.673-7.561-4.365c-1.554-2.691-1.554-6.037,0-8.73l39.848-69.019   c1.555-2.692,4.452-4.365,7.562-4.365c3.108,0,6.005,1.673,7.56,4.365l39.622,68.628c0.922,1.415,1.408,3.059,1.408,4.755   C98.582,89.323,94.666,93.239,89.853,93.239z M49.992,9.348c-2.188,0-4.228,1.177-5.32,3.071L4.823,81.438   c-1.094,1.895-1.094,4.249,0,6.143c1.094,1.895,3.132,3.071,5.32,3.071h79.709c3.388,0,6.144-2.755,6.144-6.143   c0-1.204-0.348-2.368-1.005-3.368l-0.04-0.063l-39.64-68.659C54.218,10.524,52.18,9.348,49.992,9.348z"></path><g><path fill="#000000" d="M49.867,23.951c-2.298,0.073-4.102,1.994-4.029,4.292l1.275,40.394c0.051,1.507,1.265,2.746,2.794,2.794    c1.593,0.05,2.926-1.201,2.976-2.794l1.275-40.394c0.003-0.083,0.003-0.179,0-0.263C54.086,25.683,52.165,23.878,49.867,23.951z"></path><path fill="#000000" d="M50.225,75.98c-1.594-0.125-2.986,1.066-3.111,2.659l-0.266,3.389c-0.012,0.156-0.013,0.333,0,0.493    c0.137,1.74,1.657,3.04,3.397,2.903c1.739-0.136,3.04-1.657,2.903-3.396l-0.266-3.389C52.775,77.242,51.664,76.093,50.225,75.98z"></path></g></g></svg>
