<svg height='100px' width='100px'  fill="#3bb300" xmlns="http://www.w3.org/2000/svg" viewBox="0 0 100 100" x="0px" y="0px"><defs><style>.cls-1{fill:none;}</style></defs><title>Asset 288</title><g data-name="Layer 2"><g data-name="Layer 1"><rect class="cls-1" width="100" height="100"></rect><path d="M60,19.84H18.15A12.54,12.54,0,0,0,5.63,32.37v55.1A12.54,12.54,0,0,0,18.15,100H60A12.54,12.54,0,0,0,72.48,87.47V32.37A12.54,12.54,0,0,0,60,19.84Zm3.22,67.63A3.22,3.22,0,0,1,60,90.69H18.15a3.22,3.22,0,0,1-3.21-3.22V32.37a3.21,3.21,0,0,1,3.21-3.21H60a3.22,3.22,0,0,1,3.22,3.21Z"></path><path d="M81.85,0H43.21A11.32,11.32,0,0,0,31.9,11.31a4.66,4.66,0,0,0,9.31,0,2,2,0,0,1,2-2H81.85a3.22,3.22,0,0,1,3.21,3.22V64.47a2,2,0,0,1-2,2H80.68a4.66,4.66,0,0,0,0,9.32h2.39a11.32,11.32,0,0,0,11.3-11.31V12.53A12.54,12.54,0,0,0,81.85,0Z"></path></g></g></svg>