<svg xmlns="http://www.w3.org/2000/svg" xmlns:xlink="http://www.w3.org/1999/xlink" version="1.1" x="0px" y="0px" viewBox="0 0 100 100" enable-background="new 0 0 100 100" xml:space="preserve"><path d="M79.861,62.919c-5.917,0-11.131,3.048-14.169,7.652L35.924,55.688c0.648-1.796,1.021-3.724,1.021-5.741  s-0.372-3.945-1.021-5.741l29.769-14.883c3.039,4.604,8.252,7.652,14.169,7.652c9.358,0,16.972-7.614,16.972-16.972  S89.22,3.03,79.861,3.03s-16.973,7.614-16.973,16.972c0,2.017,0.372,3.943,1.021,5.739L34.14,40.625  c-3.039-4.603-8.251-7.65-14.167-7.65C10.614,32.975,3,40.588,3,49.947c0,9.359,7.614,16.972,16.972,16.972  c5.917,0,11.129-3.048,14.168-7.65l29.768,14.884c-0.647,1.795-1.02,3.722-1.02,5.738c0,9.358,7.614,16.973,16.973,16.973  s16.972-7.614,16.972-16.973S89.22,62.919,79.861,62.919z M79.861,7.03c7.152,0,12.972,5.819,12.972,12.972  s-5.819,12.972-12.972,12.972c-7.153,0-12.973-5.819-12.973-12.972S72.708,7.03,79.861,7.03z M19.972,62.919  C12.819,62.919,7,57.1,7,49.947s5.819-12.972,12.972-12.972s12.972,5.819,12.972,12.972S27.125,62.919,19.972,62.919z   M79.861,92.863c-7.153,0-12.973-5.819-12.973-12.973c0-7.152,5.819-12.972,12.973-12.972c7.152,0,12.972,5.819,12.972,12.972  C92.833,87.044,87.014,92.863,79.861,92.863z"></path></svg>