<svg xmlns:dc="http://purl.org/dc/elements/1.1/" xmlns:cc="http://creativecommons.org/ns#" xmlns:rdf="http://www.w3.org/1999/02/22-rdf-syntax-ns#" xmlns:svg="http://www.w3.org/2000/svg" xmlns="http://www.w3.org/2000/svg" xmlns:sodipodi="http://sodipodi.sourceforge.net/DTD/sodipodi-0.dtd" xmlns:inkscape="http://www.inkscape.org/namespaces/inkscape" version="1.1" x="0px" y="0px" viewBox="0 0 100 100"><g transform="translate(0,-952.36218)"><path d="m 18.000002,959.36218 0,2 0,82.00002 0,2 2,0 59.999996,0 2,0 0,-2 c 0,-20.9479 0,-41.8958 0,-62.84373 -7.339096,-7.339 -14.863296,-14.86333 -21.156246,-21.15629 -13.61458,0 -27.22917,0 -40.84375,0 z m 4,4 36,0 0,17.99999 0,2 2,0 17.999996,0 0,58.00003 -55.999996,0 z m 40,2.8125 13.1875,13.18749 -13.1875,0 z" style="text-indent:0;text-transform:none;direction:ltr;block-progression:tb;baseline-shift:baseline;color:#000000;enable-background:accumulate;" fill="#000000" fill-opacity="1" stroke="none" marker="none" visibility="visible" display="inline" overflow="visible"></path></g></svg>