<svg height='100px' width='100px'  fill="#000000" xmlns="http://www.w3.org/2000/svg" xmlns:xlink="http://www.w3.org/1999/xlink" version="1.1" x="0px" y="0px" viewBox="0 0 100 100" style="enable-background:new 0 0 100 100;" xml:space="preserve"><path d="M87,81.3L69.1,63.4c9-11.7,8.1-28.6-2.7-39.3c-5.9-5.9-13.5-8.8-21.2-8.8s-15.3,2.9-21.2,8.8c-11.7,11.7-11.7,30.7,0,42.4  c5.9,5.9,13.5,8.8,21.2,8.8c6.4,0,12.8-2,18.1-6.1L81.3,87c0.8,0.8,1.8,1.2,2.9,1.2c1,0,2.1-0.4,2.9-1.2  C88.6,85.5,88.6,82.9,87,81.3z M45.3,67.2c-5.9,0-11.3-2.3-15.5-6.4c-8.5-8.5-8.5-22.4,0-31c4.1-4.1,9.6-6.4,15.5-6.4  s11.3,2.3,15.5,6.4s6.4,9.6,6.4,15.5c0,5.9-2.3,11.3-6.4,15.5S51.1,67.2,45.3,67.2z"></path></svg>