<svg xmlns="http://www.w3.org/2000/svg" xmlns:svg="http://www.w3.org/2000/svg" version="1.1" x="0px" y="0px" viewBox="0 0 100 100" enable-background="new 0 0 100 100" >
 <g>
  <path fill="black" id="svg_1" d="m91.34375,25.5l-42.2625,0l-9.95312,-10.15625c-1.37812,-1.40625 -3.36875,-2.34375 -5.35937,-2.34375l-25.1125,0c-4.2875,0 -7.65625,3.4375 -7.65625,7.8125l0,12.5l0,46.875c0,4.375 3.36875,7.8125 7.65625,7.8125l82.68749,0c4.2875,0 7.65625,-3.4375 7.65625,-7.8125l0,-46.875c0,-4.375 -3.36875,-7.8125 -7.65625,-7.8125zm-82.68749,-9.375l24.95937,0c1.225,0 2.45,0.46875 3.21562,1.40625l7.80937,7.96875l-35.98437,0c-1.68437,0 -3.36875,0.625 -4.59375,1.5625l0,-6.25c0,-2.65625 1.99062,-4.6875 4.59375,-4.6875zm87.28124,64.0625c0,2.65625 -1.99062,4.6875 -4.59375,4.6875l-82.68749,0c-2.60312,0 -4.59375,-2.03125 -4.59375,-4.6875l0,-46.875c0,-2.65625 1.99062,-4.6875 4.59375,-4.6875l82.68749,0c2.60312,0 4.59375,2.03125 4.59375,4.6875l0,46.875z"/>
 </g>
</svg>
