<svg fill="#000000" xmlns="http://www.w3.org/2000/svg" data-name="Layer 1" viewBox="0 0 100 100" x="0px" y="0px"><title>48</title><g data-name="Group"><path data-name="Compound Path" d="M85,35.8H15a4,4,0,0,0-3.9,4.7l7,40.3A4,4,0,0,0,22,84.2H78a4,4,0,0,0,3.9-3.3l7-40.3A4,4,0,0,0,85,35.8ZM74.6,76.2H25.4L19.8,43.8H80.2Z"></path><path data-name="Path" d="M41,57H59a4,4,0,0,0,0-8H41a4,4,0,0,0,0,8Z"></path><path data-name="Path" d="M19,29.8a4,4,0,0,0,4,4H77a4,4,0,0,0,0-8H23A4,4,0,0,0,19,29.8Z"></path><path data-name="Path" d="M69,23.8a4,4,0,0,0,0-8H31a4,4,0,0,0,0,8Z"></path></g></svg>
