<svg xmlns="http://www.w3.org/2000/svg" xmlns:xlink="http://www.w3.org/1999/xlink" version="1.1" x="0px" y="0px" viewBox="0 0 100 100" enable-background="new 0 0 100 100" xml:space="preserve">
  <g>
<path  d="M15,30v54h54V30H15z M64,79H20V35h44V79z"></path></g><g>
<path  d="M32.946,75.713c-1.72,0-3.439-0.656-4.752-1.969L8.03,53.58c-2.625-2.626-2.625-6.879,0-9.505      c2.625-2.625,6.879-2.625,9.504,0l15.412,15.412l49.02-49.02c2.625-2.625,6.879-2.625,9.505,0c2.625,2.625,2.625,6.879,0,9.505      L37.699,73.744C36.386,75.057,34.666,75.713,32.946,75.713z"></path>
</g></svg>
