<svg xmlns="http://www.w3.org/2000/svg" xmlns:xlink="http://www.w3.org/1999/xlink" version="1.1" x="0px" y="0px" viewBox="0 0 164 164" enable-background="new 0 0 164 164" xml:space="preserve"><path fill="#cc0101" fill-rule="evenodd" clip-rule="evenodd" d="M79.789,155.503c2.045-0.002,7.473,0.632,7.473-2.336  c-0.021-32.755-0.042-65.512-0.063-98.268c-3.59,0.002-7.182,0.004-10.772,0.006c0.021,32.755,0.042,65.512,0.063,98.267  C76.488,154.451,77.977,155.502,79.789,155.503L79.789,155.503z M85.771,11.987c15.52,1.703,50.621,8.875,50.621,27.607  c-44.415,0-80.645,0-109.105,0c0.026-18.699,35.754-25.949,51.258-27.671c-0.096-1.978-0.646-3.852-3.727-6.009  c-3.085-2.626-1.507-5.594,7.407-5.594c8.914,0,11.211,2.749,7.53,5.376C86.556,8.2,85.948,10.214,85.771,11.987L85.771,11.987z   M56.98,155.516c2.047-0.002,7.475,0.633,7.472-2.337c-0.02-32.755-0.041-65.51-0.062-98.266c-3.59,0.002-7.183,0.003-10.773,0.006  c0.021,32.755,0.041,65.513,0.062,98.268C53.679,154.466,55.167,155.518,56.98,155.516L56.98,155.516z M102.602,155.487  c2.045-0.001,7.47,0.63,7.469-2.336c-0.021-32.755-0.042-65.512-0.063-98.267c-3.591,0.002-7.183,0.003-10.773,0.006  c0.021,32.755,0.043,65.512,0.063,98.268C99.297,154.437,100.787,155.488,102.602,155.487L102.602,155.487z M47.668,164  c-6.409,0.005-11.656-5.237-11.66-11.647c-0.021-35.3-0.045-70.6-0.067-105.9c30.577-0.02,61.155-0.038,91.731-0.058  c0.022,35.301,0.043,70.6,0.066,105.901c0.005,6.411-5.236,11.658-11.646,11.661C93.284,163.971,70.477,163.984,47.668,164z"></path></svg>