<svg xmlns:dc="http://purl.org/dc/elements/1.1/" xmlns:cc="http://creativecommons.org/ns#" xmlns:rdf="http://www.w3.org/1999/02/22-rdf-syntax-ns#" xmlns:svg="http://www.w3.org/2000/svg" xmlns="http://www.w3.org/2000/svg" xmlns:sodipodi="http://sodipodi.sourceforge.net/DTD/sodipodi-0.dtd" xmlns:inkscape="http://www.inkscape.org/namespaces/inkscape" version="1.1" x="0px" y="0px" viewBox="0 0 100 125"><g transform="translate(0,-952.36218)"><path transform="translate(0,952.36218)" d="M 50,7.15625 C 26.223248,7.15625 7.2020366,26.086763 7,50 l 0,14 c -0.014943,1.056625 0.9432691,2.03125 2,2.03125 1.056731,0 2.014943,-0.974625 2,-2.03125 l 0,-4 10.4375,0 c 0.890947,-2.3134 3.10512,-4 5.71875,-4 1.380228,0 2.687679,0.4656 3.71875,1.25 0.429056,0.3263 16.82239,13.8685 16.90625,13.9375 9e-4,0 0.09375,0.0625 0.09375,0.0625 l -0.03125,0.03125 c 1.719239,1.3233 2.432377,3.52535 1.96875,5.53125 C 50.212679,77.051 50.377386,77 51,77 c 1.574278,0 6.233499,-1.25215 10.71875,-2.96875 4.080256,-1.561509 8.279042,-3.510623 10.682878,-5.00634 1.038929,-0.544661 1.844248,-1.426854 1.442122,-2.27491 -0.0643,-0.276309 -23.4375,-26.40625 -23.4375,-26.40625 0,0 -11.592771,4.41977 -11.65625,4.4375 C 38.293991,44.9083 37.807583,45 37.3125,45 34.127481,45 32,42.22418 32,39.3125 32,38.85643 32.046152,38.42526 32.15625,38 L 12.9375,38 C 18,21 33.289817,10.8125 50,10.8125 60.783792,10.8125 70.597402,15.025826 77.6875,22 L 74,22 c -1.056625,-0.01494 -2.03125,0.943269 -2.03125,2 0,1.056731 0.974625,2.014943 2.03125,2 l 8,0 c 1.047169,-1.05e-4 1.999895,-0.952831 2,-2 l 0,-8 C 84.02444,14.86545 82.90924,13.844492 81.78125,13.96875 80.798498,14.076745 79.978736,15.01156 80,16 l 0,3.125 C 72.242725,11.641698 61.596837,7.15625 50,7.15625 z m 3,23.0625 c 0,0 -16.431836,8.0041 -16.46875,8.03125 C 36.2093,38.486785 36,38.870544 36,39.3125 36,40.05906 36.833583,41 37.3125,41 37.37589,41 50.28125,36.125 50.28125,36.125 51.035194,35.83095 51.960994,36.05262 52.5,36.65625 L 73.34375,60 l 14.375,0 C 87.510719,60.786919 87.255823,61.576281 87,62.34375 81.83852,77.82785 67.244801,89 50,89 39.322104,89 29.581143,84.871448 22.53125,78 L 26,78 c 1.056625,0.01494 2.03125,-0.943269 2.03125,-2 0,-1.056731 -0.974625,-2.014943 -2.03125,-2 0,0 -8.125046,-0.0029 -8.1875,0 -0.983168,0.09266 -1.816758,1.012485 -1.8125,2 l 0,8 c -0.01494,1.056625 0.943269,2.03125 2,2.03125 1.056731,0 2.014943,-0.974625 2,-2.03125 l 0,-2.84375 C 27.776944,88.59684 38.422534,93 50,93 68.973657,93 85.11723,80.67915 90.8125,63.59375 92.238565,59.31565 93,54.7509 93,50 L 93,36 C 93.02444,34.86545 91.90924,33.844492 90.78125,33.96875 89.798498,34.076745 88.978736,35.01156 89,36 l 0,2 -18.84375,0 C 69.865849,37.999742 53,30.21875 53,30.21875 z M 27.15625,60 C 25.94345,60 25,60.9381 25,62.1875 c 0,0.6242 0.254693,1.1578 0.65625,1.5625 -0.280114,-0.2829 18.275259,13.109441 18.40625,13.15625 0.583172,0.20839 1.23902,0.02275 1.65625,-0.53125 0.498326,-0.6617 0.385155,-1.47835 -0.28125,-1.96875 -0.03183,-0.01995 -16.97625,-14.01 -16.96875,-14 C 28.103785,60.12865 27.659536,60 27.15625,60 z" style="font-size:medium;font-style:normal;font-variant:normal;font-weight:normal;font-stretch:normal;text-indent:0;text-align:start;text-decoration:none;line-height:normal;letter-spacing:normal;word-spacing:normal;text-transform:none;direction:ltr;block-progression:tb;writing-mode:lr-tb;text-anchor:start;baseline-shift:baseline;opacity:1;color:#000000;fill:#000000;fill-opacity:1;stroke:none;stroke-width:4;marker:none;visibility:visible;display:inline;overflow:visible;enable-background:accumulate;font-family:Sans;-inkscape-font-specification:Sans"/></g><text x="0" y="115" fill="#000000" font-size="5px" font-weight="bold" font-family="'Helvetica Neue', Helvetica, Arial-Unicode, Arial, Sans-serif">Created by bezier master</text><text x="0" y="120" fill="#000000" font-size="5px" font-weight="bold" font-family="'Helvetica Neue', Helvetica, Arial-Unicode, Arial, Sans-serif">from the Noun Project</text></svg>