<svg fill="#000000" xmlns="http://www.w3.org/2000/svg" xmlns:xlink="http://www.w3.org/1999/xlink" version="1.1" x="0px" y="0px" viewBox="0 0 100 100" enable-background="new 0 0 100 100" xml:space="preserve"><g><rect x="42.3" y="53.9" fill="none" width="15.5" height="2.7"></rect><path fill="none" d="M78.9,16.7H21.1v27.7h57.8V16.7z M60.4,27.1c0,0.7-0.6,1.4-1.4,1.4H40.9c-0.7,0-1.4-0.6-1.4-1.4v-5.4   c0-0.7,0.6-1.4,1.4-1.4h18.2c0.7,0,1.4,0.6,1.4,1.4V27.1z"></path><path fill="none" d="M69.5,89.4c0.4,0.7,1.1,1.1,2,1.1c0.8,0,1.5-0.4,2-1.1l2.7-4.7h-9.3L69.5,89.4z"></path><path fill="none" d="M26.6,89.4c0.4,0.7,1.1,1.1,2,1.1c0.8,0,1.5-0.4,2-1.1l2.7-4.7h-9.3L26.6,89.4z"></path><rect x="42.3" y="23" fill="none" width="15.5" height="2.7"></rect><path fill="none" d="M13.9,82.1h7.7h14h28.9h14h7.7V9.5H13.9V82.1z M18.4,15.3c0-0.7,0.6-1.4,1.4-1.4h60.5c0.7,0,1.4,0.6,1.4,1.4   v60.9c0,0.7-0.6,1.4-1.4,1.4H19.7c-0.7,0-1.4-0.6-1.4-1.4V15.3z"></path><path fill="none" d="M78.9,47.1H21.1v27.7h57.8V47.1z M60.4,57.9c0,0.7-0.6,1.4-1.4,1.4H40.9c-0.7,0-1.4-0.6-1.4-1.4v-5.4   c0-0.7,0.6-1.4,1.4-1.4h18.2c0.7,0,1.4,0.6,1.4,1.4V57.9z"></path><path d="M87.5,6.7h-75c-0.7,0-1.4,0.6-1.4,1.4v75.3c0,0.7,0.6,1.4,1.4,1.4h8.3l3.5,6c0.9,1.6,2.5,2.5,4.3,2.5   c1.8,0,3.4-0.9,4.3-2.5l3.5-6h27.3l3.5,6c0.9,1.6,2.5,2.5,4.3,2.5c1.8,0,3.4-0.9,4.3-2.5l3.5-6h8.3c0.7,0,1.4-0.6,1.4-1.4V8.1   C88.8,7.4,88.2,6.7,87.5,6.7z M30.5,89.4c-0.4,0.7-1.1,1.1-2,1.1c-0.8,0-1.5-0.4-2-1.1l-2.7-4.7h9.3L30.5,89.4z M73.4,89.4   c-0.4,0.7-1.1,1.1-2,1.1c-0.8,0-1.5-0.4-2-1.1l-2.7-4.7h9.3L73.4,89.4z M86.1,82.1h-7.7h-14H35.5h-14h-7.7V9.5h72.3V82.1z"></path><path d="M19.7,77.5h60.5c0.7,0,1.4-0.6,1.4-1.4V15.3c0-0.7-0.6-1.4-1.4-1.4H19.7c-0.7,0-1.4,0.6-1.4,1.4v60.9   C18.4,76.9,19,77.5,19.7,77.5z M21.1,16.7h57.8v27.7H21.1V16.7z M21.1,47.1h57.8v27.7H21.1V47.1z"></path><path d="M59.1,20.3H40.9c-0.7,0-1.4,0.6-1.4,1.4v5.4c0,0.7,0.6,1.4,1.4,1.4h18.2c0.7,0,1.4-0.6,1.4-1.4v-5.4   C60.4,20.9,59.8,20.3,59.1,20.3z M57.7,25.7H42.3V23h15.5V25.7z"></path><path d="M59.1,51.2H40.9c-0.7,0-1.4,0.6-1.4,1.4v5.4c0,0.7,0.6,1.4,1.4,1.4h18.2c0.7,0,1.4-0.6,1.4-1.4v-5.4   C60.4,51.8,59.8,51.2,59.1,51.2z M57.7,56.6H42.3v-2.7h15.5V56.6z"></path></g></svg>
