<svg height='100px' width='100px'  fill="#000000" xmlns="http://www.w3.org/2000/svg" xmlns:xlink="http://www.w3.org/1999/xlink" version="1.1" x="0px" y="0px" viewBox="0 0 100 100" style="enable-background:new 0 0 100 100;" xml:space="preserve"><path d="M89,10H11c-0.5522461,0-1,0.4477539-1,1s0.4477539,1,1,1h78c0.5522461,0,1-0.4477539,1-1S89.5522461,10,89,10z"></path><path d="M89,36H11c-0.5522461,0-1,0.4477539-1,1s0.4477539,1,1,1h78c0.5522461,0,1-0.4477539,1-1S89.5522461,36,89,36z"></path><path d="M89,23H11c-0.5522461,0-1,0.4477539-1,1s0.4477539,1,1,1h78c0.5522461,0,1-0.4477539,1-1S89.5522461,23,89,23z"></path><path d="M89,49H11c-0.5522461,0-1,0.4477539-1,1s0.4477539,1,1,1h78c0.5522461,0,1-0.4477539,1-1S89.5522461,49,89,49z"></path><path d="M89,75H11c-0.5522461,0-1,0.4477539-1,1s0.4477539,1,1,1h78c0.5522461,0,1-0.4477539,1-1S89.5522461,75,89,75z"></path><path d="M89,62H11c-0.5522461,0-1,0.4477539-1,1s0.4477539,1,1,1h78c0.5522461,0,1-0.4477539,1-1S89.5522461,62,89,62z"></path><path d="M89,88H11c-0.5522461,0-1,0.4477539-1,1s0.4477539,1,1,1h78c0.5522461,0,1-0.4477539,1-1S89.5522461,88,89,88z"></path></svg>
