<svg fill="#000000" xmlns="http://www.w3.org/2000/svg" data-name="Layer 1" viewBox="0 0 64 64" x="0px" y="0px"><title>classification-divide-digest-separate-analytic-identify-list</title><path d="M2.49,58.86l5,3a1,1,0,0,0,1,0l5-3A1,1,0,0,0,14,58V52a1,1,0,0,0-.49-.86L9.43,48.69l7.46-10.78,5.88,10.91-5.48,5.47a1,1,0,0,0,0,1.42l6,6a1,1,0,0,0,1.42,0l6-6a1,1,0,0,0,0-1.42l-5.9-5.89L18.67,37H21a1,1,0,0,0,1-1V28a1,1,0,0,0-1-1H19.41L32,14.39,46.7,28.15l-5.53,8.3a1,1,0,0,0-.05,1A1,1,0,0,0,42,38h4.17L38.45,50H33a1,1,0,0,0-.86,1.51l6,10a1,1,0,0,0,1.72,0l6-10A1,1,0,0,0,45,50H40.83L48,38.91l5.95,10.2L52.5,52l-3.63.48a1,1,0,0,0-.81.66,1,1,0,0,0,.21,1l2.61,2.74-.69,3.81a1,1,0,0,0,.39,1,1,1,0,0,0,1.06.08L54.89,60l3.2,1.83a1,1,0,0,0,.5.13,1,1,0,0,0,1-1.15L59,57l2.69-2.65a1,1,0,0,0-.53-1.7l-3.61-.62L56,48.59a1,1,0,0,0-.27-.34L49.74,38H54a1,1,0,0,0,.88-.53,1,1,0,0,0-.05-1l-6-9c0-.07-.11-.1-.17-.15l0,0L34.11,13.61a6,6,0,1,0-4.16,0L16.59,27H13a1,1,0,0,0-1,1v8a1,1,0,0,0,1,1h2.09L7.3,48.25,2.49,51.14A1,1,0,0,0,2,52v6A1,1,0,0,0,2.49,58.86Zm36.51.2L34.77,52h8.46ZM56.7,54l2.21.37L57.25,56a1,1,0,0,0-.29.85l.34,2.3L55.41,58a1,1,0,0,0-.5-.13.92.92,0,0,0-.46.11l-1.93,1,.41-2.29a1,1,0,0,0-.25-.86l-1.61-1.7,2.22-.29a1,1,0,0,0,.76-.55l1-2,.91,2A1,1,0,0,0,56.7,54ZM52.13,36H43.87L48,29.8ZM28,8a4,4,0,1,1,4,4A4,4,0,0,1,28,8ZM14,29h6v6H14ZM24,59.59,19.41,55,24,50.41,28.59,55Zm-20-7,4-2.4,4,2.4v4.86l-4,2.4-4-2.4Z"></path></svg>
