<svg xmlns="http://www.w3.org/2000/svg" xmlns:xlink="http://www.w3.org/1999/xlink" version="1.1" x="0px" y="0px" viewBox="0 0 16 16" enable-background="new 0 0 16 16" xml:space="preserve"><g display="none"><g display="inline"><g><g><line fill="#000000" stroke="#00FFFF" stroke-width="0.1" stroke-miterlimit="10" x1="0" y1="0" x2="16" y2="16"></line><line fill="#000000" stroke="#00FFFF" stroke-width="0.1" stroke-miterlimit="10" x1="16" y1="0" x2="0" y2="16"></line></g></g></g><g display="inline"><g opacity="0.2"><g><polygon fill="#000000" points="16,7 9,7 9,0 7,0 7,7 0,7 0,9 7,9 7,16 9,16 9,9 16,9     "></polygon></g></g></g><g display="inline"><g><g><g><path fill="#000000" d="M14.9,1.1v13.8H1.1V1.1H14.9 M15,1H1v14h14V1L15,1z"></path></g></g></g></g><g display="inline"><g><g><g><g><g><path fill="#000000" d="M8,0.1c4.4,0,7.9,3.5,7.9,7.9s-3.5,7.9-7.9,7.9S0.1,12.4,0.1,8S3.6,0.1,8,0.1 M8,0C3.6,0,0,3.6,0,8         c0,4.4,3.6,8,8,8s8-3.6,8-8C16,3.6,12.4,0,8,0L8,0z"></path></g></g></g></g></g></g><g display="inline"><g><g><g><path fill="#000000" d="M12.9,3.1v9.8H3.1V3.1H12.9 M13,3H3v10h10V3L13,3z"></path></g></g></g></g><g display="inline"><g><g><g><path fill="#000000" d="M10.9,5.1v5.8H5.1V5.1H10.9 M11,5H5v6h6V5L11,5z"></path></g></g></g></g></g><g display="none"><line display="inline" fill="none" stroke="#000000" stroke-width="2" stroke-linecap="round" stroke-miterlimit="10" x1="4" y1="12" x2="12" y2="4"></line><line display="inline" fill="none" stroke="#000000" stroke-width="2" stroke-linecap="round" stroke-miterlimit="10" x1="12" y1="12" x2="4" y2="4"></line></g><g><path fill="#000000" d="M3.3,12.7C3.5,12.9,3.7,13,4,13s0.5-0.1,0.7-0.3L8,9.4l3.3,3.3c0.2,0.2,0.5,0.3,0.7,0.3s0.5-0.1,0.7-0.3   c0.4-0.4,0.4-1,0-1.4L9.4,8l3.3-3.3c0.4-0.4,0.4-1,0-1.4s-1-0.4-1.4,0L8,6.6L4.7,3.3c-0.4-0.4-1-0.4-1.4,0s-0.4,1,0,1.4L6.6,8   l-3.3,3.3C2.9,11.7,2.9,12.3,3.3,12.7z"></path></g></svg>