<svg fill="#000000" xmlns="http://www.w3.org/2000/svg" xmlns:xlink="http://www.w3.org/1999/xlink" version="1.1" x="0px" y="0px" viewBox="0 0 60 60" enable-background="new 0 0 60 60" xml:space="preserve"><rect x="-14" y="-13" display="none" fill="#000000" width="198" height="87"></rect><polygon points="60,14.332 46.837,14.332 46.837,10.742 26.985,18.609 46.837,26.476 46.837,22.887 60,22.887 "></polygon><path d="M35.396,24.869v2.746H13.205v-2.756h22.169l-10.392-4.766H13.205v-2.758h11.321l10.402-4.77H13.205V9.809h22.191v2.541  l8.098-3.1V1.546H0v56.907h43.494V27.938L35.396,24.869z M10.854,50.191H8.098v-2.756h2.756V50.191z M10.854,42.664H8.098V39.91  h2.756V42.664z M10.854,35.138H8.098v-2.753h2.756V35.138z M10.854,27.615H8.098v-2.756h2.756V27.615z M10.854,20.093H8.098v-2.758  h2.756V20.093z M10.854,12.564H8.098V9.809h2.756V12.564z M35.396,50.191H13.205v-2.756h22.191V50.191z M35.396,42.664H13.205V39.91  h22.191V42.664z M35.396,35.138H13.205v-2.753h22.191V35.138z"></path></svg>
