<svg xmlns="http://www.w3.org/2000/svg" xmlns:xlink="http://www.w3.org/1999/xlink" version="1.1" x="0px" y="0px" viewBox="0 0 48 48" style="enable-background:new 0 0 48 48;" xml:space="preserve"><path d="M39,37H29v-2h10c3.859,0,7-3.141,7-7c0-3.86-3.141-7-7-7c-0.553,0-1-0.448-1-1v-1c0-7.72-5.832-14-13-14  c-5.795,0-12,3.616-12,9c0,0.552-0.448,1-1,1C6.486,15,2,19.486,2,25c0,5.514,4.486,10,10,10h7v2h-7C5.383,37,0,31.617,0,25  c0-6.297,4.875-11.477,11.05-11.963C11.698,6.81,18.591,3,25,3c8.271,0,15,7.178,15,16v0.055c4.494,0.499,8,4.32,8,8.945  C48,32.962,43.963,37,39,37z M24,45c-0.552,0-1-0.448-1-1V21c0-0.552,0.448-1,1-1s1,0.448,1,1v23C25,44.552,24.552,45,24,45z M29,26  c-0.221,0-0.439-0.072-0.625-0.219L24,22.281l-4.375,3.5c-0.43,0.345-1.061,0.275-1.405-0.156c-0.345-0.432-0.275-1.061,0.156-1.405  l5-4c0.365-0.292,0.884-0.292,1.249,0l5,4c0.432,0.345,0.501,0.974,0.156,1.405C29.584,25.872,29.293,26,29,26z"></path></svg>