<svg xmlns:dc="http://purl.org/dc/elements/1.1/" xmlns:cc="http://creativecommons.org/ns#" xmlns:rdf="http://www.w3.org/1999/02/22-rdf-syntax-ns#" xmlns:svg="http://www.w3.org/2000/svg" xmlns="http://www.w3.org/2000/svg" version="1.1" x="0px" y="0px" viewBox="0 0 100 100"><g transform="translate(0,-952.36218)"><path d="m 50.0687,975.20269 c -6.5482,0 -11.8802,5.3318 -11.8802,11.88 0,0.024 -10e-5,0.045 0,0.069 -1.2343,0.755 -2.4021,1.6071 -3.4679,2.5751 l -5.631,-5.6311 a 1.0988496,1.0988496 0 0 0 -0.9271,-0.3432 1.0988496,1.0988496 0 0 0 -0.6524,1.8884 l 5.6654,5.6654 c -3.4654,3.8084 -5.6779,8.76661 -5.94,14.24931 l -5.2534,0 c -0.5804,-0.012 -1.133,0.518 -1.133,1.0987 0,0.5806 0.5526,1.1096 1.133,1.0986 l 5.2534,0 c 0.2617,5.4748 2.4491,10.4431 5.9057,14.2494 l -5.6311,5.6309 a 1.1048148,1.1048148 0 0 0 1.5795,1.5452 l 5.631,-5.631 c 4.0632,3.6972 9.43,5.9743 15.3481,5.9743 5.918,0 11.2847,-2.2771 15.348,-5.9743 l 5.631,5.631 a 1.104824,1.104824 0 1 0 1.5795,-1.5452 l -5.6312,-5.6309 c 3.4567,-3.8063 5.644,-8.7746 5.9059,-14.2494 l 5.1502,0 c 0.5806,0.012 1.0988,-0.518 1.0988,-1.0986 0,-0.5807 -0.5182,-1.107 -1.0988,-1.0987 l -5.1502,0 c -0.2623,-5.4827 -2.4748,-10.4409 -5.9401,-14.2493 l 5.6654,-5.6654 a 1.0988496,1.0988496 0 0 0 -0.824,-1.8884 1.0988496,1.0988496 0 0 0 -0.7555,0.3432 l -5.631,5.6311 c -1.0659,-0.968 -2.2336,-1.8201 -3.468,-2.5751 10e-5,-0.024 0,-0.045 0,-0.069 0,-6.5482 -5.3319,-11.88 -11.88,-11.88 z m 0,2.1631 c 4.9652,0 9.0064,3.7412 9.5796,8.5495 -2.9205,-1.3552 -6.1518,-2.1288 -9.5796,-2.1288 -3.4279,0 -6.6593,0.7736 -9.5797,2.1288 0.5731,-4.8083 4.6144,-8.5493 9.5797,-8.5495 z m -1.0988,8.6869 0,41.20261 c -10.9161,-0.5702 -19.5713,-9.5415 -19.5713,-20.6012 0,-11.0599 8.6552,-20.0312 19.5713,-20.6014 z m 2.1975,0 c 10.916,0.5702 19.5713,9.54151 19.5713,20.60141 0,11.0597 -8.6553,20.031 -19.5713,20.6012 l 0,-41.20261 z m -8.5153,6.6268 c -0.6067,0 -1.0987,0.492 -1.0987,1.0987 0,0.60671 0.492,1.0987 1.0987,1.0987 0.6068,0 1.0988,-0.49199 1.0988,-1.0987 0,-0.6067 -0.492,-1.0987 -1.0988,-1.0987 z m 18.1979,0.1373 c -0.6067,0 -1.0987,0.492 -1.0987,1.0988 0,0.6067 0.492,1.0987 1.0987,1.0987 0.6068,0 1.0987,-0.492 1.0987,-1.0987 0,-0.6068 -0.4919,-1.0988 -1.0987,-1.0988 z m -19.5712,6.1461 c -0.6069,0 -1.0988,0.492 -1.0988,1.09881 0,0.6068 0.4919,1.0985 1.0988,1.0985 0.6067,0 1.0986,-0.4917 1.0986,-1.0985 0,-0.60681 -0.4919,-1.09881 -1.0986,-1.09881 z m 16.8244,2.67821 c -0.6067,0 -1.0988,0.4919 -1.0988,1.0987 0,0.6068 0.4921,1.0986 1.0988,1.0986 0.6068,0 1.0987,-0.4918 1.0987,-1.0986 0,-0.6068 -0.4919,-1.0987 -1.0987,-1.0987 z m -23.6916,2.3691 c -0.6068,0 -1.0987,0.492 -1.0987,1.0987 0,0.6068 0.4919,1.0986 1.0987,1.0986 0.6068,0 1.0988,-0.4918 1.0988,-1.0986 0,-0.6067 -0.492,-1.0987 -1.0988,-1.0987 z m 10.5067,0.8928 c -0.6068,0 -1.0988,0.4918 -1.0988,1.0986 0,0.6068 0.492,1.0989 1.0988,1.0989 0.6068,-10e-5 1.0988,-0.4921 1.0988,-1.0989 0,-0.6068 -0.492,-1.0986 -1.0988,-1.0986 z m 18.5069,2.8842 c -0.6068,0 -1.0987,0.4918 -1.0987,1.0986 0,0.6068 0.4919,1.0989 1.0987,1.0989 0.6068,0 1.0987,-0.4921 1.0987,-1.0989 0,-0.6068 -0.4919,-1.0986 -1.0987,-1.0986 z m -24.2066,2.4722 c -0.6069,0 -1.0988,0.4918 -1.0988,1.0986 0,0.6068 0.4919,1.0989 1.0988,1.0989 0.6068,-10e-5 1.0987,-0.4921 1.0987,-1.0989 0,-0.6068 -0.4919,-1.0986 -1.0987,-1.0986 z m 4.1889,5.9057 c -0.6069,0 -1.0987,0.4918 -1.0987,1.0987 0,0.6068 0.4918,1.0987 1.0987,1.0987 0.6069,-10e-5 1.0988,-0.4919 1.0988,-1.0987 0,-0.6069 -0.4919,-1.0987 -1.0988,-1.0987 z m 14.1807,0.8241 c -0.6068,0 -1.0989,0.4918 -1.0989,1.0987 0,0.6067 0.4921,1.0986 1.0989,1.0986 0.6068,0 1.0987,-0.4919 1.0987,-1.0986 0,-0.6069 -0.4919,-1.0987 -1.0987,-1.0987 z" style="text-indent:0;text-transform:none;direction:ltr;block-progression:tb;baseline-shift:baseline;color:black;enable-background:accumulate;" fill="black" fill-opacity="1" stroke="none" marker="none" visibility="visible" display="inline" overflow="visible"></path></g></svg>