<svg xmlns="http://www.w3.org/2000/svg" xmlns:xlink="http://www.w3.org/1999/xlink" version="1.0" x="0px" y="0px" viewBox="0 0 100 100" enable-background="new 0 0 100 100" xml:space="preserve"><g><path fill="#000000" d="M84.525,79.535L71.996,67.011h12.25c0.201,0,0.385-0.122,0.461-0.309c0.078-0.187,0.035-0.402-0.107-0.545   L73.219,54.78h11.027c0.201,0,0.385-0.122,0.461-0.309c0.078-0.188,0.035-0.402-0.107-0.545L50.344,19.683   c-0.195-0.195-0.512-0.195-0.707,0L15.381,53.927c-0.143,0.143-0.186,0.357-0.108,0.545c0.077,0.187,0.26,0.309,0.462,0.309h11.027   L15.381,66.157c-0.143,0.143-0.186,0.358-0.108,0.545c0.077,0.187,0.26,0.309,0.462,0.309h12.25L15.381,79.609   c-0.143,0.143-0.186,0.358-0.108,0.545c0.077,0.187,0.26,0.309,0.462,0.309h68.511c0.006,0.001,0.014,0.001,0.02,0   c0.275,0,0.5-0.224,0.5-0.5C84.766,79.782,84.67,79.623,84.525,79.535z M16.942,53.78l33.048-33.037L83.039,53.78h-10.82   L50.344,31.913c-0.195-0.195-0.512-0.195-0.707,0L27.763,53.78H16.942z M16.942,66.011l33.049-33.037l33.048,33.037H70.996   L50.344,45.366c-0.195-0.195-0.512-0.195-0.707,0L28.985,66.011H16.942z M16.942,79.463l33.048-33.037l33.048,33.037H16.942z"></path></g></svg>