<svg xmlns="http://www.w3.org/2000/svg" xmlns:xlink="http://www.w3.org/1999/xlink" version="1.1" x="0px" y="0px" viewBox="0 0 22 26" style="enable-background:new 0 0 22 26;" xml:space="preserve"><g><path d="M0,2.5v21C0,24.878,1.121,26,2.5,26H22V5V4.5V4H2.5C1.673,4,1,3.327,1,2.5S1.673,1,2.5,1H22V0.5V0H2.5   C1.121,0,0,1.122,0,2.5z M19,17H3V7h16V17z"></path><rect x="3" y="2" width="18" height="1"></rect><polygon points="9,11.793 10,12.793 13,9.793 16.207,13 18,13 18,8 4,8 4,13 7.793,13  "></polygon><polygon points="18,14 15.793,14 13,11.207 10,14.207 9,13.207 8.207,14 4,14 4,16 18,16  "></polygon></g></svg>