<svg xmlns="http://www.w3.org/2000/svg" xmlns:xlink="http://www.w3.org/1999/xlink" viewBox="0 0 100 100"><g><g transform="translate(50 50) scale(0.69 0.69) rotate(0) translate(-50 -50)" style="fill:#000000"><svg fill="#000000" xmlns="http://www.w3.org/2000/svg" xmlns:xlink="http://www.w3.org/1999/xlink" version="1.1" x="0px" y="0px" viewBox="0 0 96 96" enable-background="new 0 0 96 96" xml:space="preserve"><path d="M19.162,93.127h57.677c1.103,0,2-0.897,2-2V43.376c0-1.103-0.897-2-2-2h-3.515V24.373c0-8.458-10.009-21.5-23.308-21.5  h-4.031c-13.299,0-23.308,13.042-23.308,21.5v17.003h-3.515c-1.103,0-2,0.897-2,2v47.751C17.162,92.23,18.059,93.127,19.162,93.127z   M26.677,24.373c0-6.884,8.291-17.5,19.308-17.5h4.031c11.017,0,19.308,10.616,19.308,17.5v15.5h-3.348v-15.5  c0-6.516-7.15-16.5-15.96-16.5h-4.031c-8.81,0-15.96,9.984-15.96,16.5v15.5h-3.348V24.373z M61.976,24.373v17.003H34.024V24.373  c0-4.702,5.793-12.5,11.96-12.5h4.031C56.183,11.873,61.976,19.671,61.976,24.373z M21.162,45.376h53.677v43.751H21.162V45.376z"></path><path d="M48,56.877c-5.721,0-10.375,4.654-10.375,10.375S42.279,77.627,48,77.627s10.375-4.654,10.375-10.375  S53.72,56.877,48,56.877z M48,73.627c-3.515,0-6.375-2.86-6.375-6.375s2.86-6.375,6.375-6.375s6.375,2.86,6.375,6.375  S51.515,73.627,48,73.627z"></path><path d="M48,61.877c-1.103,0-2,0.897-2,2v6.25c0,1.103,0.897,2,2,2s2-0.897,2-2v-6.25C50,62.774,49.103,61.877,48,61.877z"></path></svg></g></g></svg>
