<svg xmlns="http://www.w3.org/2000/svg" xmlns:xlink="http://www.w3.org/1999/xlink" version="1.1" x="0px" y="0px" viewBox="0 0 100 100" enable-background="new 0 0 100 100" xml:space="preserve"><g><path d="M94.9,17.3c-0.3-0.8-0.8-1.4-1.5-1.8l-1.4-0.7c0.5-2.1,1.2-6.4-2-8.1c-0.6-0.3-1.3-0.5-1.9-0.5c-3.4,0-6.3,4.1-6.5,4.3   c0,0,0,0.1-0.1,0.1l-2.6,4.9V9.4c0-0.5-0.4-0.9-0.9-0.9H5.9C5.4,8.5,5,8.9,5,9.4V93c0,0.5,0.4,0.9,0.9,0.9h52.8c0,0,0,0,0,0   c0.2,0,0.3-0.1,0.5-0.1c0,0,0,0,0,0l19.3-14.6c0,0,0,0,0,0c0,0,0.1-0.1,0.1-0.1c0.1-0.1,0.2-0.3,0.2-0.5c0,0,0,0,0,0c0,0,0,0,0,0   c0,0,0,0,0,0c0,0,0,0,0,0c0,0,0,0,0,0c0,0,0,0,0,0c0,0,0,0,0,0c0,0,0,0,0,0V40.1l2-3.9l1.3-2.5l8-15.3c0.3,0.1,0.4,0.5,0.2,0.8   L82.7,34c-0.5,1-0.1,2.2,0.8,2.7c0.3,0.1,0.6,0.2,0.9,0.2c0.7,0,1.4-0.4,1.8-1.1l8.4-16l0-0.1C95,19,95.1,18.1,94.9,17.3z    M82.9,11.4c0.7-1,3-3.5,5-3.5c0.4,0,0.8,0.1,1.1,0.3c2.5,1.3,1.3,5.7,1,6.7l-1,2l-8,15.3L74,28.5L82.9,11.4z M79.8,34.7L72.7,31   l0.5-1l7.1,3.7L79.8,34.7z M59.8,91.1l1.3-12.3l14.5,0.4L59.8,91.1z M77.2,77.5l-16.8-0.4c-0.4,0-0.8,0.3-0.9,0.8l-1.5,14.3H6.7   V10.2h70.5v8.6l-5,9.7L70.8,31L56.7,58.2c0,0.1-0.1,0.2-0.1,0.3l-1.4,13.1c0,0.3,0.1,0.7,0.5,0.8c0.1,0.1,0.3,0.1,0.4,0.1   c0.2,0,0.4-0.1,0.6-0.2l9.9-8.6c0.1-0.1,0.1-0.2,0.2-0.3l10.4-20.1V77.5z M65.3,62.5l-8.2,7.1l1.1-10.8l13.7-26.3l7.1,3.7   L65.3,62.5z M93.1,18.9L84.7,35c-0.1,0.2-0.3,0.2-0.4,0.1c-0.1-0.1-0.2-0.2-0.1-0.4L91.9,20c0.6-1.1,0.1-2.5-1-3.1l0,0l0.3-0.6   l1.3,0.7c0.3,0.2,0.6,0.5,0.7,0.8C93.3,18.2,93.3,18.6,93.1,18.9z"></path><path d="M25.9,27.9c3.8,0,6.9-3.2,6.9-7.2s-3.1-7.2-6.9-7.2S19,16.8,19,20.8S22.1,27.9,25.9,27.9z M25.9,15.3   c2.9,0,5.2,2.5,5.2,5.5s-2.3,5.5-5.2,5.5s-5.2-2.5-5.2-5.5S23,15.3,25.9,15.3z"></path><path d="M36,42.8c1.6,0,2.9-1.3,2.9-2.9v-2.6c0,0,0-0.1,0-0.1c0-3.1-1.7-7.1-9.3-8.3c-0.1,0-0.2,0-0.3-0.1c-0.2-0.1-0.5,0-0.7,0.2   l-2.6,2l-2.6-2c-0.2-0.2-0.5-0.2-0.7-0.2c-0.1,0-0.2,0-0.3,0.1c-7.7,1.3-9.4,5.4-9.3,8.5c0,0.1,0,0.2,0,0.2c0,0.1,0,0.1,0,0.2v2.2   c0,1.6,1.3,2.9,2.9,2.9H36z M26,35.3l0.5,1.9L26,38.1l-0.5-0.8L26,35.3z M14.7,39.9V38c0-0.1,0.1-0.3,0-0.4c0-0.1,0-0.2,0-0.3   c0-3.6,2.6-5.9,7.9-6.8l2.3,1.8l-1.3,4.9c-0.1,0.2,0,0.5,0.1,0.7l1.4,2.3c0.2,0.2,0.4,0.4,0.7,0.4c0.3,0,0.6-0.1,0.7-0.4l1.5-2.3   c0.1-0.2,0.2-0.5,0.1-0.7l-1.3-4.8l2.3-1.8c5.2,0.9,7.9,3.1,7.9,6.8c0,0,0,0,0,0c0,0,0,0.1,0,0.1v2.5c0,0.7-0.5,1.2-1.2,1.2H16   C15.3,41.1,14.7,40.6,14.7,39.9z"></path><path d="M42.8,24.8h23.7c0.5,0,0.9-0.4,0.9-0.9s-0.4-0.9-0.9-0.9H42.8c-0.5,0-0.9,0.4-0.9,0.9S42.3,24.8,42.8,24.8z"></path><path d="M54.1,50.4H15c-0.5,0-0.9,0.4-0.9,0.9c0,0.5,0.4,0.9,0.9,0.9h39.1c0.5,0,0.9-0.4,0.9-0.9C54.9,50.8,54.6,50.4,54.1,50.4z"></path><path d="M51.8,62.6H15c-0.5,0-0.9,0.4-0.9,0.9c0,0.5,0.4,0.9,0.9,0.9h36.8c0.5,0,0.9-0.4,0.9-0.9C52.7,63,52.3,62.6,51.8,62.6z"></path><path d="M35.8,74.8H15c-0.5,0-0.9,0.4-0.9,0.9s0.4,0.9,0.9,0.9h20.7c0.5,0,0.9-0.4,0.9-0.9S36.2,74.8,35.8,74.8z"></path><path d="M42.8,37.7h18.8c0.5,0,0.9-0.4,0.9-0.9c0-0.5-0.4-0.9-0.9-0.9H42.8c-0.5,0-0.9,0.4-0.9,0.9C41.9,37.3,42.3,37.7,42.8,37.7z   "></path></g></svg>