<svg xmlns="http://www.w3.org/2000/svg" xmlns:xlink="http://www.w3.org/1999/xlink" version="1.1" x="0px" y="0px" viewBox="0 0 24 24" style="enable-background:new 0 0 24 24;" xml:space="preserve"><g><g><path d="M17.5,17h-17C0.224,17,0,16.776,0,16.5v-15C0,1.224,0.224,1,0.5,1h17C17.776,1,18,1.224,18,1.5v15    C18,16.776,17.776,17,17.5,17z M1,16h16V2H1V16z"></path></g><g><path d="M17.5,17c-0.184,0-0.36-0.101-0.448-0.276L11.971,6.559l-3.537,6.189c-0.077,0.135-0.213,0.227-0.368,0.248    c-0.155,0.021-0.31-0.032-0.42-0.142l-2.562-2.562L0.92,16.771c-0.148,0.232-0.458,0.3-0.691,0.15    c-0.232-0.149-0.299-0.458-0.15-0.691l4.5-7c0.082-0.127,0.217-0.21,0.367-0.227c0.149-0.017,0.3,0.037,0.407,0.144l2.537,2.537    l3.675-6.432c0.092-0.16,0.259-0.26,0.448-0.252c0.185,0.005,0.351,0.111,0.434,0.276l5.5,11c0.124,0.247,0.023,0.547-0.224,0.671    C17.652,16.983,17.576,17,17.5,17z"></path></g><g><path d="M5.5,8C4.122,8,3,6.878,3,5.5S4.122,3,5.5,3S8,4.122,8,5.5S6.878,8,5.5,8z M5.5,4C4.673,4,4,4.673,4,5.5S4.673,7,5.5,7    S7,6.327,7,5.5S6.327,4,5.5,4z"></path></g><g><path d="M19.5,19h-17C2.224,19,2,18.776,2,18.5v-2C2,16.224,2.224,16,2.5,16S3,16.224,3,16.5V18h16V4h-1    c-0.276,0-0.5-0.224-0.5-0.5S17.724,3,18,3h1.5C19.776,3,20,3.224,20,3.5v15C20,18.776,19.776,19,19.5,19z"></path></g><g><path d="M21.5,21h-17C4.224,21,4,20.776,4,20.5v-2C4,18.224,4.224,18,4.5,18S5,18.224,5,18.5V20h16V6h-1.5    C19.224,6,19,5.776,19,5.5S19.224,5,19.5,5h2C21.776,5,22,5.224,22,5.5v15C22,20.776,21.776,21,21.5,21z"></path></g><g><path d="M23.5,23h-17C6.224,23,6,22.776,6,22.5v-2C6,20.224,6.224,20,6.5,20S7,20.224,7,20.5V22h16V9h-1.5    C21.224,9,21,8.776,21,8.5S21.224,8,21.5,8h2C23.776,8,24,8.224,24,8.5v14C24,22.776,23.776,23,23.5,23z"></path></g></g></svg>