<svg height='100px' width='100px'  fill="#000000" xmlns="http://www.w3.org/2000/svg" xmlns:xlink="http://www.w3.org/1999/xlink" version="1.1" x="0px" y="0px" viewBox="0 0 100 100" style="enable-background:new 0 0 100 100;" xml:space="preserve"><g><path d="M50.4,48.4c6.8,0,12.6-4.7,14.3-11h21.2L67.1,4.9l-9.3,16c-2.2-1.3-4.7-2-7.4-2c-1.2,0-2.3,0.1-3.4,0.4V7.9H14.5v32.4h22.7   C39.7,45.1,44.6,48.4,50.4,48.4z M67.1,11.7L80,34H65.1c0-0.1,0-0.2,0-0.4c0-4.2-1.8-8-4.6-10.7L67.1,11.7z M58.8,26.1   c1.8,2,2.9,4.7,2.9,7.6c0,0.1,0,0.2,0,0.4h-7.5L58.8,26.1z M50.4,22.3c2.1,0,4.1,0.6,5.7,1.6l-7.8,13.6h12.8   c-1.6,4.4-5.8,7.6-10.7,7.6c-3.8,0-7.1-1.8-9.2-4.7h5.7V22.8C48,22.5,49.2,22.3,50.4,22.3z M39,33.7c0-3.7,1.8-7,4.5-9.1V37h-4   C39.2,35.9,39,34.8,39,33.7z M17.9,37V11.3h25.6v9.2c-4.7,2.5-7.9,7.4-7.9,13.1c0,1.1,0.1,2.2,0.4,3.3H17.9z"></path><path d="M50.4,69.7c-6.9,0-12.6,5.6-12.6,12.6c0,6.9,5.6,12.6,12.6,12.6c6.9,0,12.6-5.6,12.6-12.6C62.9,75.3,57.3,69.7,50.4,69.7z    M50.4,91.2c-4.9,0-8.9-4-8.9-8.9c0-4.9,4-8.9,8.9-8.9c4.9,0,8.9,4,8.9,8.9C59.3,87.2,55.3,91.2,50.4,91.2z"></path><rect x="49.2" y="49.7" width="2.3" height="18.9"></rect><path d="M44.6,55l2.4-4.5l-2-1.1l-2.4,4.5c-1.4,2.6-4.1,4.1-7,4.1h-7.4c-4.4,0-8.2,2.8-9.7,6.9l-1.1,3.3l2.1,0.7l1.1-3.3   c1.1-3.2,4.1-5.4,7.5-5.4h7.4C39.4,60.3,42.8,58.3,44.6,55z"></path><path d="M80,65.7l1.1,3.3l2.1-0.7l-1.1-3.3c-1.4-4.1-5.3-6.9-9.7-6.9h-7.4c-2.9,0-5.6-1.6-7-4.1l-2.4-4.5l-2,1.1l2.4,4.5   c1.8,3.3,5.2,5.3,9,5.3h7.4C75.9,60.3,78.9,62.5,80,65.7z"></path><path d="M7,93.9h23.4V70.6H7V93.9z M10.4,74h16.6v16.6H10.4V74z"></path><path d="M82.5,69.3L68,94.3H97L82.5,69.3z M82.5,76.1l8.6,14.9H73.9L82.5,76.1z"></path></g></svg>