<?xml version="1.0" encoding="utf-8"?><!DOCTYPE svg PUBLIC "-//W3C//DTD SVG 1.0//EN" "http://www.w3.org/TR/2001/REC-SVG-20010904/DTD/svg10.dtd"><svg version="1.0" xmlns="http://www.w3.org/2000/svg" xmlns:xlink="http://www.w3.org/1999/xlink" x="0px" y="0px" viewBox="0 0 98.918 100" enable-background="new 0 0 98.918 100" xml:space="preserve"><path d="M49.459,0C22.143,0.003,0.003,22.384,0,50.001C0.003,77.615,22.143,99.997,49.459,100
	c27.316-0.003,49.456-22.385,49.459-49.999C98.915,22.384,76.775,0.003,49.459,0z M90.001,50.001c0,9.707-3.328,18.597-8.897,25.618
	L53.916,48.133V9.261c9.419,1.039,17.848,5.331,24.211,11.757C85.473,28.449,90,38.667,90.001,50.001z M45.002,90.74
	c-7.861-0.868-15.03-4.002-20.885-8.749l20.885-21.111V90.74z M53.916,60.879l20.883,21.111c-5.854,4.747-13.022,7.881-20.883,8.749
	V60.879z M20.791,21.018C27.152,14.591,35.583,10.3,45.002,9.261v38.871L17.813,75.619c-5.57-7.022-8.896-15.911-8.896-25.618
	C8.918,38.667,13.447,28.449,20.791,21.018z"></path></svg>