<svg xmlns="http://www.w3.org/2000/svg" xmlns:xlink="http://www.w3.org/1999/xlink" version="1.1" x="0px" y="0px" viewBox="0 0 96 96" enable-background="new 0 0 96 96" xml:space="preserve"><path d="M86.141,38.249H49.068V26.605c0-5.498-2.146-10.67-6.041-14.563C39.134,8.146,33.962,6,28.466,6  C17.104,6,7.859,15.243,7.859,26.605v13.644c0,1.103,0.897,2,2,2h7.441c1.103,0,2-0.897,2-2V26.605c0-5.053,4.111-9.163,9.164-9.163  c5.052,0,9.162,4.11,9.162,9.163v11.644h-9.163c-1.103,0-2,0.897-2,2V88c0,1.103,0.897,2,2,2h57.677c1.103,0,2-0.897,2-2V40.249  C88.141,39.146,87.243,38.249,86.141,38.249z M28.466,13.442c-7.259,0-13.164,5.905-13.164,13.163v11.644h-3.442V26.605  C11.859,17.449,19.309,10,28.465,10c4.428,0,8.595,1.729,11.734,4.87c3.14,3.139,4.869,7.307,4.869,11.735v11.644h-3.44V26.605  C41.628,19.347,35.724,13.442,28.466,13.442z M84.141,86H30.464V42.249h53.677V86z"></path><path d="M57.302,74.5c5.721,0,10.375-4.654,10.375-10.375S63.022,53.75,57.302,53.75s-10.375,4.654-10.375,10.375  S51.581,74.5,57.302,74.5z M57.302,57.75c3.516,0,6.375,2.86,6.375,6.375S60.817,70.5,57.302,70.5s-6.375-2.86-6.375-6.375  S53.786,57.75,57.302,57.75z"></path><path d="M57.302,69c1.103,0,2-0.897,2-2v-6.25c0-1.103-0.897-2-2-2s-2,0.897-2,2V67C55.302,68.103,56.199,69,57.302,69z"></path></svg>