<?xml version="1.0" encoding="utf-8"?><svg version="1.1" id="Layer_1" xmlns="http://www.w3.org/2000/svg" xmlns:xlink="http://www.w3.org/1999/xlink" x="0px" y="0px" viewBox="0 0 122.88 70.59" style="enable-background:new 0 0 122.88 70.59" xml:space="preserve"><style type="text/css"><![CDATA[
	.st0{fill-rule:evenodd;clip-rule:evenodd;fill:#1B1A19;}
]]></style><g><path class="st0" d="M13.14,26.21h5.16v18.23h-5.16V26.21L13.14,26.21L13.14,26.21z M0,54.9h31.37V0H18.3v15.69H0V54.9L0,54.9z M36.6,15.69h13.07V54.9H36.6V15.69L36.6,15.69z M36.6,0h13.07v10.46l-13.07,0V0L36.6,0z M67.98,26.15h5.23v18.3l-5.23,0V26.15 L67.98,26.15L67.98,26.15z M54.9,54.9h18.3v5.23l-18.3,0v10.46l31.37,0v-54.9H54.9V54.9L54.9,54.9z M104.58,26.15h5.23v18.3 l-5.23,0V26.15L104.58,26.15L104.58,26.15z M91.51,54.9h18.3v5.23l-18.3,0v10.46l31.38,0v-54.9H91.51V54.9L91.51,54.9z"/></g></svg>