<svg clip-rule="evenodd" fill-rule="evenodd" height="2500" image-rendering="optimizeQuality" shape-rendering="geometricPrecision" text-rendering="geometricPrecision" viewBox="17006.82 17511.1 8157.800000000003 8157.800000000003" width="1618" xmlns="http://www.w3.org/2000/svg"><linearGradient id="a" gradientUnits="userSpaceOnUse" x1="21085.72" x2="21085.72" y1="18249.39" y2="25150.62"><stop offset="0" stop-color="#00b2ff"/><stop offset="1" stop-color="#006aff"/></linearGradient><circle cx="21085.72" cy="21590" fill="#fff" r="4078.9"/><path d="M21085.72 18309.17c1811.95 0 3280.83 1468.88 3280.83 3280.83s-1468.88 3280.83-3280.83 3280.83-3280.83-1468.88-3280.83-3280.83 1468.88-3280.83 3280.83-3280.83z" fill="url(#a)"/><path d="M21512.01 24843.29v-2534.17h714.43l94.7-891.91h-809.13l1.2-446.44c0-232.63 22.1-357.22 356.24-357.22h446.68v-892.06h-714.59c-858.35 0-1160.42 432.65-1160.42 1160.34v535.45h-535.07v891.99h535.07v2498.09c208.45 41.53 423.95 63.47 644.6 63.47a3310.9 3310.9 0 0 0 426.29-27.54z" fill="#fff" fill-rule="nonzero"/></svg>