<svg height="493" viewBox="0 0 380 75.086" width="2500" xmlns="http://www.w3.org/2000/svg"><path d="m191.928 66.629c0 1.32 0 1.62.89 2.43l4.985 4.92v.21h-22.103v-9.45c-2.225 6.228-8.109 10.347-14.657 10.26-11.363 0-19.611-9-19.611-25.56 0-15.51 8.9-25.86 21.391-25.86 5.537-.352 10.69 2.873 12.847 8.04v-20.849a2.594 2.594 0 0 0 -1.009-2.52l-4.747-4.62v-.21l22.014-2.61zm-16.228-3v-31.11a8.242 8.242 0 0 0 -6.587-3.12c-5.37 0-10.562 4.92-10.562 19.53 0 13.68 4.48 18.51 10.058 18.51a8.874 8.874 0 0 0 7.09-3.81zm30.885 10.56v-42a2.838 2.838 0 0 0 -.89-2.52l-4.896-5.1v-.21h22.104v42.6c0 1.32 0 1.62.89 2.43l4.866 4.62v.21zm-.801-65.19c0-4.97 3.985-8.999 8.9-8.999s8.901 4.03 8.901 9-3.985 9-8.9 9-8.901-4.03-8.901-9zm76.753 57.54c0 1.32 0 1.71.89 2.52l4.985 4.92v.21h-22.222v-10.77c-2.024 6.81-8.189 11.5-15.22 11.58-9.85 0-15.131-7.26-15.131-21 0-6.63 0-13.89.207-22.05a2.565 2.565 0 0 0 -.89-2.43l-4.895-4.95v-.21h21.925v27.39c0 9 1.306 15 6.883 15a8.89 8.89 0 0 0 7.18-4.53v-30a2.838 2.838 0 0 0 -.89-2.52l-4.925-5.13v-.21h22.103zm75.241 7.65c0-1.62.297-22.26.297-27 0-9-1.395-15.21-7.655-15.21a9.911 9.911 0 0 0 -7.862 4.32c.628 2.805.926 5.675.89 8.55 0 6.24-.208 14.19-.297 22.14a2.565 2.565 0 0 0 .89 2.43l4.985 4.62v.21h-22.311c0-1.5.296-22.26.296-27 0-9.15-1.394-15.21-7.565-15.21a8.886 8.886 0 0 0 -7.358 4.44v30.6c0 1.32 0 1.62.89 2.43l4.866 4.62v.21h-22.074v-42a2.838 2.838 0 0 0 -.89-2.52l-4.896-5.25v-.21h22.104v10.68c2.05-7.05 8.58-11.788 15.843-11.49 7.358 0 12.342 4.14 14.449 12 2.34-7.249 9.074-12.113 16.614-12 9.85 0 15.428 7.35 15.428 21.24 0 6.63-.207 14.19-.296 22.14a2.412 2.412 0 0 0 1.008 2.43l4.866 4.62v.21zm-277.672-6.54 6.557 6.33v.21h-33.259v-.21l6.676-6.33a2.565 2.565 0 0 0 .89-2.43v-40.47c0-1.71 0-4.02.296-6l-22.43 56.251h-.266l-23.231-51.75c-.505-1.29-.653-1.38-.98-2.25v33.93a11.905 11.905 0 0 0 1.099 6.63l9.345 12.42v.21h-24.803v-.21l9.346-12.45a11.936 11.936 0 0 0 1.097-6.6v-37.5a7.316 7.316 0 0 0 -1.542-5.13l-6.616-8.67v-.21h23.735l19.878 43.83 17.505-43.83h23.23v.21l-6.527 7.35a2.594 2.594 0 0 0 -1.009 2.52v51.72a2.412 2.412 0 0 0 1.01 2.43zm26.02-20.28v.21c0 12.84 6.557 18 14.241 18 6.416.221 12.355-3.417 15.131-9.27h.208c-2.67 12.69-10.444 18.69-22.074 18.69-12.55 0-24.388-7.65-24.388-25.38 0-18.63 11.868-26.07 24.981-26.07 10.563 0 21.807 5.04 21.807 21.24v2.58zm0-2.58h14.627v-2.61c0-13.2-2.7-16.71-6.765-16.71-4.925 0-7.921 5.25-7.921 19.32z" fill="#1c1b1a"/></svg>