<svg id="Layer_1" xmlns="http://www.w3.org/2000/svg" viewBox="0 0 796.8 1024.2" width="1945" height="2500"><style>.st0{fill:#cb2027}</style><path class="st0" d="M347.2 3.4C177 22.4 7.4 160.1.4 356.8-4 476.9 30.1 567 144.4 592.3c49.6-87.5-16-106.8-26.2-170.1C76.3 162.8 417.4-14.1 595.9 167c123.5 125.4 42.2 511.2-157 471.1-190.8-38.3 93.4-345.4-58.9-405.7-123.8-49-189.6 149.9-130.9 248.7-34.4 169.9-108.5 330-78.5 543.1 97.3-70.6 130.1-205.8 157-346.8 48.9 29.7 75 60.6 137.4 65.4 230.1 17.8 358.6-229.7 327.2-458C764.3 82.4 562.3-20.6 347.2 3.4z"/></svg>