<svg height="2500" viewBox=".001 1.75 281.026 281.026" width="2261" xmlns="http://www.w3.org/2000/svg">
<path d="m243.15 158.724c0 25.55-20.712 46.261-46.262 46.261h-111.476c-25.55 0-46.262-20.711-46.262-46.261v-110.713c0-25.549 20.712-46.261 46.262-46.261h111.477c25.55 0 46.262 20.712 46.262 46.261v110.713z" fill="#eee312" stroke="#1a1a1a" stroke-linecap="round" stroke-linejoin="round" stroke-width="3.5"/>
<path d="m140.612 173.906c13.937 0 24.366-10.263 24.366-10.263.916-.766 1.958-1.499 1.958-1.499 8.344-5.481 21.87-1.53 21.87-1.53 4.915 1.164 5.057-2.549 5.057-2.549l.379-4.207c.359-4.125 6.699-4.081 6.699-4.081 8.349-.327 11.864-3.746 13.312-6.158 1.554-2.313-1.383-2.967-1.383-2.967-20.147-5.625-29.922-24.747-29.922-24.747-4.551-7.989 1.686-11.22 1.686-11.22 1.686-1.19 9.944-3.91 9.944-3.91 6.815-2.733 4.551-7.479 4.551-7.479-2.528-5.101-8.427-1.7-8.427-1.7-2.789 1.48-4.888 1.359-4.888 1.359-4.659.089-5.219-.909-5.219-.909l.16-22.125c0-20.233-17.846-36.635-39.86-36.635h-.382c-22.015 0-39.86 16.402-39.86 36.635l.16 22.125s-.56.998-5.219.909c0 0-2.099.121-4.888-1.359 0 0-5.898-3.4-8.427 1.7 0 0-2.266 4.746 4.551 7.479 0 0 8.259 2.72 9.944 3.91 0 0 6.237 3.23 1.686 11.22 0 0-9.773 19.122-29.921 24.747 0 0-2.938.653-1.382 2.967 1.448 2.412 4.964 5.831 13.31 6.158 0 0 6.341-.044 6.7 4.081l.38 4.207s.142 3.713 5.056 2.549c0 0 13.526-3.951 21.869 1.53 0 0 1.043.733 1.96 1.499 0 0 10.429 10.263 24.366 10.263z" fill="#fff" stroke="#1a1a1a" stroke-linecap="round" stroke-linejoin="round" stroke-width="3.555"/>
</svg>