<svg  xmlns="http://www.w3.org/2000/svg" viewBox="0 0 1047 369">
<path fill-rule="evenodd" fill="#94AF37" d="M757.88 83.95c-.24 2.05-1.1 3.9-2.59 5.55-1.49 1.65-2.35 3.5-2.59 5.55-.39 3.33-1.55 5.54-3.5 6.61-3.98 2.92-19.78 3.56-47.41 1.92l-20.57-.82-1.34 11.54c-.86 7.44-.27 11.28 1.79 11.52.26.03.64.07 1.15.13.54-.2 1.07-.27 1.58-.21 6.02-.34 19.55-.47 40.6-.37 21.33-.13 34.58-.03 39.74.31l2.69.31c10.77 1.25 17.25 7.07 19.43 17.46.61 3.71.87 5.95.78 6.72-.27 2.31-2 6.01-5.18 11.1-3.82 6.06-6.5 9-8.04 8.82l-.77-.09-1.15-.13c-4.1-.47-14.42-.11-30.93 1.1-16.49.95-26.87 1.96-31.16 3.02-2.94.7-9.47.98-19.6.85-1.31.11-2.88.19-4.71.24-1.54-.18-2.69-.31-3.46-.4-.51-.06-1.3-.02-2.35.12-1.06.14-1.74.45-2.06.93-.32.48-.66 1.22-1.04 2.22-.35.74-.61 1.88-.79 3.42-.15 1.28-.23 3.09-.24 5.43.02 2.08-.07 5.06-.25 8.94.1 3.65.1 7.03 0 10.14l.02 23.4 17.57 3.2c19.06 3.77 32.69 7.29 40.89 10.58 8.23 3.03 14.63 7.28 19.19 12.75 2.53 2.89 7.51 6.98 14.96 12.26 5.77 4.05 9.62 7.87 11.54 11.47 2.18 3.63 2.91 8.53 2.2 14.68-.59 5.13-1.33 9.21-2.19 12.22-2.88 11.37-4.47 17.29-4.79 17.77-.92 1.19-2.4 1.67-4.46 1.43-4.36-.5-9.45-3.69-15.27-9.57-28.67-28.53-52.37-43.89-71.1-46.05-3.33-.39-5.8-.41-7.4-.08-2.65.47-4.43 1.18-5.31 2.11-.63.97-1.11 2.86-1.44 5.68-1.2 5.84-2.57 9.84-4.12 12-1.9 2.9-3.05 6.15-3.47 9.74-.39 3.33-4.33 10.42-11.82 21.25-7.24 10.86-13.65 19.09-19.23 24.68-8.76 8.34-23.06 12.8-42.88 13.37-4.68-.02-7.78-.12-9.32-.3-4.62-.53-10.53-2.26-17.73-5.17-9.45-3.69-15.76-7.54-18.94-11.55-3.18-4.01-5.61-11.05-7.3-21.12-1.67-7.99-2.29-13.91-1.84-17.76.12-1.03 1.14-5.33 3.05-12.9 2.32-8.83 5.25-16.16 8.78-21.99 3.79-5.8 9.78-12.65 17.97-20.54 7.33-7.21 17.24-13.08 29.73-17.62 20.65-7.75 36.24-11.01 46.76-9.8l5.77.67 2.33-23.52 1.9-23.18-12.99-2.28-4.23-.49c-7.44-.86-15.83-.27-25.16 1.77-13.59 2.85-25.38 3.69-35.39 2.53-5.64-.65-13.75-2.5-24.32-5.54-10.02-3.24-16.97-6.12-20.84-8.65-3.61-2.5-5.19-5.67-4.75-9.52.12-1.03.55-2.54 1.3-4.53 2.37-7 6.44-11.86 12.22-14.57 5.77-2.71 14.78-4.14 27.01-4.28 7.27.06 14.05-.06 20.32-.38 6.28-.31 14.6-.39 24.98-.23 19.73.2 31.04.21 33.92.03 2.91-.44 4.54-2.2 4.9-5.28.5-4.36.58-8.38.23-12.06-.25-2.37-.71-3.98-1.39-4.84-.68-.86-2.69-1.48-6.02-1.87-4.36-.5-16.29-.72-35.8-.63-28.92.55-50.43.01-64.54-1.62-3.59-.42-6.38-1-8.38-1.75-2.48-1.07-4.53-3.51-6.17-7.34-1.61-4.09-2.2-7.92-1.79-11.52.59-5.13 5.05-9.94 13.37-14.44 8.58-4.47 18.1-7 28.57-7.61 22.02-1.61 42.27-1.35 60.74.79 6.93.8 10.54-.08 10.83-2.65.36-3.08-.24-6.92-1.79-11.52-1.26-4.83-2.7-8.11-4.32-9.86-2.07-2.32-2.99-4.51-2.75-6.56.06-.51.55-2.54 1.48-6.07 1.48-6.07 4.97-10.34 10.45-12.83 4.43-2.35 9.06-4.15 13.88-5.41 4-.84 6.38-1.21 7.15-1.12 1.03.12 2.67 1.61 4.94 4.47 1.76 2.8 3.4 7.67 4.94 14.61 1.82 6.71 2.54 11.73 2.16 15.07-.36 3.08.97 6.22 3.98 9.43 2.04 2.58 4.09 3.98 6.14 4.22 1.54.18 4.15.09 7.83-.26 14.5-1.7 25.59-2.11 33.29-1.22 4.62.53 10.7 1.89 18.25 4.06 11.08 3.1 17.67 5.68 19.77 7.75 1.39 1.46 1.83 4.37 1.33 8.73s-1.44 6.85-2.81 7.47c-1.37.62-2.25 2.6-2.64 5.93zM634.86 270.93c.4-1.25.71-2.78.92-4.57.18-1.54-.25-2.37-1.27-2.49-1.03-.12-3.42.38-7.19 1.51-12.88 3.45-23.07 8.38-30.57 14.79-5.15 4.08-9.14 5.96-11.96 5.63-2.57-.3-5.32 1.07-8.27 4.11-2.69 3.07-4.69 6.87-6 11.39-.35.74-.61 1.88-.79 3.42-.27 2.31 1.59 5.38 5.56 9.22 3.52 3.27 6.69 5.06 9.51 5.39 2.05.24 3.86.32 5.43.24 12.01-.43 21.32-4.55 27.95-12.36 2.12-2.61 4.94-7.88 8.46-15.79 3.8-8.14 6.54-14.97 8.22-20.5zM990.6 56.85c3.14-2.4 7.36-3.26 12.67-2.56 5.54.73 9.63 2.68 12.26 5.85.6.78 1.82 2.24 3.65 4.36 2.06 2.15 3.4 3.62 4 4.4 5.36 5.64 10.54 19.83 15.52 42.57 5.37 25.14 7.45 42.33 6.23 51.56-.61 4.62-1.88 7.97-3.8 10.07-7.25 8.67-14.72 12.74-22.4 12.19-5.08-.67-8.87-3.99-11.37-9.96-2.5-5.97-5.13-18.06-7.89-36.28-1.21-8.62-3.37-16.3-6.47-23.05-2.19-4.75-3.86-9.91-5.01-15.46-1.12-5.78-2.15-10.38-3.11-13.8-1.87-5.41-2.57-9.85-2.12-13.32.27-2.08.6-3.68.99-4.8 1.66-5.42 3.94-9.35 6.84-11.78zm-86.13 174.66c-.18 1.39-.2 4.2-.06 8.45.17 4.02 1.07 10.59 2.68 19.73 1.84 9.17 3.34 13.83 4.5 13.98 1.39.18 4.22-2.61 8.51-8.39 4.32-6.01 7.36-11.24 9.12-15.71 1.41-3.57 2.64-5.76 3.69-6.56 1.05-.8 3.72-1.51 8.03-2.11 4.8-.78 8.12-1.04 9.97-.8.23.03.56.19.99.48l.35.05c1.96 1.2 4.06 5.7 6.32 13.52 2.83 8.83 3.84 16.25 3.05 22.25-.85 6.46-4.03 12.74-9.53 18.82-14.55 15.93-28.74 24.63-42.56 26.09-5.03.74-9.05.92-12.05.52-3.69-.49-8.88-3.05-15.54-7.69-7.99-5.28-13.38-11.63-16.16-19.05-2.75-7.64-4.67-20.7-5.75-39.16-.54-10.17 1.21-30.49 5.23-60.97 2.01-15.24 4-27.66 5.98-37.26 5.74-27.43 12.92-44.45 21.54-51.06 3.92-3.01 7.03-4.36 9.34-4.05 3 .4 6.87 2.2 11.62 5.41 4.74 3.21 7.57 5.82 8.48 7.81 1.53 4.43 1.58 12.07.14 22.92-1.49 11.31-4.15 23.41-7.96 36.3-3.72 12.19-6.06 21.87-7 29.02-.98 7.39-2.68 25.6-2.92 27.45zM345.99 31.16c23.54.58 51.84 1.89 84.9 3.93 32.62 2.02 53 4.37 61.13 7.05 5.11 2.06 7.43 7.01 6.94 14.84-.54 8.7-2.66 18.39-6.38 29.08-4.21 11.53-7.96 26.36-11.26 44.49-5.9 31.94-18.71 62.59-38.42 91.94-11.54 17.19-25.87 33.55-42.98 49.08-17.09 15.1-33.05 26.12-47.89 33.06L329.12 315l-3.17 19.45c-2.57 13.38-5.9 21.25-9.97 23.62-5.43 3.16-20.59 4.62-45.46 4.4-25.77.15-42.2 1.1-49.3 2.85-6.69 2.21-20.25 2.68-40.69 1.42-18.7-1.16-29.07-2.89-31.12-5.2-2.04-2.31-3.03-11.1-2.96-26.38l.11-22.92-25.62-19.92c-16.24-12.79-34.55-30.95-54.92-54.48-20.38-23.53-33.63-42.25-39.76-56.16-6.92-15.27-12.88-35.29-17.9-60.05-4.99-25.2-7.05-44.97-6.16-59.32.97-15.66 2.4-24.74 4.3-27.24 3.8-5 18.77-6.92 44.89-5.74 17.4 1.07 52.72 1.73 105.98 1.96 53.28-.2 82.79-.78 88.52-1.74 5.3-.98 38.67-.45 100.1 1.6zM234.44 53.63c-2.78 2-16.19 3.69-40.24 5.08-6.77.38-12.33 1.35-16.69 2.94-2.93 1.28-5.62 3.52-8.08 6.72-2.43 2.96-3.84 6.16-4.24 9.59-.32 2.75 1.22 6.52 4.6 11.31 3.41 4.57 6.38 7 8.89 7.29 8.69 1.01 23.8.67 45.33-1.01 21.75-1.65 35.18-3.46 40.28-5.42 1.96-.93 5.49-1.34 10.57-1.21 8.34.04 14.69-2.7 19.04-8.23 2.71-3.4 4.27-6.81 4.66-10.24.58-5.03-1.99-9.85-7.72-14.46-3.4-2.71-8.75-4.49-16.08-5.34-7.55-.87-15.55-.87-24 0-9.36.77-14.81 1.76-16.34 2.98zm-24.75 72.6c-1.79 1.42-3.37 2.04-4.74 1.89-.92-.11-2.39.65-4.44 2.27-2.04 1.62-4.55 2.26-7.53 1.91-3.89-.45-8.59 1.09-14.1 4.63-5.28 3.56-9.38 7.96-12.31 13.18-3.46 5.86-5.31 9.82-5.55 11.88-.21 1.83.6 4.82 2.44 8.98 3.9 8.34 10.2 13.01 18.9 14.01 12.58 1.46 29.16-4.51 49.72-17.89 10.03-6.49 17.33-9.47 21.9-8.94 2.75.32 6.4 1.78 10.97 4.4 6.49 4 10.81 7.74 12.96 11.24 2.37 3.52 3.23 8.14 2.57 13.86-.82 7.09-2.71 13.37-5.66 18.82-2.72 5.48-10.64 18.82-23.76 40.03-5.69 9.08-10.7 15.34-15.04 18.78-4.11 3.47-10.27 6.58-18.47 9.34-6.72 2-11.35 3.9-13.88 5.7-2.53 1.79-3.96 4.18-4.31 7.15-.26 2.29-.26 4.26.01 5.91.95 9.85 4.18 17.99 9.69 24.42 2.63 3.32 5.78 5.19 9.44 5.61 9.15 1.06 26.32-10.05 51.51-33.34 13.21-11.92 19.94-19.02 20.21-21.31.24-2.06 2.44-6.09 6.62-12.1 9.34-12.6 15.84-29.7 19.51-51.3 1.41-8.18 2.21-13.08 2.4-14.68.69-5.95.49-13.27-.58-21.98-1.23-9.42-3.51-16.75-6.84-22.01-3.1-5.23-8.52-10.49-16.26-15.79l-11.6-7.95-23.34-2.7c-4.35-.5-7.91-.8-10.68-.89-2.75-.32-5.05-.47-6.9-.45-1.83-.21-3.69-.2-5.57.05-1.86.02-3.27.2-4.24.55-.71.15-2.38.54-5 1.16-2.37.42-4.39.88-6.07 1.38-5.68.97-9.66 2.36-11.96 4.18z"/>
</svg>
