<svg xmlns:dc="http://purl.org/dc/elements/1.1/" xmlns:cc="http://creativecommons.org/ns#" xmlns:rdf="http://www.w3.org/1999/02/22-rdf-syntax-ns#" xmlns:svg="http://www.w3.org/2000/svg" xmlns="http://www.w3.org/2000/svg" xmlns:sodipodi="http://sodipodi.sourceforge.net/DTD/sodipodi-0.dtd" xmlns:inkscape="http://www.inkscape.org/namespaces/inkscape" version="1.1" x="0px" y="0px" viewBox="0 0 100 100"><g transform="translate(-664.5,-949.25)"><path style="" d="m 734.5,1019.25 0,19.1189 5.9411,5.8811 0,-15.4094 11.69173,11.7934 3.55745,-3.59 -11.69687,-11.7986 15.50659,0 -6.05437,-5.9954 -18.94563,0 z" fill="#000000" fill-opacity="1" fill-rule="evenodd" stroke="none"></path><path style="" d="m 694.5,979.25 0,-19.11888 -5.9411,-5.88112 0,15.40937 -11.69173,-11.79337 -3.55745,3.59 11.69687,11.79862 -15.50659,0 6.05437,5.99538 18.94563,0 z" fill="#000000" fill-opacity="1" fill-rule="evenodd" stroke="none"></path><path style="" d="m 734.5,979.25 19.11888,0 5.88112,-5.9411 -15.40937,0 11.79337,-11.69173 -3.59,-3.55745 -11.79862,11.69687 0,-15.50659 -5.99538,6.05437 0,18.94563 z" fill="#000000" fill-opacity="1" fill-rule="evenodd" stroke="none"></path><path style="" d="m 694.5,1019.25 -19.11888,0 -5.88112,5.9411 15.40937,0 -11.79337,11.6918 3.59,3.5573 11.79862,-11.6968 0,15.5066 5.99538,-6.0544 0,-18.9456 z" fill="#000000" fill-opacity="1" fill-rule="evenodd" stroke="none"></path><path style="" d="m 703.66542,985.47914 c -2.37171,-0.002 -4.29191,1.92264 -4.29435,4.29436 0,2.36996 1.92438,4.2919 4.29435,4.29434 2.37171,0.002 4.29189,-1.88431 4.29435,-4.256 0.002,-2.37171 -1.92264,-4.33024 -4.29435,-4.3327 z m 0,9.24048 c -5.08224,1e-4 -9.19984,8.23998 -9.20219,18.40448 l 18.40436,0 c 0.002,-10.1645 -4.11995,-18.40448 -9.20217,-18.40448 z" fill="#000000" fill-opacity="1" stroke="none"></path><path style="" d="m 725.91129,982.4481 c -2.21358,-0.002 -4.00577,1.79446 -4.00806,4.00805 0,2.21197 1.79611,4.00578 4.00806,4.00807 2.21359,0.002 4.00578,-1.7587 4.00807,-3.97227 0.002,-2.21359 -1.79448,-4.04155 -4.00807,-4.04385 z m 0,8.62449 c -4.74341,3e-5 -8.58651,7.69061 -8.5887,17.17741 l 17.17741,0 c 0.002,-9.4868 -3.8453,-17.17743 -8.58871,-17.17741 z" fill="#000000" fill-opacity="1" stroke="none"></path><path style="" d="m 714.42233,978.45293 c -1.98631,-0.002 -3.5917,1.60744 -3.59375,3.59375 0,1.98484 1.60891,3.59169 3.59375,3.59375 1.98631,0.002 3.59168,-1.57619 3.59375,-3.5625 0.002,-1.98628 -1.60744,-3.62295 -3.59375,-3.625 z m 0,7.75 c -3.29274,10e-6 -5.77399,3.6402 -6.87814,9.45136 1.45115,1.13848 2.98983,3.42621 3.84597,5.80021 l 5.95385,0.066 c 0.55685,-3.15539 1.94453,-6.02607 3.32388,-7.89018 -1.33094,-4.64401 -3.37833,-7.4277 -6.24556,-7.42769 z" fill="#000000" fill-opacity="1" stroke="none"></path></g></svg>