<svg xmlns="http://www.w3.org/2000/svg" xmlns:xlink="http://www.w3.org/1999/xlink" version="1.1" x="0px" y="0px" viewBox="0 0 90 90" enable-background="new 0 0 90 90" xml:space="preserve"><g><g><path fill="#000000" d="M60.7,80.8H17.9c-2.4,0-4.4-2-4.4-4.4v-55c0-2.4,2-4.4,4.4-4.4h4.2c0.8,0,1.5,0.7,1.5,1.5S22.9,20,22.1,20    h-4.2c-0.8,0-1.4,0.6-1.4,1.4v55c0,0.8,0.6,1.4,1.4,1.4h42.8c0.8,0,1.4-0.6,1.4-1.4v-19c0-0.8,0.7-1.5,1.5-1.5s1.5,0.7,1.5,1.5v19    C65.1,78.9,63.2,80.8,60.7,80.8z"></path></g><g><path fill="#000000" d="M63.6,26.9c-0.8,0-1.5-0.7-1.5-1.5v-4c0-0.8-0.6-1.4-1.4-1.4h-4.2c-0.8,0-1.5-0.7-1.5-1.5s0.7-1.5,1.5-1.5    h4.2c2.4,0,4.4,2,4.4,4.4v4C65.1,26.2,64.5,26.9,63.6,26.9z"></path></g><g><path fill="#000000" d="M49.1,26.1H29.5c-1.5,0-2.8-1.2-2.8-2.8v-7.4c0-1.5,1.2-2.8,2.8-2.8h4.5c0.7-2.3,2.8-4,5.3-4    c2.5,0,4.7,1.7,5.3,4h4.4c1.5,0,2.8,1.2,2.8,2.8v7.4C51.9,24.9,50.7,26.1,49.1,26.1z M29.8,23.1h19.1v-7h-5.5    c-0.8,0-1.5-0.7-1.5-1.5c0-1.4-1.1-2.5-2.5-2.5s-2.5,1.1-2.5,2.5c0,0.8-0.7,1.5-1.5,1.5h-5.6V23.1z"></path></g><g><path fill="#000000" d="M33.2,56.6H23.1V46.5h10.1V56.6z M26.1,53.6h4.1v-4.1h-4.1V53.6z"></path></g><g><path fill="#000000" d="M45.5,53h-6.4c-0.8,0-1.5-0.7-1.5-1.5s0.7-1.5,1.5-1.5h6.4c0.8,0,1.5,0.7,1.5,1.5S46.3,53,45.5,53z"></path></g><g><path fill="#000000" d="M33.2,71.5H23.1V61.4h10.1V71.5z M26.1,68.5h4.1v-4.1h-4.1V68.5z"></path></g><g><path fill="#000000" d="M33.2,41.7H23.1V31.6h10.1V41.7z M26.1,38.7h4.1v-4.1h-4.1V38.7z"></path></g><g><path fill="#000000" d="M54,35.2h-15c-0.8,0-1.5-0.7-1.5-1.5s0.7-1.5,1.5-1.5h15c0.8,0,1.5,0.7,1.5,1.5S54.9,35.2,54,35.2z"></path></g><g><path fill="#000000" d="M50.1,41H39.1c-0.8,0-1.5-0.7-1.5-1.5s0.7-1.5,1.5-1.5h11.1c0.8,0,1.5,0.7,1.5,1.5S51,41,50.1,41z"></path></g><g><path fill="#000000" d="M45.7,69.2c-0.3,0-0.6-0.1-0.8-0.3c-0.5-0.3-0.8-1-0.6-1.6l1.8-7.6c0-0.2,0.1-0.4,0.2-0.5l18.5-27.1    c0.5-0.7,1.4-0.9,2.1-0.4c0.7,0.5,0.9,1.4,0.4,2.1L48.8,60.8L48,64.3l3-2l20-29.3l-3.4-2.3c-0.3-0.2-0.6-0.6-0.6-1    c-0.1-0.4,0-0.8,0.2-1.1l1.9-2.9c0.5-0.7,1.4-0.9,2.1-0.4l4.6,3.2c0.7,0.5,0.9,1.4,0.4,2.1c-0.5,0.7-1.4,0.9-2.1,0.4l-3.4-2.3    L70.5,29l3.4,2.3c0.3,0.2,0.6,0.6,0.6,1c0.1,0.4,0,0.8-0.2,1.1l-21,30.7c-0.1,0.2-0.2,0.3-0.4,0.4L46.5,69    C46.3,69.1,46,69.2,45.7,69.2z"></path></g></g></svg>