<svg xmlns="http://www.w3.org/2000/svg" xmlns:xlink="http://www.w3.org/1999/xlink" version="1.1" x="0px" y="0px" viewBox="0 0 100 100" enable-background="new 0 0 100 100" xml:space="preserve"><path d="M90.5,18.5h-80c-3.309,0-6,2.691-6,6v52c0,3.309,2.691,6,6,6h80c3.309,0,6-2.691,6-6v-52C96.5,21.191,93.809,18.5,90.5,18.5  z M64.918,49.887L92.5,28.572v43.725L64.918,49.887z M10.5,22.5h80c0.805,0,1.488,0.482,1.807,1.168L50.5,55.973L8.693,23.668  C9.012,22.982,9.695,22.5,10.5,22.5z M36.082,49.887L8.5,72.297V28.572L36.082,49.887z M90.5,78.5h-80  c-0.814,0-1.512-0.492-1.824-1.193l30.658-24.908l9.943,7.684c0.359,0.279,0.791,0.418,1.223,0.418s0.863-0.139,1.223-0.418  l9.941-7.684l30.658,24.91C92.012,78.008,91.314,78.5,90.5,78.5z"></path></svg>