<svg xmlns="http://www.w3.org/2000/svg" xmlns:xlink="http://www.w3.org/1999/xlink" version="1.1" x="0px" y="0px" viewBox="0 0 100 100" enable-background="new 0 0 100 100" xml:space="preserve"><g><g><path fill="#000000" d="M76.664,0.18c1.297-0.053,2.619-0.368,3.9-0.012c1.535,0.413,2.977,1.577,3.322,3.186    c0.304,2.205,0.578,4.414,0.869,6.621c1.348-0.072,2.777,0.51,3.512,1.677c0.453,0.666,0.422,1.5,0.549,2.262    c0.378,2.876,0.746,5.754,1.125,8.63c0.049,0.522,0.195,1.046,0.089,1.571c-0.177,0.93-0.857,1.72-1.702,2.122    c-0.43,0.235-0.92,0.299-1.387,0.419c0.011,0.151,0.018,0.303,0.021,0.456c0.729,0.082,1.488,0.119,2.145,0.49    c0.723,0.371,1.355,0.971,1.65,1.739c0.162,0.416,0.163,0.866,0.24,1.299c0.422,3.382,0.9,6.759,1.3,10.144    c0.067,1.664-1.531,2.943-3.098,3.03c-0.032,0.185,0.013,0.371,0.04,0.554c1.379-0.089,2.846,0.547,3.559,1.762    c0.381,0.589,0.361,1.315,0.469,1.984c0.426,3.226,0.838,6.454,1.266,9.681c0.188,1.734-1.477,3.144-3.111,3.211    c0.006,0.17,0.006,0.34,0.012,0.512c0.914,0.038,1.859,0.199,2.615,0.752c0.685,0.48,1.238,1.216,1.333,2.066    c0.464,3.584,0.939,7.166,1.396,10.753c0.096,1.179-0.728,2.271-1.766,2.752c-0.418,0.234-0.9,0.264-1.354,0.378    c0.206,1.972,0.534,3.932,0.737,5.905c0.118,1.179-0.517,2.284-1.377,3.042c0.001,1.447,0.463,2.861,0.403,4.314    c-0.22,1.9-2.029,3.314-3.873,3.458c-22.853,1.684-45.706,3.353-68.559,5.029c-1.274,0.152-2.599-0.21-3.623-0.982    c-0.845-0.607-1.473-1.545-1.623-2.583C12.338,70.211,8.926,44.023,5.517,17.835c-0.372-1.909-0.419-3.865-0.28-5.801    c0.157-1.786,0.541-3.618,1.57-5.121c0.823-1.187,2.239-1.898,3.676-1.924c7.572-0.48,15.132-1.093,22.699-1.625    C47.675,2.298,62.17,1.233,76.664,0.18z M78.16,1.954C56.138,3.585,34.11,5.183,12.088,6.807    c-0.818,0.096-1.699-0.014-2.445,0.403C8.94,7.572,8.395,8.326,8.455,9.139c3.473,26.721,6.957,53.44,10.435,80.159    c0.128,1.004,1.008,1.762,1.962,1.973c0.684,0.191,1.386-0.025,2.08-0.025c22.213-1.63,44.427-3.259,66.641-4.887    c0.523-0.035,1.074-0.06,1.536-0.34c0.763-0.389,1.319-1.256,1.148-2.127c-3.464-26.647-6.948-53.292-10.403-79.94    c-0.071-0.727-0.572-1.361-1.201-1.705C79.896,1.818,78.993,1.854,78.16,1.954z M84.865,10.803    c0.65,5.003,1.303,10.004,1.953,15.009c0.966-0.041,1.917-0.673,2.236-1.603c0.155-0.424,0.092-0.878,0.029-1.312    c-0.434-3.305-0.865-6.61-1.293-9.917C87.653,11.604,86.183,10.64,84.865,10.803z M87.122,27.969    c0.13,1.417,0.362,2.823,0.528,4.237c0.441,3.379,0.883,6.759,1.322,10.139c0.035,0.222,0.018,0.465,0.127,0.67    c1.31-0.081,2.568-1.312,2.252-2.682c-0.455-3.46-0.896-6.92-1.356-10.379C89.727,28.682,88.369,27.888,87.122,27.969z     M89.352,45.145c0.614,5.025,1.307,10.043,1.945,15.067c1.312-0.053,2.595-1.271,2.299-2.646    c-0.455-3.465-0.899-6.932-1.355-10.397C91.976,45.876,90.605,45.099,89.352,45.145z M91.6,62.366    c0.04,0.638,0.154,1.269,0.227,1.904c0.58,4.372,1.116,8.749,1.725,13.115c0.945-0.031,1.873-0.653,2.204-1.553    c0.155-0.394,0.11-0.829,0.062-1.239c-0.447-3.367-0.874-6.737-1.322-10.105C94.322,63.14,92.887,62.27,91.6,62.366z     M89.729,88.253c-11.04,0.778-22.077,1.602-33.114,2.41c-11.433,0.852-22.868,1.66-34.299,2.526    c-1.152-0.023-2.125,1.057-2.203,2.164c-0.134,1.335,1.075,2.695,2.441,2.568c21.854-1.609,43.71-3.207,65.564-4.811    c0.633-0.046,1.303-0.03,1.876-0.342c0.731-0.364,1.318-1.146,1.208-1.995c-0.119-0.84-0.197-1.684-0.338-2.518    C90.543,88.074,90.099,88.271,89.729,88.253z"></path></g><path fill="#000000" d="M18.592,7.252c1.167-0.056,2.328-0.179,3.495-0.233c0.439,3.076,0.797,6.168,1.206,9.25   c3.129,24.318,6.251,48.637,9.382,72.956c0.013,0.131,0.014,0.263,0.005,0.396c-1.173,0.032-2.339,0.184-3.509,0.214   c-0.753-5.477-1.411-10.968-2.133-16.448C24.23,51.487,21.423,29.59,18.61,7.693C18.596,7.546,18.59,7.4,18.592,7.252z"></path><path fill="#000000" d="M10.848,7.831c2.282-0.149,4.561-0.354,6.844-0.49c2.252,17.791,4.561,35.576,6.833,53.366   c1.243,9.739,2.518,19.475,3.734,29.216c-2.222,0.169-4.445,0.328-6.668,0.484c-0.769,0.046-1.662-0.467-1.741-1.291   C16.375,62.493,12.912,35.869,9.446,9.246C9.279,8.449,10.128,7.843,10.848,7.831z"></path><g><path fill="#000000" d="M52.533,27.42c1.805-0.277,3.658-0.288,5.458,0.043c2.405,0.438,4.704,1.49,6.575,3.071    c2.516,2.107,4.224,5.124,4.838,8.338c0.553,2.442,0.566,5.083-0.387,7.429c-0.699,1.73-2.035,3.234-3.771,3.962    c-1.34,0.562-2.971,0.823-4.283,0.053c-1.138-0.637-1.707-1.904-1.953-3.13c-0.162,0.083-0.187,0.287-0.266,0.433    c-0.633,1.525-1.691,2.93-3.177,3.705c-1.575,0.817-3.521,1.102-5.188,0.392c-1.676-0.689-2.884-2.234-3.422-3.935    c-0.476-1.572-0.568-3.26-0.281-4.877c0.413-2.362,1.711-4.565,3.605-6.041c1.666-1.316,3.744-2.05,5.85-2.223    c1.575-0.124,3.188-0.075,4.717,0.36c0.117,2.849,0.139,5.704,0.23,8.553c0.01,1.141,0.09,2.303,0.475,3.385    c0.24,0.663,0.718,1.345,1.463,1.462c0.909,0.122,1.805-0.325,2.424-0.97c0.934-0.955,1.378-2.274,1.586-3.567    c0.295-2.204-0.079-4.451-0.826-6.531c-0.836-2.297-2.291-4.405-4.299-5.825c-1.979-1.431-4.434-2.101-6.857-2.114    c-2.477,0.001-4.98,0.573-7.129,1.831c-2.372,1.368-4.255,3.563-5.24,6.12c-1.066,2.688-1.188,5.678-0.665,8.501    c0.379,2.149,1.153,4.247,2.395,6.052c1.078,1.594,2.526,2.939,4.206,3.882c2.338,1.319,5.092,1.837,7.756,1.563    c2.568-0.262,5.135-1.039,7.248-2.559c0.41,0.621,0.826,1.246,1.178,1.902c-2.807,2.056-6.319,2.857-9.742,3.021    c-2.749,0.052-5.521-0.609-7.923-1.954c-3.896-2.135-6.685-6.074-7.576-10.406c-0.765-3.224-0.693-6.674,0.381-9.82    c0.808-2.433,2.257-4.655,4.18-6.353C46.448,29.1,49.448,27.832,52.533,27.42z M52.717,38.325    c-2.758,1.898-3.722,5.753-2.634,8.843c0.335,0.906,0.99,1.749,1.92,2.093c1.148,0.446,2.496,0.168,3.447-0.593    c1.327-1.052,2.12-2.653,2.485-4.282c0.314-1.262,0.139-2.567,0.158-3.85c-0.027-1.083-0.051-2.167-0.065-3.25    C56.219,36.922,54.242,37.263,52.717,38.325z"></path></g></g></svg>