<svg xmlns="http://www.w3.org/2000/svg" xmlns:xlink="http://www.w3.org/1999/xlink" version="1.1" x="0px" y="0px" viewBox="0 0 48 48" enable-background="new 0 0 48 48" xml:space="preserve"><g><path d="M25.826,48c-0.553,0-1-0.447-1-1c0-12.227,9.947-22.174,22.174-22.174c0.553,0,1,0.447,1,1s-0.447,1-1,1   c-11.124,0-20.174,9.05-20.174,20.174C26.826,47.553,26.379,48,25.826,48z"></path><path d="M19.619,48c-0.552,0-1-0.447-1-1c0-15.649,12.731-28.381,28.381-28.381c0.553,0,1,0.448,1,1s-0.447,1-1,1   c-14.547,0-26.381,11.834-26.381,26.381C20.619,47.553,20.171,48,19.619,48z"></path><path d="M13.413,48c-0.552,0-1-0.447-1-1c0-19.071,15.516-34.587,34.587-34.587c0.553,0,1,0.448,1,1s-0.447,1-1,1   c-17.969,0-32.587,14.618-32.587,32.587C14.413,47.553,13.965,48,13.413,48z"></path><path d="M7.207,48c-0.552,0-1-0.447-1-1c0-22.493,18.3-40.793,40.793-40.793c0.553,0,1,0.448,1,1s-0.447,1-1,1   C25.609,8.207,8.207,25.609,8.207,47C8.207,47.553,7.759,48,7.207,48z"></path><path d="M1,48c-0.552,0-1-0.447-1-1C0,21.084,21.084,0,47,0c0.553,0,1,0.448,1,1s-0.447,1-1,1C22.187,2,2,22.187,2,47   C2,47.553,1.552,48,1,48z"></path></g></svg>