<svg xmlns="http://www.w3.org/2000/svg" xmlns:xlink="http://www.w3.org/1999/xlink" version="1.1" x="0px" y="0px" viewBox="0 0 100 100" enable-background="new 0 0 100 100" xml:space="preserve"><g><g><g><g><path d="M47.686,50.809h0.391c-0.108-0.09-0.213-0.173-0.307-0.272c-3.099-2.799-5.463-8.239-5.463-12.637      c0-6.222,5.094-10.315,9.911-10.315c4.813,0,9.651,4.428,9.651,10.647c0,4.396-2.615,9.671-5.851,12.374      c0.665,2.536,4.306,3.366,11.815,5.425c8.343,2.29,6.907,7.958,6.882,11.764H29.684c-0.026-3.806-2.093-9.474,6.251-11.764      C43.238,54.026,46.876,53.185,47.686,50.809z"></path><path d="M48.077,50.809h-0.391c0.032-0.09,0.057-0.177,0.083-0.272C47.863,50.636,47.969,50.719,48.077,50.809z"></path></g></g></g></g></svg>