<svg xmlns:x="http://ns.adobe.com/Extensibility/1.0/" xmlns:i="http://ns.adobe.com/AdobeIllustrator/10.0/" xmlns:graph="http://ns.adobe.com/Graphs/1.0/" xmlns="http://www.w3.org/2000/svg" xmlns:xlink="http://www.w3.org/1999/xlink" version="1.1" x="0px" y="0px" viewBox="206 206 100 100" enable-background="new 206 206 100 100" xml:space="preserve"><metadata><sfw xmlns="http://ns.adobe.com/SaveForWeb/1.0/"><slices></slices><sliceSourceBounds height="66.666" width="90" x="355" y="266.667" bottomLeftOrigin="true"></sliceSourceBounds></sfw></metadata><g><polygon points="217.667,236 217.667,239.333 284.333,239.333 284.333,286 287.667,286 287.667,236 284.333,236  "></polygon><path d="M211,289.333h70v-46.666h-70V289.333z M214.333,246h63.333v40h-63.333V246z"></path><polygon points="224.333,229.333 224.333,232.667 291,232.667 291,279.333 294.333,279.333 294.333,229.333 291,229.333  "></polygon><polygon points="297.667,222.667 231,222.667 231,226 297.667,226 297.667,272.667 301,272.667 301,222.667  "></polygon><polygon points="225.673,267.667 221.343,275.167 217.013,282.667 225.673,282.667 234.333,282.667 230.003,275.167  "></polygon><polygon points="254.283,248.113 244.308,265.39 234.333,282.667 254.283,282.667 274.232,282.667 264.258,265.39  "></polygon></g></svg>