<svg xmlns="http://www.w3.org/2000/svg" xmlns:xlink="http://www.w3.org/1999/xlink" version="1.1" x="0px" y="0px" viewBox="0 0 100 100" enable-background="new 0 0 100 100" xml:space="preserve"><g><path fill="#000000" d="M40.128,33.368h36.561c0.828,0,1.5-0.671,1.5-1.5s-0.672-1.5-1.5-1.5H40.128c-0.828,0-1.5,0.671-1.5,1.5   S39.3,33.368,40.128,33.368z"></path><path fill="#000000" d="M76.688,48.5H40.128c-0.828,0-1.5,0.671-1.5,1.5s0.672,1.5,1.5,1.5h36.561c0.828,0,1.5-0.671,1.5-1.5   S77.517,48.5,76.688,48.5z"></path><path fill="#000000" d="M76.688,66.632H40.128c-0.828,0-1.5,0.671-1.5,1.5s0.672,1.5,1.5,1.5h36.561c0.828,0,1.5-0.671,1.5-1.5   S77.517,66.632,76.688,66.632z"></path><path fill="#000000" d="M27.684,25.996c-3.238,0-5.872,2.634-5.872,5.872s2.634,5.872,5.872,5.872s5.872-2.634,5.872-5.872   S30.922,25.996,27.684,25.996z M27.684,34.739c-1.584,0-2.872-1.288-2.872-2.872s1.288-2.872,2.872-2.872s2.872,1.289,2.872,2.872   S29.268,34.739,27.684,34.739z"></path><path fill="#000000" d="M27.684,44.128c-3.238,0-5.872,2.634-5.872,5.872s2.634,5.872,5.872,5.872s5.872-2.634,5.872-5.872   S30.922,44.128,27.684,44.128z M27.684,52.872c-1.584,0-2.872-1.289-2.872-2.872s1.288-2.872,2.872-2.872s2.872,1.289,2.872,2.872   S29.268,52.872,27.684,52.872z"></path><path fill="#000000" d="M27.684,62.261c-3.238,0-5.872,2.634-5.872,5.872s2.634,5.872,5.872,5.872s5.872-2.634,5.872-5.872   S30.922,62.261,27.684,62.261z M27.684,71.004c-1.584,0-2.872-1.289-2.872-2.872s1.288-2.872,2.872-2.872s2.872,1.288,2.872,2.872   S29.268,71.004,27.684,71.004z"></path></g></svg>