<svg xmlns="http://www.w3.org/2000/svg" xmlns:xlink="http://www.w3.org/1999/xlink" version="1.1" x="0px" y="0px" viewBox="0 0 100 100" enable-background="new 0 0 100 100" xml:space="preserve"><g><polygon fill-rule="evenodd" clip-rule="evenodd" points="80.882,75.439 78.936,63.932 69.085,66.943 73.907,77.572  "></polygon><path fill-rule="evenodd" clip-rule="evenodd" d="M85.308,84.705c-0.947-3.096-3.396-6.692-4.234-7.871l-6.989,2.137   c-0.729,1.408-2.286,5.178-0.712,9.383c1.6,4.272,9.911,14.731,9.502,10.421C82.057,90.158,86.458,88.469,85.308,84.705z"></path><path fill-rule="evenodd" clip-rule="evenodd" d="M73.196,45C67.662,26,58.871-1.208,54.021,0.274C49.43,1.678,56.257,26,62.156,45   H40.099l6.131-14.551l-9.519-3.986L28.865,45H8v12h6v-4h1v4h6v-4h1v4h1.625L10.393,88.238c-0.028,0.052-0.055,0.139-0.079,0.195   c-0.333,0.783-0.094,1.651,0.533,1.918c0.628,0.267,1.407-0.145,1.74-0.929c0.013-0.03,0.023-0.057,0.034-0.086l0.009,0.005   c-0.015,0.029-0.03,0.058-0.042,0.088c-0.333,0.784,0.128,1.73,1.031,2.113c0.727,0.309,1.517,0.158,1.971-0.322   c-0.076,0.641,0.23,1.258,0.799,1.499c0.706,0.301,1.548-0.093,1.881-0.877c0.013-0.03,0.023-0.061,0.034-0.091l0.006,0.003   c-0.014,0.029-0.027,0.058-0.04,0.088c-0.333,0.784-0.253,1.568,0.178,1.752c0.432,0.183,1.051-0.305,1.384-1.089   c0.013-0.03,0.023-0.06,0.035-0.09l0.011-0.061L34.857,57H37v-4h1v4h7v-4h1v4h7v-4h1v4h7v-4h1v4h4.188   c1.528,5,2.632,7.737,2.878,8.432l9.076-2.809C78,62.074,77.473,60,76.657,57H78v-4h1v4h7v-4h1v4h5V45H73.196z"></path><path fill-rule="evenodd" clip-rule="evenodd" d="M51.897,16.987c0.666-1.568-0.065-3.38-1.636-4.046l-3.835-1.628   c-1.569-0.666-3.382,0.066-4.047,1.634l-1.87,4.405l9.519,4.04L51.897,16.987z"></path><rect x="38.2" y="20.683" transform="matrix(0.9205 0.3907 -0.3907 0.9205 12.7642 -15.0494)" fill-rule="evenodd" clip-rule="evenodd" width="10.34" height="6.327"></rect><polygon fill-rule="evenodd" clip-rule="evenodd" points="10.877,100 14.625,96.897 10.505,95.148  "></polygon></g></svg>