<svg xmlns="http://www.w3.org/2000/svg" xmlns:xlink="http://www.w3.org/1999/xlink" version="1.1" x="0px" y="0px" viewBox="0 0 100 100" enable-background="new 0 0 100 100" xml:space="preserve"><path d="M17.9,85.2c6.1-1.1,12.4-2.9,15.3-10.4c0-0.1-0.1-0.3-0.3-0.3c-2.6,1.5-6,1.7-7.1,1.7c-0.3,0-0.4-0.1-0.4-0.4  c-0.1-1.1-0.4-4.5,0.8-7.2c0.1-0.1-0.1-0.3-0.3-0.3c-7.1,3.8-8.2,10.2-8.6,16.4C17.4,85,17.7,85.2,17.9,85.2z"></path><path d="M36.7,41.3C22.7,42.4,14,51,10.1,55.2c-0.3,0.4,0,1,0.6,0.7c7.9-2.6,15.7-1.4,18.4-0.8c0.6,0.1,0.8,0.7,0.7,1.1L28,63  c-0.1,0.4,0.1,1,0.6,1.1c1.1,0.4,3.1,1.3,5,2.9c1.9,1.8,3.1,3.6,3.5,4.7c0.3,0.4,0.7,0.6,1.1,0.4l6.5-2.6c0.6-0.1,1,0,1.3,0.6  c0.8,2.5,3.1,10.3,1.3,18.4c-0.1,0.4,0.4,0.8,0.8,0.4c3.8-4.3,11.3-13.9,10.7-28c0-0.3,0.1-0.4,0.3-0.6c19.5-17,22.4-36.7,22.7-47.3  c-10.4,1.5-29.8,6.7-44.4,28C37.1,41.1,37,41.3,36.7,41.3z M61.2,36c2.9,2.6,3.2,7.2,0.6,10.2c-2.6,2.9-7.2,3.2-10.2,0.6  c-2.9-2.6-3.2-7.2-0.6-10.2C53.7,33.6,58.3,33.3,61.2,36z"></path></svg>