<svg xmlns="http://www.w3.org/2000/svg" xmlns:xlink="http://www.w3.org/1999/xlink" version="1.1" x="0px" y="0px" viewBox="0 0 53.248 98.51" enable-background="new 0 0 53.248 98.51" xml:space="preserve"><g><path fill-rule="evenodd" clip-rule="evenodd" d="M35.278,6.088c-1.13-0.23-0.921,0.323-0.923,1.451   c-0.008,3.773,0.034,8.076,0,11.208c-0.525,0.042-0.78-0.188-1.319-0.132c0-3.139,0-7.271,0-10.878   c0-1.106,0.263-1.874-0.856-1.714c0.217-1.182-0.487-2.453-1.78-2.571c-0.838-0.077-2.008,0.143-2.967,0.066   c-1.078-0.086-2.536-0.073-3.692-0.066c-0.617,0.004-1.465-0.021-1.912,0.264c-0.65,0.414-0.952,1.385-0.923,2.374   c-1.146-0.312-0.857,0.519-0.857,1.648c0,3.496,0,7.704,0,10.878c-0.53-0.047-0.867,0.1-1.318,0.132c0-3.183,0-7.359,0-11.01   c0-1.023,0.338-1.953-0.857-1.648c-0.15-1.778,0.117-2.916,0.792-4.021c0.573-0.94,1.446-1.785,2.637-1.978   c1.238-0.2,3.296,0,5.142,0c2.743,0,5.435-0.344,6.923,0.659c0.414,0.28,1.133,1.063,1.45,1.648   c0.049,0.089-0.023,0.348,0.066,0.527c0.062,0.125,0.229,0.162,0.264,0.264C35.4,3.959,35.218,4.972,35.278,6.088z"></path><path fill-rule="evenodd" clip-rule="evenodd" d="M7.786,19.34c2.758-0.387,6.381-0.066,9.362-0.066c7.588,0,15.336,0,23.142,0   c1.61,0,3.265-0.201,4.614,0c0.329,0.049,0.733,0.306,1.055,0.461c2.505,1.207,4.067,2.975,5.209,5.538   c0.598,1.342,0.861,2.695,0.989,4.417c0.598,8.083,1.055,17.508,1.055,25.778c0,2.684,0.083,5.379,0,7.714   c-0.198,5.538-0.507,11.962-0.857,17.669c-0.108,1.764-0.059,3.521-0.396,4.944c-0.754,3.185-2.256,6.309-4.352,7.911   c-1.851,1.416-6.012,1.056-9.361,1.056c-8.762,0-17.21,0.125-25.844-0.198c-1.765-0.066-3.575,0.117-5.077-0.132   c-1.171-0.193-2.443-1.227-3.23-2.109c-1.733-1.944-2.397-4.48-2.637-7.912c-0.565-8.067-1.36-16.391-1.451-24.986   c-0.035-3.386,0.098-7.022,0.198-10.417c0.206-6.935,0.794-13.038,1.253-19.845c0.108-1.603,0.484-2.908,0.989-4.285   c0.472-1.29,1.071-2.577,1.78-3.495C4.934,20.467,5.967,19.595,7.786,19.34z"></path><path fill-rule="evenodd" clip-rule="evenodd" d="M8.708,95.027c0.898-0.11,3.212-0.009,4.681,0c0.521,0.003,1.229-0.099,1.318,0   c0.193,0.214,0.058,1.033-0.066,1.45C13.704,99.643,8.014,99.077,8.708,95.027z"></path><path fill-rule="evenodd" clip-rule="evenodd" d="M38.113,95.027c0.897-0.11,3.211-0.009,4.681,0c0.521,0.003,1.229-0.099,1.318,0   c0.193,0.214,0.058,1.033-0.065,1.45C43.108,99.643,37.418,99.077,38.113,95.027z"></path></g></svg>