<svg xmlns="http://www.w3.org/2000/svg" xmlns:xlink="http://www.w3.org/1999/xlink" version="1.1" x="0px" y="0px" viewBox="0 0 100 100" enable-background="new 0 0 100 100" xml:space="preserve"><g><g><path d="M55.8,8.5v8.9c0,1.6,1.1,3,2.5,3.4c2.1,0.5,4.1,1.4,6,2.5c0.5,0.4,1.1,0.5,1.8,0.5c0.9,0,1.8-0.4,2.5-1.1l6-6.2L83,25    l-6.2,6.2c-1.1,1.1-1.4,2.8-0.5,4.3c1.1,1.9,1.9,3.9,2.5,6c0.4,1.6,1.8,2.5,3.4,2.5h8.7v12h-8.7c-1.6,0-3,1.1-3.4,2.5    c-0.5,2.1-1.4,4.3-2.5,6c-0.7,1.4-0.5,3,0.5,4.3L83,75l-8.3,8.5l-6-6.2c-0.7-0.7-1.6-1.1-2.5-1.1c-0.5,0-1.2,0.2-1.8,0.5    c-1.9,1.1-3.9,1.9-6,2.5c-1.4,0.5-2.5,1.8-2.5,3.4v8.9H44.2v-8.9c0-1.6-1.1-3-2.5-3.4c-2.1-0.5-4.1-1.4-6-2.5    c-0.5-0.4-1.1-0.5-1.8-0.5c-0.9,0-1.8,0.4-2.5,1.1l-6,6.2L17,75l6.2-6.2c1.1-1.1,1.4-2.8,0.5-4.3c-1.1-1.9-1.9-3.9-2.5-6    c-0.4-1.6-1.8-2.5-3.4-2.5H9.3V44h8.7c1.6,0,3-1.1,3.4-2.5c0.5-2.1,1.4-4.3,2.5-6c0.7-1.4,0.5-3-0.5-4.3L17,25l8.3-8.5l6,6.2    c0.7,0.7,1.6,1.1,2.5,1.1c0.5,0,1.2-0.2,1.8-0.5c1.9-1.1,3.9-1.9,6-2.5c1.4-0.5,2.5-1.8,2.5-3.4V8.5L55.8,8.5 M59.4,5H40.6v12.4    c-2.3,0.7-4.6,1.6-6.7,2.8l-8.5-8.7L12.1,25l8.5,8.7c-1.2,2.1-2.1,4.4-2.8,6.7h-12v19.1h12.2c0.7,2.3,1.6,4.6,2.8,6.7L12.3,75    l13.3,13.5l8.5-8.7c2.1,1.2,4.4,2.1,6.7,2.8V95h18.8V82.6c2.3-0.7,4.6-1.6,6.7-2.8l8.5,8.7L88.1,75l-8.5-8.7    c1.2-2.1,2.1-4.4,2.8-6.7h11.9V40.4H82.1c-0.7-2.3-1.6-4.6-2.8-6.7l8.5-8.7L74.4,11.6l-8.5,8.7c-2.1-1.2-4.4-2.1-6.7-2.8V5H59.4z"></path></g><g><path d="M50,41.7c4.6,0,8.1,3.7,8.1,8.3s-3.7,8.3-8.1,8.3s-8.1-3.7-8.1-8.3S45.4,41.7,50,41.7 M50,38.1c-6.6,0-11.7,5.3-11.7,11.9    S43.6,61.9,50,61.9S61.7,56.6,61.7,50S56.6,38.1,50,38.1L50,38.1z"></path></g></g></svg>