<svg xmlns="http://www.w3.org/2000/svg" xmlns:xlink="http://www.w3.org/1999/xlink" version="1.1" x="0px" y="0px" viewBox="0 0 90 90" enable-background="new 0 0 90 90" xml:space="preserve"><g><path fill="#000000" d="M69.264,49.544c0.541,1.199,1.967,1.722,3.17,1.173c1.199-0.553,1.727-1.974,1.174-3.172   c-0.553-1.203-1.974-1.73-3.178-1.172C69.227,46.92,68.704,48.346,69.264,49.544"></path><path fill="#000000" d="M25.983,70.874L25.983,70.874c-3.859-0.005-7.124-0.894-9.702-2.64c-2.624-1.787-4.36-4.241-6.023-6.607   L9.72,60.868c-1.224-1.716-2.516-3.451-3.761-5.125c-0.749-0.992-1.487-1.988-2.216-2.985L0,47.68l15.792-3.906l1.364,1.028   l6.855,5.574l2.944-0.733L11.54,33.318l16.412-4.065l28.18,12.548c2.396-0.583,9.313-2.252,10.265-2.505   c3.844-0.997,7.914-1.927,11.633-1.927c3.003,0,5.348,0.599,7.166,1.823c2.361,1.596,4.345,4.711,4.722,7.417   c0.702,5.136-3.06,10.56-8.219,11.841c-4.959,1.229-9.929,2.442-14.888,3.661c-4.139,1.009-8.271,2.016-12.403,3.039   c-1.509,0.371-3.032,0.738-4.546,1.1c-2.584,0.62-5.27,1.261-7.867,1.941c-3.693,0.968-8.146,2.021-13.22,2.537   C27.812,70.827,26.882,70.874,25.983,70.874 M8.332,50.691c0.522,0.701,1.049,1.41,1.576,2.106   c1.261,1.688,2.567,3.451,3.823,5.212l0.553,0.775c1.482,2.097,2.882,4.081,4.773,5.372c1.741,1.188,4.081,1.793,6.927,1.793   c0.729,0,1.498-0.042,2.283-0.124c4.742-0.48,8.973-1.482,12.476-2.396c2.66-0.693,5.356-1.344,7.971-1.969   c1.503-0.361,3.013-0.718,4.515-1.096c4.133-1.018,8.275-2.035,12.408-3.042c4.959-1.214,9.918-2.423,14.872-3.652   c2.476-0.614,4.923-3.478,4.525-6.392c-0.181-1.326-1.39-3.191-2.593-4.007c-0.967-0.646-2.443-0.981-4.412-0.981   c-3.602,0-8.022,1.152-10.395,1.767c-1.188,0.31-10.755,2.629-11.158,2.727l-0.811,0.197L27.491,34.45l-6.581,1.622l15.42,16.325   l-13.524,3.348l-8.136-6.617L8.332,50.691z"></path><path fill="#000000" d="M60.294,51.26c0.548,1.198,1.974,1.725,3.172,1.172c1.199-0.547,1.729-1.973,1.179-3.172   c-0.554-1.203-1.979-1.73-3.183-1.172C60.264,48.641,59.736,50.061,60.294,51.26"></path><path fill="#000000" d="M51.332,52.979c0.553,1.193,1.968,1.727,3.166,1.174c1.204-0.559,1.73-1.979,1.184-3.178   c-0.559-1.203-1.979-1.726-3.183-1.178C51.296,50.355,50.773,51.771,51.332,52.979"></path><path fill="#000000" d="M43.015,54.564c0.563,1.199,1.974,1.73,3.176,1.174c1.199-0.549,1.727-1.975,1.179-3.178   c-0.558-1.199-1.979-1.721-3.182-1.168C42.989,51.945,42.462,53.367,43.015,54.564"></path></g></svg>