<svg xmlns="http://www.w3.org/2000/svg" xmlns:xlink="http://www.w3.org/1999/xlink" version="1.1" x="0px" y="0px" viewBox="0 0 60 60" enable-background="new 0 0 60 60" xml:space="preserve"><path fill="none" d="M6.873,29.164c2.313,2.313,4.626,6.609,5.121,6.609c0.496,0,0,2.809,0.166,5.287  c0.165,2.479,1.322,3.305,2.974,4.461c1.652,1.157,2.974,2.975,2.974,3.635c0,0.661-0.496,2.975,0,3.47  c0.496,0.496,4.296,2.148,4.296,2.148s11.566-5.783,11.731-9.583c-0.661-0.826-14.209-9.418-14.209-9.418h-5.948l-2.479-5.519  l-2.148-1.255l-1.9-3.14l3.222-0.607c0,0,1.983,1.707,4.791,0c2.809-1.706,1.818-0.385,2.809-1.706  c0.991-1.322,3.8-2.644,5.287-3.635c1.487-0.992,3.47-0.661,2.313-2.148c-1.156-1.487-3.304-4.461-6.113-2.644  c-0.826-1.487-1.9-1.982,1.033-3.635c2.933-1.652,1.776-3.965,1.115-4.462c-0.484-0.361-2.025-2.313-2.819-3.335  c-1.553,0.646-3.026,1.438-4.426,2.339c-2.224,2.897-6.812,8.783-9.112,11.075C4.559,19.251,4.559,26.852,6.873,29.164z"></path><path d="M29.833,2.231c-15.464,0-28,12.536-28,28c0,15.464,12.536,28,28,28c15.464,0,28-12.536,28-28  C57.833,14.768,45.297,2.231,29.833,2.231z M22.665,53.28l1.345,2.757c-0.395-0.088-0.783-0.222-1.171-0.328l-0.58-2.335  c0,0-3.101-1.708-3.559-2.168c-0.457-0.458,0-2.599,0-3.21c0-0.61-1.22-2.291-2.744-3.361c-1.525-1.068-2.593-1.833-2.745-4.123  c-0.153-2.291,0.305-4.887-0.153-4.887c-0.458,0-2.592-3.971-4.727-6.109c-2.135-2.137-2.135-9.163-1.22-11.148  c2.123-2.119,6.357-7.559,8.41-10.236c0.222-0.29,0.416-0.545,0.582-0.763c1.05-0.633,2.147-1.196,3.285-1.682  c0.064,0.083,0.134,0.175,0.218,0.283c0.732,0.945,2.155,2.749,2.601,3.083c0.61,0.458,1.677,2.596-1.029,4.123  c-2.707,1.527-1.716,1.985-0.953,3.36c2.593-1.68,4.575,1.069,5.642,2.443c1.067,1.375-0.762,1.069-2.135,1.986  c-1.372,0.916-3.965,2.138-4.88,3.36c-0.915,1.221,0,0-2.592,1.577c-2.592,1.578-4.422,0-4.422,0l-2.973,0.561l1.753,2.902  l1.982,1.348L14.889,36h5.49c0,0,12.504,7.753,13.114,8.517C33.34,48.029,22.665,53.28,22.665,53.28z M55.698,33.878  c-0.662,0.727-1.644,1.97-2.687,3.885c-1.83,3.359-3.05,5.039-3.195,5.008c-0.145-0.031-0.007-4.703-0.007-4.703  s0.153-2.443-0.915-3.359c-1.068-0.916-4.88,3.054-6.088,2.085c-1.208-0.966-2.604-3.46-2.604-4.07c0-0.61,1.525-4.428,2.44-6.822  c0.916-2.393-2.287-6.922-2.287-6.922l1.491-3.97L38,13.176V9h-1.915l-0.536-4.006l-0.07-0.655  C47.485,6.936,56.51,17.458,56.51,30.231c0,1.012-0.062,2.009-0.172,2.992C56.196,33.357,55.98,33.567,55.698,33.878z"></path></svg>