<svg xmlns="http://www.w3.org/2000/svg" xmlns:xlink="http://www.w3.org/1999/xlink" version="1.1" x="0px" y="0px" viewBox="0 0 100 100" enable-background="new 0 0 100 100" xml:space="preserve"><g><g><path d="M45.44,68.868c-0.025-0.001-0.044-0.001-0.065-0.002c-1.236-0.057-1.552-1.216-1.886-2.443    c-0.481-1.767-1.286-4.724-4.094-7.879c-4.857-5.462-6.285-13.219-3.555-19.303c2.443-5.443,7.831-8.565,14.781-8.565    s12.338,3.122,14.781,8.565c2.73,6.084,1.303,13.841-3.555,19.303c-3.146,3.536-4.741,5.65-4.741,6.282    c0,0.595-0.398,1.115-0.973,1.271C45.999,68.843,45.66,68.868,45.44,68.868z M50.622,33.308c-5.954,0-10.351,2.49-12.38,7.011    c-2.314,5.155-1.061,11.776,3.12,16.475c3.22,3.62,4.161,7.081,4.667,8.94c0.026,0.099,0.055,0.204,0.084,0.308    c1.74-0.443,5.637-1.486,8.543-2.272c0.423-1.23,1.721-3.035,5.226-6.976c4.181-4.699,5.435-11.32,3.12-16.475    C60.973,35.798,56.576,33.308,50.622,33.308z"></path><path d="M50.291,82.634c-0.588,0-1.123-0.396-1.274-0.992c-0.179-0.704,0.247-1.421,0.951-1.6l6.513-1.656    c0.701-0.176,1.421,0.246,1.6,0.951c0.179,0.704-0.247,1.421-0.951,1.6l-6.513,1.656C50.508,82.62,50.398,82.634,50.291,82.634z"></path><path d="M45.206,76.581c-0.585,0-1.119-0.394-1.272-0.985c-0.183-0.704,0.239-1.422,0.942-1.604l11.598-3.011    c0.706-0.188,1.422,0.24,1.604,0.942c0.183,0.704-0.239,1.422-0.942,1.604l-11.598,3.011    C45.427,76.567,45.315,76.581,45.206,76.581z"></path><path d="M45.206,80.331c-0.585,0-1.119-0.394-1.272-0.985c-0.183-0.704,0.239-1.422,0.942-1.604l11.598-3.011    c0.706-0.187,1.422,0.24,1.604,0.942c0.183,0.704-0.239,1.422-0.942,1.604l-11.598,3.011    C45.427,80.317,45.315,80.331,45.206,80.331z"></path><path d="M45.206,72.831c-0.585,0-1.119-0.394-1.272-0.985c-0.183-0.704,0.239-1.422,0.942-1.604l11.598-3.011    c0.706-0.188,1.422,0.239,1.604,0.942c0.183,0.704-0.239,1.422-0.942,1.604l-11.598,3.011    C45.427,72.817,45.315,72.831,45.206,72.831z"></path></g><path d="M28.477,49.127h-5.375c-0.727,0-1.316-0.589-1.316-1.316s0.59-1.316,1.316-1.316h5.375c0.727,0,1.316,0.589,1.316,1.316   S29.203,49.127,28.477,49.127z"></path><path d="M31.481,37.909c-0.224,0-0.45-0.057-0.657-0.177l-4.654-2.688c-0.629-0.363-0.845-1.168-0.481-1.798   c0.364-0.63,1.17-0.843,1.798-0.481l4.654,2.688c0.629,0.363,0.845,1.168,0.481,1.798C32.378,37.673,31.936,37.909,31.481,37.909z"></path><path d="M39.696,29.696c-0.454,0-0.896-0.236-1.141-0.658l-2.688-4.654c-0.363-0.629-0.147-1.435,0.481-1.798   c0.628-0.363,1.434-0.148,1.798,0.481l2.688,4.654c0.363,0.629,0.147,1.435-0.481,1.798C40.146,29.639,39.92,29.696,39.696,29.696z   "></path><path d="M50.914,26.69c-0.727,0-1.316-0.589-1.316-1.316V20c0-0.727,0.59-1.316,1.316-1.316S52.23,19.273,52.23,20v5.374   C52.23,26.101,51.641,26.69,50.914,26.69z"></path><path d="M62.132,29.697c-0.224,0-0.45-0.057-0.657-0.177c-0.629-0.363-0.845-1.168-0.481-1.798l2.688-4.654   c0.364-0.629,1.17-0.844,1.798-0.481c0.629,0.363,0.845,1.168,0.481,1.798l-2.688,4.654C63.028,29.461,62.586,29.697,62.132,29.697   z"></path><path d="M70.347,37.91c-0.454,0-0.896-0.236-1.141-0.658c-0.363-0.629-0.147-1.435,0.481-1.798l4.654-2.688   c0.627-0.363,1.434-0.148,1.798,0.481c0.363,0.629,0.147,1.435-0.481,1.798l-4.654,2.688C70.797,37.853,70.57,37.91,70.347,37.91z"></path><path d="M74.999,63.035c-0.224,0-0.45-0.057-0.657-0.177l-4.654-2.688c-0.629-0.363-0.845-1.168-0.481-1.798   c0.364-0.629,1.17-0.846,1.798-0.481l4.654,2.688c0.629,0.363,0.845,1.168,0.481,1.798C75.896,62.799,75.453,63.035,74.999,63.035z   "></path><path d="M39.694,67.243"></path><path d="M26.829,63.033c-0.454,0-0.896-0.236-1.141-0.658c-0.363-0.63-0.147-1.435,0.481-1.798l4.654-2.688   c0.628-0.364,1.434-0.148,1.798,0.481c0.363,0.63,0.147,1.435-0.481,1.798l-4.654,2.688C27.279,62.977,27.053,63.033,26.829,63.033   z"></path></g></svg>