<svg xmlns="http://www.w3.org/2000/svg" xmlns:xlink="http://www.w3.org/1999/xlink" version="1.1" x="0px" y="0px" viewBox="0 0 48 48" enable-background="new 0 0 48 48" xml:space="preserve"><g><path d="M10.594,41.092C4.752,41.092,0,36.511,0,30.881S4.752,20.67,10.594,20.67c5.842,0,10.594,4.581,10.594,10.211   S16.436,41.092,10.594,41.092z M10.594,22.67C5.855,22.67,2,26.354,2,30.881s3.855,8.211,8.594,8.211s8.594-3.684,8.594-8.211   S15.333,22.67,10.594,22.67z"></path><path d="M37.407,41.092c-5.842,0-10.595-4.581-10.595-10.211S31.565,20.67,37.407,20.67s10.594,4.581,10.594,10.211   S43.249,41.092,37.407,41.092z M37.407,22.67c-4.739,0-8.595,3.684-8.595,8.211s3.855,8.211,8.595,8.211   c4.738,0,8.594-3.684,8.594-8.211S42.146,22.67,37.407,22.67z"></path><path d="M20.187,29.375c-0.207,0-0.415-0.063-0.594-0.196c-0.444-0.329-0.537-0.955-0.208-1.398   c0.065-0.089,1.629-2.163,4.154-2.347c1.716-0.124,3.385,0.629,4.983,2.236c0.39,0.392,0.388,1.025-0.004,1.414   c-0.393,0.39-1.025,0.388-1.414-0.004c-1.168-1.175-2.316-1.727-3.42-1.651c-1.594,0.115-2.682,1.527-2.692,1.541   C20.795,29.235,20.493,29.375,20.187,29.375z"></path><path d="M2.999,26.258c-0.218,0-0.438-0.071-0.622-0.218c-0.432-0.344-0.504-0.973-0.16-1.404l13.8-17.35   c0.337-0.424,0.95-0.502,1.383-0.177l5.492,4.119c0.442,0.331,0.531,0.958,0.2,1.4c-0.331,0.441-0.957,0.533-1.4,0.2l-4.714-3.535   L3.782,25.88C3.584,26.129,3.292,26.258,2.999,26.258z"></path><path d="M45.127,26.258c-0.295,0-0.586-0.129-0.783-0.378L31.147,9.292l-4.715,3.535c-0.442,0.333-1.069,0.242-1.399-0.2   c-0.332-0.442-0.242-1.069,0.2-1.4l5.492-4.119c0.434-0.325,1.047-0.246,1.382,0.177l13.801,17.35   c0.344,0.432,0.272,1.061-0.16,1.404C45.564,26.187,45.345,26.258,45.127,26.258z"></path></g></svg>