<svg xmlns="http://www.w3.org/2000/svg" xmlns:xlink="http://www.w3.org/1999/xlink" version="1.1" x="0px" y="0px" viewBox="0 0 100 100" enable-background="new 0 0 100 100" xml:space="preserve"><g><polygon fill="#000000" points="33,67.685 45,72.534 45,69.429 38.065,66.551 45,63.583 45,60.501 33,65.35  "></polygon><polygon fill="#000000" points="45.892,73.713 48.452,74.55 55.455,56.988 52.895,56.104  "></polygon><polygon fill="#000000" points="57,63.583 63.934,66.551 57,69.429 57,72.534 69,67.685 69,65.35 57,60.501  "></polygon><path fill="#000000" d="M19.766,35h-2.493l-0.657,4h-1.768l0.656-4h-2.516l-0.657,4H10v2h2.038l-0.34,3H10v2h1.38l-0.656,4h2.493   l0.657-4h1.79l-0.657,4H17.5l0.68-4H20v-2h-1.525l0.317-3H21v-2h-1.869L19.766,35z M15.981,44h-1.768l0.295-3h1.791L15.981,44z"></path><path fill="#000000" d="M96.223,15H3.777C1.691,15,0,16.691,0,18.777v64.445C0,85.309,1.691,87,3.777,87h92.445   c2.086,0,3.777-1.691,3.777-3.777V18.777C100,16.691,98.309,15,96.223,15z M23.048,19.544c1.368,0,2.479,1.11,2.479,2.479   c0,1.369-1.111,2.479-2.479,2.479s-2.479-1.109-2.479-2.479C20.569,20.654,21.68,19.544,23.048,19.544z M15.494,19.544   c1.369,0,2.479,1.11,2.479,2.479c0,1.369-1.11,2.479-2.479,2.479c-1.368,0-2.479-1.109-2.479-2.479   C13.015,20.654,14.126,19.544,15.494,19.544z M7.94,19.544c1.368,0,2.479,1.11,2.479,2.479c0,1.369-1.11,2.479-2.479,2.479   s-2.479-1.109-2.479-2.479C5.461,20.654,6.572,19.544,7.94,19.544z M94,76.059C94,78.235,92.235,80,90.058,80H7.942   C5.765,80,4,78.235,4,76.059V32.941C4,30.765,5.765,29,7.942,29h82.115C92.235,29,94,30.765,94,32.941V76.059z"></path><path fill="#000000" d="M75.367,36.812C74.879,37.341,75,38.073,75,38.972v3.391c0,0.278-0.404,0.509-0.484,0.694   c-0.08,0.186-0.473,0.327-0.599,0.427c-0.125,0.099-0.275,0.168-0.434,0.208C73.324,43.731,73,43.75,73,43.75v2.182   c0,0,0.342,0.02,0.499,0.06c0.159,0.04,0.372,0.112,0.499,0.218c0.125,0.106,0.463,0.255,0.542,0.447   C74.618,46.848,75,47.096,75,47.4v3.311c0,0.899-0.121,1.29,0.367,1.818C75.857,53.058,76.151,53,76.984,53H80v-2h-1.377   c-0.383,0-0.487,0.156-0.599-0.094C77.911,50.654,78,50.664,78,50.375v-3.233c0-0.437-0.24-0.796-0.371-1.081   s-0.35-0.512-0.541-0.685c-0.191-0.171-0.328-0.297-0.54-0.376C76.336,44.921,76,44.875,76,44.861v-0.039   c0-0.014,0.256-0.066,0.465-0.159c0.214-0.093,0.414-0.225,0.605-0.397c0.192-0.171,0.501-0.393,0.632-0.665   C77.834,43.331,78,43.004,78,42.621v-3.312c0-0.29-0.089-0.621,0.024-0.872C78.136,38.186,78.24,38,78.623,38H80v-2h-3.016   C76.151,36,75.857,36.283,75.367,36.812z"></path><path fill="#000000" d="M89.083,43.484c-0.126-0.1-0.519-0.241-0.599-0.427C88.404,42.872,88,42.641,88,42.363v-3.391   c0-0.899,0.121-1.631-0.367-2.161C87.143,36.283,86.849,36,86.016,36H83v2h1.377c0.383,0,0.487,0.186,0.599,0.437   C85.089,38.688,85,39.019,85,39.309v3.312c0,0.384,0.166,0.71,0.298,0.981c0.131,0.271,0.439,0.493,0.632,0.665   c0.191,0.172,0.392,0.304,0.605,0.397C86.744,44.756,87,44.809,87,44.822v0.039c0,0.014-0.336,0.06-0.548,0.139   c-0.212,0.08-0.349,0.205-0.54,0.377s-0.41,0.4-0.541,0.685S85,46.705,85,47.143v3.232c0,0.289,0.089,0.279-0.024,0.531   C84.864,51.156,84.76,51,84.377,51H83v2h3.016c0.833,0,1.127,0.058,1.617-0.471C88.121,52.001,88,51.61,88,50.711V47.4   c0-0.305,0.382-0.553,0.46-0.744c0.079-0.191,0.417-0.34,0.542-0.446c0.127-0.106,0.34-0.179,0.499-0.218   C89.658,45.952,90,45.932,90,45.932V43.75c0,0-0.324-0.019-0.483-0.059C89.358,43.652,89.208,43.583,89.083,43.484z"></path></g></svg>