<svg xmlns="http://www.w3.org/2000/svg" xmlns:xlink="http://www.w3.org/1999/xlink" version="1.1" x="0px" y="0px" viewBox="0 0 100 100" enable-background="new 0 0 100 100" xml:space="preserve"><g><circle cx="49.903" cy="49.902" r="10.256"></circle><polygon points="12.77,0 24.46,11.693 30.623,5.531 33.376,20.829 36.132,36.13 20.827,33.375 5.532,30.623 11.693,24.461    0.001,12.77  "></polygon><polygon points="87.228,100 75.536,88.31 69.375,94.469 66.624,79.169 63.866,63.87 79.171,66.625 94.468,69.379 88.305,75.537    99.999,87.232  "></polygon><polygon points="0.001,87.232 11.693,75.537 5.532,69.379 20.827,66.625 36.129,63.87 33.376,79.169 30.622,94.469 24.46,88.31    12.77,99.997  "></polygon><polygon points="99.999,12.77 88.309,24.461 94.472,30.623 79.171,33.377 63.873,36.131 66.627,20.829 69.378,5.531 75.54,11.694    87.231,0  "></polygon></g></svg>