<svg xmlns="http://www.w3.org/2000/svg" xmlns:xlink="http://www.w3.org/1999/xlink" version="1.1" x="0px" y="0px" viewBox="0 0 256.338 145.775" enable-background="new 0 0 256.338 145.775" xml:space="preserve"><path d="M236.7,141.645H20.311c-8.359,0-15.16-6.801-15.16-15.16V19.806c0-8.359,6.801-15.16,15.16-15.16H236.7  c8.358,0,15.159,6.801,15.159,15.16v106.679C251.859,134.844,245.058,141.645,236.7,141.645z M20.311,14.646  c-2.846,0-5.16,2.315-5.16,5.16v106.679c0,2.846,2.314,5.16,5.16,5.16H236.7c2.845,0,5.159-2.314,5.159-5.16V19.806  c0-2.845-2.314-5.16-5.159-5.16H20.311z"></path><polygon points="101.37,112.338 101.356,33.953 179.632,73.134 "></polygon><path d="M101.37,114.693c-0.349,0-0.7-0.077-1.027-0.236c-0.812-0.394-1.326-1.216-1.326-2.117l-0.014-78.386  c0-0.901,0.515-1.724,1.325-2.118c0.812-0.393,1.773-0.289,2.484,0.268l78.276,39.181c0.566,0.446,0.897,1.128,0.897,1.849  c0,0.722-0.331,1.403-0.897,1.85l-78.262,39.205C102.404,114.522,101.888,114.693,101.37,114.693z M103.711,38.802l0.012,68.687  l72.104-34.354L103.711,38.802z"></path></svg>