<svg xmlns="http://www.w3.org/2000/svg" data-name="Layer 1" viewBox="0 0 52 52" x="0px" y="0px"><title>business_icons_tnp</title><path d="M50.9,15.18c-0.53-1.48-2.82-1.94-7.92-1.56a1,1,0,0,0-.38.11l-13,6.6-14-3A6.63,6.63,0,0,0,9.3,19.1a1,1,0,0,0,.16,1.56l9.28,5.88L12.5,30.2,6,28.72l-0.13,0c-0.75-.07-3.28-0.21-4.31.8A1.65,1.65,0,0,0,1,30.8a1,1,0,0,0,.46.78l10.66,6.76a1,1,0,0,0,1,0L49.41,18.09,49.5,18C49.82,17.81,51.41,16.6,50.9,15.18Zm-2.52,1.19-35.69,20L3.82,30.71a10.33,10.33,0,0,1,1.76,0l6.87,1.54a1,1,0,0,0,.72-0.11l8-4.68a1,1,0,0,0,0-1.71l-9.46-6a4.56,4.56,0,0,1,3.38-.5l14.4,3.12a1,1,0,0,0,.66-0.09L43.33,15.6c3.87-.27,5.18.08,5.58,0.26A2.87,2.87,0,0,1,48.38,16.37ZM39,26.45a1,1,0,0,0-1.25-.22l-7.46,4.16a1,1,0,0,0,.11,1.8l9,3.61a5.12,5.12,0,0,0,2.17.61A1.92,1.92,0,0,0,43,35.84c0.8-.81.75-2.27-0.14-4A37,37,0,0,0,39,26.45ZM40.16,34L33,31.11,38,28.38A30.68,30.68,0,0,1,41,32.75a3.38,3.38,0,0,1,.48,1.65A3,3,0,0,1,40.16,34Z"></path></svg>