<svg xmlns="http://www.w3.org/2000/svg" xmlns:xlink="http://www.w3.org/1999/xlink" version="1.1" x="0px" y="0px" viewBox="0 0 100 100" style="enable-background:new 0 0 100 100;" xml:space="preserve"><g><path d="M61.382,64.079c0,0-6.331-1.892-6.331-3.041c0-1.959-0.124-4.555,0.226-4.89c0.042-0.04,0.081-0.059,0.129-0.091   c3.965-2.672,7.669-8.105,7.669-14.396c0-8.93-5.964-17.021-13.056-17.021h-0.687c-7.092,0-13.056,8.097-13.056,17.027   c0,6.292,3.703,11.729,7.669,14.402c0.048,0.032,0.087,0.063,0.129,0.103c0.349,0.335,0.226,2.908,0.226,4.867   c0,1.489-6.331,3.041-6.331,3.041c-6.955,2.27-12.797,6.445-12.797,13.513c0,0.665,0.539,1.92,1.205,1.92h23.299h23.299   c0.665,0,1.205-1.255,1.205-1.92C74.18,70.523,68.476,66.446,61.382,64.079z"></path><path d="M34.316,62.192c2.545-0.628,4.082-1.597,4.49-2.129c0.001-0.359,0.005-0.737,0.01-1.116   c0.011-0.944,0.029-2.328-0.059-2.835c-3.522-2.424-6.671-7.598-6.671-14.355c0-6.658,2.386-13.653,6.95-16.424   c-2.059-3.821-4.497-5.512-8.259-5.512h-0.593c-6.124,0-11.273,6.991-11.273,14.702c0,5.433,3.198,10.128,6.622,12.436   c0.041,0.028,0.076,0.054,0.111,0.089c0.302,0.289,0.195,2.511,0.195,4.203c0,1.286-5.466,2.626-5.466,2.626   c-6.006,1.96-11.05,5.565-11.05,11.668c0,0.575,0.466,1.658,1.04,1.658h14.96C27.454,65.141,30.46,63.451,34.316,62.192z"></path><path d="M79.628,53.877c0,0-5.466-1.634-5.466-2.626c0-1.691-0.107-3.933,0.195-4.222c0.036-0.034,0.07-0.051,0.111-0.079   c3.424-2.308,6.622-6.998,6.622-12.431c0-7.711-5.15-14.697-11.273-14.697h-0.593c-3.857,0-6.375,1.826-8.416,5.807   c4.325,2.889,6.488,9.695,6.488,16.124c0,6.756-3.153,11.93-6.673,14.351c-0.085,0.521-0.069,1.9-0.057,2.843   c0.004,0.347,0.008,0.694,0.01,1.024c0.573,0.538,2.262,1.555,4.468,2.214c3.903,1.302,6.908,2.981,9.03,5.017h15.566   c0.575,0,1.04-1.083,1.04-1.658C90.679,59.442,85.754,55.922,79.628,53.877z"></path></g></svg>