<svg xmlns="http://www.w3.org/2000/svg" xmlns:xlink="http://www.w3.org/1999/xlink" version="1.1" x="0px" y="0px" viewBox="0 0 100 100" enable-background="new 0 0 100 100" xml:space="preserve"><g><g><path fill="none" d="M84.7,46.2H50.1c-1.7,0-3.1,1.4-3.1,3.1c0,1.7,1.4,3.1,3.1,3.1h34.6c1.7,0,3.1-1.4,3.1-3.1    C87.8,47.6,86.4,46.2,84.7,46.2z"></path><path fill="none" d="M84.7,58.3H50.1c-1.7,0-3.1,1.4-3.1,3.1c0,1.7,1.4,3.1,3.1,3.1h34.6c1.7,0,3.1-1.4,3.1-3.1    C87.8,59.7,86.4,58.3,84.7,58.3z"></path><path fill="none" d="M84.7,33.8H50.1c-1.7,0-3.1,1.4-3.1,3.1c0,1.7,1.4,3.1,3.1,3.1h34.6c1.7,0,3.1-1.4,3.1-3.1    C87.8,35.2,86.4,33.8,84.7,33.8z"></path><path fill="none" d="M35.5,55.5c-1.3-1.5-4-2.7-6-2.7h-5.8c-2,0-4.6,1.2-6,2.7l-4.6,5.2c-1.3,1.5-0.8,2.7,1.1,2.7h24.8    c2,0,2.5-1.2,1.1-2.7L35.5,55.5z"></path><path d="M84.3,19.2H15.5C9.7,19.2,5,24,5,29.7v38.9c0,5.8,4.7,10.5,10.5,10.5l53.7,0l16.1,0c5.3-0.5,9.5-5,9.5-10.4V29.7    C94.8,24,90.1,19.2,84.3,19.2z M26.6,33.3c4.7,0,8.6,3.8,8.6,8.6c0,4.7-3.8,8.6-8.6,8.6c-4.7,0-8.6-3.8-8.6-8.6    C18,37.2,21.9,33.3,26.6,33.3z M39.1,63.5H14.3c-2,0-2.5-1.2-1.1-2.7l4.6-5.2c1.3-1.5,4-2.7,6-2.7h5.8c2,0,4.7,1.2,6,2.7l4.6,5.2    C41.5,62.3,41,63.5,39.1,63.5z M84.7,64.6H50.1c-1.7,0-3.1-1.4-3.1-3.1c0-1.7,1.4-3.1,3.1-3.1h34.6c1.7,0,3.1,1.4,3.1,3.1    C87.8,63.1,86.4,64.6,84.7,64.6z M84.7,52.5H50.1c-1.7,0-3.1-1.4-3.1-3.1c0-1.7,1.4-3.1,3.1-3.1h34.6c1.7,0,3.1,1.4,3.1,3.1    C87.8,51.1,86.4,52.5,84.7,52.5z M84.7,40.1H50.1c-1.7,0-3.1-1.4-3.1-3.1c0-1.7,1.4-3.1,3.1-3.1h34.6c1.7,0,3.1,1.4,3.1,3.1    C87.8,38.7,86.4,40.1,84.7,40.1z"></path></g></g></svg>