<?xml version="1.0" encoding="UTF-8" standalone="no"?>
<!DOCTYPE svg PUBLIC "-//W3C//DTD SVG 1.1//EN"
 "http://www.w3.org/Graphics/SVG/1.1/DTD/svg11.dtd">
<!-- Generated by graphviz version 2.42.3 (20191010.1750)
 -->
<!-- Title: InternalDependencies Pages: 1 -->
<svg width="3833pt" height="548pt"
 viewBox="0.00 0.00 3833.19 548.00" xmlns="http://www.w3.org/2000/svg" xmlns:xlink="http://www.w3.org/1999/xlink">
<g id="graph0" class="graph" transform="scale(1 1) rotate(0) translate(4 544)">
<title>InternalDependencies</title>
<polygon fill="white" stroke="transparent" points="-4,4 -4,-544 3829.19,-544 3829.19,4 -4,4"/>
<!-- media_capture -->
<g id="node1" class="node">
<title>media_capture</title>
<ellipse fill="none" stroke="black" cx="1278" cy="-234" rx="62.31" ry="18"/>
<text text-anchor="middle" x="1278" y="-229.8" font-family="Times,serif" font-size="14.00">media_capture</text>
</g>
<!-- debug -->
<g id="node2" class="node">
<title>debug</title>
<ellipse fill="none" stroke="black" cx="2355" cy="-18" rx="31.94" ry="18"/>
<text text-anchor="middle" x="2355" y="-13.8" font-family="Times,serif" font-size="14.00">debug</text>
</g>
<!-- media_capture&#45;&gt;debug -->
<g id="edge1" class="edge">
<title>media_capture&#45;&gt;debug</title>
<path fill="none" stroke="black" d="M1260.27,-216.69C1251.11,-207.03 1240.86,-193.97 1236,-180 1230.74,-164.89 1229.31,-158.54 1236,-144 1256.55,-99.33 1274.33,-90.23 1320,-72 1413.23,-34.77 2130.53,-22.17 2312.92,-19.55"/>
<polygon fill="black" stroke="black" points="2313.23,-23.05 2323.18,-19.41 2313.13,-16.05 2313.23,-23.05"/>
</g>
<!-- store -->
<g id="node9" class="node">
<title>store</title>
<ellipse fill="none" stroke="black" cx="1356" cy="-90" rx="27.1" ry="18"/>
<text text-anchor="middle" x="1356" y="-85.8" font-family="Times,serif" font-size="14.00">store</text>
</g>
<!-- media_capture&#45;&gt;store -->
<g id="edge32" class="edge">
<title>media_capture&#45;&gt;store</title>
<path fill="none" stroke="black" d="M1263.22,-216.31C1248.62,-197.69 1230.41,-167.14 1245,-144 1253.9,-129.88 1293.33,-113.24 1322.67,-102.43"/>
<polygon fill="black" stroke="black" points="1323.96,-105.68 1332.18,-98.99 1321.59,-99.1 1323.96,-105.68"/>
</g>
<!-- iconBase -->
<g id="node13" class="node">
<title>iconBase</title>
<ellipse fill="none" stroke="black" cx="1820" cy="-162" rx="42.55" ry="18"/>
<text text-anchor="middle" x="1820" y="-157.8" font-family="Times,serif" font-size="14.00">iconBase</text>
</g>
<!-- media_capture&#45;&gt;iconBase -->
<g id="edge29" class="edge">
<title>media_capture&#45;&gt;iconBase</title>
<path fill="none" stroke="black" d="M1330.89,-224.39C1348.7,-221.59 1368.69,-218.55 1387,-216 1524.83,-196.82 1687.88,-177.87 1768.94,-168.7"/>
<polygon fill="black" stroke="black" points="1769.8,-172.12 1779.35,-167.52 1769.02,-165.17 1769.8,-172.12"/>
</g>
<!-- rdflib -->
<g id="node18" class="node">
<title>rdflib</title>
<ellipse fill="none" stroke="black" cx="1244" cy="-18" rx="29.04" ry="18"/>
<text text-anchor="middle" x="1244" y="-13.8" font-family="Times,serif" font-size="14.00">rdflib</text>
</g>
<!-- media_capture&#45;&gt;rdflib -->
<g id="edge28" class="edge">
<title>media_capture&#45;&gt;rdflib</title>
<path fill="none" stroke="black" d="M1230.3,-222.34C1207.59,-214.6 1182.51,-201.58 1169,-180 1139.47,-132.81 1188.89,-72.11 1220.59,-40.42"/>
<polygon fill="black" stroke="black" points="1223.1,-42.87 1227.82,-33.38 1218.21,-37.85 1223.1,-42.87"/>
</g>
<!-- ns -->
<g id="node21" class="node">
<title>ns</title>
<ellipse fill="none" stroke="black" cx="1670" cy="-90" rx="27" ry="18"/>
<text text-anchor="middle" x="1670" y="-85.8" font-family="Times,serif" font-size="14.00">ns</text>
</g>
<!-- media_capture&#45;&gt;ns -->
<g id="edge30" class="edge">
<title>media_capture&#45;&gt;ns</title>
<path fill="none" stroke="black" d="M1309.86,-218.52C1351.31,-199.96 1426.23,-167.4 1492,-144 1541.08,-126.54 1599.1,-110.01 1635.23,-100.19"/>
<polygon fill="black" stroke="black" points="1636.52,-103.47 1645.26,-97.48 1634.7,-96.71 1636.52,-103.47"/>
</g>
<!-- pad -->
<g id="node27" class="node">
<title>pad</title>
<ellipse fill="none" stroke="black" cx="302" cy="-162" rx="27" ry="18"/>
<text text-anchor="middle" x="302" y="-157.8" font-family="Times,serif" font-size="14.00">pad</text>
</g>
<!-- media_capture&#45;&gt;pad -->
<g id="edge31" class="edge">
<title>media_capture&#45;&gt;pad</title>
<path fill="none" stroke="black" d="M1218.87,-228.12C1173.94,-224.5 1110.6,-219.59 1055,-216 753.43,-196.51 675.27,-221.99 376,-180 362.95,-178.17 348.8,-175.17 336.4,-172.2"/>
<polygon fill="black" stroke="black" points="337.02,-168.75 326.47,-169.74 335.33,-175.54 337.02,-168.75"/>
</g>
<!-- utils -->
<g id="node28" class="node">
<title>utils</title>
<ellipse fill="none" stroke="black" cx="1618" cy="-162" rx="27" ry="18"/>
<text text-anchor="middle" x="1618" y="-157.8" font-family="Times,serif" font-size="14.00">utils</text>
</g>
<!-- media_capture&#45;&gt;utils -->
<g id="edge33" class="edge">
<title>media_capture&#45;&gt;utils</title>
<path fill="none" stroke="black" d="M1327.08,-222.9C1396.44,-208.62 1521.49,-182.87 1582.54,-170.3"/>
<polygon fill="black" stroke="black" points="1583.38,-173.7 1592.46,-168.26 1581.96,-166.85 1583.38,-173.7"/>
</g>
<!-- widgets -->
<g id="node29" class="node">
<title>widgets</title>
<ellipse fill="none" stroke="black" cx="1079" cy="-162" rx="37.74" ry="18"/>
<text text-anchor="middle" x="1079" y="-157.8" font-family="Times,serif" font-size="14.00">widgets</text>
</g>
<!-- media_capture&#45;&gt;widgets -->
<g id="edge34" class="edge">
<title>media_capture&#45;&gt;widgets</title>
<path fill="none" stroke="black" d="M1240.1,-219.67C1205.05,-207.34 1153.2,-189.1 1117.85,-176.67"/>
<polygon fill="black" stroke="black" points="1118.94,-173.34 1108.35,-173.32 1116.62,-179.94 1118.94,-173.34"/>
</g>
<!-- message -->
<g id="node3" class="node">
<title>message</title>
<ellipse fill="none" stroke="black" cx="1062" cy="-450" rx="40.13" ry="18"/>
<text text-anchor="middle" x="1062" y="-445.8" font-family="Times,serif" font-size="14.00">message</text>
</g>
<!-- message&#45;&gt;media_capture -->
<g id="edge41" class="edge">
<title>message&#45;&gt;media_capture</title>
<path fill="none" stroke="black" d="M1091.96,-437.91C1113.59,-428.89 1142.64,-414.62 1164,-396 1209.31,-356.5 1246.07,-295.5 1264.71,-261.03"/>
<polygon fill="black" stroke="black" points="1267.88,-262.53 1269.48,-252.05 1261.7,-259.24 1267.88,-262.53"/>
</g>
<!-- messageTools -->
<g id="node4" class="node">
<title>messageTools</title>
<ellipse fill="none" stroke="black" cx="1062" cy="-378" rx="59.68" ry="18"/>
<text text-anchor="middle" x="1062" y="-373.8" font-family="Times,serif" font-size="14.00">messageTools</text>
</g>
<!-- message&#45;&gt;messageTools -->
<g id="edge2" class="edge">
<title>message&#45;&gt;messageTools</title>
<path fill="none" stroke="black" d="M1062,-431.7C1062,-423.98 1062,-414.71 1062,-406.11"/>
<polygon fill="black" stroke="black" points="1065.5,-406.1 1062,-396.1 1058.5,-406.1 1065.5,-406.1"/>
</g>
<!-- message&#45;&gt;store -->
<g id="edge44" class="edge">
<title>message&#45;&gt;store</title>
<path fill="none" stroke="black" d="M1021.75,-449.75C927.91,-450.54 687.98,-446.92 496,-396 421.02,-376.11 395.89,-374.5 337,-324 268.49,-265.25 180.72,-209.32 243,-144 280.93,-104.22 1129.14,-93.3 1318.67,-91.35"/>
<polygon fill="black" stroke="black" points="1318.74,-94.85 1328.7,-91.25 1318.67,-87.85 1318.74,-94.85"/>
</g>
<!-- message&#45;&gt;iconBase -->
<g id="edge39" class="edge">
<title>message&#45;&gt;iconBase</title>
<path fill="none" stroke="black" d="M1101.72,-447.35C1207.91,-441.74 1505.57,-418.11 1731,-324 1783.56,-302.06 1810.34,-302.33 1837,-252 1847.36,-232.44 1841.2,-207.49 1833.54,-188.99"/>
<polygon fill="black" stroke="black" points="1836.66,-187.39 1829.36,-179.71 1830.28,-190.26 1836.66,-187.39"/>
</g>
<!-- message&#45;&gt;rdflib -->
<g id="edge43" class="edge">
<title>message&#45;&gt;rdflib</title>
<path fill="none" stroke="black" d="M1022.28,-447.24C886.01,-441.02 442.58,-419.17 383,-396 258.46,-347.56 152.79,-260.07 219,-144 249.44,-90.64 278.36,-90.34 337,-72 502.21,-20.33 1050.83,-18.3 1203.98,-18.77"/>
<polygon fill="black" stroke="black" points="1204.3,-22.27 1214.32,-18.81 1204.33,-15.27 1204.3,-22.27"/>
</g>
<!-- message&#45;&gt;ns -->
<g id="edge40" class="edge">
<title>message&#45;&gt;ns</title>
<path fill="none" stroke="black" d="M1101.96,-447.73C1271.14,-441.41 1925.01,-407.12 2039,-252 2066.22,-214.95 1998.07,-144.05 1998,-144 1951.38,-111.65 1782.69,-97.72 1707.09,-93"/>
<polygon fill="black" stroke="black" points="1707.26,-89.51 1697.06,-92.4 1706.83,-96.5 1707.26,-89.51"/>
</g>
<!-- message&#45;&gt;pad -->
<g id="edge42" class="edge">
<title>message&#45;&gt;pad</title>
<path fill="none" stroke="black" d="M1022,-447.82C916.51,-443.39 623.92,-422.43 406,-324 358.36,-302.48 338.86,-297.43 313,-252 302.38,-233.34 300.01,-208.95 300.08,-190.42"/>
<polygon fill="black" stroke="black" points="303.58,-190.37 300.36,-180.28 296.59,-190.18 303.58,-190.37"/>
</g>
<!-- message&#45;&gt;utils -->
<g id="edge46" class="edge">
<title>message&#45;&gt;utils</title>
<path fill="none" stroke="black" d="M1098.37,-442.35C1174.94,-427.57 1357.37,-388.09 1499,-324 1552.91,-299.6 1580.63,-302.79 1611,-252 1622.04,-233.54 1623.17,-208.94 1621.89,-190.29"/>
<polygon fill="black" stroke="black" points="1625.35,-189.7 1620.91,-180.08 1618.38,-190.37 1625.35,-189.7"/>
</g>
<!-- message&#45;&gt;widgets -->
<g id="edge47" class="edge">
<title>message&#45;&gt;widgets</title>
<path fill="none" stroke="black" d="M1088.68,-436.33C1104.12,-427.42 1122.19,-413.88 1131,-396 1165.64,-325.72 1120.76,-232.17 1094.92,-188.05"/>
<polygon fill="black" stroke="black" points="1097.88,-186.18 1089.73,-179.41 1091.88,-189.79 1097.88,-186.18"/>
</g>
<!-- authn -->
<g id="node32" class="node">
<title>authn</title>
<ellipse fill="none" stroke="black" cx="657" cy="-162" rx="29.51" ry="18"/>
<text text-anchor="middle" x="657" y="-157.8" font-family="Times,serif" font-size="14.00">authn</text>
</g>
<!-- message&#45;&gt;authn -->
<g id="edge38" class="edge">
<title>message&#45;&gt;authn</title>
<path fill="none" stroke="black" d="M1026.19,-441.78C960.53,-427.36 818.26,-390.51 716,-324 678.85,-299.83 663.52,-293.13 647,-252 638.97,-232.01 642.56,-207.58 647.55,-189.38"/>
<polygon fill="black" stroke="black" points="650.92,-190.3 650.48,-179.72 644.23,-188.27 650.92,-190.3"/>
</g>
<!-- style -->
<g id="node33" class="node">
<title>style</title>
<ellipse fill="none" stroke="black" cx="864" cy="-162" rx="27" ry="18"/>
<text text-anchor="middle" x="864" y="-157.8" font-family="Times,serif" font-size="14.00">style</text>
</g>
<!-- message&#45;&gt;style -->
<g id="edge45" class="edge">
<title>message&#45;&gt;style</title>
<path fill="none" stroke="black" d="M1037.9,-435.36C992.32,-407.84 895.48,-340.66 867,-252 860.59,-232.04 860.13,-208.25 861.11,-190.29"/>
<polygon fill="black" stroke="black" points="864.61,-190.43 861.85,-180.2 857.63,-189.92 864.61,-190.43"/>
</g>
<!-- messageTools&#45;&gt;media_capture -->
<g id="edge87" class="edge">
<title>messageTools&#45;&gt;media_capture</title>
<path fill="none" stroke="black" d="M1085.94,-361.26C1124.78,-335.72 1201.59,-285.23 1245.39,-256.44"/>
<polygon fill="black" stroke="black" points="1247.52,-259.23 1253.95,-250.81 1243.67,-253.38 1247.52,-259.23"/>
</g>
<!-- bookmarks -->
<g id="node6" class="node">
<title>bookmarks</title>
<ellipse fill="none" stroke="black" cx="1368" cy="-306" rx="49.31" ry="18"/>
<text text-anchor="middle" x="1368" y="-301.8" font-family="Times,serif" font-size="14.00">bookmarks</text>
</g>
<!-- messageTools&#45;&gt;bookmarks -->
<g id="edge94" class="edge">
<title>messageTools&#45;&gt;bookmarks</title>
<path fill="none" stroke="black" d="M1108.14,-366.44C1164.37,-353.58 1259.06,-331.92 1317.28,-318.6"/>
<polygon fill="black" stroke="black" points="1318.39,-321.94 1327.36,-316.3 1316.83,-315.11 1318.39,-321.94"/>
</g>
<!-- messageTools&#45;&gt;store -->
<g id="edge90" class="edge">
<title>messageTools&#45;&gt;store</title>
<path fill="none" stroke="black" d="M1002.42,-376.5C861.98,-374.65 513.94,-365.83 406,-324 311.5,-287.38 196.1,-217.38 266,-144 303.07,-105.08 1131.21,-93.51 1318.56,-91.39"/>
<polygon fill="black" stroke="black" points="1318.77,-94.89 1328.73,-91.28 1318.69,-87.89 1318.77,-94.89"/>
</g>
<!-- messageTools&#45;&gt;iconBase -->
<g id="edge85" class="edge">
<title>messageTools&#45;&gt;iconBase</title>
<path fill="none" stroke="black" d="M1121.51,-376.71C1283.96,-374.51 1728.79,-358.68 1817,-252 1830.97,-235.11 1830.38,-209.64 1827.09,-190.27"/>
<polygon fill="black" stroke="black" points="1830.47,-189.33 1825.05,-180.22 1823.61,-190.72 1830.47,-189.33"/>
</g>
<!-- messageTools&#45;&gt;rdflib -->
<g id="edge89" class="edge">
<title>messageTools&#45;&gt;rdflib</title>
<path fill="none" stroke="black" d="M1002.32,-377.73C849.39,-378.8 447.01,-376.4 326,-324 245.16,-288.99 184.71,-210.05 243,-144 307.98,-70.37 1027.49,-29.81 1204.73,-20.89"/>
<polygon fill="black" stroke="black" points="1205.09,-24.38 1214.9,-20.38 1204.74,-17.38 1205.09,-24.38"/>
</g>
<!-- messageTools&#45;&gt;ns -->
<g id="edge86" class="edge">
<title>messageTools&#45;&gt;ns</title>
<path fill="none" stroke="black" d="M1004.98,-372.73C920.1,-365.62 765.2,-349.57 716,-324 635.18,-281.99 555.1,-209.89 618,-144 647.72,-112.86 1349.02,-110.31 1392,-108 1478.46,-103.35 1579.98,-96.89 1633.19,-93.42"/>
<polygon fill="black" stroke="black" points="1633.42,-96.92 1643.17,-92.77 1632.96,-89.93 1633.42,-96.92"/>
</g>
<!-- messageTools&#45;&gt;pad -->
<g id="edge88" class="edge">
<title>messageTools&#45;&gt;pad</title>
<path fill="none" stroke="black" d="M1003.59,-374.38C850.21,-366.35 440.99,-337.26 341,-252 322.42,-236.15 312.38,-209.77 307.17,-189.83"/>
<polygon fill="black" stroke="black" points="310.57,-189.01 304.86,-180.08 303.76,-190.62 310.57,-189.01"/>
</g>
<!-- messageTools&#45;&gt;utils -->
<g id="edge92" class="edge">
<title>messageTools&#45;&gt;utils</title>
<path fill="none" stroke="black" d="M1119.79,-373.56C1192.48,-368.1 1320.55,-354.75 1426,-324 1500.86,-302.17 1533.04,-309.24 1586,-252 1601.81,-234.92 1609.92,-209.46 1614.01,-190.15"/>
<polygon fill="black" stroke="black" points="1617.49,-190.62 1615.9,-180.14 1610.61,-189.32 1617.49,-190.62"/>
</g>
<!-- messageTools&#45;&gt;widgets -->
<g id="edge93" class="edge">
<title>messageTools&#45;&gt;widgets</title>
<path fill="none" stroke="black" d="M1067.62,-359.71C1076.52,-330.35 1092.45,-268.76 1088,-216 1087.28,-207.5 1085.93,-198.31 1084.49,-190.01"/>
<polygon fill="black" stroke="black" points="1087.91,-189.29 1082.65,-180.09 1081.03,-190.56 1087.91,-189.29"/>
</g>
<!-- messageTools&#45;&gt;authn -->
<g id="edge84" class="edge">
<title>messageTools&#45;&gt;authn</title>
<path fill="none" stroke="black" d="M1011.37,-368.49C913.8,-350.97 705.49,-307.81 662,-252 648.52,-234.7 648.43,-209.27 651.04,-190.02"/>
<polygon fill="black" stroke="black" points="654.51,-190.49 652.7,-180.05 647.61,-189.34 654.51,-190.49"/>
</g>
<!-- messageTools&#45;&gt;style -->
<g id="edge91" class="edge">
<title>messageTools&#45;&gt;style</title>
<path fill="none" stroke="black" d="M1029.65,-362.84C989.65,-343.62 922.39,-305.44 886,-252 873.51,-233.66 868.1,-208.9 865.76,-190.15"/>
<polygon fill="black" stroke="black" points="869.24,-189.76 864.73,-180.17 862.28,-190.47 869.24,-189.76"/>
</g>
<!-- infinite -->
<g id="node5" class="node">
<title>infinite</title>
<ellipse fill="none" stroke="black" cx="1062" cy="-522" rx="35.33" ry="18"/>
<text text-anchor="middle" x="1062" y="-517.8" font-family="Times,serif" font-size="14.00">infinite</text>
</g>
<!-- infinite&#45;&gt;media_capture -->
<g id="edge53" class="edge">
<title>infinite&#45;&gt;media_capture</title>
<path fill="none" stroke="black" d="M1081.73,-507.05C1121.2,-477.98 1209.71,-406.71 1252,-324 1262.05,-304.35 1268.79,-280.22 1272.89,-262.05"/>
<polygon fill="black" stroke="black" points="1276.34,-262.62 1275,-252.11 1269.49,-261.17 1276.34,-262.62"/>
</g>
<!-- infinite&#45;&gt;debug -->
<g id="edge3" class="edge">
<title>infinite&#45;&gt;debug</title>
<path fill="none" stroke="black" d="M1097.45,-521C1409.41,-520.76 3675,-514.37 3675,-379 3675,-379 3675,-379 3675,-161 3675,-118.97 3676.88,-96.88 3643,-72 3591.67,-34.31 2613.05,-21.74 2396.98,-19.42"/>
<polygon fill="black" stroke="black" points="2396.73,-15.92 2386.7,-19.31 2396.66,-22.92 2396.73,-15.92"/>
</g>
<!-- infinite&#45;&gt;message -->
<g id="edge60" class="edge">
<title>infinite&#45;&gt;message</title>
<path fill="none" stroke="black" d="M1062,-503.7C1062,-495.98 1062,-486.71 1062,-478.11"/>
<polygon fill="black" stroke="black" points="1065.5,-478.1 1062,-468.1 1058.5,-478.1 1065.5,-478.1"/>
</g>
<!-- infinite&#45;&gt;bookmarks -->
<g id="edge61" class="edge">
<title>infinite&#45;&gt;bookmarks</title>
<path fill="none" stroke="black" d="M1097.27,-521.81C1145.83,-521.09 1233.64,-513.02 1290,-468 1332.85,-433.77 1353.7,-370.17 1362.51,-333.99"/>
<polygon fill="black" stroke="black" points="1365.94,-334.67 1364.77,-324.14 1359.12,-333.1 1365.94,-334.67"/>
</g>
<!-- dateFolder -->
<g id="node7" class="node">
<title>dateFolder</title>
<ellipse fill="none" stroke="black" cx="2271" cy="-162" rx="47.85" ry="18"/>
<text text-anchor="middle" x="2271" y="-157.8" font-family="Times,serif" font-size="14.00">dateFolder</text>
</g>
<!-- infinite&#45;&gt;dateFolder -->
<g id="edge49" class="edge">
<title>infinite&#45;&gt;dateFolder</title>
<path fill="none" stroke="black" d="M1097.19,-521.15C1275.58,-521.67 2075.16,-520.99 2171,-468 2213.19,-444.68 2233,-427.21 2233,-379 2233,-379 2233,-379 2233,-305 2233,-263.63 2248.23,-217.72 2259.41,-189.61"/>
<polygon fill="black" stroke="black" points="2262.76,-190.67 2263.31,-180.09 2256.28,-188.02 2262.76,-190.67"/>
</g>
<!-- infinite&#45;&gt;store -->
<g id="edge56" class="edge">
<title>infinite&#45;&gt;store</title>
<path fill="none" stroke="black" d="M1027.21,-519.27C923.85,-513.87 619.91,-495.98 525,-468 335.01,-411.99 82.24,-287.28 219,-144 257.81,-103.34 1126.13,-93.09 1318.49,-91.31"/>
<polygon fill="black" stroke="black" points="1318.7,-94.81 1328.66,-91.22 1318.63,-87.81 1318.7,-94.81"/>
</g>
<!-- infinite&#45;&gt;iconBase -->
<g id="edge51" class="edge">
<title>infinite&#45;&gt;iconBase</title>
<path fill="none" stroke="black" d="M1096.86,-519.01C1258.13,-509.35 1924,-464.31 1924,-379 1924,-379 1924,-379 1924,-305 1924,-253.95 1879.71,-209.05 1848.93,-184.02"/>
<polygon fill="black" stroke="black" points="1851.06,-181.24 1841.05,-177.79 1846.73,-186.74 1851.06,-181.24"/>
</g>
<!-- infinite&#45;&gt;rdflib -->
<g id="edge48" class="edge">
<title>infinite&#45;&gt;rdflib</title>
<path fill="none" stroke="black" d="M1026.77,-520.12C842.6,-514.9 0,-484.61 0,-379 0,-379 0,-379 0,-161 0,-49.32 125.71,-95.01 235,-72 424.57,-32.09 1041.92,-21.5 1204.53,-19.43"/>
<polygon fill="black" stroke="black" points="1204.61,-22.93 1214.57,-19.3 1204.53,-15.93 1204.61,-22.93"/>
</g>
<!-- infinite&#45;&gt;rdflib -->
<g id="edge55" class="edge">
<title>infinite&#45;&gt;rdflib</title>
<path fill="none" stroke="black" d="M1026.95,-519.97C845.03,-514.33 18,-483.63 18,-379 18,-379 18,-379 18,-161 18,-49.32 143.71,-95.01 253,-72 439.88,-32.66 1042.52,-21.81 1203.97,-19.52"/>
<polygon fill="black" stroke="black" points="1204.44,-23.02 1214.39,-19.38 1204.34,-16.02 1204.44,-23.02"/>
</g>
<!-- infinite&#45;&gt;ns -->
<g id="edge52" class="edge">
<title>infinite&#45;&gt;ns</title>
<path fill="none" stroke="black" d="M1097.19,-520.23C1284.62,-515.66 2157,-488.51 2157,-379 2157,-379 2157,-379 2157,-233 2157,-162.61 2091.57,-169.6 2026,-144 1916,-101.05 1774.41,-92.63 1707.81,-91.16"/>
<polygon fill="black" stroke="black" points="1707.46,-87.66 1697.4,-90.98 1707.34,-94.66 1707.46,-87.66"/>
</g>
<!-- infinite&#45;&gt;pad -->
<g id="edge54" class="edge">
<title>infinite&#45;&gt;pad</title>
<path fill="none" stroke="black" d="M1026.52,-521.09C912.85,-519.53 552.61,-500.23 337,-324 297.49,-291.7 296.08,-267 298,-216 298.31,-207.67 298.91,-198.61 299.54,-190.38"/>
<polygon fill="black" stroke="black" points="303.05,-190.42 300.38,-180.17 296.07,-189.85 303.05,-190.42"/>
</g>
<!-- infinite&#45;&gt;utils -->
<g id="edge58" class="edge">
<title>infinite&#45;&gt;utils</title>
<path fill="none" stroke="black" d="M1096.48,-517.77C1147.01,-512.2 1243.48,-498.31 1320,-468 1476.46,-406.03 1564,-406.38 1631,-252 1639.71,-231.94 1635,-207.19 1628.94,-188.88"/>
<polygon fill="black" stroke="black" points="1632.22,-187.65 1625.52,-179.45 1625.64,-190.04 1632.22,-187.65"/>
</g>
<!-- infinite&#45;&gt;widgets -->
<g id="edge59" class="edge">
<title>infinite&#45;&gt;widgets</title>
<path fill="none" stroke="black" d="M1044.32,-505.91C1033.83,-496.09 1021.05,-482.45 1013,-468 989.23,-425.36 980.42,-407.17 993,-360 1007.26,-306.52 1033.84,-303.14 1055,-252 1063.34,-231.85 1069.6,-207.94 1073.63,-189.97"/>
<polygon fill="black" stroke="black" points="1077.06,-190.67 1075.75,-180.16 1070.22,-189.2 1077.06,-190.67"/>
</g>
<!-- infinite&#45;&gt;authn -->
<g id="edge50" class="edge">
<title>infinite&#45;&gt;authn</title>
<path fill="none" stroke="black" d="M1030.34,-514.09C955.63,-496.16 766.9,-441.16 664,-324 631.49,-286.98 630.97,-264.61 639,-216 640.46,-207.14 643.22,-197.77 646.14,-189.41"/>
<polygon fill="black" stroke="black" points="649.5,-190.41 649.71,-179.82 642.94,-187.97 649.5,-190.41"/>
</g>
<!-- infinite&#45;&gt;style -->
<g id="edge57" class="edge">
<title>infinite&#45;&gt;style</title>
<path fill="none" stroke="black" d="M1040.93,-507.52C1026.14,-497.54 1006.34,-483.11 991,-468 933.42,-411.3 917.07,-395.8 880,-324 857.53,-280.47 855.24,-264.91 858,-216 858.48,-207.55 859.38,-198.38 860.34,-190.07"/>
<polygon fill="black" stroke="black" points="863.81,-190.5 861.56,-180.14 856.87,-189.64 863.81,-190.5"/>
</g>
<!-- bookmarks&#45;&gt;media_capture -->
<g id="edge74" class="edge">
<title>bookmarks&#45;&gt;media_capture</title>
<path fill="none" stroke="black" d="M1348.03,-289.46C1335.93,-280.06 1320.3,-267.9 1306.88,-257.46"/>
<polygon fill="black" stroke="black" points="1308.9,-254.6 1298.86,-251.22 1304.6,-260.12 1308.9,-254.6"/>
</g>
<!-- bookmarks&#45;&gt;debug -->
<g id="edge4" class="edge">
<title>bookmarks&#45;&gt;debug</title>
<path fill="none" stroke="black" d="M1417.75,-305.35C1670.88,-306.84 2817.57,-310.2 3168,-252 3274.92,-234.24 3336.66,-267.22 3401,-180 3487.5,-62.73 3430.04,-119.4 3201,-72 3044.61,-39.64 2545.3,-24.05 2396.95,-20.06"/>
<polygon fill="black" stroke="black" points="2396.97,-16.56 2386.89,-19.79 2396.79,-23.56 2396.97,-16.56"/>
</g>
<!-- bookmarks&#45;&gt;store -->
<g id="edge77" class="edge">
<title>bookmarks&#45;&gt;store</title>
<path fill="none" stroke="black" d="M1367.04,-287.85C1364.96,-250.83 1360.05,-163.18 1357.54,-118.39"/>
<polygon fill="black" stroke="black" points="1361.02,-118.02 1356.97,-108.23 1354.03,-118.41 1361.02,-118.02"/>
</g>
<!-- bookmarks&#45;&gt;iconBase -->
<g id="edge72" class="edge">
<title>bookmarks&#45;&gt;iconBase</title>
<path fill="none" stroke="black" d="M1417.6,-305.24C1516.83,-304.72 1735.07,-298.18 1791,-252 1809.16,-237 1816.06,-210.46 1818.62,-190.25"/>
<polygon fill="black" stroke="black" points="1822.12,-190.36 1819.62,-180.07 1815.16,-189.68 1822.12,-190.36"/>
</g>
<!-- bookmarks&#45;&gt;rdflib -->
<g id="edge76" class="edge">
<title>bookmarks&#45;&gt;rdflib</title>
<path fill="none" stroke="black" d="M1417.41,-305.7C1553.23,-306.9 1929.41,-305.2 2039,-252 2128.48,-208.56 2240.9,-143.74 2172,-72 2137.72,-36.31 1330.18,-47.31 1282,-36 1279.68,-35.46 1277.34,-34.77 1275,-33.99"/>
<polygon fill="black" stroke="black" points="1276.2,-30.7 1265.61,-30.36 1273.67,-37.23 1276.2,-30.7"/>
</g>
<!-- bookmarks&#45;&gt;ns -->
<g id="edge73" class="edge">
<title>bookmarks&#45;&gt;ns</title>
<path fill="none" stroke="black" d="M1417.47,-304.71C1561.8,-303.37 1974.74,-295.69 2015,-252 2109.6,-149.33 1813.25,-106.48 1706.66,-94.63"/>
<polygon fill="black" stroke="black" points="1706.99,-91.15 1696.67,-93.55 1706.24,-98.11 1706.99,-91.15"/>
</g>
<!-- bookmarks&#45;&gt;pad -->
<g id="edge75" class="edge">
<title>bookmarks&#45;&gt;pad</title>
<path fill="none" stroke="black" d="M1318.45,-304.13C1202.79,-301.47 906.26,-291.08 662,-252 540.35,-232.54 399.43,-192.45 336.01,-173.44"/>
<polygon fill="black" stroke="black" points="336.74,-170 326.15,-170.47 334.72,-176.7 336.74,-170"/>
</g>
<!-- bookmarks&#45;&gt;utils -->
<g id="edge79" class="edge">
<title>bookmarks&#45;&gt;utils</title>
<path fill="none" stroke="black" d="M1415.17,-300.47C1455.43,-294.66 1513.26,-281.52 1555,-252 1577.95,-235.77 1595.47,-208.43 1606.14,-188.32"/>
<polygon fill="black" stroke="black" points="1609.27,-189.89 1610.69,-179.39 1603.03,-186.71 1609.27,-189.89"/>
</g>
<!-- bookmarks&#45;&gt;widgets -->
<g id="edge80" class="edge">
<title>bookmarks&#45;&gt;widgets</title>
<path fill="none" stroke="black" d="M1326.54,-295.96C1292.93,-287.57 1245.06,-273.17 1207,-252 1185.22,-239.89 1184.18,-230.63 1164,-216 1147.01,-203.68 1127.16,-191.2 1110.91,-181.45"/>
<polygon fill="black" stroke="black" points="1112.68,-178.43 1102.29,-176.33 1109.1,-184.45 1112.68,-178.43"/>
</g>
<!-- bookmarks&#45;&gt;authn -->
<g id="edge71" class="edge">
<title>bookmarks&#45;&gt;authn</title>
<path fill="none" stroke="black" d="M1318.61,-304.2C1170.76,-301.39 738.76,-289.97 689,-252 669.99,-237.5 662.25,-210.7 659.12,-190.28"/>
<polygon fill="black" stroke="black" points="662.58,-189.77 657.86,-180.29 655.63,-190.65 662.58,-189.77"/>
</g>
<!-- bookmarks&#45;&gt;style -->
<g id="edge78" class="edge">
<title>bookmarks&#45;&gt;style</title>
<path fill="none" stroke="black" d="M1318.77,-304.26C1217.18,-301.93 988.34,-292.24 923,-252 899.43,-237.48 883.28,-209.61 873.91,-188.91"/>
<polygon fill="black" stroke="black" points="877.12,-187.51 869.97,-179.7 870.69,-190.27 877.12,-187.51"/>
</g>
<!-- dateFolder&#45;&gt;debug -->
<g id="edge5" class="edge">
<title>dateFolder&#45;&gt;debug</title>
<path fill="none" stroke="black" d="M2280.97,-144.15C2295.63,-119.36 2323.13,-72.88 2340.17,-44.07"/>
<polygon fill="black" stroke="black" points="2343.23,-45.78 2345.31,-35.39 2337.2,-42.21 2343.23,-45.78"/>
</g>
<!-- dateFolder&#45;&gt;store -->
<g id="edge81" class="edge">
<title>dateFolder&#45;&gt;store</title>
<path fill="none" stroke="black" d="M2224.37,-157.43C2064.13,-145.17 1538.01,-104.92 1393.19,-93.85"/>
<polygon fill="black" stroke="black" points="1393.28,-90.34 1383.05,-93.07 1392.75,-97.32 1393.28,-90.34"/>
</g>
<!-- dateFolder&#45;&gt;rdflib -->
<g id="edge83" class="edge">
<title>dateFolder&#45;&gt;rdflib</title>
<path fill="none" stroke="black" d="M2264.69,-143.93C2255.85,-122.78 2237.58,-87.64 2209,-72 2118.57,-22.53 1382.37,-59.47 1282,-36 1279.68,-35.46 1277.34,-34.78 1275,-34"/>
<polygon fill="black" stroke="black" points="1276.19,-30.7 1265.61,-30.37 1273.67,-37.23 1276.19,-30.7"/>
</g>
<!-- dateFolder&#45;&gt;ns -->
<g id="edge82" class="edge">
<title>dateFolder&#45;&gt;ns</title>
<path fill="none" stroke="black" d="M2228.76,-153.21C2210.97,-150.09 2190.02,-146.62 2171,-144 1997.93,-120.16 1789.93,-101.26 1706.87,-94.1"/>
<polygon fill="black" stroke="black" points="1706.95,-90.59 1696.69,-93.23 1706.35,-97.57 1706.95,-90.59"/>
</g>
<!-- preferences -->
<g id="node8" class="node">
<title>preferences</title>
<ellipse fill="none" stroke="black" cx="401" cy="-234" rx="50.71" ry="18"/>
<text text-anchor="middle" x="401" y="-229.8" font-family="Times,serif" font-size="14.00">preferences</text>
</g>
<!-- preferences&#45;&gt;debug -->
<g id="edge6" class="edge">
<title>preferences&#45;&gt;debug</title>
<path fill="none" stroke="black" d="M433.35,-219.92C454.55,-210.52 482.26,-196.6 504,-180 521.25,-166.83 517.59,-153.72 537,-144 700.82,-61.93 2056.93,-26.03 2313.28,-19.95"/>
<polygon fill="black" stroke="black" points="2313.38,-23.45 2323.3,-19.71 2313.22,-16.45 2313.38,-23.45"/>
</g>
<!-- preferences&#45;&gt;store -->
<g id="edge95" class="edge">
<title>preferences&#45;&gt;store</title>
<path fill="none" stroke="black" d="M388.08,-216.32C374.42,-196.55 357.24,-163.81 376,-144 409.02,-109.15 1143.58,-94.58 1318.75,-91.6"/>
<polygon fill="black" stroke="black" points="1318.83,-95.1 1328.77,-91.43 1318.71,-88.1 1318.83,-95.1"/>
</g>
<!-- preferences&#45;&gt;ns -->
<g id="edge96" class="edge">
<title>preferences&#45;&gt;ns</title>
<path fill="none" stroke="black" d="M438,-221.63C466.06,-212.29 505.11,-197.74 537,-180 560.3,-167.04 559.9,-152.99 585,-144 669.5,-113.73 1302.37,-112.74 1392,-108 1478.46,-103.43 1579.98,-96.93 1633.19,-93.44"/>
<polygon fill="black" stroke="black" points="1633.42,-96.94 1643.17,-92.79 1632.96,-89.95 1633.42,-96.94"/>
</g>
<!-- preferences&#45;&gt;pad -->
<g id="edge99" class="edge">
<title>preferences&#45;&gt;pad</title>
<path fill="none" stroke="black" d="M379.03,-217.46C364.03,-206.86 344.09,-192.76 328.26,-181.57"/>
<polygon fill="black" stroke="black" points="330.13,-178.6 319.94,-175.69 326.09,-184.32 330.13,-178.6"/>
</g>
<!-- preferences&#45;&gt;widgets -->
<g id="edge98" class="edge">
<title>preferences&#45;&gt;widgets</title>
<path fill="none" stroke="black" d="M449.22,-228.02C574.44,-215.09 908.83,-180.57 1032.32,-167.82"/>
<polygon fill="black" stroke="black" points="1032.98,-171.27 1042.57,-166.76 1032.27,-164.31 1032.98,-171.27"/>
</g>
<!-- preferences&#45;&gt;authn -->
<g id="edge97" class="edge">
<title>preferences&#45;&gt;authn</title>
<path fill="none" stroke="black" d="M439.88,-222.37C488.88,-208.97 572.46,-186.12 620.37,-173.02"/>
<polygon fill="black" stroke="black" points="621.59,-176.31 630.31,-170.3 619.74,-169.56 621.59,-176.31"/>
</g>
<!-- participation -->
<g id="node35" class="node">
<title>participation</title>
<ellipse fill="none" stroke="black" cx="440" cy="-162" rx="54.6" ry="18"/>
<text text-anchor="middle" x="440" y="-157.8" font-family="Times,serif" font-size="14.00">participation</text>
</g>
<!-- preferences&#45;&gt;participation -->
<g id="edge100" class="edge">
<title>preferences&#45;&gt;participation</title>
<path fill="none" stroke="black" d="M410.44,-216.05C415.04,-207.8 420.67,-197.7 425.77,-188.54"/>
<polygon fill="black" stroke="black" points="428.84,-190.23 430.65,-179.79 422.72,-186.82 428.84,-190.23"/>
</g>
<!-- store&#45;&gt;debug -->
<g id="edge7" class="edge">
<title>store&#45;&gt;debug</title>
<path fill="none" stroke="black" d="M1377.25,-78.59C1383.48,-75.99 1390.39,-73.51 1397,-72 1575.21,-31.37 2151.9,-21.45 2312.91,-19.45"/>
<polygon fill="black" stroke="black" points="2313.38,-22.94 2323.34,-19.32 2313.29,-15.94 2313.38,-22.94"/>
</g>
<!-- solid_auth_client -->
<g id="node10" class="node">
<title>solid_auth_client</title>
<ellipse fill="none" stroke="black" cx="1362" cy="-18" rx="71.04" ry="18"/>
<text text-anchor="middle" x="1362" y="-13.8" font-family="Times,serif" font-size="14.00">solid_auth_client</text>
</g>
<!-- store&#45;&gt;solid_auth_client -->
<g id="edge8" class="edge">
<title>store&#45;&gt;solid_auth_client</title>
<path fill="none" stroke="black" d="M1357.48,-71.7C1358.14,-63.98 1358.94,-54.71 1359.68,-46.11"/>
<polygon fill="black" stroke="black" points="1363.17,-46.37 1360.53,-36.1 1356.19,-45.77 1363.17,-46.37"/>
</g>
<!-- store&#45;&gt;rdflib -->
<g id="edge107" class="edge">
<title>store&#45;&gt;rdflib</title>
<path fill="none" stroke="black" d="M1336.75,-76.97C1319.07,-65.92 1292.63,-49.4 1272.51,-36.82"/>
<polygon fill="black" stroke="black" points="1274.09,-33.68 1263.75,-31.35 1270.38,-39.61 1274.09,-33.68"/>
</g>
<!-- create -->
<g id="node11" class="node">
<title>create</title>
<ellipse fill="none" stroke="black" cx="1427" cy="-234" rx="31.42" ry="18"/>
<text text-anchor="middle" x="1427" y="-229.8" font-family="Times,serif" font-size="14.00">create</text>
</g>
<!-- create&#45;&gt;debug -->
<g id="edge9" class="edge">
<title>create&#45;&gt;debug</title>
<path fill="none" stroke="black" d="M1435.39,-216.42C1454.18,-181.46 1503.4,-101.02 1572,-72 1640.39,-43.07 2160.19,-24.98 2312.92,-20.24"/>
<polygon fill="black" stroke="black" points="2313.39,-23.73 2323.27,-19.93 2313.17,-16.73 2313.39,-23.73"/>
</g>
<!-- create&#45;&gt;store -->
<g id="edge111" class="edge">
<title>create&#45;&gt;store</title>
<path fill="none" stroke="black" d="M1417.18,-216.48C1411.14,-206.12 1403.36,-192.42 1397,-180 1386.27,-159.05 1375.16,-134.74 1367.22,-116.83"/>
<polygon fill="black" stroke="black" points="1370.38,-115.34 1363.15,-107.6 1363.98,-118.16 1370.38,-115.34"/>
</g>
<!-- create&#45;&gt;iconBase -->
<g id="edge109" class="edge">
<title>create&#45;&gt;iconBase</title>
<path fill="none" stroke="black" d="M1450.33,-221.92C1455.71,-219.69 1461.48,-217.56 1467,-216 1522.89,-200.2 1686.17,-179.13 1769.62,-168.97"/>
<polygon fill="black" stroke="black" points="1770.13,-172.43 1779.63,-167.76 1769.29,-165.49 1770.13,-172.43"/>
</g>
<!-- create&#45;&gt;ns -->
<g id="edge110" class="edge">
<title>create&#45;&gt;ns</title>
<path fill="none" stroke="black" d="M1443.45,-218.68C1465.64,-199.86 1506.89,-166.55 1546,-144 1575.36,-127.07 1611.18,-112.34 1636.75,-102.73"/>
<polygon fill="black" stroke="black" points="1638.19,-105.93 1646.35,-99.18 1635.76,-99.37 1638.19,-105.93"/>
</g>
<!-- create&#45;&gt;utils -->
<g id="edge113" class="edge">
<title>create&#45;&gt;utils</title>
<path fill="none" stroke="black" d="M1451.01,-222.5C1456.25,-220.29 1461.79,-218.02 1467,-216 1507.03,-200.49 1553.76,-184.39 1584.51,-174.07"/>
<polygon fill="black" stroke="black" points="1585.91,-177.29 1594.29,-170.8 1583.69,-170.65 1585.91,-177.29"/>
</g>
<!-- create&#45;&gt;widgets -->
<g id="edge114" class="edge">
<title>create&#45;&gt;widgets</title>
<path fill="none" stroke="black" d="M1398.5,-226.64C1383.75,-223.38 1365.42,-219.4 1349,-216 1269.68,-199.57 1176.98,-181.65 1123.42,-171.43"/>
<polygon fill="black" stroke="black" points="1124.05,-167.98 1113.57,-169.55 1122.74,-174.86 1124.05,-167.98"/>
</g>
<!-- create&#45;&gt;authn -->
<g id="edge108" class="edge">
<title>create&#45;&gt;authn</title>
<path fill="none" stroke="black" d="M1399.02,-225.87C1384.24,-222.36 1365.74,-218.39 1349,-216 1119.22,-183.2 1059.29,-199.48 828,-180 782.74,-176.19 730.83,-170.9 696.19,-167.23"/>
<polygon fill="black" stroke="black" points="696.34,-163.73 686.02,-166.15 695.6,-170.69 696.34,-163.73"/>
</g>
<!-- create&#45;&gt;style -->
<g id="edge112" class="edge">
<title>create&#45;&gt;style</title>
<path fill="none" stroke="black" d="M1398.61,-226.06C1383.88,-222.65 1365.55,-218.7 1349,-216 1305.05,-208.83 1006.07,-177.68 900.68,-166.78"/>
<polygon fill="black" stroke="black" points="900.83,-163.28 890.52,-165.73 900.11,-170.24 900.83,-163.28"/>
</g>
<!-- folders -->
<g id="node12" class="node">
<title>folders</title>
<ellipse fill="none" stroke="black" cx="1511" cy="-234" rx="34.83" ry="18"/>
<text text-anchor="middle" x="1511" y="-229.8" font-family="Times,serif" font-size="14.00">folders</text>
</g>
<!-- folders&#45;&gt;debug -->
<g id="edge10" class="edge">
<title>folders&#45;&gt;debug</title>
<path fill="none" stroke="black" d="M1514.92,-215.99C1519.87,-197.08 1529.77,-166.27 1546,-144 1575.77,-103.16 1587.06,-90.72 1634,-72 1758.57,-22.31 2177.63,-18.65 2312.68,-18.79"/>
<polygon fill="black" stroke="black" points="2313.01,-22.29 2323.01,-18.81 2313.02,-15.29 2313.01,-22.29"/>
</g>
<!-- folders&#45;&gt;store -->
<g id="edge118" class="edge">
<title>folders&#45;&gt;store</title>
<path fill="none" stroke="black" d="M1494.71,-218.07C1467.05,-192.73 1410.83,-141.24 1379.12,-112.18"/>
<polygon fill="black" stroke="black" points="1381.35,-109.48 1371.62,-105.31 1376.62,-114.64 1381.35,-109.48"/>
</g>
<!-- folders&#45;&gt;iconBase -->
<g id="edge115" class="edge">
<title>folders&#45;&gt;iconBase</title>
<path fill="none" stroke="black" d="M1542.04,-225.97C1596.52,-213.63 1709.6,-188.01 1773.46,-173.54"/>
<polygon fill="black" stroke="black" points="1774.29,-176.94 1783.27,-171.32 1772.75,-170.12 1774.29,-176.94"/>
</g>
<!-- folders&#45;&gt;rdflib -->
<g id="edge117" class="edge">
<title>folders&#45;&gt;rdflib</title>
<path fill="none" stroke="black" d="M1486.33,-221.28C1465.88,-211.22 1436.33,-195.87 1412,-180 1368.51,-151.64 1357.49,-143.92 1320,-108 1298.5,-87.4 1276.71,-61.22 1262.01,-42.6"/>
<polygon fill="black" stroke="black" points="1264.69,-40.35 1255.78,-34.62 1259.17,-44.65 1264.69,-40.35"/>
</g>
<!-- folders&#45;&gt;ns -->
<g id="edge116" class="edge">
<title>folders&#45;&gt;ns</title>
<path fill="none" stroke="black" d="M1521.32,-216.78C1533.98,-197.75 1556.88,-166.02 1582,-144 1599.31,-128.82 1621.54,-115.48 1639.33,-105.97"/>
<polygon fill="black" stroke="black" points="1641.44,-108.82 1648.69,-101.1 1638.2,-102.61 1641.44,-108.82"/>
</g>
<!-- folders&#45;&gt;utils -->
<g id="edge120" class="edge">
<title>folders&#45;&gt;utils</title>
<path fill="none" stroke="black" d="M1531.63,-219.5C1548.44,-208.51 1572.3,-192.89 1590.69,-180.86"/>
<polygon fill="black" stroke="black" points="1592.77,-183.69 1599.22,-175.28 1588.94,-177.83 1592.77,-183.69"/>
</g>
<!-- folders&#45;&gt;widgets -->
<g id="edge119" class="edge">
<title>folders&#45;&gt;widgets</title>
<path fill="none" stroke="black" d="M1485.27,-221.91C1479.35,-219.68 1473.03,-217.55 1467,-216 1346.68,-184.99 1200.4,-171.24 1126.55,-165.92"/>
<polygon fill="black" stroke="black" points="1126.42,-162.4 1116.2,-165.19 1125.93,-169.38 1126.42,-162.4"/>
</g>
<!-- iconBase&#45;&gt;debug -->
<g id="edge11" class="edge">
<title>iconBase&#45;&gt;debug</title>
<path fill="none" stroke="black" d="M1851.6,-149.78C1903.14,-131.75 2008.72,-95.93 2100,-72 2175.29,-52.26 2264.63,-35.11 2315.08,-25.98"/>
<polygon fill="black" stroke="black" points="2315.71,-29.43 2324.93,-24.21 2314.47,-22.54 2315.71,-29.43"/>
</g>
<!-- table -->
<g id="node14" class="node">
<title>table</title>
<ellipse fill="none" stroke="black" cx="1979" cy="-234" rx="27.09" ry="18"/>
<text text-anchor="middle" x="1979" y="-229.8" font-family="Times,serif" font-size="14.00">table</text>
</g>
<!-- table&#45;&gt;debug -->
<g id="edge12" class="edge">
<title>table&#45;&gt;debug</title>
<path fill="none" stroke="black" d="M2006.42,-232.83C2080.57,-231.76 2282.58,-224.72 2328,-180 2363.5,-145.04 2362.98,-82.16 2359.16,-46.2"/>
<polygon fill="black" stroke="black" points="2362.6,-45.47 2357.91,-35.97 2355.65,-46.32 2362.6,-45.47"/>
</g>
<!-- table&#45;&gt;store -->
<g id="edge124" class="edge">
<title>table&#45;&gt;store</title>
<path fill="none" stroke="black" d="M1959.95,-220.94C1944.5,-210.8 1922.5,-195.51 1905,-180 1888.76,-165.6 1891.39,-153.74 1872,-144 1829.42,-122.6 1504.48,-100.36 1393.23,-93.29"/>
<polygon fill="black" stroke="black" points="1393.34,-89.79 1383.14,-92.66 1392.9,-96.78 1393.34,-89.79"/>
</g>
<!-- table&#45;&gt;iconBase -->
<g id="edge121" class="edge">
<title>table&#45;&gt;iconBase</title>
<path fill="none" stroke="black" d="M1956.89,-223.27C1931.22,-211.96 1888.45,-193.13 1857.54,-179.53"/>
<polygon fill="black" stroke="black" points="1858.92,-176.31 1848.36,-175.48 1856.1,-182.72 1858.92,-176.31"/>
</g>
<!-- table&#45;&gt;rdflib -->
<g id="edge127" class="edge">
<title>table&#45;&gt;rdflib</title>
<path fill="none" stroke="black" d="M1975.59,-215.86C1970.76,-195.95 1960.08,-163.37 1939,-144 1867.89,-78.67 1828.47,-92 1734,-72 1536.84,-30.26 1477.26,-85.87 1282,-36 1279.7,-35.41 1277.36,-34.69 1275.03,-33.89"/>
<polygon fill="black" stroke="black" points="1276.23,-30.6 1265.64,-30.2 1273.67,-37.12 1276.23,-30.6"/>
</g>
<!-- table&#45;&gt;ns -->
<g id="edge123" class="edge">
<title>table&#45;&gt;ns</title>
<path fill="none" stroke="black" d="M1970.06,-216.73C1958.02,-196.42 1934.65,-162.16 1905,-144 1842.7,-105.85 1756,-95.08 1707.21,-92.1"/>
<polygon fill="black" stroke="black" points="1707.28,-88.6 1697.11,-91.56 1706.91,-95.59 1707.28,-88.6"/>
</g>
<!-- table&#45;&gt;utils -->
<g id="edge126" class="edge">
<title>table&#45;&gt;utils</title>
<path fill="none" stroke="black" d="M1953.04,-227.97C1889.55,-215.66 1726.37,-184.01 1653.76,-169.93"/>
<polygon fill="black" stroke="black" points="1654.21,-166.46 1643.73,-167.99 1652.88,-173.33 1654.21,-166.46"/>
</g>
<!-- table&#45;&gt;widgets -->
<g id="edge125" class="edge">
<title>table&#45;&gt;widgets</title>
<path fill="none" stroke="black" d="M1952.24,-230.45C1915.79,-227 1848.48,-220.74 1791,-216 1540.63,-195.36 1240.43,-174.18 1126.22,-166.25"/>
<polygon fill="black" stroke="black" points="1126.3,-162.75 1116.08,-165.55 1125.81,-169.73 1126.3,-162.75"/>
</g>
<!-- log -->
<g id="node37" class="node">
<title>log</title>
<ellipse fill="none" stroke="black" cx="2136" cy="-90" rx="27" ry="18"/>
<text text-anchor="middle" x="2136" y="-85.8" font-family="Times,serif" font-size="14.00">log</text>
</g>
<!-- table&#45;&gt;log -->
<g id="edge122" class="edge">
<title>table&#45;&gt;log</title>
<path fill="none" stroke="black" d="M1998.88,-221.4C2015.26,-211.41 2038.67,-196.1 2057,-180 2079.88,-159.9 2102.61,-133.43 2117.77,-114.6"/>
<polygon fill="black" stroke="black" points="2120.7,-116.54 2124.18,-106.54 2115.22,-112.19 2120.7,-116.54"/>
</g>
<!-- peoplePicker -->
<g id="node15" class="node">
<title>peoplePicker</title>
<ellipse fill="none" stroke="black" cx="3103" cy="-234" rx="56.04" ry="18"/>
<text text-anchor="middle" x="3103" y="-229.8" font-family="Times,serif" font-size="14.00">peoplePicker</text>
</g>
<!-- peoplePicker&#45;&gt;debug -->
<g id="edge16" class="edge">
<title>peoplePicker&#45;&gt;debug</title>
<path fill="none" stroke="black" d="M3159.49,-232.68C3257.8,-230.26 3444.04,-216.33 3380,-144 3313.55,-68.95 2580.84,-29.63 2396.76,-20.89"/>
<polygon fill="black" stroke="black" points="2396.83,-17.39 2386.67,-20.41 2396.5,-24.38 2396.83,-17.39"/>
</g>
<!-- peoplePicker&#45;&gt;store -->
<g id="edge21" class="edge">
<title>peoplePicker&#45;&gt;store</title>
<path fill="none" stroke="black" d="M3089.35,-216.32C3068.63,-191.11 3031.22,-146.01 3027,-144 2957.12,-110.68 1711.34,-111.36 1634,-108 1547.72,-104.25 1446.53,-97.46 1393.22,-93.69"/>
<polygon fill="black" stroke="black" points="1393.43,-90.2 1383.21,-92.98 1392.94,-97.18 1393.43,-90.2"/>
</g>
<!-- peoplePicker&#45;&gt;iconBase -->
<g id="edge19" class="edge">
<title>peoplePicker&#45;&gt;iconBase</title>
<path fill="none" stroke="black" d="M3047.87,-229.99C2836.43,-218.46 2078.83,-177.12 1872.32,-165.85"/>
<polygon fill="black" stroke="black" points="1872.22,-162.34 1862.05,-165.29 1871.84,-169.33 1872.22,-162.34"/>
</g>
<!-- escape_html -->
<g id="node16" class="node">
<title>escape_html</title>
<ellipse fill="none" stroke="black" cx="3204" cy="-162" rx="54.11" ry="18"/>
<text text-anchor="middle" x="3204" y="-157.8" font-family="Times,serif" font-size="14.00">escape_html</text>
</g>
<!-- peoplePicker&#45;&gt;escape_html -->
<g id="edge13" class="edge">
<title>peoplePicker&#45;&gt;escape_html</title>
<path fill="none" stroke="black" d="M3125.42,-217.46C3139.54,-207.68 3157.96,-194.91 3173.41,-184.2"/>
<polygon fill="black" stroke="black" points="3175.42,-187.06 3181.65,-178.49 3171.43,-181.31 3175.42,-187.06"/>
</g>
<!-- node_uuid -->
<g id="node17" class="node">
<title>node_uuid</title>
<ellipse fill="none" stroke="black" cx="3324" cy="-162" rx="47.38" ry="18"/>
<text text-anchor="middle" x="3324" y="-157.8" font-family="Times,serif" font-size="14.00">node_uuid</text>
</g>
<!-- peoplePicker&#45;&gt;node_uuid -->
<g id="edge14" class="edge">
<title>peoplePicker&#45;&gt;node_uuid</title>
<path fill="none" stroke="black" d="M3141.5,-220.81C3179.88,-208.65 3238.8,-189.98 3279.25,-177.17"/>
<polygon fill="black" stroke="black" points="3280.38,-180.49 3288.86,-174.13 3278.27,-173.81 3280.38,-180.49"/>
</g>
<!-- peoplePicker&#45;&gt;rdflib -->
<g id="edge15" class="edge">
<title>peoplePicker&#45;&gt;rdflib</title>
<path fill="none" stroke="black" d="M3105.67,-215.75C3107.73,-195.43 3107.52,-162.13 3088,-144 2961.91,-26.9 2488.73,-83 2317,-72 2087.33,-57.29 1506.2,-87.95 1282,-36 1279.68,-35.46 1277.33,-34.78 1275,-34.01"/>
<polygon fill="black" stroke="black" points="1276.19,-30.71 1265.6,-30.38 1273.67,-37.25 1276.19,-30.71"/>
</g>
<!-- dragAndDrop -->
<g id="node19" class="node">
<title>dragAndDrop</title>
<ellipse fill="none" stroke="black" cx="3524" cy="-162" rx="59.45" ry="18"/>
<text text-anchor="middle" x="3524" y="-157.8" font-family="Times,serif" font-size="14.00">dragAndDrop</text>
</g>
<!-- peoplePicker&#45;&gt;dragAndDrop -->
<g id="edge17" class="edge">
<title>peoplePicker&#45;&gt;dragAndDrop</title>
<path fill="none" stroke="black" d="M3151.71,-224.9C3228.97,-212.05 3379.48,-187.03 3463.54,-173.05"/>
<polygon fill="black" stroke="black" points="3464.16,-176.5 3473.45,-171.41 3463.01,-169.59 3464.16,-176.5"/>
</g>
<!-- error -->
<g id="node20" class="node">
<title>error</title>
<ellipse fill="none" stroke="black" cx="2991" cy="-162" rx="27.08" ry="18"/>
<text text-anchor="middle" x="2991" y="-157.8" font-family="Times,serif" font-size="14.00">error</text>
</g>
<!-- peoplePicker&#45;&gt;error -->
<g id="edge18" class="edge">
<title>peoplePicker&#45;&gt;error</title>
<path fill="none" stroke="black" d="M3078.42,-217.64C3060.82,-206.64 3037.11,-191.82 3018.82,-180.38"/>
<polygon fill="black" stroke="black" points="3020.66,-177.41 3010.32,-175.08 3016.95,-183.34 3020.66,-177.41"/>
</g>
<!-- peoplePicker&#45;&gt;ns -->
<g id="edge20" class="edge">
<title>peoplePicker&#45;&gt;ns</title>
<path fill="none" stroke="black" d="M3100.13,-215.76C3095.62,-194.78 3084.7,-160.15 3060,-144 3015.33,-114.79 2153.33,-110.05 2100,-108 1954.84,-102.41 1782.13,-95.5 1707.46,-92.51"/>
<polygon fill="black" stroke="black" points="1707.3,-89 1697.17,-92.09 1707.02,-95.99 1707.3,-89"/>
</g>
<!-- dragAndDrop&#45;&gt;debug -->
<g id="edge23" class="edge">
<title>dragAndDrop&#45;&gt;debug</title>
<path fill="none" stroke="black" d="M3515.69,-143.9C3504.36,-122.72 3481.88,-87.54 3451,-72 3355.59,-24 2586.27,-19.43 2396.97,-19.03"/>
<polygon fill="black" stroke="black" points="2396.87,-15.53 2386.86,-19.01 2396.85,-22.53 2396.87,-15.53"/>
</g>
<!-- mime_types -->
<g id="node41" class="node">
<title>mime_types</title>
<ellipse fill="none" stroke="black" cx="3556" cy="-90" rx="53.17" ry="18"/>
<text text-anchor="middle" x="3556" y="-85.8" font-family="Times,serif" font-size="14.00">mime_types</text>
</g>
<!-- dragAndDrop&#45;&gt;mime_types -->
<g id="edge136" class="edge">
<title>dragAndDrop&#45;&gt;mime_types</title>
<path fill="none" stroke="black" d="M3531.75,-144.05C3535.39,-136.09 3539.81,-126.41 3543.88,-117.51"/>
<polygon fill="black" stroke="black" points="3547.13,-118.83 3548.1,-108.28 3540.76,-115.91 3547.13,-118.83"/>
</g>
<!-- ns&#45;&gt;rdflib -->
<g id="edge35" class="edge">
<title>ns&#45;&gt;rdflib</title>
<path fill="none" stroke="black" d="M1645.8,-81.78C1633.65,-78.38 1618.65,-74.53 1605,-72 1462.98,-45.66 1421.37,-73.95 1282,-36 1279.85,-35.41 1277.66,-34.72 1275.48,-33.96"/>
<polygon fill="black" stroke="black" points="1276.67,-30.66 1266.08,-30.25 1274.1,-37.18 1276.67,-30.66"/>
</g>
<!-- index -->
<g id="node22" class="node">
<title>index</title>
<ellipse fill="none" stroke="black" cx="3007" cy="-306" rx="29.51" ry="18"/>
<text text-anchor="middle" x="3007" y="-301.8" font-family="Times,serif" font-size="14.00">index</text>
</g>
<!-- index&#45;&gt;debug -->
<g id="edge22" class="edge">
<title>index&#45;&gt;debug</title>
<path fill="none" stroke="black" d="M3029.25,-293.84C3034.62,-291.56 3040.42,-289.42 3046,-288 3221.1,-243.32 3277.35,-302.01 3451,-252 3555.87,-221.8 3693.53,-150.77 3618,-72 3574.82,-26.97 2611.7,-20.12 2397.12,-19.15"/>
<polygon fill="black" stroke="black" points="2396.92,-15.65 2386.9,-19.11 2396.89,-22.65 2396.92,-15.65"/>
</g>
<!-- index&#45;&gt;peoplePicker -->
<g id="edge133" class="edge">
<title>index&#45;&gt;peoplePicker</title>
<path fill="none" stroke="black" d="M3025.51,-291.5C3039.03,-281.65 3057.63,-268.08 3073.23,-256.71"/>
<polygon fill="black" stroke="black" points="3075.51,-259.37 3081.53,-250.65 3071.39,-253.72 3075.51,-259.37"/>
</g>
<!-- forms -->
<g id="node23" class="node">
<title>forms</title>
<ellipse fill="none" stroke="black" cx="2479" cy="-234" rx="30.98" ry="18"/>
<text text-anchor="middle" x="2479" y="-229.8" font-family="Times,serif" font-size="14.00">forms</text>
</g>
<!-- index&#45;&gt;forms -->
<g id="edge135" class="edge">
<title>index&#45;&gt;forms</title>
<path fill="none" stroke="black" d="M2978.24,-301.19C2889.7,-289.45 2621.07,-253.83 2518.96,-240.3"/>
<polygon fill="black" stroke="black" points="2519.14,-236.79 2508.76,-238.95 2518.22,-243.73 2519.14,-236.79"/>
</g>
<!-- buttons -->
<g id="node40" class="node">
<title>buttons</title>
<ellipse fill="none" stroke="black" cx="2910" cy="-162" rx="36.3" ry="18"/>
<text text-anchor="middle" x="2910" y="-157.8" font-family="Times,serif" font-size="14.00">buttons</text>
</g>
<!-- index&#45;&gt;buttons -->
<g id="edge134" class="edge">
<title>index&#45;&gt;buttons</title>
<path fill="none" stroke="black" d="M2996.06,-288.99C2979.18,-264.27 2946.65,-216.65 2926.78,-187.56"/>
<polygon fill="black" stroke="black" points="2929.58,-185.46 2921.05,-179.17 2923.8,-189.4 2929.58,-185.46"/>
</g>
<!-- forms&#45;&gt;debug -->
<g id="edge26" class="edge">
<title>forms&#45;&gt;debug</title>
<path fill="none" stroke="black" d="M2509.79,-233.19C2587.09,-232.93 2786.13,-227.57 2827,-180 2837.43,-167.86 2836.76,-156.68 2827,-144 2773.77,-74.83 2500.76,-36.06 2396,-23.54"/>
<polygon fill="black" stroke="black" points="2396.16,-20.03 2385.82,-22.34 2395.34,-26.98 2396.16,-20.03"/>
</g>
<!-- forms&#45;&gt;store -->
<g id="edge140" class="edge">
<title>forms&#45;&gt;store</title>
<path fill="none" stroke="black" d="M2450.01,-227.92C2365.77,-213.3 2113.58,-170.45 1903,-144 1711.74,-119.98 1481.67,-100.86 1393.17,-93.87"/>
<polygon fill="black" stroke="black" points="1393.34,-90.37 1383.1,-93.08 1392.79,-97.35 1393.34,-90.37"/>
</g>
<!-- forms&#45;&gt;iconBase -->
<g id="edge137" class="edge">
<title>forms&#45;&gt;iconBase</title>
<path fill="none" stroke="black" d="M2448.73,-230.24C2368.07,-222.81 2141.3,-201.52 1953,-180 1925.46,-176.85 1894.76,-172.95 1869.8,-169.69"/>
<polygon fill="black" stroke="black" points="1870.2,-166.21 1859.83,-168.37 1869.29,-173.15 1870.2,-166.21"/>
</g>
<!-- forms&#45;&gt;rdflib -->
<g id="edge142" class="edge">
<title>forms&#45;&gt;rdflib</title>
<path fill="none" stroke="black" d="M2471.57,-216.37C2462,-196.65 2443.61,-163.94 2419,-144 2352.7,-90.27 2324.45,-89.87 2241,-72 1823.93,17.31 1697.38,-132.86 1282,-36 1279.68,-35.46 1277.34,-34.78 1275,-34"/>
<polygon fill="black" stroke="black" points="1276.19,-30.71 1265.6,-30.37 1273.67,-37.24 1276.19,-30.71"/>
</g>
<!-- forms&#45;&gt;error -->
<g id="edge143" class="edge">
<title>forms&#45;&gt;error</title>
<path fill="none" stroke="black" d="M2509.74,-233.05C2586.43,-232.44 2791.8,-226.23 2955,-180 2956.95,-179.45 2958.92,-178.8 2960.88,-178.09"/>
<polygon fill="black" stroke="black" points="2962.61,-181.16 2970.51,-174.1 2959.93,-174.69 2962.61,-181.16"/>
</g>
<!-- forms&#45;&gt;ns -->
<g id="edge139" class="edge">
<title>forms&#45;&gt;ns</title>
<path fill="none" stroke="black" d="M2453.12,-223.74C2430.37,-213.67 2397.29,-196.77 2370,-180 2346.36,-165.47 2345.09,-153.45 2319,-144 2204.73,-102.61 1828.14,-93.42 1707.45,-91.49"/>
<polygon fill="black" stroke="black" points="1707.29,-87.99 1697.24,-91.33 1707.18,-94.99 1707.29,-87.99"/>
</g>
<!-- forms&#45;&gt;ns -->
<g id="edge145" class="edge">
<title>forms&#45;&gt;ns</title>
<path fill="none" stroke="black" d="M2459.57,-219.95C2440.73,-209.73 2412.11,-194.81 2388,-180 2364.36,-165.47 2363.09,-153.45 2337,-144 2220.26,-101.71 1829.73,-93.04 1707.07,-91.37"/>
<polygon fill="black" stroke="black" points="1707.09,-87.87 1697.04,-91.25 1707,-94.87 1707.09,-87.87"/>
</g>
<!-- fieldParams -->
<g id="node24" class="node">
<title>fieldParams</title>
<ellipse fill="none" stroke="black" cx="2559" cy="-162" rx="51.73" ry="18"/>
<text text-anchor="middle" x="2559" y="-157.8" font-family="Times,serif" font-size="14.00">fieldParams</text>
</g>
<!-- forms&#45;&gt;fieldParams -->
<g id="edge24" class="edge">
<title>forms&#45;&gt;fieldParams</title>
<path fill="none" stroke="black" d="M2495.58,-218.5C2506.39,-209.04 2520.73,-196.49 2533.03,-185.72"/>
<polygon fill="black" stroke="black" points="2535.55,-188.17 2540.77,-178.95 2530.94,-182.9 2535.55,-188.17"/>
</g>
<!-- fieldFunction -->
<g id="node25" class="node">
<title>fieldFunction</title>
<ellipse fill="none" stroke="black" cx="2686" cy="-162" rx="57.05" ry="18"/>
<text text-anchor="middle" x="2686" y="-157.8" font-family="Times,serif" font-size="14.00">fieldFunction</text>
</g>
<!-- forms&#45;&gt;fieldFunction -->
<g id="edge25" class="edge">
<title>forms&#45;&gt;fieldFunction</title>
<path fill="none" stroke="black" d="M2505.22,-224.13C2538.76,-212.79 2597.45,-192.95 2638.84,-178.95"/>
<polygon fill="black" stroke="black" points="2640.09,-182.22 2648.44,-175.7 2637.85,-175.59 2640.09,-182.22"/>
</g>
<!-- basic -->
<g id="node26" class="node">
<title>basic</title>
<ellipse fill="none" stroke="black" cx="2790" cy="-162" rx="28.06" ry="18"/>
<text text-anchor="middle" x="2790" y="-157.8" font-family="Times,serif" font-size="14.00">basic</text>
</g>
<!-- forms&#45;&gt;basic -->
<g id="edge27" class="edge">
<title>forms&#45;&gt;basic</title>
<path fill="none" stroke="black" d="M2509.05,-229.46C2559.93,-222.95 2665.91,-207.22 2752,-180 2754.27,-179.28 2756.58,-178.47 2758.89,-177.6"/>
<polygon fill="black" stroke="black" points="2760.31,-180.8 2768.23,-173.76 2757.65,-174.32 2760.31,-180.8"/>
</g>
<!-- forms&#45;&gt;utils -->
<g id="edge146" class="edge">
<title>forms&#45;&gt;utils</title>
<path fill="none" stroke="black" d="M2448.47,-231.15C2349.88,-225.07 2031.11,-204.71 1768,-180 1729.14,-176.35 1684.72,-171.19 1654.37,-167.52"/>
<polygon fill="black" stroke="black" points="1654.6,-164.02 1644.25,-166.28 1653.75,-170.97 1654.6,-164.02"/>
</g>
<!-- forms&#45;&gt;style -->
<g id="edge141" class="edge">
<title>forms&#45;&gt;style</title>
<path fill="none" stroke="black" d="M2448.32,-231.88C2373.99,-229.15 2178.33,-221.98 2015,-216 1578.11,-200 1468.15,-210.02 1032,-180 986.54,-176.87 934.36,-171.28 900.37,-167.36"/>
<polygon fill="black" stroke="black" points="900.77,-163.88 890.43,-166.21 899.96,-170.84 900.77,-163.88"/>
</g>
<!-- forms&#45;&gt;log -->
<g id="edge138" class="edge">
<title>forms&#45;&gt;log</title>
<path fill="none" stroke="black" d="M2466.19,-217.45C2448.67,-197.27 2415.24,-162.46 2379,-144 2311.61,-109.68 2222.68,-97.51 2173.24,-93.25"/>
<polygon fill="black" stroke="black" points="2173.26,-89.74 2163.02,-92.43 2172.71,-96.72 2173.26,-89.74"/>
</g>
<!-- forms&#45;&gt;buttons -->
<g id="edge144" class="edge">
<title>forms&#45;&gt;buttons</title>
<path fill="none" stroke="black" d="M2509.49,-230.73C2574.58,-225.46 2731.67,-210.45 2860,-180 2864.06,-179.04 2868.27,-177.88 2872.43,-176.62"/>
<polygon fill="black" stroke="black" points="2873.52,-179.95 2881.98,-173.57 2871.39,-173.28 2873.52,-179.95"/>
</g>
<!-- utils&#45;&gt;store -->
<g id="edge131" class="edge">
<title>utils&#45;&gt;store</title>
<path fill="none" stroke="black" d="M1593.35,-154.41C1546.44,-141.88 1444.22,-114.57 1390.52,-100.22"/>
<polygon fill="black" stroke="black" points="1391.34,-96.82 1380.77,-97.62 1389.53,-103.58 1391.34,-96.82"/>
</g>
<!-- utils&#45;&gt;rdflib -->
<g id="edge130" class="edge">
<title>utils&#45;&gt;rdflib</title>
<path fill="none" stroke="black" d="M1595.71,-151.72C1555.36,-135.02 1467.38,-99.15 1392,-72 1343.6,-54.57 1329.99,-54.53 1282,-36 1280.13,-35.28 1278.22,-34.51 1276.3,-33.72"/>
<polygon fill="black" stroke="black" points="1277.32,-30.35 1266.74,-29.64 1274.56,-36.79 1277.32,-30.35"/>
</g>
<!-- utils&#45;&gt;ns -->
<g id="edge129" class="edge">
<title>utils&#45;&gt;ns</title>
<path fill="none" stroke="black" d="M1629.54,-145.46C1636.27,-136.4 1644.9,-124.79 1652.46,-114.61"/>
<polygon fill="black" stroke="black" points="1655.34,-116.61 1658.49,-106.49 1649.72,-112.43 1655.34,-116.61"/>
</g>
<!-- utils&#45;&gt;log -->
<g id="edge128" class="edge">
<title>utils&#45;&gt;log</title>
<path fill="none" stroke="black" d="M1644.4,-157.43C1730.13,-145.85 2000.9,-109.26 2099.57,-95.92"/>
<polygon fill="black" stroke="black" points="2100.21,-99.37 2109.65,-94.56 2099.27,-92.43 2100.21,-99.37"/>
</g>
<!-- test_acl -->
<g id="node30" class="node">
<title>test_acl</title>
<ellipse fill="none" stroke="black" cx="3045" cy="-378" rx="37.23" ry="18"/>
<text text-anchor="middle" x="3045" y="-373.8" font-family="Times,serif" font-size="14.00">test_acl</text>
</g>
<!-- test_acl&#45;&gt;index -->
<g id="edge37" class="edge">
<title>test_acl&#45;&gt;index</title>
<path fill="none" stroke="black" d="M3035.99,-360.41C3031.45,-352.04 3025.84,-341.71 3020.77,-332.37"/>
<polygon fill="black" stroke="black" points="3023.79,-330.59 3015.94,-323.47 3017.64,-333.93 3023.79,-330.59"/>
</g>
<!-- acl -->
<g id="node31" class="node">
<title>acl</title>
<ellipse fill="none" stroke="black" cx="3082" cy="-306" rx="27" ry="18"/>
<text text-anchor="middle" x="3082" y="-301.8" font-family="Times,serif" font-size="14.00">acl</text>
</g>
<!-- test_acl&#45;&gt;acl -->
<g id="edge36" class="edge">
<title>test_acl&#45;&gt;acl</title>
<path fill="none" stroke="black" d="M3053.77,-360.41C3058.19,-352.04 3063.65,-341.71 3068.59,-332.37"/>
<polygon fill="black" stroke="black" points="3071.72,-333.95 3073.29,-323.47 3065.53,-330.68 3071.72,-333.95"/>
</g>
<!-- thread -->
<g id="node34" class="node">
<title>thread</title>
<ellipse fill="none" stroke="black" cx="730" cy="-234" rx="32.41" ry="18"/>
<text text-anchor="middle" x="730" y="-229.8" font-family="Times,serif" font-size="14.00">thread</text>
</g>
<!-- thread&#45;&gt;store -->
<g id="edge66" class="edge">
<title>thread&#45;&gt;store</title>
<path fill="none" stroke="black" d="M736.99,-216.16C746.66,-195.26 766.23,-160.36 795,-144 884.8,-92.93 1208.22,-90.05 1318.7,-90.61"/>
<polygon fill="black" stroke="black" points="1318.69,-94.11 1328.71,-90.67 1318.74,-87.11 1318.69,-94.11"/>
</g>
<!-- thread&#45;&gt;iconBase -->
<g id="edge63" class="edge">
<title>thread&#45;&gt;iconBase</title>
<path fill="none" stroke="black" d="M761.39,-229.86C799.56,-226.13 865.95,-219.92 923,-216 1247.52,-193.73 1329.65,-204.58 1654,-180 1692.71,-177.07 1736.38,-172.55 1769.2,-168.9"/>
<polygon fill="black" stroke="black" points="1769.91,-172.35 1779.46,-167.76 1769.13,-165.39 1769.91,-172.35"/>
</g>
<!-- thread&#45;&gt;rdflib -->
<g id="edge65" class="edge">
<title>thread&#45;&gt;rdflib</title>
<path fill="none" stroke="black" d="M723.68,-216.15C722.02,-196.22 726.72,-163.31 746,-144 811.1,-78.81 1099.18,-36.38 1204.99,-23.3"/>
<polygon fill="black" stroke="black" points="1205.73,-26.74 1215.24,-22.06 1204.89,-19.79 1205.73,-26.74"/>
</g>
<!-- thread&#45;&gt;rdflib -->
<g id="edge70" class="edge">
<title>thread&#45;&gt;rdflib</title>
<path fill="none" stroke="black" d="M736.41,-216.15C740.02,-196.22 744.72,-163.31 764,-144 827.53,-80.38 1103.4,-38.44 1205.75,-24.3"/>
<polygon fill="black" stroke="black" points="1206.23,-27.76 1215.66,-22.94 1205.28,-20.83 1206.23,-27.76"/>
</g>
<!-- thread&#45;&gt;ns -->
<g id="edge64" class="edge">
<title>thread&#45;&gt;ns</title>
<path fill="none" stroke="black" d="M747.05,-218.63C759.41,-208.11 776.44,-193.39 791,-180 807.89,-164.47 807.02,-153.3 828,-144 830.34,-142.96 1469.62,-103.39 1632.56,-93.31"/>
<polygon fill="black" stroke="black" points="1633.26,-96.78 1643.02,-92.67 1632.82,-89.79 1633.26,-96.78"/>
</g>
<!-- thread&#45;&gt;utils -->
<g id="edge69" class="edge">
<title>thread&#45;&gt;utils</title>
<path fill="none" stroke="black" d="M761.75,-230.09C799.99,-226.61 866.18,-220.67 923,-216 1174.31,-195.35 1476.97,-173.2 1580.88,-165.68"/>
<polygon fill="black" stroke="black" points="1581.44,-169.15 1591.16,-164.93 1580.93,-162.16 1581.44,-169.15"/>
</g>
<!-- thread&#45;&gt;widgets -->
<g id="edge68" class="edge">
<title>thread&#45;&gt;widgets</title>
<path fill="none" stroke="black" d="M759.76,-227.03C821.27,-214.69 962.69,-186.33 1034.87,-171.85"/>
<polygon fill="black" stroke="black" points="1035.88,-175.22 1045,-169.82 1034.51,-168.35 1035.88,-175.22"/>
</g>
<!-- thread&#45;&gt;authn -->
<g id="edge62" class="edge">
<title>thread&#45;&gt;authn</title>
<path fill="none" stroke="black" d="M714.52,-218.15C704.45,-208.5 691.15,-195.75 679.88,-184.94"/>
<polygon fill="black" stroke="black" points="682.1,-182.22 672.46,-177.82 677.25,-187.27 682.1,-182.22"/>
</g>
<!-- thread&#45;&gt;style -->
<g id="edge67" class="edge">
<title>thread&#45;&gt;style</title>
<path fill="none" stroke="black" d="M752.73,-221.13C775.24,-209.37 809.82,-191.3 834.45,-178.43"/>
<polygon fill="black" stroke="black" points="836.12,-181.51 843.36,-173.78 832.88,-175.31 836.12,-181.51"/>
</g>
<!-- matrix -->
<g id="node36" class="node">
<title>matrix</title>
<ellipse fill="none" stroke="black" cx="1749" cy="-234" rx="33.38" ry="18"/>
<text text-anchor="middle" x="1749" y="-229.8" font-family="Times,serif" font-size="14.00">matrix</text>
</g>
<!-- matrix&#45;&gt;store -->
<g id="edge104" class="edge">
<title>matrix&#45;&gt;store</title>
<path fill="none" stroke="black" d="M1733.68,-217.73C1709.29,-193.56 1663.4,-148.71 1654,-144 1567.97,-100.91 1452.56,-92.34 1393.8,-90.96"/>
<polygon fill="black" stroke="black" points="1393.57,-87.46 1383.51,-90.78 1393.45,-94.46 1393.57,-87.46"/>
</g>
<!-- matrix&#45;&gt;iconBase -->
<g id="edge101" class="edge">
<title>matrix&#45;&gt;iconBase</title>
<path fill="none" stroke="black" d="M1764.41,-217.81C1773.79,-208.56 1785.97,-196.55 1796.54,-186.13"/>
<polygon fill="black" stroke="black" points="1799.22,-188.4 1803.88,-178.89 1794.31,-183.42 1799.22,-188.4"/>
</g>
<!-- matrix&#45;&gt;rdflib -->
<g id="edge103" class="edge">
<title>matrix&#45;&gt;rdflib</title>
<path fill="none" stroke="black" d="M1750.22,-215.85C1751.55,-182.3 1749.14,-108.13 1706,-72 1633.51,-11.28 1373.56,-59.64 1282,-36 1279.7,-35.41 1277.36,-34.68 1275.03,-33.87"/>
<polygon fill="black" stroke="black" points="1276.24,-30.59 1265.65,-30.18 1273.67,-37.1 1276.24,-30.59"/>
</g>
<!-- matrix&#45;&gt;ns -->
<g id="edge102" class="edge">
<title>matrix&#45;&gt;ns</title>
<path fill="none" stroke="black" d="M1739.78,-216.43C1726.03,-191.72 1700.05,-145.01 1683.96,-116.09"/>
<polygon fill="black" stroke="black" points="1686.84,-114.06 1678.92,-107.03 1680.72,-117.47 1686.84,-114.06"/>
</g>
<!-- matrix&#45;&gt;utils -->
<g id="edge106" class="edge">
<title>matrix&#45;&gt;utils</title>
<path fill="none" stroke="black" d="M1726.18,-220.81C1704.31,-209.12 1671.19,-191.42 1647.36,-178.69"/>
<polygon fill="black" stroke="black" points="1648.88,-175.53 1638.41,-173.9 1645.58,-181.7 1648.88,-175.53"/>
</g>
<!-- matrix&#45;&gt;widgets -->
<g id="edge105" class="edge">
<title>matrix&#45;&gt;widgets</title>
<path fill="none" stroke="black" d="M1716.68,-229.62C1607.74,-218.24 1253.61,-181.24 1125.66,-167.87"/>
<polygon fill="black" stroke="black" points="1125.72,-164.36 1115.41,-166.8 1124.99,-171.32 1125.72,-164.36"/>
</g>
<!-- signup -->
<g id="node38" class="node">
<title>signup</title>
<ellipse fill="none" stroke="black" cx="3764" cy="-522" rx="33.89" ry="18"/>
<text text-anchor="middle" x="3764" y="-517.8" font-family="Times,serif" font-size="14.00">signup</text>
</g>
<!-- config_default -->
<g id="node39" class="node">
<title>config_default</title>
<ellipse fill="none" stroke="black" cx="3764" cy="-450" rx="61.38" ry="18"/>
<text text-anchor="middle" x="3764" y="-445.8" font-family="Times,serif" font-size="14.00">config_default</text>
</g>
<!-- signup&#45;&gt;config_default -->
<g id="edge132" class="edge">
<title>signup&#45;&gt;config_default</title>
<path fill="none" stroke="black" d="M3764,-503.7C3764,-495.98 3764,-486.71 3764,-478.11"/>
<polygon fill="black" stroke="black" points="3767.5,-478.1 3764,-468.1 3760.5,-478.1 3767.5,-478.1"/>
</g>
<!-- messageArea -->
<g id="node42" class="node">
<title>messageArea</title>
<ellipse fill="none" stroke="black" cx="989" cy="-234" rx="57.5" ry="18"/>
<text text-anchor="middle" x="989" y="-229.8" font-family="Times,serif" font-size="14.00">messageArea</text>
</g>
<!-- messageArea&#45;&gt;store -->
<g id="edge151" class="edge">
<title>messageArea&#45;&gt;store</title>
<path fill="none" stroke="black" d="M985.36,-215.7C982.24,-195.64 980.75,-162.91 999,-144 1042.51,-98.92 1235.9,-91.93 1318.45,-91.03"/>
<polygon fill="black" stroke="black" points="1318.68,-94.53 1328.65,-90.94 1318.62,-87.53 1318.68,-94.53"/>
</g>
<!-- messageArea&#45;&gt;iconBase -->
<g id="edge148" class="edge">
<title>messageArea&#45;&gt;iconBase</title>
<path fill="none" stroke="black" d="M1043.78,-228.71C1192.02,-217.07 1593.99,-185.46 1654,-180 1692.66,-176.48 1736.33,-171.99 1769.17,-168.5"/>
<polygon fill="black" stroke="black" points="1769.86,-171.95 1779.43,-167.41 1769.12,-164.99 1769.86,-171.95"/>
</g>
<!-- messageArea&#45;&gt;rdflib -->
<g id="edge150" class="edge">
<title>messageArea&#45;&gt;rdflib</title>
<path fill="none" stroke="black" d="M975.42,-216.49C965.87,-197.48 958.08,-166.03 972,-144 1023.19,-63 1142.74,-33.42 1205.02,-23.52"/>
<polygon fill="black" stroke="black" points="1205.86,-26.94 1215.23,-22 1204.83,-20.01 1205.86,-26.94"/>
</g>
<!-- messageArea&#45;&gt;rdflib -->
<g id="edge154" class="edge">
<title>messageArea&#45;&gt;rdflib</title>
<path fill="none" stroke="black" d="M988.17,-215.81C983.69,-196.73 976.24,-165.77 990,-144 1038.28,-67.6 1147.38,-36.95 1205.75,-25.41"/>
<polygon fill="black" stroke="black" points="1206.51,-28.82 1215.69,-23.53 1205.21,-21.95 1206.51,-28.82"/>
</g>
<!-- messageArea&#45;&gt;ns -->
<g id="edge149" class="edge">
<title>messageArea&#45;&gt;ns</title>
<path fill="none" stroke="black" d="M991.99,-215.94C996.62,-195.14 1007.67,-160.71 1032,-144 1044.49,-135.42 1498.75,-102.99 1633,-93.58"/>
<polygon fill="black" stroke="black" points="1633.46,-97.05 1643.19,-92.86 1632.97,-90.07 1633.46,-97.05"/>
</g>
<!-- messageArea&#45;&gt;utils -->
<g id="edge155" class="edge">
<title>messageArea&#45;&gt;utils</title>
<path fill="none" stroke="black" d="M1042.09,-227.09C1166.65,-213.23 1475.15,-178.9 1581.37,-167.08"/>
<polygon fill="black" stroke="black" points="1582.03,-170.52 1591.58,-165.94 1581.26,-163.57 1582.03,-170.52"/>
</g>
<!-- messageArea&#45;&gt;widgets -->
<g id="edge153" class="edge">
<title>messageArea&#45;&gt;widgets</title>
<path fill="none" stroke="black" d="M1009.42,-217.12C1022.05,-207.29 1038.4,-194.58 1052.08,-183.94"/>
<polygon fill="black" stroke="black" points="1054.45,-186.53 1060.19,-177.63 1050.15,-181 1054.45,-186.53"/>
</g>
<!-- messageArea&#45;&gt;authn -->
<g id="edge147" class="edge">
<title>messageArea&#45;&gt;authn</title>
<path fill="none" stroke="black" d="M942.84,-223.27C876.64,-209.31 756.02,-183.88 694.8,-170.97"/>
<polygon fill="black" stroke="black" points="695.3,-167.5 684.8,-168.86 693.86,-174.35 695.3,-167.5"/>
</g>
<!-- messageArea&#45;&gt;style -->
<g id="edge152" class="edge">
<title>messageArea&#45;&gt;style</title>
<path fill="none" stroke="black" d="M962.18,-217.98C941.81,-206.58 913.83,-190.91 892.96,-179.21"/>
<polygon fill="black" stroke="black" points="894.63,-176.14 884.2,-174.31 891.21,-182.25 894.63,-176.14"/>
</g>
</g>
</svg>
