<?xml version="1.0" encoding="UTF-8" standalone="no"?>
<!DOCTYPE svg PUBLIC "-//W3C//DTD SVG 1.1//EN"
 "http://www.w3.org/Graphics/SVG/1.1/DTD/svg11.dtd">
<!-- Generated by graphviz version 2.42.3 (20191010.1750)
 -->
<!-- Title: G Pages: 1 -->
<svg width="3923pt" height="620pt"
 viewBox="0.00 0.00 3923.00 620.00" xmlns="http://www.w3.org/2000/svg" xmlns:xlink="http://www.w3.org/1999/xlink">
<g id="graph0" class="graph" transform="scale(1 1) rotate(0) translate(4 616)">
<title>G</title>
<polygon fill="white" stroke="transparent" points="-4,4 -4,-616 3919,-616 3919,4 -4,4"/>
<!-- media_capture -->
<g id="node1" class="node">
<title>media_capture</title>
<ellipse fill="none" stroke="black" cx="1010" cy="-306" rx="62.31" ry="18"/>
<text text-anchor="middle" x="1010" y="-301.8" font-family="Times,serif" font-size="14.00">media_capture</text>
</g>
<!-- debug -->
<g id="node2" class="node">
<title>debug</title>
<ellipse fill="none" stroke="black" cx="1247" cy="-18" rx="31.94" ry="18"/>
<text text-anchor="middle" x="1247" y="-13.8" font-family="Times,serif" font-size="14.00">debug</text>
</g>
<!-- media_capture&#45;&gt;debug -->
<g id="edge1" class="edge">
<title>media_capture&#45;&gt;debug</title>
<path fill="none" stroke="black" d="M948.86,-302.54C804.54,-295.31 449.49,-268.68 379,-180 369.04,-167.48 371.64,-158.21 379,-144 404.53,-94.73 428.72,-90.6 481,-72 616.1,-23.93 1065.14,-19.22 1205.02,-18.95"/>
<polygon fill="black" stroke="black" points="1205.32,-22.45 1215.31,-18.93 1205.31,-15.45 1205.32,-22.45"/>
</g>
<!-- store -->
<g id="node9" class="node">
<title>store</title>
<ellipse fill="none" stroke="black" cx="1247" cy="-90" rx="27.1" ry="18"/>
<text text-anchor="middle" x="1247" y="-85.8" font-family="Times,serif" font-size="14.00">store</text>
</g>
<!-- media_capture&#45;&gt;store -->
<g id="edge32" class="edge">
<title>media_capture&#45;&gt;store</title>
<path fill="none" stroke="black" d="M948.27,-303.43C867.57,-299.94 732.85,-288.62 702,-252 691.69,-239.76 692.51,-228.88 702,-216 763.01,-133.19 1096.47,-101.82 1209.51,-93.48"/>
<polygon fill="black" stroke="black" points="1210.02,-96.95 1219.74,-92.74 1209.52,-89.97 1210.02,-96.95"/>
</g>
<!-- iconBase -->
<g id="node12" class="node">
<title>iconBase</title>
<ellipse fill="none" stroke="black" cx="1407" cy="-162" rx="42.55" ry="18"/>
<text text-anchor="middle" x="1407" y="-157.8" font-family="Times,serif" font-size="14.00">iconBase</text>
</g>
<!-- media_capture&#45;&gt;iconBase -->
<g id="edge29" class="edge">
<title>media_capture&#45;&gt;iconBase</title>
<path fill="none" stroke="black" d="M947.8,-304.74C843.86,-302.34 652.68,-288.31 721,-216 769.46,-164.71 1285.66,-193.07 1355,-180 1358.72,-179.3 1362.54,-178.4 1366.34,-177.39"/>
<polygon fill="black" stroke="black" points="1367.65,-180.66 1376.27,-174.5 1365.69,-173.94 1367.65,-180.66"/>
</g>
<!-- pad -->
<g id="node14" class="node">
<title>pad</title>
<ellipse fill="none" stroke="black" cx="1339" cy="-234" rx="27" ry="18"/>
<text text-anchor="middle" x="1339" y="-229.8" font-family="Times,serif" font-size="14.00">pad</text>
</g>
<!-- media_capture&#45;&gt;pad -->
<g id="edge31" class="edge">
<title>media_capture&#45;&gt;pad</title>
<path fill="none" stroke="black" d="M1058.87,-294.69C1109.27,-284.04 1190.14,-266.92 1260,-252 1274.32,-248.94 1290.1,-245.55 1303.76,-242.61"/>
<polygon fill="black" stroke="black" points="1304.71,-245.98 1313.74,-240.46 1303.23,-239.14 1304.71,-245.98"/>
</g>
<!-- rdflib -->
<g id="node18" class="node">
<title>rdflib</title>
<ellipse fill="none" stroke="black" cx="1999" cy="-18" rx="29.04" ry="18"/>
<text text-anchor="middle" x="1999" y="-13.8" font-family="Times,serif" font-size="14.00">rdflib</text>
</g>
<!-- media_capture&#45;&gt;rdflib -->
<g id="edge28" class="edge">
<title>media_capture&#45;&gt;rdflib</title>
<path fill="none" stroke="black" d="M1010.48,-287.84C1010.15,-268.51 1006.91,-237.05 991,-216 970.38,-188.72 940.64,-209.3 923,-180 896.44,-135.88 920.81,-98.45 965,-72 1060.01,-15.12 1853.14,-61.07 1961,-36 1963.32,-35.46 1965.67,-34.78 1968,-34"/>
<polygon fill="black" stroke="black" points="1969.33,-37.24 1977.4,-30.38 1966.81,-30.71 1969.33,-37.24"/>
</g>
<!-- ns -->
<g id="node21" class="node">
<title>ns</title>
<ellipse fill="none" stroke="black" cx="1933" cy="-90" rx="27" ry="18"/>
<text text-anchor="middle" x="1933" y="-85.8" font-family="Times,serif" font-size="14.00">ns</text>
</g>
<!-- media_capture&#45;&gt;ns -->
<g id="edge30" class="edge">
<title>media_capture&#45;&gt;ns</title>
<path fill="none" stroke="black" d="M1039.77,-289.93C1058.09,-280.11 1081.68,-266.47 1101,-252 1119.62,-238.05 1121.54,-231.38 1139,-216 1176.92,-182.6 1180.08,-162.76 1227,-144 1350.22,-94.74 1767.86,-90.87 1895.58,-90.87"/>
<polygon fill="black" stroke="black" points="1895.65,-94.37 1905.65,-90.88 1895.65,-87.37 1895.65,-94.37"/>
</g>
<!-- utils -->
<g id="node27" class="node">
<title>utils</title>
<ellipse fill="none" stroke="black" cx="1319" cy="-162" rx="27" ry="18"/>
<text text-anchor="middle" x="1319" y="-157.8" font-family="Times,serif" font-size="14.00">utils</text>
</g>
<!-- media_capture&#45;&gt;utils -->
<g id="edge33" class="edge">
<title>media_capture&#45;&gt;utils</title>
<path fill="none" stroke="black" d="M1067.84,-299.27C1113.38,-292.84 1177.26,-279.45 1227,-252 1243.08,-243.13 1276.76,-208.6 1298.6,-185.25"/>
<polygon fill="black" stroke="black" points="1301.27,-187.52 1305.51,-177.82 1296.14,-182.76 1301.27,-187.52"/>
</g>
<!-- widgets -->
<g id="node28" class="node">
<title>widgets</title>
<ellipse fill="none" stroke="black" cx="1734" cy="-162" rx="37.74" ry="18"/>
<text text-anchor="middle" x="1734" y="-157.8" font-family="Times,serif" font-size="14.00">widgets</text>
</g>
<!-- media_capture&#45;&gt;widgets -->
<g id="edge34" class="edge">
<title>media_capture&#45;&gt;widgets</title>
<path fill="none" stroke="black" d="M1071.44,-302.9C1224.75,-297.27 1615.59,-280.29 1667,-252 1692.42,-238.01 1711.06,-209.85 1722.13,-188.94"/>
<polygon fill="black" stroke="black" points="1725.3,-190.42 1726.68,-179.91 1719.05,-187.27 1725.3,-190.42"/>
</g>
<!-- noun_Camera_1618446_000000 -->
<g id="node29" class="node">
<title>noun_Camera_1618446_000000</title>
<ellipse fill="none" stroke="black" cx="856" cy="-234" rx="126.08" ry="18"/>
<text text-anchor="middle" x="856" y="-229.8" font-family="Times,serif" font-size="14.00">noun_Camera_1618446_000000</text>
</g>
<!-- media_capture&#45;&gt;noun_Camera_1618446_000000 -->
<g id="edge35" class="edge">
<title>media_capture&#45;&gt;noun_Camera_1618446_000000</title>
<path fill="none" stroke="black" d="M978.09,-290.5C955.83,-280.38 925.8,-266.73 901.09,-255.5"/>
<polygon fill="black" stroke="black" points="902.46,-252.27 891.91,-251.32 899.57,-258.65 902.46,-252.27"/>
</g>
<!-- message -->
<g id="node3" class="node">
<title>message</title>
<ellipse fill="none" stroke="black" cx="1473" cy="-522" rx="40.13" ry="18"/>
<text text-anchor="middle" x="1473" y="-517.8" font-family="Times,serif" font-size="14.00">message</text>
</g>
<!-- message&#45;&gt;media_capture -->
<g id="edge41" class="edge">
<title>message&#45;&gt;media_capture</title>
<path fill="none" stroke="black" d="M1435.97,-514.95C1394.04,-507.3 1324.24,-492.14 1268,-468 1178.94,-429.77 1084.94,-363.58 1038.88,-329.19"/>
<polygon fill="black" stroke="black" points="1040.95,-326.36 1030.85,-323.15 1036.74,-331.96 1040.95,-326.36"/>
</g>
<!-- messageTools -->
<g id="node4" class="node">
<title>messageTools</title>
<ellipse fill="none" stroke="black" cx="1473" cy="-450" rx="59.68" ry="18"/>
<text text-anchor="middle" x="1473" y="-445.8" font-family="Times,serif" font-size="14.00">messageTools</text>
</g>
<!-- message&#45;&gt;messageTools -->
<g id="edge2" class="edge">
<title>message&#45;&gt;messageTools</title>
<path fill="none" stroke="black" d="M1467.12,-504.05C1466.3,-496.35 1466.06,-487.03 1466.39,-478.36"/>
<polygon fill="black" stroke="black" points="1469.89,-478.49 1467.09,-468.28 1462.91,-478.01 1469.89,-478.49"/>
</g>
<!-- message&#45;&gt;messageTools -->
<g id="edge48" class="edge">
<title>message&#45;&gt;messageTools</title>
<path fill="none" stroke="black" d="M1478.88,-504.05C1479.7,-496.35 1479.94,-487.03 1479.61,-478.36"/>
<polygon fill="black" stroke="black" points="1483.09,-478.01 1478.91,-468.28 1476.11,-478.49 1483.09,-478.01"/>
</g>
<!-- message&#45;&gt;store -->
<g id="edge44" class="edge">
<title>message&#45;&gt;store</title>
<path fill="none" stroke="black" d="M1433.13,-519.99C1286.56,-516.05 777.85,-500.31 619,-468 450.13,-433.66 355,-414.28 297,-252 291.62,-236.93 286.37,-227.96 297,-216 342.34,-164.99 540.19,-208.94 602,-180 623.07,-170.13 618.78,-153.54 640,-144 691.91,-120.65 1085.58,-99.1 1209.66,-92.83"/>
<polygon fill="black" stroke="black" points="1210,-96.32 1219.81,-92.32 1209.65,-89.32 1210,-96.32"/>
</g>
<!-- message&#45;&gt;iconBase -->
<g id="edge39" class="edge">
<title>message&#45;&gt;iconBase</title>
<path fill="none" stroke="black" d="M1433.86,-517.65C1250.89,-501.8 487.26,-433.58 454,-396 365.31,-295.77 318.61,-335.55 634,-216 784.01,-159.14 1197.25,-209.18 1355,-180 1358.72,-179.31 1362.54,-178.43 1366.35,-177.42"/>
<polygon fill="black" stroke="black" points="1367.65,-180.69 1376.28,-174.53 1365.7,-173.96 1367.65,-180.69"/>
</g>
<!-- message&#45;&gt;pad -->
<g id="edge42" class="edge">
<title>message&#45;&gt;pad</title>
<path fill="none" stroke="black" d="M1449.03,-507.52C1434.24,-498.13 1415.89,-484.38 1404,-468 1357.74,-404.3 1344.37,-308.94 1340.53,-262.46"/>
<polygon fill="black" stroke="black" points="1344.01,-261.97 1339.78,-252.26 1337.03,-262.49 1344.01,-261.97"/>
</g>
<!-- message&#45;&gt;rdflib -->
<g id="edge43" class="edge">
<title>message&#45;&gt;rdflib</title>
<path fill="none" stroke="black" d="M1512.94,-520.55C1774.65,-517.54 3239.91,-499.37 3436,-468 3546.39,-450.34 3588.09,-463.76 3677,-396 3758.3,-334.04 3744.18,-281.53 3756,-180 3757.85,-164.11 3763.12,-158.33 3756,-144 3732.43,-96.56 3710.94,-89.68 3661,-72 3503.79,-16.35 2276.28,-17.98 2038.73,-18.83"/>
<polygon fill="black" stroke="black" points="2038.47,-15.33 2028.49,-18.87 2038.5,-22.33 2038.47,-15.33"/>
</g>
<!-- message&#45;&gt;ns -->
<g id="edge40" class="edge">
<title>message&#45;&gt;ns</title>
<path fill="none" stroke="black" d="M1513.06,-521.28C1794.34,-522.95 3466.8,-527.23 3645,-396 3727.56,-335.2 3707.71,-280.88 3726,-180 3728.85,-164.26 3737.15,-155.48 3726,-144 3710.14,-127.67 2226.59,-96.94 1970.46,-91.75"/>
<polygon fill="black" stroke="black" points="1970.26,-88.25 1960.19,-91.54 1970.11,-95.25 1970.26,-88.25"/>
</g>
<!-- message&#45;&gt;utils -->
<g id="edge46" class="edge">
<title>message&#45;&gt;utils</title>
<path fill="none" stroke="black" d="M1442.14,-510.18C1421.71,-501.6 1395.69,-487.74 1379,-468 1365.71,-452.29 1313.56,-314.62 1303,-252 1300.34,-236.22 1300.66,-231.83 1303,-216 1304.3,-207.21 1306.74,-197.86 1309.34,-189.5"/>
<polygon fill="black" stroke="black" points="1312.7,-190.49 1312.51,-179.9 1306.05,-188.29 1312.7,-190.49"/>
</g>
<!-- message&#45;&gt;widgets -->
<g id="edge47" class="edge">
<title>message&#45;&gt;widgets</title>
<path fill="none" stroke="black" d="M1512.91,-519.73C1675.12,-513.53 2279.96,-480.06 2357,-324 2364.08,-309.65 2367.18,-300.35 2357,-288 2303.73,-223.36 2253.95,-269.36 2172,-252 2101.97,-237.16 2085.08,-230.64 2015,-216 1931.74,-198.61 1834.06,-180.76 1778.55,-170.85"/>
<polygon fill="black" stroke="black" points="1779.15,-167.4 1768.69,-169.09 1777.93,-174.29 1779.15,-167.4"/>
</g>
<!-- authn -->
<g id="node31" class="node">
<title>authn</title>
<ellipse fill="none" stroke="black" cx="2066" cy="-162" rx="29.51" ry="18"/>
<text text-anchor="middle" x="2066" y="-157.8" font-family="Times,serif" font-size="14.00">authn</text>
</g>
<!-- message&#45;&gt;authn -->
<g id="edge38" class="edge">
<title>message&#45;&gt;authn</title>
<path fill="none" stroke="black" d="M1513.11,-521.36C1615.18,-521.49 1892.57,-516.92 2117,-468 2208.9,-447.97 2239.45,-450.64 2316,-396 2360.35,-364.35 2408.28,-330.35 2374,-288 2325.68,-228.31 2276.04,-281.18 2205,-252 2162.19,-234.42 2118.07,-203.59 2091.33,-183.23"/>
<polygon fill="black" stroke="black" points="2093.34,-180.36 2083.28,-177.02 2089.06,-185.9 2093.34,-180.36"/>
</g>
<!-- style -->
<g id="node32" class="node">
<title>style</title>
<ellipse fill="none" stroke="black" cx="2387" cy="-162" rx="27" ry="18"/>
<text text-anchor="middle" x="2387" y="-157.8" font-family="Times,serif" font-size="14.00">style</text>
</g>
<!-- message&#45;&gt;style -->
<g id="edge45" class="edge">
<title>message&#45;&gt;style</title>
<path fill="none" stroke="black" d="M1512.85,-520.02C1645.08,-516.48 2068.45,-502.65 2200,-468 2378.96,-420.86 2470.86,-416.32 2556,-252 2563.36,-237.79 2565.77,-228.67 2556,-216 2517.55,-166.15 2477.64,-202.92 2419,-180 2418.13,-179.66 2417.25,-179.3 2416.37,-178.93"/>
<polygon fill="black" stroke="black" points="2417.52,-175.6 2406.98,-174.52 2414.54,-181.94 2417.52,-175.6"/>
</g>
<!-- messageTools&#45;&gt;media_capture -->
<g id="edge89" class="edge">
<title>messageTools&#45;&gt;media_capture</title>
<path fill="none" stroke="black" d="M1432.72,-436.65C1348.45,-410.8 1153.67,-351.06 1060.9,-322.61"/>
<polygon fill="black" stroke="black" points="1061.77,-319.22 1051.18,-319.63 1059.71,-325.91 1061.77,-319.22"/>
</g>
<!-- bookmarks -->
<g id="node6" class="node">
<title>bookmarks</title>
<ellipse fill="none" stroke="black" cx="512" cy="-378" rx="49.31" ry="18"/>
<text text-anchor="middle" x="512" y="-373.8" font-family="Times,serif" font-size="14.00">bookmarks</text>
</g>
<!-- messageTools&#45;&gt;bookmarks -->
<g id="edge96" class="edge">
<title>messageTools&#45;&gt;bookmarks</title>
<path fill="none" stroke="black" d="M1415.76,-444.83C1245.19,-432.41 741.55,-395.72 570,-383.22"/>
<polygon fill="black" stroke="black" points="570.13,-379.73 559.91,-382.49 569.62,-386.71 570.13,-379.73"/>
</g>
<!-- messageTools&#45;&gt;store -->
<g id="edge92" class="edge">
<title>messageTools&#45;&gt;store</title>
<path fill="none" stroke="black" d="M1478.61,-431.9C1494.14,-381.02 1531.9,-228.82 1459,-144 1406.96,-83.45 1358.75,-133.23 1283,-108 1281.13,-107.38 1279.23,-106.68 1277.33,-105.94"/>
<polygon fill="black" stroke="black" points="1278.54,-102.65 1267.97,-101.93 1275.79,-109.09 1278.54,-102.65"/>
</g>
<!-- messageTools&#45;&gt;iconBase -->
<g id="edge87" class="edge">
<title>messageTools&#45;&gt;iconBase</title>
<path fill="none" stroke="black" d="M1469.07,-431.97C1458.02,-384.08 1426.61,-247.98 1413.2,-189.85"/>
<polygon fill="black" stroke="black" points="1416.57,-188.9 1410.91,-179.94 1409.75,-190.48 1416.57,-188.9"/>
</g>
<!-- messageTools&#45;&gt;pad -->
<g id="edge90" class="edge">
<title>messageTools&#45;&gt;pad</title>
<path fill="none" stroke="black" d="M1445.34,-433.91C1430.49,-424.63 1412.87,-411.55 1401,-396 1384.37,-374.21 1359.82,-301.25 1347.18,-261.45"/>
<polygon fill="black" stroke="black" points="1350.5,-260.36 1344.16,-251.87 1343.83,-262.46 1350.5,-260.36"/>
</g>
<!-- messageTools&#45;&gt;rdflib -->
<g id="edge91" class="edge">
<title>messageTools&#45;&gt;rdflib</title>
<path fill="none" stroke="black" d="M1531.69,-446.81C1872.31,-433.47 3584.97,-357.8 3726,-180 3843,-32.5 3986.28,-151.61 3459,-72 3173.65,-28.92 2242.03,-20.55 2038.51,-19.22"/>
<polygon fill="black" stroke="black" points="2038.31,-15.72 2028.29,-19.16 2038.27,-22.72 2038.31,-15.72"/>
</g>
<!-- messageTools&#45;&gt;ns -->
<g id="edge88" class="edge">
<title>messageTools&#45;&gt;ns</title>
<path fill="none" stroke="black" d="M1532.37,-448.24C1703.86,-445.58 2197.64,-434.7 2354,-396 2461.02,-369.51 2526.68,-358.28 2556,-252 2560.26,-236.58 2564.19,-229.75 2556,-216 2555.73,-215.55 2423.5,-144.16 2423,-144 2260.02,-93.23 2053.47,-89.4 1970.25,-90.19"/>
<polygon fill="black" stroke="black" points="1969.98,-86.69 1960.03,-90.31 1970.07,-93.69 1969.98,-86.69"/>
</g>
<!-- messageTools&#45;&gt;utils -->
<g id="edge94" class="edge">
<title>messageTools&#45;&gt;utils</title>
<path fill="none" stroke="black" d="M1464.65,-431.92C1459.67,-421.59 1453.31,-408.11 1448,-396 1413.35,-316.93 1423.68,-287.29 1375,-216 1366.52,-203.58 1354.69,-191.85 1344.1,-182.6"/>
<polygon fill="black" stroke="black" points="1346.21,-179.81 1336.31,-176.04 1341.7,-185.16 1346.21,-179.81"/>
</g>
<!-- messageTools&#45;&gt;widgets -->
<g id="edge95" class="edge">
<title>messageTools&#45;&gt;widgets</title>
<path fill="none" stroke="black" d="M1497.51,-433.53C1543.08,-403.65 1641.4,-333.67 1699,-252 1712.4,-233 1721.62,-208.15 1727.21,-189.54"/>
<polygon fill="black" stroke="black" points="1730.58,-190.49 1729.95,-179.91 1723.85,-188.57 1730.58,-190.49"/>
</g>
<!-- messageTools&#45;&gt;authn -->
<g id="edge86" class="edge">
<title>messageTools&#45;&gt;authn</title>
<path fill="none" stroke="black" d="M1521.9,-439.59C1605.47,-422.58 1780.21,-382.91 1919,-324 1977.31,-299.25 2003.55,-302.34 2042,-252 2055.62,-234.16 2061.52,-209.16 2064.07,-190.19"/>
<polygon fill="black" stroke="black" points="2067.57,-190.42 2065.2,-180.09 2060.61,-189.64 2067.57,-190.42"/>
</g>
<!-- messageTools&#45;&gt;style -->
<g id="edge93" class="edge">
<title>messageTools&#45;&gt;style</title>
<path fill="none" stroke="black" d="M1532.11,-447.66C1690.96,-443.64 2124.36,-429.81 2263,-396 2397.42,-363.22 2472.95,-373.57 2539,-252 2546.64,-237.94 2548.41,-228.94 2539,-216 2508.5,-174.05 2476.66,-197.95 2428,-180 2424.89,-178.85 2421.67,-177.61 2418.46,-176.34"/>
<polygon fill="black" stroke="black" points="2419.58,-173.02 2409,-172.5 2416.95,-179.51 2419.58,-173.02"/>
</g>
<!-- infinite -->
<g id="node5" class="node">
<title>infinite</title>
<ellipse fill="none" stroke="black" cx="887" cy="-594" rx="35.33" ry="18"/>
<text text-anchor="middle" x="887" y="-589.8" font-family="Times,serif" font-size="14.00">infinite</text>
</g>
<!-- infinite&#45;&gt;media_capture -->
<g id="edge54" class="edge">
<title>infinite&#45;&gt;media_capture</title>
<path fill="none" stroke="black" d="M894.33,-575.97C915.01,-527.88 973.94,-390.85 998.76,-333.13"/>
<polygon fill="black" stroke="black" points="1001.98,-334.51 1002.71,-323.94 995.55,-331.75 1001.98,-334.51"/>
</g>
<!-- infinite&#45;&gt;debug -->
<g id="edge3" class="edge">
<title>infinite&#45;&gt;debug</title>
<path fill="none" stroke="black" d="M851.76,-593.01C699.39,-592.76 101.84,-588.65 35,-540 0.63,-514.99 0,-493.5 0,-451 0,-451 0,-451 0,-161 0,-36.86 988.21,-21.21 1205.2,-19.27"/>
<polygon fill="black" stroke="black" points="1205.27,-22.77 1215.24,-19.19 1205.21,-15.77 1205.27,-22.77"/>
</g>
<!-- infinite&#45;&gt;message -->
<g id="edge62" class="edge">
<title>infinite&#45;&gt;message</title>
<path fill="none" stroke="black" d="M921.04,-588.93C1020.27,-577.08 1309.52,-542.53 1424.78,-528.76"/>
<polygon fill="black" stroke="black" points="1425.21,-532.23 1434.73,-527.57 1424.38,-525.28 1425.21,-532.23"/>
</g>
<!-- infinite&#45;&gt;bookmarks -->
<g id="edge63" class="edge">
<title>infinite&#45;&gt;bookmarks</title>
<path fill="none" stroke="black" d="M851.72,-592.79C771.66,-591.53 579.81,-583.89 536,-540 500.99,-504.92 502.68,-442.36 507.22,-406.42"/>
<polygon fill="black" stroke="black" points="510.74,-406.58 508.69,-396.18 503.81,-405.59 510.74,-406.58"/>
</g>
<!-- dateFolder -->
<g id="node7" class="node">
<title>dateFolder</title>
<ellipse fill="none" stroke="black" cx="436" cy="-162" rx="47.85" ry="18"/>
<text text-anchor="middle" x="436" y="-157.8" font-family="Times,serif" font-size="14.00">dateFolder</text>
</g>
<!-- infinite&#45;&gt;dateFolder -->
<g id="edge50" class="edge">
<title>infinite&#45;&gt;dateFolder</title>
<path fill="none" stroke="black" d="M851.74,-593.11C702.03,-593.27 123.82,-590.59 62,-540 30.29,-514.06 38,-491.97 38,-451 38,-451 38,-451 38,-305 38,-264.03 31.31,-243.14 62,-216 107.75,-175.54 284.93,-165.9 378.05,-163.65"/>
<polygon fill="black" stroke="black" points="378.24,-167.15 388.16,-163.43 378.08,-160.15 378.24,-167.15"/>
</g>
<!-- infinite&#45;&gt;store -->
<g id="edge57" class="edge">
<title>infinite&#45;&gt;store</title>
<path fill="none" stroke="black" d="M851.76,-592.06C733.92,-588.62 354.52,-575.02 238,-540 159.33,-516.36 76,-533.15 76,-451 76,-451 76,-451 76,-305 76,-203.22 189.36,-244.72 287,-216 376.17,-189.77 402.86,-202.63 493,-180 542.48,-167.58 552,-154.16 602,-144 829.34,-97.8 1109.55,-91.65 1209.45,-91"/>
<polygon fill="black" stroke="black" points="1209.66,-94.5 1219.64,-90.94 1209.62,-87.5 1209.66,-94.5"/>
</g>
<!-- infinite&#45;&gt;iconBase -->
<g id="edge52" class="edge">
<title>infinite&#45;&gt;iconBase</title>
<path fill="none" stroke="black" d="M851.97,-592.32C723.28,-588.87 284,-568.5 284,-451 284,-451 284,-451 284,-377 284,-317.17 334.95,-320.78 385,-288 448.21,-246.6 465.62,-234.01 539,-216 891.55,-129.46 997.85,-245 1355,-180 1358.72,-179.32 1362.55,-178.44 1366.35,-177.44"/>
<polygon fill="black" stroke="black" points="1367.65,-180.71 1376.28,-174.56 1365.71,-173.99 1367.65,-180.71"/>
</g>
<!-- infinite&#45;&gt;pad -->
<g id="edge55" class="edge">
<title>infinite&#45;&gt;pad</title>
<path fill="none" stroke="black" d="M905.28,-578.52C976.03,-522.48 1232.02,-319.73 1313.74,-255.01"/>
<polygon fill="black" stroke="black" points="1316.3,-257.45 1321.96,-248.5 1311.95,-251.96 1316.3,-257.45"/>
</g>
<!-- infinite&#45;&gt;rdflib -->
<g id="edge49" class="edge">
<title>infinite&#45;&gt;rdflib</title>
<path fill="none" stroke="black" d="M922.36,-592.7C1215.14,-590.21 3232.33,-572.38 3500,-540 3679.52,-518.29 3897,-631.82 3897,-451 3897,-451 3897,-451 3897,-161 3897,-65.33 3794.18,-93.68 3701,-72 3534.06,-33.16 2278.53,-21.28 2038.54,-19.31"/>
<polygon fill="black" stroke="black" points="2038.55,-15.81 2028.52,-19.23 2038.49,-22.81 2038.55,-15.81"/>
</g>
<!-- infinite&#45;&gt;rdflib -->
<g id="edge56" class="edge">
<title>infinite&#45;&gt;rdflib</title>
<path fill="none" stroke="black" d="M922.31,-592.73C1216.07,-590.36 3249.2,-572.51 3518,-540 3697.52,-518.29 3915,-631.82 3915,-451 3915,-451 3915,-451 3915,-161 3915,-65.33 3812.18,-93.68 3719,-72 3550.99,-32.91 2280.4,-21.13 2038.63,-19.28"/>
<polygon fill="black" stroke="black" points="2038.56,-15.78 2028.53,-19.2 2038.51,-22.78 2038.56,-15.78"/>
</g>
<!-- infinite&#45;&gt;ns -->
<g id="edge53" class="edge">
<title>infinite&#45;&gt;ns</title>
<path fill="none" stroke="black" d="M922.31,-593.19C1252.25,-594.72 3783,-601.58 3783,-451 3783,-451 3783,-451 3783,-233 3783,-189.45 3778.33,-168.02 3742,-144 3703.69,-118.67 2225.36,-95.38 1970.29,-91.55"/>
<polygon fill="black" stroke="black" points="1970.12,-88.05 1960.07,-91.4 1970.01,-95.05 1970.12,-88.05"/>
</g>
<!-- infinite&#45;&gt;utils -->
<g id="edge59" class="edge">
<title>infinite&#45;&gt;utils</title>
<path fill="none" stroke="black" d="M851.63,-592.23C726.08,-589.09 307.83,-575.66 261,-540 227.43,-514.45 228,-493.19 228,-451 228,-451 228,-451 228,-377 228,-236.52 361.76,-241.01 500,-216 797.19,-162.24 1164.46,-161.35 1281.48,-162.48"/>
<polygon fill="black" stroke="black" points="1281.66,-165.98 1291.69,-162.59 1281.73,-158.98 1281.66,-165.98"/>
</g>
<!-- infinite&#45;&gt;utils -->
<g id="edge61" class="edge">
<title>infinite&#45;&gt;utils</title>
<path fill="none" stroke="black" d="M851.8,-592.05C728.92,-588.6 324.98,-575.01 279,-540 245.43,-514.45 246,-493.19 246,-451 246,-451 246,-451 246,-377 246,-236.52 379.76,-241.01 518,-216 808.81,-163.39 1166.7,-161.41 1281.69,-162.41"/>
<polygon fill="black" stroke="black" points="1281.71,-165.91 1291.74,-162.51 1281.78,-158.91 1281.71,-165.91"/>
</g>
<!-- infinite&#45;&gt;widgets -->
<g id="edge60" class="edge">
<title>infinite&#45;&gt;widgets</title>
<path fill="none" stroke="black" d="M921.79,-590.37C1017.56,-583.08 1293.2,-561.69 1522,-540 1894.73,-504.66 2107.25,-679.32 2352,-396 2404.48,-335.25 2403.62,-260.79 2337,-216 2314.02,-200.55 1920.17,-174.62 1781.69,-165.93"/>
<polygon fill="black" stroke="black" points="1781.59,-162.42 1771.39,-165.29 1781.16,-169.41 1781.59,-162.42"/>
</g>
<!-- infinite&#45;&gt;authn -->
<g id="edge51" class="edge">
<title>infinite&#45;&gt;authn</title>
<path fill="none" stroke="black" d="M922.01,-592.12C1172.31,-585.62 2680,-542.63 2680,-451 2680,-451 2680,-451 2680,-377 2680,-254.73 2240.32,-186.15 2105.09,-167.95"/>
<polygon fill="black" stroke="black" points="2105.16,-164.43 2094.79,-166.58 2104.24,-171.37 2105.16,-164.43"/>
</g>
<!-- infinite&#45;&gt;style -->
<g id="edge58" class="edge">
<title>infinite&#45;&gt;style</title>
<path fill="none" stroke="black" d="M922.06,-592.5C1114.98,-589.62 2048.83,-574.1 2335,-540 2494.43,-521 2583.16,-588.73 2689,-468 2770.28,-375.28 2678.06,-280.53 2573,-216 2513.11,-179.21 2484.81,-204.69 2419,-180 2417.97,-179.61 2416.93,-179.2 2415.89,-178.77"/>
<polygon fill="black" stroke="black" points="2417.14,-175.49 2406.6,-174.43 2414.18,-181.83 2417.14,-175.49"/>
</g>
<!-- bookmarks&#45;&gt;media_capture -->
<g id="edge76" class="edge">
<title>bookmarks&#45;&gt;media_capture</title>
<path fill="none" stroke="black" d="M549.11,-366.05C557.56,-363.81 566.55,-361.65 575,-360 702.91,-335.08 854.39,-319.78 940.64,-312.38"/>
<polygon fill="black" stroke="black" points="941.16,-315.85 950.83,-311.52 940.57,-308.88 941.16,-315.85"/>
</g>
<!-- bookmarks&#45;&gt;debug -->
<g id="edge4" class="edge">
<title>bookmarks&#45;&gt;debug</title>
<path fill="none" stroke="black" d="M462.86,-375.12C345.59,-368.61 64.39,-340.01 138,-216 206.23,-101.07 273.59,-109.06 402,-72 555.26,-27.77 1056.03,-20.44 1204.89,-19.24"/>
<polygon fill="black" stroke="black" points="1205.02,-22.73 1215,-19.16 1204.97,-15.73 1205.02,-22.73"/>
</g>
<!-- bookmarks&#45;&gt;store -->
<g id="edge79" class="edge">
<title>bookmarks&#45;&gt;store</title>
<path fill="none" stroke="black" d="M489.37,-361.68C462.29,-343.51 415.42,-312.61 374,-288 345.27,-270.93 325.06,-280.73 308,-252 299.83,-238.24 297.31,-227.91 308,-216 357.57,-160.77 566.84,-192.47 640,-180 709.29,-168.19 724.76,-156.1 794,-144 947.27,-117.21 1132.16,-100.32 1209.81,-93.92"/>
<polygon fill="black" stroke="black" points="1210.36,-97.38 1220.04,-93.08 1209.79,-90.41 1210.36,-97.38"/>
</g>
<!-- bookmarks&#45;&gt;iconBase -->
<g id="edge74" class="edge">
<title>bookmarks&#45;&gt;iconBase</title>
<path fill="none" stroke="black" d="M524.73,-360.39C552.46,-325.75 622.23,-246.47 702,-216 837.76,-164.14 1212.16,-206.81 1355,-180 1358.72,-179.3 1362.54,-178.41 1366.34,-177.4"/>
<polygon fill="black" stroke="black" points="1367.65,-180.66 1376.27,-174.51 1365.69,-173.94 1367.65,-180.66"/>
</g>
<!-- bookmarks&#45;&gt;pad -->
<g id="edge77" class="edge">
<title>bookmarks&#45;&gt;pad</title>
<path fill="none" stroke="black" d="M561.31,-376.36C660.73,-374.2 891.89,-364.81 1081,-324 1165.1,-305.85 1259.7,-268.67 1307.59,-248.59"/>
<polygon fill="black" stroke="black" points="1309.23,-251.69 1317.08,-244.58 1306.51,-245.25 1309.23,-251.69"/>
</g>
<!-- bookmarks&#45;&gt;rdflib -->
<g id="edge78" class="edge">
<title>bookmarks&#45;&gt;rdflib</title>
<path fill="none" stroke="black" d="M473.63,-366.53C397.22,-343.87 238.2,-286.58 297,-216 325.34,-181.98 449.73,-189.43 493,-180 684.26,-138.3 726.19,-99.54 920,-72 1149.17,-39.44 1735.5,-88.23 1961,-36 1963.32,-35.46 1965.67,-34.78 1968,-34.01"/>
<polygon fill="black" stroke="black" points="1969.33,-37.25 1977.4,-30.38 1966.81,-30.72 1969.33,-37.25"/>
</g>
<!-- bookmarks&#45;&gt;ns -->
<g id="edge75" class="edge">
<title>bookmarks&#45;&gt;ns</title>
<path fill="none" stroke="black" d="M504.85,-360.03C492.25,-327.13 470.86,-254.56 509,-216 520.61,-204.26 1082.56,-145.52 1099,-144 1406.15,-115.52 1778.37,-97.79 1895.72,-92.6"/>
<polygon fill="black" stroke="black" points="1896.12,-96.08 1905.96,-92.15 1895.81,-89.09 1896.12,-96.08"/>
</g>
<!-- bookmarks&#45;&gt;utils -->
<g id="edge81" class="edge">
<title>bookmarks&#45;&gt;utils</title>
<path fill="none" stroke="black" d="M508.5,-360.04C502.74,-326.85 495.6,-253.27 536,-216 563.72,-190.43 1129.32,-169.44 1281.55,-164.24"/>
<polygon fill="black" stroke="black" points="1281.91,-167.73 1291.78,-163.89 1281.67,-160.73 1281.91,-167.73"/>
</g>
<!-- bookmarks&#45;&gt;widgets -->
<g id="edge82" class="edge">
<title>bookmarks&#45;&gt;widgets</title>
<path fill="none" stroke="black" d="M538.09,-362.45C553.58,-352.92 572.89,-339.4 587,-324 624.55,-283.03 602.44,-244.74 650,-216 727.01,-169.46 1369.15,-184.78 1459,-180 1539.1,-175.74 1632.26,-169.77 1687,-166.15"/>
<polygon fill="black" stroke="black" points="1687.35,-169.64 1697.09,-165.48 1686.88,-162.65 1687.35,-169.64"/>
</g>
<!-- bookmarks&#45;&gt;authn -->
<g id="edge73" class="edge">
<title>bookmarks&#45;&gt;authn</title>
<path fill="none" stroke="black" d="M544.2,-364.32C564.79,-355.17 591.24,-341.38 611,-324 655.26,-285.06 636.05,-243.86 688,-216 741.54,-187.29 1720.31,-182.81 1781,-180 1868.68,-175.94 1971.43,-169.36 2026.45,-165.69"/>
<polygon fill="black" stroke="black" points="2026.73,-169.18 2036.47,-165.02 2026.26,-162.2 2026.73,-169.18"/>
</g>
<!-- bookmarks&#45;&gt;style -->
<g id="edge80" class="edge">
<title>bookmarks&#45;&gt;style</title>
<path fill="none" stroke="black" d="M550.53,-366.53C576.98,-358.04 611.88,-344.14 638,-324 661.97,-305.52 694.02,-229.73 721,-216 789.55,-181.11 2028.16,-183.31 2105,-180 2192.97,-176.21 2296.25,-169.37 2350.1,-165.63"/>
<polygon fill="black" stroke="black" points="2350.46,-169.11 2360.19,-164.92 2349.97,-162.13 2350.46,-169.11"/>
</g>
<!-- dateFolder&#45;&gt;debug -->
<g id="edge5" class="edge">
<title>dateFolder&#45;&gt;debug</title>
<path fill="none" stroke="black" d="M448.75,-144.31C465.95,-123.22 498.77,-87.78 536,-72 657.64,-20.45 1070.8,-18.02 1204.72,-18.63"/>
<polygon fill="black" stroke="black" points="1204.96,-22.14 1214.97,-18.69 1204.99,-15.14 1204.96,-22.14"/>
</g>
<!-- dateFolder&#45;&gt;store -->
<g id="edge83" class="edge">
<title>dateFolder&#45;&gt;store</title>
<path fill="none" stroke="black" d="M480.38,-155.03C507.41,-151.52 542.66,-147.16 574,-144 815.86,-119.59 1107.58,-99.94 1209.61,-93.37"/>
<polygon fill="black" stroke="black" points="1209.96,-96.85 1219.72,-92.72 1209.51,-89.86 1209.96,-96.85"/>
</g>
<!-- dateFolder&#45;&gt;rdflib -->
<g id="edge85" class="edge">
<title>dateFolder&#45;&gt;rdflib</title>
<path fill="none" stroke="black" d="M467.02,-148.08C518.21,-127.47 624.1,-87.86 718,-72 990.48,-25.98 1691.62,-97.6 1961,-36 1963.32,-35.47 1965.67,-34.8 1968,-34.02"/>
<polygon fill="black" stroke="black" points="1969.33,-37.26 1977.4,-30.4 1966.81,-30.73 1969.33,-37.26"/>
</g>
<!-- dateFolder&#45;&gt;ns -->
<g id="edge84" class="edge">
<title>dateFolder&#45;&gt;ns</title>
<path fill="none" stroke="black" d="M483.2,-158.74C551.68,-155.48 682.59,-149.24 794,-144 1227.13,-123.64 1752.94,-99.32 1895.72,-92.72"/>
<polygon fill="black" stroke="black" points="1896.27,-96.2 1906.09,-92.24 1895.94,-89.21 1896.27,-96.2"/>
</g>
<!-- preferences -->
<g id="node8" class="node">
<title>preferences</title>
<ellipse fill="none" stroke="black" cx="1859" cy="-306" rx="50.71" ry="18"/>
<text text-anchor="middle" x="1859" y="-301.8" font-family="Times,serif" font-size="14.00">preferences</text>
</g>
<!-- preferences&#45;&gt;debug -->
<g id="edge6" class="edge">
<title>preferences&#45;&gt;debug</title>
<path fill="none" stroke="black" d="M1859.43,-287.84C1859.25,-253.95 1853.44,-178.7 1808,-144 1725.04,-80.65 1402.98,-37.36 1288.04,-23.65"/>
<polygon fill="black" stroke="black" points="1288.24,-20.15 1277.9,-22.45 1287.42,-27.1 1288.24,-20.15"/>
</g>
<!-- preferences&#45;&gt;store -->
<g id="edge97" class="edge">
<title>preferences&#45;&gt;store</title>
<path fill="none" stroke="black" d="M1853.22,-288.04C1840.02,-250.34 1806.77,-161.48 1781,-144 1689.17,-81.73 1390.32,-136.17 1283,-108 1281.04,-107.49 1279.07,-106.87 1277.1,-106.18"/>
<polygon fill="black" stroke="black" points="1278.03,-102.78 1267.45,-102.24 1275.38,-109.26 1278.03,-102.78"/>
</g>
<!-- preferences&#45;&gt;pad -->
<g id="edge101" class="edge">
<title>preferences&#45;&gt;pad</title>
<path fill="none" stroke="black" d="M1812.4,-298.73C1710.02,-284.95 1467.31,-252.27 1375.26,-239.88"/>
<polygon fill="black" stroke="black" points="1375.68,-236.41 1365.3,-238.54 1374.74,-243.34 1375.68,-236.41"/>
</g>
<!-- preferences&#45;&gt;ns -->
<g id="edge98" class="edge">
<title>preferences&#45;&gt;ns</title>
<path fill="none" stroke="black" d="M1870.26,-288.42C1876.76,-278.26 1884.67,-264.79 1890,-252 1908.91,-206.66 1921.65,-150.63 1928.09,-118.04"/>
<polygon fill="black" stroke="black" points="1931.58,-118.42 1930.03,-107.94 1924.71,-117.1 1931.58,-118.42"/>
</g>
<!-- preferences&#45;&gt;widgets -->
<g id="edge100" class="edge">
<title>preferences&#45;&gt;widgets</title>
<path fill="none" stroke="black" d="M1844.66,-288.71C1822.62,-263.67 1780.31,-215.6 1754.87,-186.71"/>
<polygon fill="black" stroke="black" points="1757.41,-184.29 1748.17,-179.1 1752.15,-188.92 1757.41,-184.29"/>
</g>
<!-- preferences&#45;&gt;authn -->
<g id="edge99" class="edge">
<title>preferences&#45;&gt;authn</title>
<path fill="none" stroke="black" d="M1905.25,-298.26C1938.76,-291.4 1983.54,-277.91 2015,-252 2034.99,-235.53 2048.73,-209.05 2056.86,-189.25"/>
<polygon fill="black" stroke="black" points="2060.15,-190.46 2060.51,-179.87 2053.63,-187.92 2060.15,-190.46"/>
</g>
<!-- store&#45;&gt;debug -->
<g id="edge7" class="edge">
<title>store&#45;&gt;debug</title>
<path fill="none" stroke="black" d="M1247,-71.7C1247,-63.98 1247,-54.71 1247,-46.11"/>
<polygon fill="black" stroke="black" points="1250.5,-46.1 1247,-36.1 1243.5,-46.1 1250.5,-46.1"/>
</g>
<!-- store&#45;&gt;rdflib -->
<g id="edge108" class="edge">
<title>store&#45;&gt;rdflib</title>
<path fill="none" stroke="black" d="M1267.43,-77.69C1272.39,-75.41 1277.77,-73.32 1283,-72 1575.59,1.81 1667.67,-106.81 1961,-36 1963.31,-35.44 1965.66,-34.75 1967.99,-33.96"/>
<polygon fill="black" stroke="black" points="1969.33,-37.19 1977.38,-30.31 1966.79,-30.67 1969.33,-37.19"/>
</g>
<!-- create -->
<g id="node10" class="node">
<title>create</title>
<ellipse fill="none" stroke="black" cx="2223" cy="-378" rx="31.42" ry="18"/>
<text text-anchor="middle" x="2223" y="-373.8" font-family="Times,serif" font-size="14.00">create</text>
</g>
<!-- create&#45;&gt;debug -->
<g id="edge8" class="edge">
<title>create&#45;&gt;debug</title>
<path fill="none" stroke="black" d="M2226.11,-359.99C2230.56,-340.2 2240.58,-307.73 2261,-288 2292.87,-257.2 2328.95,-288.56 2354,-252 2363.04,-238.8 2362.67,-229.45 2354,-216 2235.5,-32.25 1476.73,-19.24 1288.97,-18.85"/>
<polygon fill="black" stroke="black" points="1288.95,-15.35 1278.95,-18.84 1288.94,-22.35 1288.95,-15.35"/>
</g>
<!-- create&#45;&gt;store -->
<g id="edge116" class="edge">
<title>create&#45;&gt;store</title>
<path fill="none" stroke="black" d="M2218.76,-360C2214.97,-340.52 2212.18,-308.64 2228,-288 2259.04,-247.51 2307.11,-293.35 2337,-252 2346.37,-239.03 2346.37,-228.97 2337,-216 2307.11,-174.65 2276.03,-197.21 2228,-180 2186.28,-165.05 2178.39,-153.06 2135,-144 1763.99,-66.56 1650.99,-198.72 1283,-108 1281.04,-107.52 1279.05,-106.92 1277.08,-106.25"/>
<polygon fill="black" stroke="black" points="1278,-102.85 1267.42,-102.36 1275.39,-109.34 1278,-102.85"/>
</g>
<!-- create&#45;&gt;iconBase -->
<g id="edge114" class="edge">
<title>create&#45;&gt;iconBase</title>
<path fill="none" stroke="black" d="M2191.88,-376.22C2117.04,-373.75 1921.52,-363.68 1764,-324 1680.05,-302.85 1661.93,-287.57 1583,-252 1532.85,-229.4 1476.34,-200.12 1441.19,-181.44"/>
<polygon fill="black" stroke="black" points="1442.77,-178.32 1432.3,-176.7 1439.48,-184.49 1442.77,-178.32"/>
</g>
<!-- error -->
<g id="node20" class="node">
<title>error</title>
<ellipse fill="none" stroke="black" cx="2926" cy="-162" rx="27.08" ry="18"/>
<text text-anchor="middle" x="2926" y="-157.8" font-family="Times,serif" font-size="14.00">error</text>
</g>
<!-- create&#45;&gt;error -->
<g id="edge109" class="edge">
<title>create&#45;&gt;error</title>
<path fill="none" stroke="black" d="M2251.33,-370.24C2291.02,-360.65 2365.34,-342.21 2428,-324 2604.55,-272.69 2813.13,-201.91 2892.81,-174.49"/>
<polygon fill="black" stroke="black" points="2894,-177.78 2902.31,-171.22 2891.72,-171.16 2894,-177.78"/>
</g>
<!-- create&#45;&gt;ns -->
<g id="edge115" class="edge">
<title>create&#45;&gt;ns</title>
<path fill="none" stroke="black" d="M2253.26,-373.54C2284.19,-368.33 2331.24,-355.45 2357,-324 2387.64,-286.6 2396.06,-256.72 2370,-216 2325.89,-147.06 2066.32,-107.77 1969.44,-95.34"/>
<polygon fill="black" stroke="black" points="1969.88,-91.87 1959.52,-94.09 1969,-98.82 1969.88,-91.87"/>
</g>
<!-- index -->
<g id="node22" class="node">
<title>index</title>
<ellipse fill="none" stroke="black" cx="3014" cy="-306" rx="29.51" ry="18"/>
<text text-anchor="middle" x="3014" y="-301.8" font-family="Times,serif" font-size="14.00">index</text>
</g>
<!-- create&#45;&gt;index -->
<g id="edge110" class="edge">
<title>create&#45;&gt;index</title>
<path fill="none" stroke="black" d="M2254.01,-374.26C2377.75,-363.31 2836.18,-322.74 2974.34,-310.51"/>
<polygon fill="black" stroke="black" points="2974.82,-313.98 2984.48,-309.61 2974.21,-307.01 2974.82,-313.98"/>
</g>
<!-- create&#45;&gt;utils -->
<g id="edge111" class="edge">
<title>create&#45;&gt;utils</title>
<path fill="none" stroke="black" d="M2191.94,-375.7C2087.46,-370.85 1750.65,-352.58 1647,-324 1575.33,-304.24 1563.09,-284.05 1496,-252 1443.3,-226.83 1382.22,-197.59 1347.18,-179.69"/>
<polygon fill="black" stroke="black" points="1348.51,-176.44 1338.02,-174.96 1345.29,-182.66 1348.51,-176.44"/>
</g>
<!-- create&#45;&gt;utils -->
<g id="edge118" class="edge">
<title>create&#45;&gt;utils</title>
<path fill="none" stroke="black" d="M2192.07,-375.35C2090.09,-370.01 1766.27,-351.92 1665,-324 1593.33,-304.24 1581.09,-284.05 1514,-252 1457.12,-224.83 1390.49,-192.93 1351.51,-175.66"/>
<polygon fill="black" stroke="black" points="1352.78,-172.4 1342.21,-171.6 1349.97,-178.81 1352.78,-172.4"/>
</g>
<!-- create&#45;&gt;widgets -->
<g id="edge119" class="edge">
<title>create&#45;&gt;widgets</title>
<path fill="none" stroke="black" d="M2191.59,-377.08C2104.17,-376.68 1860.44,-371.27 1799,-324 1756.71,-291.46 1741.82,-226.94 1736.67,-190.22"/>
<polygon fill="black" stroke="black" points="1740.13,-189.71 1735.41,-180.22 1733.18,-190.58 1740.13,-189.71"/>
</g>
<!-- create&#45;&gt;authn -->
<g id="edge113" class="edge">
<title>create&#45;&gt;authn</title>
<path fill="none" stroke="black" d="M2211.46,-361.26C2184.24,-324.16 2115.91,-231.03 2083.53,-186.9"/>
<polygon fill="black" stroke="black" points="2086.3,-184.75 2077.56,-178.76 2080.65,-188.89 2086.3,-184.75"/>
</g>
<!-- create&#45;&gt;style -->
<g id="edge117" class="edge">
<title>create&#45;&gt;style</title>
<path fill="none" stroke="black" d="M2251.92,-370.95C2286.15,-363.09 2344.29,-347.53 2390,-324 2413.71,-311.79 2414.91,-301.35 2438,-288 2473.16,-267.67 2499.64,-285.91 2522,-252 2530.81,-238.64 2531.07,-229.18 2522,-216 2496.65,-179.14 2469.56,-196.57 2428,-180 2425.09,-178.84 2422.07,-177.62 2419.04,-176.38"/>
<polygon fill="black" stroke="black" points="2420.09,-173.03 2409.51,-172.46 2417.43,-179.5 2420.09,-173.03"/>
</g>
<!-- solid_ui -->
<g id="node35" class="node">
<title>solid_ui</title>
<ellipse fill="none" stroke="black" cx="2309" cy="-306" rx="38.71" ry="18"/>
<text text-anchor="middle" x="2309" y="-301.8" font-family="Times,serif" font-size="14.00">solid_ui</text>
</g>
<!-- create&#45;&gt;solid_ui -->
<g id="edge112" class="edge">
<title>create&#45;&gt;solid_ui</title>
<path fill="none" stroke="black" d="M2240.4,-362.83C2252.52,-352.98 2268.89,-339.65 2282.6,-328.49"/>
<polygon fill="black" stroke="black" points="2285.19,-330.9 2290.73,-321.87 2280.77,-325.47 2285.19,-330.9"/>
</g>
<!-- folders -->
<g id="node11" class="node">
<title>folders</title>
<ellipse fill="none" stroke="black" cx="1183" cy="-234" rx="34.83" ry="18"/>
<text text-anchor="middle" x="1183" y="-229.8" font-family="Times,serif" font-size="14.00">folders</text>
</g>
<!-- folders&#45;&gt;debug -->
<g id="edge9" class="edge">
<title>folders&#45;&gt;debug</title>
<path fill="none" stroke="black" d="M1152.15,-225.78C1111.24,-215.71 1041.89,-196.81 1022,-180 983.13,-147.16 951.77,-111.37 984,-72 1011.45,-38.47 1137.9,-25.68 1204.97,-21.2"/>
<polygon fill="black" stroke="black" points="1205.44,-24.68 1215.2,-20.55 1204.99,-17.69 1205.44,-24.68"/>
</g>
<!-- folders&#45;&gt;store -->
<g id="edge123" class="edge">
<title>folders&#45;&gt;store</title>
<path fill="none" stroke="black" d="M1187.06,-216.08C1191.78,-197.78 1200.42,-168.01 1212,-144 1216.81,-134.02 1223.24,-123.71 1229.27,-114.86"/>
<polygon fill="black" stroke="black" points="1232.21,-116.76 1235.1,-106.57 1226.49,-112.74 1232.21,-116.76"/>
</g>
<!-- folders&#45;&gt;iconBase -->
<g id="edge120" class="edge">
<title>folders&#45;&gt;iconBase</title>
<path fill="none" stroke="black" d="M1212.26,-224.15C1246.53,-213.75 1304.97,-195.89 1355,-180 1358.27,-178.96 1361.65,-177.88 1365.04,-176.78"/>
<polygon fill="black" stroke="black" points="1366.14,-180.11 1374.57,-173.7 1363.98,-173.45 1366.14,-180.11"/>
</g>
<!-- folders&#45;&gt;rdflib -->
<g id="edge122" class="edge">
<title>folders&#45;&gt;rdflib</title>
<path fill="none" stroke="black" d="M1179.73,-215.91C1174.37,-182.13 1168.22,-107.08 1211,-72 1275.51,-19.09 1879.85,-55.37 1961,-36 1963.31,-35.45 1965.66,-34.76 1967.99,-33.97"/>
<polygon fill="black" stroke="black" points="1969.33,-37.21 1977.39,-30.33 1966.8,-30.68 1969.33,-37.21"/>
</g>
<!-- folders&#45;&gt;ns -->
<g id="edge121" class="edge">
<title>folders&#45;&gt;ns</title>
<path fill="none" stroke="black" d="M1195.18,-217.07C1212.23,-196.12 1245.39,-160.09 1283,-144 1394.53,-96.28 1774.76,-91.31 1895.73,-90.96"/>
<polygon fill="black" stroke="black" points="1895.96,-94.46 1905.96,-90.94 1895.95,-87.46 1895.96,-94.46"/>
</g>
<!-- folders&#45;&gt;utils -->
<g id="edge125" class="edge">
<title>folders&#45;&gt;utils</title>
<path fill="none" stroke="black" d="M1206.69,-220.81C1229.63,-209 1264.5,-191.05 1289.29,-178.29"/>
<polygon fill="black" stroke="black" points="1290.96,-181.37 1298.25,-173.68 1287.76,-175.14 1290.96,-181.37"/>
</g>
<!-- folders&#45;&gt;widgets -->
<g id="edge124" class="edge">
<title>folders&#45;&gt;widgets</title>
<path fill="none" stroke="black" d="M1215.83,-228.18C1239.93,-224.69 1273.48,-219.91 1303,-216 1443.01,-197.48 1608.92,-177.68 1687.83,-168.39"/>
<polygon fill="black" stroke="black" points="1688.41,-171.85 1697.93,-167.21 1687.59,-164.9 1688.41,-171.85"/>
</g>
<!-- iconBase&#45;&gt;debug -->
<g id="edge10" class="edge">
<title>iconBase&#45;&gt;debug</title>
<path fill="none" stroke="black" d="M1400.6,-143.94C1392.53,-124.4 1377.02,-92.47 1355,-72 1334.75,-53.17 1306.56,-39.64 1284.05,-30.96"/>
<polygon fill="black" stroke="black" points="1285.07,-27.61 1274.48,-27.43 1282.65,-34.18 1285.07,-27.61"/>
</g>
<!-- table -->
<g id="node13" class="node">
<title>table</title>
<ellipse fill="none" stroke="black" cx="1065" cy="-234" rx="27.09" ry="18"/>
<text text-anchor="middle" x="1065" y="-229.8" font-family="Times,serif" font-size="14.00">table</text>
</g>
<!-- table&#45;&gt;debug -->
<g id="edge11" class="edge">
<title>table&#45;&gt;debug</title>
<path fill="none" stroke="black" d="M1039.66,-227.16C1025.37,-223.87 1007.19,-219.69 991,-216 915.37,-198.75 792.19,-210.58 832,-144 866.69,-85.97 902.26,-94.53 966,-72 1048.23,-42.94 1149.93,-28.8 1205.66,-22.8"/>
<polygon fill="black" stroke="black" points="1206.26,-26.25 1215.84,-21.73 1205.53,-19.29 1206.26,-26.25"/>
</g>
<!-- table&#45;&gt;store -->
<g id="edge129" class="edge">
<title>table&#45;&gt;store</title>
<path fill="none" stroke="black" d="M1042.45,-223.7C1008.74,-209.7 948.83,-184.35 946,-180 937.29,-166.58 935.71,-156.26 946,-144 962.86,-123.91 1133.2,-103.24 1209.9,-94.87"/>
<polygon fill="black" stroke="black" points="1210.51,-98.32 1220.08,-93.77 1209.76,-91.36 1210.51,-98.32"/>
</g>
<!-- table&#45;&gt;iconBase -->
<g id="edge126" class="edge">
<title>table&#45;&gt;iconBase</title>
<path fill="none" stroke="black" d="M1090.26,-226.8C1104.53,-223.39 1122.71,-219.23 1139,-216 1234.47,-197.1 1260.48,-203.19 1355,-180 1358.42,-179.16 1361.95,-178.21 1365.47,-177.19"/>
<polygon fill="black" stroke="black" points="1366.77,-180.45 1375.32,-174.2 1364.73,-173.76 1366.77,-180.45"/>
</g>
<!-- table&#45;&gt;rdflib -->
<g id="edge132" class="edge">
<title>table&#45;&gt;rdflib</title>
<path fill="none" stroke="black" d="M1042.46,-223.6C1036.47,-221.11 1029.99,-218.44 1024,-216 984.1,-199.75 958.15,-215.67 934,-180 925.03,-166.75 924.39,-156.79 934,-144 1002.92,-52.22 1068.77,-90.78 1182,-72 1523.92,-15.29 1623.81,-116.17 1961,-36 1963.31,-35.45 1965.66,-34.76 1967.99,-33.98"/>
<polygon fill="black" stroke="black" points="1969.33,-37.21 1977.39,-30.34 1966.8,-30.69 1969.33,-37.21"/>
</g>
<!-- table&#45;&gt;ns -->
<g id="edge128" class="edge">
<title>table&#45;&gt;ns</title>
<path fill="none" stroke="black" d="M1075.37,-217.08C1090.9,-193.8 1120.06,-152.34 1136,-144 1203.81,-108.53 1747.18,-94.83 1895.64,-91.72"/>
<polygon fill="black" stroke="black" points="1896.1,-95.21 1906.03,-91.51 1895.96,-88.21 1896.1,-95.21"/>
</g>
<!-- table&#45;&gt;utils -->
<g id="edge131" class="edge">
<title>table&#45;&gt;utils</title>
<path fill="none" stroke="black" d="M1089.82,-226.16C1135.46,-213.58 1232.79,-186.76 1284.71,-172.45"/>
<polygon fill="black" stroke="black" points="1285.75,-175.8 1294.46,-169.76 1283.89,-169.05 1285.75,-175.8"/>
</g>
<!-- table&#45;&gt;widgets -->
<g id="edge130" class="edge">
<title>table&#45;&gt;widgets</title>
<path fill="none" stroke="black" d="M1089.84,-226.4C1104.12,-222.83 1122.47,-218.62 1139,-216 1244.5,-199.26 1565.47,-175.14 1686.84,-166.36"/>
<polygon fill="black" stroke="black" points="1687.21,-169.84 1696.93,-165.63 1686.71,-162.86 1687.21,-169.84"/>
</g>
<!-- log -->
<g id="node36" class="node">
<title>log</title>
<ellipse fill="none" stroke="black" cx="1319" cy="-90" rx="27" ry="18"/>
<text text-anchor="middle" x="1319" y="-85.8" font-family="Times,serif" font-size="14.00">log</text>
</g>
<!-- table&#45;&gt;log -->
<g id="edge127" class="edge">
<title>table&#45;&gt;log</title>
<path fill="none" stroke="black" d="M1066.44,-215.76C1069.1,-195.43 1076.64,-162.13 1098,-144 1161.85,-89.78 1203.4,-134.09 1283,-108 1284.92,-107.37 1286.87,-106.66 1288.82,-105.9"/>
<polygon fill="black" stroke="black" points="1290.61,-108.95 1298.42,-101.79 1287.85,-102.51 1290.61,-108.95"/>
</g>
<!-- pad&#45;&gt;debug -->
<g id="edge12" class="edge">
<title>pad&#45;&gt;debug</title>
<path fill="none" stroke="black" d="M1318.28,-222.05C1301.36,-212.45 1277.46,-197.34 1260,-180 1232.54,-152.72 1222.39,-144.99 1211,-108 1206.29,-92.71 1206.3,-87.29 1211,-72 1214.24,-61.47 1220.35,-51.16 1226.64,-42.48"/>
<polygon fill="black" stroke="black" points="1229.55,-44.44 1232.88,-34.38 1224,-40.16 1229.55,-44.44"/>
</g>
<!-- pad&#45;&gt;store -->
<g id="edge141" class="edge">
<title>pad&#45;&gt;store</title>
<path fill="none" stroke="black" d="M1321.69,-219.96C1309.54,-210.09 1293.64,-195.59 1283,-180 1269.84,-160.71 1260.31,-135.89 1254.37,-117.36"/>
<polygon fill="black" stroke="black" points="1257.71,-116.33 1251.44,-107.79 1251.02,-118.38 1257.71,-116.33"/>
</g>
<!-- pad&#45;&gt;iconBase -->
<g id="edge139" class="edge">
<title>pad&#45;&gt;iconBase</title>
<path fill="none" stroke="black" d="M1353.09,-218.5C1362.11,-209.22 1374,-196.97 1384.33,-186.34"/>
<polygon fill="black" stroke="black" points="1387.05,-188.56 1391.51,-178.95 1382.03,-183.68 1387.05,-188.56"/>
</g>
<!-- pad&#45;&gt;rdflib -->
<g id="edge137" class="edge">
<title>pad&#45;&gt;rdflib</title>
<path fill="none" stroke="black" d="M1362.06,-224.06C1386.6,-214.27 1426.31,-197.59 1459,-180 1485.06,-165.98 1488.84,-157.82 1515,-144 1587.55,-105.68 1605.82,-93.5 1685,-72 1804.38,-39.58 1841.95,-69.61 1961,-36 1963.15,-35.39 1965.33,-34.69 1967.51,-33.91"/>
<polygon fill="black" stroke="black" points="1968.9,-37.13 1976.9,-30.18 1966.31,-30.62 1968.9,-37.13"/>
</g>
<!-- pad&#45;&gt;ns -->
<g id="edge140" class="edge">
<title>pad&#45;&gt;ns</title>
<path fill="none" stroke="black" d="M1362.83,-225.28C1414.41,-208.76 1540.43,-169.43 1648,-144 1736.62,-123.05 1842.34,-105.24 1896.72,-96.59"/>
<polygon fill="black" stroke="black" points="1897.56,-100.01 1906.89,-94.99 1896.47,-93.09 1897.56,-100.01"/>
</g>
<!-- pad&#45;&gt;utils -->
<g id="edge143" class="edge">
<title>pad&#45;&gt;utils</title>
<path fill="none" stroke="black" d="M1334.16,-216.05C1331.9,-208.14 1329.15,-198.54 1326.63,-189.69"/>
<polygon fill="black" stroke="black" points="1329.91,-188.44 1323.8,-179.79 1323.18,-190.37 1329.91,-188.44"/>
</g>
<!-- pad&#45;&gt;widgets -->
<g id="edge142" class="edge">
<title>pad&#45;&gt;widgets</title>
<path fill="none" stroke="black" d="M1364.92,-228.41C1430.99,-216.7 1606.34,-185.62 1689.3,-170.92"/>
<polygon fill="black" stroke="black" points="1689.95,-174.36 1699.18,-169.17 1688.73,-167.47 1689.95,-174.36"/>
</g>
<!-- pad&#45;&gt;authn -->
<g id="edge138" class="edge">
<title>pad&#45;&gt;authn</title>
<path fill="none" stroke="black" d="M1365.74,-230.43C1475.98,-219.81 1895.62,-179.41 2026.66,-166.79"/>
<polygon fill="black" stroke="black" points="2027.04,-170.27 2036.66,-165.82 2026.37,-163.3 2027.04,-170.27"/>
</g>
<!-- peoplePicker -->
<g id="node15" class="node">
<title>peoplePicker</title>
<ellipse fill="none" stroke="black" cx="2930" cy="-234" rx="56.04" ry="18"/>
<text text-anchor="middle" x="2930" y="-229.8" font-family="Times,serif" font-size="14.00">peoplePicker</text>
</g>
<!-- peoplePicker&#45;&gt;debug -->
<g id="edge16" class="edge">
<title>peoplePicker&#45;&gt;debug</title>
<path fill="none" stroke="black" d="M2889.25,-221.58C2881.25,-219.56 2872.89,-217.59 2865,-216 2754.09,-193.65 2716.33,-226.08 2613,-180 2590.24,-169.85 2592.25,-155.24 2570,-144 2509.58,-113.47 2481.46,-140.37 2422,-108 2401.57,-96.88 2405.41,-81.11 2384,-72 2332.7,-50.16 1487.99,-25.63 1288.83,-20.13"/>
<polygon fill="black" stroke="black" points="1288.86,-16.63 1278.77,-19.86 1288.67,-23.63 1288.86,-16.63"/>
</g>
<!-- peoplePicker&#45;&gt;store -->
<g id="edge21" class="edge">
<title>peoplePicker&#45;&gt;store</title>
<path fill="none" stroke="black" d="M2889.65,-221.39C2881.54,-219.35 2873.04,-217.43 2865,-216 2701.9,-186.95 2653.07,-226.26 2494,-180 2460.03,-170.12 2457.28,-152.77 2423,-144 2177.45,-81.19 1529.41,-167.35 1283,-108 1281.03,-107.53 1279.05,-106.94 1277.07,-106.27"/>
<polygon fill="black" stroke="black" points="1277.99,-102.87 1267.41,-102.4 1275.39,-109.37 1277.99,-102.87"/>
</g>
<!-- peoplePicker&#45;&gt;iconBase -->
<g id="edge19" class="edge">
<title>peoplePicker&#45;&gt;iconBase</title>
<path fill="none" stroke="black" d="M2890.42,-221.13C2882.09,-219.07 2873.31,-217.2 2865,-216 2605.78,-178.63 1948.63,-191.94 1687,-180 1607.31,-176.36 1514.96,-170.42 1458.78,-166.61"/>
<polygon fill="black" stroke="black" points="1458.94,-163.11 1448.72,-165.93 1458.46,-170.1 1458.94,-163.11"/>
</g>
<!-- escape_html -->
<g id="node16" class="node">
<title>escape_html</title>
<ellipse fill="none" stroke="black" cx="2789" cy="-162" rx="54.11" ry="18"/>
<text text-anchor="middle" x="2789" y="-157.8" font-family="Times,serif" font-size="14.00">escape_html</text>
</g>
<!-- peoplePicker&#45;&gt;escape_html -->
<g id="edge13" class="edge">
<title>peoplePicker&#45;&gt;escape_html</title>
<path fill="none" stroke="black" d="M2900.78,-218.5C2879.52,-207.94 2850.51,-193.54 2827.37,-182.05"/>
<polygon fill="black" stroke="black" points="2828.69,-178.8 2818.18,-177.49 2825.58,-185.07 2828.69,-178.8"/>
</g>
<!-- node_uuid -->
<g id="node17" class="node">
<title>node_uuid</title>
<ellipse fill="none" stroke="black" cx="2669" cy="-162" rx="47.38" ry="18"/>
<text text-anchor="middle" x="2669" y="-157.8" font-family="Times,serif" font-size="14.00">node_uuid</text>
</g>
<!-- peoplePicker&#45;&gt;node_uuid -->
<g id="edge14" class="edge">
<title>peoplePicker&#45;&gt;node_uuid</title>
<path fill="none" stroke="black" d="M2887.7,-221.92C2880.14,-219.95 2872.34,-217.91 2865,-216 2803.24,-199.93 2787.48,-197.12 2726,-180 2722.25,-178.95 2718.36,-177.85 2714.46,-176.72"/>
<polygon fill="black" stroke="black" points="2715.4,-173.35 2704.82,-173.9 2713.44,-180.07 2715.4,-173.35"/>
</g>
<!-- peoplePicker&#45;&gt;rdflib -->
<g id="edge15" class="edge">
<title>peoplePicker&#45;&gt;rdflib</title>
<path fill="none" stroke="black" d="M2917.46,-216.07C2899.85,-192.8 2868.15,-152.79 2852,-144 2708.05,-65.67 2186.17,-29.88 2038.3,-21.17"/>
<polygon fill="black" stroke="black" points="2038.49,-17.68 2028.31,-20.59 2038.09,-24.66 2038.49,-17.68"/>
</g>
<!-- dragAndDrop -->
<g id="node19" class="node">
<title>dragAndDrop</title>
<ellipse fill="none" stroke="black" cx="3031" cy="-162" rx="59.45" ry="18"/>
<text text-anchor="middle" x="3031" y="-157.8" font-family="Times,serif" font-size="14.00">dragAndDrop</text>
</g>
<!-- peoplePicker&#45;&gt;dragAndDrop -->
<g id="edge17" class="edge">
<title>peoplePicker&#45;&gt;dragAndDrop</title>
<path fill="none" stroke="black" d="M2952.42,-217.46C2966.31,-207.84 2984.36,-195.32 2999.66,-184.72"/>
<polygon fill="black" stroke="black" points="3002.07,-187.31 3008.3,-178.73 2998.09,-181.55 3002.07,-187.31"/>
</g>
<!-- peoplePicker&#45;&gt;error -->
<g id="edge18" class="edge">
<title>peoplePicker&#45;&gt;error</title>
<path fill="none" stroke="black" d="M2929.01,-215.7C2928.57,-207.98 2928.04,-198.71 2927.55,-190.11"/>
<polygon fill="black" stroke="black" points="2931.04,-189.89 2926.98,-180.1 2924.05,-190.29 2931.04,-189.89"/>
</g>
<!-- peoplePicker&#45;&gt;ns -->
<g id="edge20" class="edge">
<title>peoplePicker&#45;&gt;ns</title>
<path fill="none" stroke="black" d="M2889.27,-221.48C2881.27,-219.46 2872.9,-217.53 2865,-216 2739.64,-191.8 2703.35,-212.95 2580,-180 2539.97,-169.31 2534.2,-154.06 2494,-144 2301.16,-95.72 2060.99,-90.69 1970.13,-90.67"/>
<polygon fill="black" stroke="black" points="1970.05,-87.17 1960.06,-90.69 1970.06,-94.17 1970.05,-87.17"/>
</g>
<!-- dragAndDrop&#45;&gt;debug -->
<g id="edge23" class="edge">
<title>dragAndDrop&#45;&gt;debug</title>
<path fill="none" stroke="black" d="M2987.72,-149.57C2979.23,-147.55 2970.36,-145.58 2962,-144 2724.1,-98.97 2663.17,-93.48 2422,-72 2195.03,-51.79 1470.77,-26.54 1288.8,-20.39"/>
<polygon fill="black" stroke="black" points="1288.69,-16.89 1278.57,-20.05 1288.45,-23.88 1288.69,-16.89"/>
</g>
<!-- dragAndDrop&#45;&gt;index -->
<g id="edge151" class="edge">
<title>dragAndDrop&#45;&gt;index</title>
<path fill="none" stroke="black" d="M3038.28,-180.16C3040.88,-198.16 3040.64,-227.22 3037,-252 3035.65,-261.2 3033.29,-271.11 3030.38,-279.83"/>
<polygon fill="black" stroke="black" points="3027.02,-278.83 3026.75,-289.42 3033.57,-281.31 3027.02,-278.83"/>
</g>
<!-- mime_types -->
<g id="node39" class="node">
<title>mime_types</title>
<ellipse fill="none" stroke="black" cx="3031" cy="-90" rx="53.17" ry="18"/>
<text text-anchor="middle" x="3031" y="-85.8" font-family="Times,serif" font-size="14.00">mime_types</text>
</g>
<!-- dragAndDrop&#45;&gt;mime_types -->
<g id="edge150" class="edge">
<title>dragAndDrop&#45;&gt;mime_types</title>
<path fill="none" stroke="black" d="M3031,-143.7C3031,-135.98 3031,-126.71 3031,-118.11"/>
<polygon fill="black" stroke="black" points="3034.5,-118.1 3031,-108.1 3027.5,-118.1 3034.5,-118.1"/>
</g>
<!-- ns&#45;&gt;rdflib -->
<g id="edge37" class="edge">
<title>ns&#45;&gt;rdflib</title>
<path fill="none" stroke="black" d="M1947,-74.15C1956.01,-64.6 1967.89,-51.99 1978.02,-41.25"/>
<polygon fill="black" stroke="black" points="1980.71,-43.5 1985.02,-33.82 1975.62,-38.7 1980.71,-43.5"/>
</g>
<!-- solid_namespace -->
<g id="node30" class="node">
<title>solid_namespace</title>
<ellipse fill="none" stroke="black" cx="1881" cy="-18" rx="70.53" ry="18"/>
<text text-anchor="middle" x="1881" y="-13.8" font-family="Times,serif" font-size="14.00">solid_namespace</text>
</g>
<!-- ns&#45;&gt;solid_namespace -->
<g id="edge36" class="edge">
<title>ns&#45;&gt;solid_namespace</title>
<path fill="none" stroke="black" d="M1921.46,-73.46C1915.07,-64.87 1906.98,-53.97 1899.71,-44.19"/>
<polygon fill="black" stroke="black" points="1902.37,-41.9 1893.6,-35.96 1896.75,-46.08 1902.37,-41.9"/>
</g>
<!-- index&#45;&gt;debug -->
<g id="edge22" class="edge">
<title>index&#45;&gt;debug</title>
<path fill="none" stroke="black" d="M2984.64,-302.28C2940.86,-297.3 2856.79,-284.1 2793,-252 2770.74,-240.8 2772.47,-226.78 2750,-216 2676.44,-180.72 2648.33,-202.81 2570,-180 2527.45,-167.61 2421.46,-131.69 2384,-108 2364.34,-95.57 2367.4,-81.13 2346,-72 2296.53,-50.89 1483.41,-25.9 1288.67,-20.2"/>
<polygon fill="black" stroke="black" points="1288.65,-16.7 1278.56,-19.9 1288.45,-23.69 1288.65,-16.7"/>
</g>
<!-- index&#45;&gt;peoplePicker -->
<g id="edge145" class="edge">
<title>index&#45;&gt;peoplePicker</title>
<path fill="none" stroke="black" d="M2997,-290.83C2985.57,-281.31 2970.25,-268.54 2957.14,-257.62"/>
<polygon fill="black" stroke="black" points="2959.25,-254.82 2949.32,-251.1 2954.77,-260.19 2959.25,-254.82"/>
</g>
<!-- index&#45;&gt;dragAndDrop -->
<g id="edge146" class="edge">
<title>index&#45;&gt;dragAndDrop</title>
<path fill="none" stroke="black" d="M3011.71,-288.02C3013.62,-277.72 3017.2,-264.24 3019,-252 3022.02,-231.48 3022.7,-208.03 3023.95,-190.35"/>
<polygon fill="black" stroke="black" points="3027.46,-190.43 3024.84,-180.16 3020.49,-189.82 3027.46,-190.43"/>
</g>
<!-- index&#45;&gt;error -->
<g id="edge147" class="edge">
<title>index&#45;&gt;error</title>
<path fill="none" stroke="black" d="M3013.8,-287.96C3012.83,-269.02 3009,-238.18 2995,-216 2985.41,-200.81 2969.84,-188.29 2955.91,-179.24"/>
<polygon fill="black" stroke="black" points="2957.42,-176.07 2947.07,-173.81 2953.76,-182.03 2957.42,-176.07"/>
</g>
<!-- forms -->
<g id="node23" class="node">
<title>forms</title>
<ellipse fill="none" stroke="black" cx="3203" cy="-234" rx="30.98" ry="18"/>
<text text-anchor="middle" x="3203" y="-229.8" font-family="Times,serif" font-size="14.00">forms</text>
</g>
<!-- index&#45;&gt;forms -->
<g id="edge149" class="edge">
<title>index&#45;&gt;forms</title>
<path fill="none" stroke="black" d="M3038.71,-295.85C3071.78,-283.6 3130.6,-261.81 3168.16,-247.9"/>
<polygon fill="black" stroke="black" points="3169.52,-251.13 3177.68,-244.38 3167.09,-244.57 3169.52,-251.13"/>
</g>
<!-- acl -->
<g id="node37" class="node">
<title>acl</title>
<ellipse fill="none" stroke="black" cx="2829" cy="-234" rx="27" ry="18"/>
<text text-anchor="middle" x="2829" y="-229.8" font-family="Times,serif" font-size="14.00">acl</text>
</g>
<!-- index&#45;&gt;acl -->
<g id="edge144" class="edge">
<title>index&#45;&gt;acl</title>
<path fill="none" stroke="black" d="M2988.4,-296.76C2958.48,-286.92 2907.64,-269.6 2865,-252 2863.18,-251.25 2861.32,-250.45 2859.45,-249.63"/>
<polygon fill="black" stroke="black" points="2860.72,-246.37 2850.16,-245.42 2857.82,-252.74 2860.72,-246.37"/>
</g>
<!-- buttons -->
<g id="node38" class="node">
<title>buttons</title>
<ellipse fill="none" stroke="black" cx="3681" cy="-162" rx="36.3" ry="18"/>
<text text-anchor="middle" x="3681" y="-157.8" font-family="Times,serif" font-size="14.00">buttons</text>
</g>
<!-- index&#45;&gt;buttons -->
<g id="edge148" class="edge">
<title>index&#45;&gt;buttons</title>
<path fill="none" stroke="black" d="M3042.59,-300.55C3130.97,-286.49 3407.31,-240.42 3631,-180 3634.87,-178.95 3638.88,-177.77 3642.87,-176.52"/>
<polygon fill="black" stroke="black" points="3644.21,-179.77 3652.64,-173.35 3642.05,-173.11 3644.21,-179.77"/>
</g>
<!-- forms&#45;&gt;debug -->
<g id="edge26" class="edge">
<title>forms&#45;&gt;debug</title>
<path fill="none" stroke="black" d="M3208.13,-216.08C3212.8,-197.26 3217.29,-166.52 3205,-144 3176.64,-92.06 3149.54,-89.46 3093,-72 2955.79,-29.62 1944.55,-40.2 1801,-36 1609.52,-30.39 1380.82,-23.23 1288.59,-20.32"/>
<polygon fill="black" stroke="black" points="1288.65,-16.82 1278.54,-20 1288.43,-23.81 1288.65,-16.82"/>
</g>
<!-- forms&#45;&gt;store -->
<g id="edge155" class="edge">
<title>forms&#45;&gt;store</title>
<path fill="none" stroke="black" d="M3183.56,-219.97C3168.84,-209.77 3148.43,-194.85 3132,-180 3115.9,-165.44 3118.78,-152.94 3099,-144 3007.04,-102.45 1381.24,-131.05 1283,-108 1280.81,-107.49 1278.6,-106.83 1276.41,-106.07"/>
<polygon fill="black" stroke="black" points="1277.6,-102.78 1267.02,-102.27 1274.97,-109.27 1277.6,-102.78"/>
</g>
<!-- forms&#45;&gt;iconBase -->
<g id="edge152" class="edge">
<title>forms&#45;&gt;iconBase</title>
<path fill="none" stroke="black" d="M3172.72,-230.01C3132.26,-226.13 3058.31,-219.46 2995,-216 2414.31,-184.3 2267.99,-205.63 1687,-180 1607.3,-176.48 1514.96,-170.51 1458.78,-166.66"/>
<polygon fill="black" stroke="black" points="1458.94,-163.16 1448.72,-165.97 1458.46,-170.15 1458.94,-163.16"/>
</g>
<!-- forms&#45;&gt;rdflib -->
<g id="edge157" class="edge">
<title>forms&#45;&gt;rdflib</title>
<path fill="none" stroke="black" d="M3232.57,-228.82C3257.28,-225.34 3293.43,-220.28 3325,-216 3449.34,-199.14 3676.83,-241.63 3598,-144 3496.95,-18.85 2275.55,-17.78 2038.65,-18.76"/>
<polygon fill="black" stroke="black" points="2038.42,-15.27 2028.44,-18.81 2038.45,-22.27 2038.42,-15.27"/>
</g>
<!-- forms&#45;&gt;error -->
<g id="edge158" class="edge">
<title>forms&#45;&gt;error</title>
<path fill="none" stroke="black" d="M3173.64,-228.59C3127.86,-221.26 3037.02,-204.86 2963,-180 2960.88,-179.29 2958.71,-178.49 2956.55,-177.64"/>
<polygon fill="black" stroke="black" points="2957.78,-174.36 2947.21,-173.68 2955.05,-180.81 2957.78,-174.36"/>
</g>
<!-- forms&#45;&gt;ns -->
<g id="edge154" class="edge">
<title>forms&#45;&gt;ns</title>
<path fill="none" stroke="black" d="M3195.89,-216.29C3191.02,-195.52 3184.05,-160.78 3161,-144 3111.51,-107.97 2170.54,-94.1 1970.24,-91.48"/>
<polygon fill="black" stroke="black" points="1969.99,-87.97 1959.95,-91.34 1969.9,-94.97 1969.99,-87.97"/>
</g>
<!-- forms&#45;&gt;ns -->
<g id="edge160" class="edge">
<title>forms&#45;&gt;ns</title>
<path fill="none" stroke="black" d="M3208.34,-215.93C3208.93,-195.12 3201.92,-160.68 3179,-144 3129.09,-107.66 2172.32,-93.86 1970.23,-91.41"/>
<polygon fill="black" stroke="black" points="1970.16,-87.91 1960.12,-91.29 1970.08,-94.91 1970.16,-87.91"/>
</g>
<!-- fieldParams -->
<g id="node24" class="node">
<title>fieldParams</title>
<ellipse fill="none" stroke="black" cx="3330" cy="-162" rx="51.73" ry="18"/>
<text text-anchor="middle" x="3330" y="-157.8" font-family="Times,serif" font-size="14.00">fieldParams</text>
</g>
<!-- forms&#45;&gt;fieldParams -->
<g id="edge24" class="edge">
<title>forms&#45;&gt;fieldParams</title>
<path fill="none" stroke="black" d="M3224.54,-221.13C3243.7,-210.57 3272.08,-194.92 3294.57,-182.53"/>
<polygon fill="black" stroke="black" points="3296.43,-185.5 3303.5,-177.61 3293.05,-179.37 3296.43,-185.5"/>
</g>
<!-- fieldFunction -->
<g id="node25" class="node">
<title>fieldFunction</title>
<ellipse fill="none" stroke="black" cx="3457" cy="-162" rx="57.05" ry="18"/>
<text text-anchor="middle" x="3457" y="-157.8" font-family="Times,serif" font-size="14.00">fieldFunction</text>
</g>
<!-- forms&#45;&gt;fieldFunction -->
<g id="edge25" class="edge">
<title>forms&#45;&gt;fieldFunction</title>
<path fill="none" stroke="black" d="M3230.18,-225.51C3271.9,-214.01 3352.44,-191.81 3405.46,-177.2"/>
<polygon fill="black" stroke="black" points="3406.64,-180.51 3415.35,-174.48 3404.78,-173.76 3406.64,-180.51"/>
</g>
<!-- basic -->
<g id="node26" class="node">
<title>basic</title>
<ellipse fill="none" stroke="black" cx="3561" cy="-162" rx="28.06" ry="18"/>
<text text-anchor="middle" x="3561" y="-157.8" font-family="Times,serif" font-size="14.00">basic</text>
</g>
<!-- forms&#45;&gt;basic -->
<g id="edge27" class="edge">
<title>forms&#45;&gt;basic</title>
<path fill="none" stroke="black" d="M3233.59,-230.56C3291.23,-225.4 3419.47,-211.17 3523,-180 3525.28,-179.31 3527.6,-178.52 3529.91,-177.67"/>
<polygon fill="black" stroke="black" points="3531.31,-180.88 3539.26,-173.87 3528.68,-174.39 3531.31,-180.88"/>
</g>
<!-- forms&#45;&gt;utils -->
<g id="edge161" class="edge">
<title>forms&#45;&gt;utils</title>
<path fill="none" stroke="black" d="M3172.72,-229.96C3132.27,-226.02 3058.32,-219.28 2995,-216 2812.98,-206.57 1532.4,-221.83 1355,-180 1352.81,-179.48 1350.6,-178.83 1348.41,-178.07"/>
<polygon fill="black" stroke="black" points="1349.6,-174.78 1339.02,-174.26 1346.97,-181.26 1349.6,-174.78"/>
</g>
<!-- forms&#45;&gt;style -->
<g id="edge156" class="edge">
<title>forms&#45;&gt;style</title>
<path fill="none" stroke="black" d="M3172.5,-230.38C3045.89,-219.52 2561.9,-178 2423.92,-166.17"/>
<polygon fill="black" stroke="black" points="2424.11,-162.67 2413.85,-165.3 2423.52,-169.65 2424.11,-162.67"/>
</g>
<!-- forms&#45;&gt;log -->
<g id="edge153" class="edge">
<title>forms&#45;&gt;log</title>
<path fill="none" stroke="black" d="M3192.67,-217C3177.19,-193.63 3148.09,-152.04 3132,-144 3070.6,-113.33 1965.61,-110.01 1897,-108 1692.85,-102.02 1448.14,-94.81 1356.27,-92.1"/>
<polygon fill="black" stroke="black" points="1356.18,-88.6 1346.08,-91.8 1355.98,-95.59 1356.18,-88.6"/>
</g>
<!-- forms&#45;&gt;buttons -->
<g id="edge159" class="edge">
<title>forms&#45;&gt;buttons</title>
<path fill="none" stroke="black" d="M3233.47,-231.37C3304.12,-227.13 3484.31,-213.65 3631,-180 3635.12,-179.05 3639.38,-177.9 3643.6,-176.64"/>
<polygon fill="black" stroke="black" points="3644.8,-179.93 3653.26,-173.56 3642.67,-173.26 3644.8,-179.93"/>
</g>
<!-- utils&#45;&gt;store -->
<g id="edge136" class="edge">
<title>utils&#45;&gt;store</title>
<path fill="none" stroke="black" d="M1304.43,-146.83C1294.25,-136.94 1280.48,-123.55 1268.97,-112.36"/>
<polygon fill="black" stroke="black" points="1271.41,-109.85 1261.8,-105.38 1266.53,-114.87 1271.41,-109.85"/>
</g>
<!-- utils&#45;&gt;rdflib -->
<g id="edge135" class="edge">
<title>utils&#45;&gt;rdflib</title>
<path fill="none" stroke="black" d="M1335.1,-147.46C1360.56,-126.92 1412.55,-88.56 1464,-72 1674.82,-4.14 1746.23,-90.04 1961,-36 1963.31,-35.42 1965.65,-34.71 1967.98,-33.91"/>
<polygon fill="black" stroke="black" points="1969.33,-37.14 1977.36,-30.23 1966.77,-30.62 1969.33,-37.14"/>
</g>
<!-- utils&#45;&gt;ns -->
<g id="edge134" class="edge">
<title>utils&#45;&gt;ns</title>
<path fill="none" stroke="black" d="M1339.47,-149.83C1344.43,-147.55 1349.8,-145.42 1355,-144 1457.77,-115.96 1785.04,-98.09 1895.89,-92.71"/>
<polygon fill="black" stroke="black" points="1896.1,-96.2 1905.92,-92.23 1895.77,-89.21 1896.1,-96.2"/>
</g>
<!-- utils&#45;&gt;log -->
<g id="edge133" class="edge">
<title>utils&#45;&gt;log</title>
<path fill="none" stroke="black" d="M1319,-143.7C1319,-135.98 1319,-126.71 1319,-118.11"/>
<polygon fill="black" stroke="black" points="1322.5,-118.1 1319,-108.1 1315.5,-118.1 1322.5,-118.1"/>
</g>
<!-- thread -->
<g id="node33" class="node">
<title>thread</title>
<ellipse fill="none" stroke="black" cx="1974" cy="-234" rx="32.41" ry="18"/>
<text text-anchor="middle" x="1974" y="-229.8" font-family="Times,serif" font-size="14.00">thread</text>
</g>
<!-- thread&#45;&gt;store -->
<g id="edge68" class="edge">
<title>thread&#45;&gt;store</title>
<path fill="none" stroke="black" d="M1955.53,-219.1C1926.94,-198.47 1869.47,-160.41 1814,-144 1587.18,-76.89 1511.93,-167.54 1283,-108 1281.04,-107.49 1279.06,-106.88 1277.09,-106.19"/>
<polygon fill="black" stroke="black" points="1278.02,-102.79 1267.44,-102.26 1275.39,-109.27 1278.02,-102.79"/>
</g>
<!-- thread&#45;&gt;iconBase -->
<g id="edge65" class="edge">
<title>thread&#45;&gt;iconBase</title>
<path fill="none" stroke="black" d="M1942.71,-229.14C1849.39,-217.62 1572.42,-183.42 1457.67,-169.26"/>
<polygon fill="black" stroke="black" points="1457.77,-165.74 1447.41,-167.99 1456.91,-172.69 1457.77,-165.74"/>
</g>
<!-- thread&#45;&gt;rdflib -->
<g id="edge67" class="edge">
<title>thread&#45;&gt;rdflib</title>
<path fill="none" stroke="black" d="M1972.13,-215.85C1972.92,-178.66 1982.97,-90.37 1991.22,-45.77"/>
<polygon fill="black" stroke="black" points="1994.66,-46.42 1993.16,-35.94 1987.79,-45.07 1994.66,-46.42"/>
</g>
<!-- thread&#45;&gt;rdflib -->
<g id="edge72" class="edge">
<title>thread&#45;&gt;rdflib</title>
<path fill="none" stroke="black" d="M1979.8,-216.21C1987.69,-179.34 1998.28,-91.04 2000.5,-46.17"/>
<polygon fill="black" stroke="black" points="2004.01,-46.13 2000.88,-36.01 1997.01,-45.88 2004.01,-46.13"/>
</g>
<!-- thread&#45;&gt;ns -->
<g id="edge66" class="edge">
<title>thread&#45;&gt;ns</title>
<path fill="none" stroke="black" d="M1969.14,-216.15C1962.11,-191.81 1949.04,-146.57 1940.7,-117.67"/>
<polygon fill="black" stroke="black" points="1943.99,-116.46 1937.86,-107.82 1937.27,-118.4 1943.99,-116.46"/>
</g>
<!-- thread&#45;&gt;utils -->
<g id="edge71" class="edge">
<title>thread&#45;&gt;utils</title>
<path fill="none" stroke="black" d="M1942.11,-230.94C1823.54,-223.17 1411.95,-195.35 1355,-180 1353.05,-179.47 1351.07,-178.85 1349.1,-178.15"/>
<polygon fill="black" stroke="black" points="1350.04,-174.75 1339.46,-174.19 1347.38,-181.22 1350.04,-174.75"/>
</g>
<!-- thread&#45;&gt;widgets -->
<g id="edge70" class="edge">
<title>thread&#45;&gt;widgets</title>
<path fill="none" stroke="black" d="M1946,-224.83C1903.78,-212.52 1823.57,-189.13 1774.83,-174.91"/>
<polygon fill="black" stroke="black" points="1775.81,-171.55 1765.23,-172.11 1773.85,-178.27 1775.81,-171.55"/>
</g>
<!-- thread&#45;&gt;authn -->
<g id="edge64" class="edge">
<title>thread&#45;&gt;authn</title>
<path fill="none" stroke="black" d="M1992.62,-218.83C2006.26,-208.45 2024.96,-194.23 2040.07,-182.73"/>
<polygon fill="black" stroke="black" points="2042.2,-185.51 2048.04,-176.67 2037.96,-179.94 2042.2,-185.51"/>
</g>
<!-- thread&#45;&gt;style -->
<g id="edge69" class="edge">
<title>thread&#45;&gt;style</title>
<path fill="none" stroke="black" d="M2004.37,-227.85C2078.98,-215.21 2271,-182.66 2351.09,-169.09"/>
<polygon fill="black" stroke="black" points="2351.9,-172.5 2361.18,-167.38 2350.73,-165.6 2351.9,-172.5"/>
</g>
<!-- matrix -->
<g id="node34" class="node">
<title>matrix</title>
<ellipse fill="none" stroke="black" cx="1625" cy="-234" rx="33.38" ry="18"/>
<text text-anchor="middle" x="1625" y="-229.8" font-family="Times,serif" font-size="14.00">matrix</text>
</g>
<!-- matrix&#45;&gt;store -->
<g id="edge105" class="edge">
<title>matrix&#45;&gt;store</title>
<path fill="none" stroke="black" d="M1613.19,-217.06C1596.94,-196.45 1565.63,-161.16 1530,-144 1430.05,-95.87 1389.21,-140.04 1283,-108 1281.06,-107.42 1279.1,-106.74 1277.14,-106.01"/>
<polygon fill="black" stroke="black" points="1278.1,-102.62 1267.52,-101.97 1275.39,-109.07 1278.1,-102.62"/>
</g>
<!-- matrix&#45;&gt;iconBase -->
<g id="edge102" class="edge">
<title>matrix&#45;&gt;iconBase</title>
<path fill="none" stroke="black" d="M1598.23,-223.07C1591.64,-220.7 1584.58,-218.21 1578,-216 1534.96,-201.55 1485.36,-186.34 1450.7,-175.93"/>
<polygon fill="black" stroke="black" points="1451.48,-172.51 1440.89,-173 1449.47,-179.22 1451.48,-172.51"/>
</g>
<!-- matrix&#45;&gt;rdflib -->
<g id="edge104" class="edge">
<title>matrix&#45;&gt;rdflib</title>
<path fill="none" stroke="black" d="M1624.84,-215.66C1625.59,-195.87 1629.81,-163.7 1648,-144 1747.85,-35.9 1824.15,-90.1 1961,-36 1962.87,-35.26 1964.77,-34.49 1966.69,-33.69"/>
<polygon fill="black" stroke="black" points="1968.43,-36.75 1976.23,-29.58 1965.66,-30.32 1968.43,-36.75"/>
</g>
<!-- matrix&#45;&gt;ns -->
<g id="edge103" class="edge">
<title>matrix&#45;&gt;ns</title>
<path fill="none" stroke="black" d="M1631.94,-216.34C1641.32,-195.95 1660.04,-161.95 1687,-144 1751.34,-101.17 1844.24,-92.23 1895.5,-90.79"/>
<polygon fill="black" stroke="black" points="1895.85,-94.28 1905.78,-90.58 1895.71,-87.28 1895.85,-94.28"/>
</g>
<!-- matrix&#45;&gt;utils -->
<g id="edge107" class="edge">
<title>matrix&#45;&gt;utils</title>
<path fill="none" stroke="black" d="M1592.76,-229.29C1541.45,-222.82 1438.5,-207.44 1355,-180 1353.08,-179.37 1351.13,-178.66 1349.18,-177.9"/>
<polygon fill="black" stroke="black" points="1350.15,-174.51 1339.58,-173.79 1347.39,-180.94 1350.15,-174.51"/>
</g>
<!-- matrix&#45;&gt;widgets -->
<g id="edge106" class="edge">
<title>matrix&#45;&gt;widgets</title>
<path fill="none" stroke="black" d="M1645.5,-219.83C1662.01,-209.23 1685.43,-194.19 1704.04,-182.24"/>
<polygon fill="black" stroke="black" points="1705.95,-185.17 1712.47,-176.83 1702.17,-179.28 1705.95,-185.17"/>
</g>
<!-- messageArea -->
<g id="node40" class="node">
<title>messageArea</title>
<ellipse fill="none" stroke="black" cx="2271" cy="-234" rx="57.5" ry="18"/>
<text text-anchor="middle" x="2271" y="-229.8" font-family="Times,serif" font-size="14.00">messageArea</text>
</g>
<!-- messageArea&#45;&gt;store -->
<g id="edge166" class="edge">
<title>messageArea&#45;&gt;store</title>
<path fill="none" stroke="black" d="M2229.07,-221.64C2201.62,-212.96 2165.82,-199.2 2138,-180 2120.14,-167.67 2124.67,-153.17 2105,-144 1939.29,-66.73 1460.49,-151.9 1283,-108 1281.04,-107.51 1279.05,-106.92 1277.08,-106.24"/>
<polygon fill="black" stroke="black" points="1278,-102.84 1267.42,-102.35 1275.39,-109.33 1278,-102.84"/>
</g>
<!-- messageArea&#45;&gt;iconBase -->
<g id="edge163" class="edge">
<title>messageArea&#45;&gt;iconBase</title>
<path fill="none" stroke="black" d="M2216.3,-228.57C2059.65,-215.88 1610.85,-179.52 1458.4,-167.16"/>
<polygon fill="black" stroke="black" points="1458.61,-163.67 1448.36,-166.35 1458.05,-170.65 1458.61,-163.67"/>
</g>
<!-- messageArea&#45;&gt;rdflib -->
<g id="edge165" class="edge">
<title>messageArea&#45;&gt;rdflib</title>
<path fill="none" stroke="black" d="M2250.24,-216.99C2230.76,-198.44 2201.26,-167.43 2173,-144 2123.25,-102.74 2059.99,-61.81 2024.92,-38.54"/>
<polygon fill="black" stroke="black" points="2026.48,-35.37 2016.22,-32.73 2022.6,-41.19 2026.48,-35.37"/>
</g>
<!-- messageArea&#45;&gt;rdflib -->
<g id="edge169" class="edge">
<title>messageArea&#45;&gt;rdflib</title>
<path fill="none" stroke="black" d="M2262.37,-215.98C2247.7,-197.33 2218.75,-167.02 2191,-144 2138.22,-100.23 2070.24,-56.82 2030.76,-34.49"/>
<polygon fill="black" stroke="black" points="2032.28,-31.33 2021.84,-29.53 2028.89,-37.45 2032.28,-31.33"/>
</g>
<!-- messageArea&#45;&gt;ns -->
<g id="edge164" class="edge">
<title>messageArea&#45;&gt;ns</title>
<path fill="none" stroke="black" d="M2251.52,-216.85C2226.66,-197 2181.61,-163.55 2138,-144 2081.72,-118.77 2011.15,-103.85 1969.2,-96.56"/>
<polygon fill="black" stroke="black" points="1969.62,-93.08 1959.18,-94.87 1968.46,-99.98 1969.62,-93.08"/>
</g>
<!-- messageArea&#45;&gt;utils -->
<g id="edge170" class="edge">
<title>messageArea&#45;&gt;utils</title>
<path fill="none" stroke="black" d="M2215.83,-229.15C2163.99,-225.57 2084.25,-220.19 2015,-216 1868.38,-207.13 1497.4,-216.03 1355,-180 1352.82,-179.45 1350.62,-178.76 1348.43,-177.99"/>
<polygon fill="black" stroke="black" points="1349.63,-174.7 1339.05,-174.13 1346.97,-181.17 1349.63,-174.7"/>
</g>
<!-- messageArea&#45;&gt;widgets -->
<g id="edge168" class="edge">
<title>messageArea&#45;&gt;widgets</title>
<path fill="none" stroke="black" d="M2219.02,-226.22C2114.28,-212.57 1879.39,-181.95 1779.91,-168.98"/>
<polygon fill="black" stroke="black" points="1780.24,-165.5 1769.87,-167.68 1779.33,-172.44 1780.24,-165.5"/>
</g>
<!-- messageArea&#45;&gt;authn -->
<g id="edge162" class="edge">
<title>messageArea&#45;&gt;authn</title>
<path fill="none" stroke="black" d="M2231.77,-220.7C2199.05,-210.29 2151.29,-194.76 2110,-180 2106.66,-178.81 2103.19,-177.53 2099.73,-176.23"/>
<polygon fill="black" stroke="black" points="2100.72,-172.86 2090.12,-172.57 2098.22,-179.4 2100.72,-172.86"/>
</g>
<!-- messageArea&#45;&gt;style -->
<g id="edge167" class="edge">
<title>messageArea&#45;&gt;style</title>
<path fill="none" stroke="black" d="M2296.17,-217.81C2314.69,-206.63 2339.88,-191.44 2359.03,-179.88"/>
<polygon fill="black" stroke="black" points="2360.87,-182.86 2367.62,-174.69 2357.25,-176.86 2360.87,-182.86"/>
</g>
</g>
</svg>
